%TF.GenerationSoftware,KiCad,Pcbnew,9.0.6*%
%TF.CreationDate,2026-08-09T07:51:20+08:00*%
%TF.ProjectId,MQTT-Module-CurrentSensors,4d515454-2d4d-46f6-9475-6c652d437572,rev?*%
%TF.SameCoordinates,Original*%
%TF.FileFunction,Copper,L4,Bot*%
%TF.FilePolarity,Positive*%
%FSLAX45Y45*%
G04 Gerber Fmt 4.5, Leading zero omitted, Abs format (unit mm)*
G04 Created by KiCad (PCBNEW 9.0.6) date 2026-08-09 07:51:20*
%MOMM*%
%LPD*%
G01*
G04 APERTURE LIST*
%TA.AperFunction,ComponentPad*%
%ADD10R,1.950000X1.950000*%
%TD*%
%TA.AperFunction,ComponentPad*%
%ADD11C,1.950000*%
%TD*%
%TA.AperFunction,ComponentPad*%
%ADD12R,1.700000X1.700000*%
%TD*%
%TA.AperFunction,ComponentPad*%
%ADD13C,1.700000*%
%TD*%
%TA.AperFunction,ViaPad*%
%ADD14C,0.600000*%
%TD*%
%TA.AperFunction,Conductor*%
%ADD15C,0.250000*%
%TD*%
%TA.AperFunction,Conductor*%
%ADD16C,0.400000*%
%TD*%
%TA.AperFunction,Conductor*%
%ADD17C,0.300000*%
%TD*%
G04 APERTURE END LIST*
D10*
%TO.P,J304,1,1*%
%TO.N,GND*%
X13207860Y-11857500D03*
D11*
%TO.P,J304,2,2*%
%TO.N,/SensorRecievers/Sensor1*%
X13715860Y-11857500D03*
%TO.P,J304,3,3*%
%TO.N,/SensorRecievers/Sensor2*%
X14223860Y-11857500D03*
%TO.P,J304,4,4*%
%TO.N,/SensorRecievers/Sensor3*%
X14731860Y-11857500D03*
%TD*%
D12*
%TO.P,J303,1,Pin_1*%
%TO.N,/Controller/MISO*%
X14082500Y-8095000D03*
D13*
%TO.P,J303,2,Pin_2*%
%TO.N,+3V3*%
X14336500Y-8095000D03*
%TO.P,J303,3,Pin_3*%
%TO.N,/Controller/SCK*%
X14082500Y-8349000D03*
%TO.P,J303,4,Pin_4*%
%TO.N,/Controller/MOSI*%
X14336500Y-8349000D03*
%TO.P,J303,5,Pin_5*%
%TO.N,/Controller/RESET*%
X14082500Y-8603000D03*
%TO.P,J303,6,Pin_6*%
%TO.N,GND*%
X14336500Y-8603000D03*
%TD*%
D12*
%TO.P,J301,1,Pin_1*%
%TO.N,+12V*%
X12000000Y-11006000D03*
D13*
%TO.P,J301,2,Pin_2*%
X12000000Y-10752000D03*
%TO.P,J301,3,Pin_3*%
%TO.N,/Headers/+5V_1*%
X12000000Y-10498000D03*
%TO.P,J301,4,Pin_4*%
%TO.N,/Headers/+3V3_1*%
X12000000Y-10244000D03*
%TO.P,J301,5,Pin_5*%
%TO.N,GND*%
X12000000Y-9990000D03*
%TO.P,J301,6,Pin_6*%
X12000000Y-9736000D03*
%TO.P,J301,7,Pin_7*%
%TO.N,/Headers/CS*%
X12000000Y-9482000D03*
%TO.P,J301,8,Pin_8*%
%TO.N,unconnected-(J301-Pin_8-Pad8)*%
X12000000Y-9228000D03*
%TO.P,J301,9,Pin_9*%
%TO.N,unconnected-(J301-Pin_9-Pad9)*%
X12000000Y-8974000D03*
%TO.P,J301,10,Pin_10*%
%TO.N,unconnected-(J301-Pin_10-Pad10)*%
X12000000Y-8720000D03*
%TD*%
D12*
%TO.P,J302,1,Pin_1*%
%TO.N,/Headers/+12V_3*%
X16000000Y-11006000D03*
D13*
%TO.P,J302,2,Pin_2*%
%TO.N,/Headers/+12V_4*%
X16000000Y-10752000D03*
%TO.P,J302,3,Pin_3*%
%TO.N,/Headers/+5V_2*%
X16000000Y-10498000D03*
%TO.P,J302,4,Pin_4*%
%TO.N,+3V3*%
X16000000Y-10244000D03*
%TO.P,J302,5,Pin_5*%
%TO.N,GND*%
X16000000Y-9990000D03*
%TO.P,J302,6,Pin_6*%
X16000000Y-9736000D03*
%TO.P,J302,7,Pin_7*%
%TO.N,/Controller/MOD*%
X16000000Y-9482000D03*
%TO.P,J302,8,Pin_8*%
%TO.N,/Controller/SNS*%
X16000000Y-9228000D03*
%TO.P,J302,9,Pin_9*%
%TO.N,/Controller/SDA0*%
X16000000Y-8974000D03*
%TO.P,J302,10,Pin_10*%
%TO.N,/Controller/SCL0*%
X16000000Y-8720000D03*
%TD*%
D14*
%TO.N,GND*%
X14380000Y-9780000D03*
X14110000Y-7065000D03*
X12505890Y-10872500D03*
X15480000Y-8710000D03*
X14710000Y-8650000D03*
X14830000Y-9472500D03*
X15550000Y-7495000D03*
X15540000Y-9780000D03*
X15010000Y-7385000D03*
X14710000Y-7578750D03*
X12870000Y-8660000D03*
X12440000Y-7150000D03*
X13820000Y-9633500D03*
X12930000Y-7180000D03*
X13255680Y-10890000D03*
X14450000Y-6895000D03*
X15190000Y-8305000D03*
X14983500Y-9630000D03*
X12640000Y-8660000D03*
X14825890Y-10892500D03*
X12630000Y-9647500D03*
X12530000Y-8360000D03*
X12880000Y-7090000D03*
X14580000Y-8780200D03*
X12500000Y-7060000D03*
X12560000Y-7150000D03*
X14280000Y-7645000D03*
X13000000Y-8360000D03*
X15760000Y-7510000D03*
X13630000Y-10890000D03*
X12870000Y-8110000D03*
X12400000Y-8110000D03*
X12455890Y-9472500D03*
X15620000Y-10890000D03*
X14280000Y-7425000D03*
X14450000Y-10892500D03*
X13660000Y-9472500D03*
X15010000Y-7295000D03*
X13030000Y-7930000D03*
X12980000Y-7090000D03*
X13180000Y-9771000D03*
X15260000Y-7485000D03*
X12770000Y-8360000D03*
X12640000Y-8110000D03*
%TO.N,/Controller/MOD*%
X15560000Y-7818750D03*
%TO.N,/Controller/SNS*%
X15560000Y-7738750D03*
%TO.N,+3V3*%
X14380000Y-9460000D03*
X14400000Y-7425000D03*
X15540000Y-8170000D03*
X14750000Y-8170000D03*
X14750000Y-7425000D03*
X15340000Y-8710000D03*
X15370000Y-8480000D03*
X15650000Y-7510000D03*
X15540000Y-9460000D03*
X13180000Y-9451000D03*
X15250000Y-7785000D03*
%TO.N,/Controller/RESET*%
X15040000Y-7795000D03*
%TO.N,/Controller/MISO*%
X14510000Y-6975000D03*
%TO.N,+12V*%
X13670000Y-7030000D03*
X13420000Y-7030000D03*
X13490000Y-7150000D03*
X13480000Y-6920000D03*
X13610000Y-7150000D03*
X13350000Y-6920000D03*
X13600000Y-6920000D03*
X13740000Y-7150000D03*
X13730000Y-6920000D03*
X13540000Y-7030000D03*
X13360000Y-7150000D03*
%TO.N,+25V*%
X13440000Y-8810000D03*
X12500000Y-7650000D03*
X13970000Y-11232500D03*
X13440000Y-11170000D03*
X15130000Y-11230000D03*
X12740000Y-11236610D03*
%TO.N,/Controller/MOSI*%
X14910000Y-7295000D03*
%TO.N,/Controller/SCK*%
X14140000Y-7165000D03*
%TO.N,/AnalogDigitalConverter/Sens1*%
X12740000Y-9180000D03*
X14580000Y-8890000D03*
%TO.N,/AnalogDigitalConverter/Sens2*%
X14710000Y-8970000D03*
X13975000Y-9195000D03*
%TO.N,/Controller/SDA0*%
X15260000Y-7385000D03*
%TO.N,/Controller/SCL0*%
X15110000Y-7405000D03*
%TD*%
D15*
%TO.N,/Controller/MOD*%
X15620000Y-9100000D02*
X15801750Y-9281750D01*
X15670000Y-8440000D02*
X15620000Y-8490000D01*
X15670000Y-7928750D02*
X15670000Y-8440000D01*
X15801750Y-9283750D02*
X16000000Y-9482000D01*
X15620000Y-8490000D02*
X15620000Y-9100000D01*
X15560000Y-7818750D02*
X15670000Y-7928750D01*
X15801750Y-9281750D02*
X15801750Y-9283750D01*
%TO.N,/Controller/SNS*%
X15560000Y-7738750D02*
X15618750Y-7738750D01*
X15700000Y-8540000D02*
X15700000Y-8928000D01*
X15618750Y-7738750D02*
X15760000Y-7880000D01*
X15760000Y-8480000D02*
X15700000Y-8540000D01*
X15700000Y-8928000D02*
X16000000Y-9228000D01*
X15760000Y-7880000D02*
X15760000Y-8480000D01*
D16*
%TO.N,+3V3*%
X14715000Y-7425000D02*
X14336500Y-7803500D01*
X15590000Y-7620000D02*
X15410000Y-7620000D01*
X14750000Y-7425000D02*
X14400000Y-7425000D01*
X15250000Y-7880000D02*
X15540000Y-8170000D01*
X14750000Y-7425000D02*
X14715000Y-7425000D01*
X15650000Y-7510000D02*
X15650000Y-7560000D01*
X14750000Y-8170000D02*
X15520000Y-8170000D01*
X15250000Y-7780000D02*
X15250000Y-7785000D01*
X14336500Y-7803500D02*
X14336500Y-8095000D01*
X15650000Y-7560000D02*
X15590000Y-7620000D01*
X15410000Y-7620000D02*
X15250000Y-7780000D01*
X15250000Y-7785000D02*
X15250000Y-7880000D01*
D15*
%TO.N,/Controller/RESET*%
X14660000Y-7990000D02*
X14660000Y-8550000D01*
X14855000Y-7795000D02*
X14660000Y-7990000D01*
X14082500Y-8652500D02*
X14082500Y-8603000D01*
X14200000Y-8770000D02*
X14082500Y-8652500D01*
X14440000Y-8770000D02*
X14200000Y-8770000D01*
X14660000Y-8550000D02*
X14440000Y-8770000D01*
X15040000Y-7795000D02*
X14855000Y-7795000D01*
%TO.N,/Controller/MISO*%
X14082500Y-7402500D02*
X14082500Y-8095000D01*
X14510000Y-6975000D02*
X14082500Y-7402500D01*
%TO.N,+25V*%
X13440000Y-8810000D02*
X13440000Y-8000000D01*
D17*
X15070000Y-11170000D02*
X13970000Y-11170000D01*
X12800000Y-11170000D02*
X12740000Y-11230000D01*
X13440000Y-11170000D02*
X12800000Y-11170000D01*
X13970000Y-11170000D02*
X13440000Y-11170000D01*
X13970000Y-11170000D02*
X13970000Y-11232500D01*
D15*
X13440000Y-8000000D02*
X13090000Y-7650000D01*
D17*
X12740000Y-11230000D02*
X12740000Y-11236610D01*
D15*
X13090000Y-7650000D02*
X12500000Y-7650000D01*
D17*
X15130000Y-11230000D02*
X15070000Y-11170000D01*
D15*
%TO.N,/Controller/MOSI*%
X14910000Y-7295000D02*
X14910000Y-7610000D01*
X14411000Y-8349000D02*
X14336500Y-8349000D01*
X14570000Y-8190000D02*
X14411000Y-8349000D01*
X14570000Y-7950000D02*
X14570000Y-8190000D01*
X14910000Y-7610000D02*
X14570000Y-7950000D01*
%TO.N,/Controller/SCK*%
X14140000Y-7165000D02*
X13900000Y-7405000D01*
X14050750Y-8349000D02*
X14082500Y-8349000D01*
X13900000Y-7405000D02*
X13900000Y-8198250D01*
X13900000Y-8198250D02*
X14050750Y-8349000D01*
%TO.N,/AnalogDigitalConverter/Sens1*%
X13830000Y-9180000D02*
X14130000Y-8880000D01*
X14130000Y-8880000D02*
X14570000Y-8880000D01*
X14570000Y-8880000D02*
X14580000Y-8890000D01*
X12740000Y-9180000D02*
X13830000Y-9180000D01*
%TO.N,/AnalogDigitalConverter/Sens2*%
X14200000Y-8970000D02*
X14710000Y-8970000D01*
X13975000Y-9195000D02*
X14200000Y-8970000D01*
%TO.N,/Controller/SDA0*%
X15810000Y-8595000D02*
X15870000Y-8535000D01*
X16000000Y-8974000D02*
X15810000Y-8784000D01*
X15785000Y-7385000D02*
X15260000Y-7385000D01*
X15810000Y-8784000D02*
X15810000Y-8595000D01*
X15870000Y-7470000D02*
X15785000Y-7385000D01*
X15870000Y-8535000D02*
X15870000Y-7470000D01*
%TO.N,/Controller/SCL0*%
X15110000Y-7405000D02*
X15110000Y-7380000D01*
X15980000Y-8700000D02*
X16000000Y-8720000D01*
X15980000Y-7420000D02*
X15980000Y-8700000D01*
X15110000Y-7380000D02*
X15210000Y-7280000D01*
X15840000Y-7280000D02*
X15980000Y-7420000D01*
X15210000Y-7280000D02*
X15840000Y-7280000D01*
%TD*%
%TA.AperFunction,Conductor*%
%TO.N,+12V*%
G36*
X13794304Y-6852018D02*
G01*
X13798879Y-6857299D01*
X13800000Y-6862450D01*
X13800000Y-7537600D01*
X13798031Y-7544304D01*
X13792751Y-7548879D01*
X13787600Y-7550000D01*
X12390000Y-7550000D01*
X12390000Y-8030390D01*
X12388031Y-8037094D01*
X12382751Y-8041670D01*
X12380020Y-8042552D01*
X12379568Y-8042642D01*
X12379567Y-8042642D01*
X12366819Y-8047922D01*
X12366818Y-8047923D01*
X12355346Y-8055588D01*
X12355345Y-8055589D01*
X12345589Y-8065345D01*
X12345588Y-8065346D01*
X12337923Y-8076818D01*
X12337922Y-8076819D01*
X12332642Y-8089567D01*
X12332642Y-8089568D01*
X12329950Y-8103100D01*
X12329950Y-8103101D01*
X12329950Y-8116899D01*
X12329950Y-8116899D01*
X12329950Y-8116899D01*
X12332642Y-8130432D01*
X12332642Y-8130433D01*
X12337922Y-8143180D01*
X12337923Y-8143182D01*
X12345588Y-8154654D01*
X12345589Y-8154654D01*
X12355345Y-8164411D01*
X12355346Y-8164411D01*
X12366818Y-8172077D01*
X12366819Y-8172078D01*
X12379567Y-8177358D01*
X12379567Y-8177358D01*
X12380019Y-8177448D01*
X12386210Y-8180686D01*
X12389667Y-8186757D01*
X12390000Y-8189610D01*
X12390000Y-8330000D01*
X12526932Y-8486494D01*
X12529865Y-8492835D01*
X12530000Y-8494659D01*
X12530000Y-9417608D01*
X12528031Y-9424312D01*
X12522751Y-9428888D01*
X12515835Y-9429882D01*
X12509480Y-9426979D01*
X12508832Y-9426376D01*
X12500544Y-9418089D01*
X12500544Y-9418089D01*
X12489072Y-9410423D01*
X12489070Y-9410422D01*
X12476323Y-9405142D01*
X12476322Y-9405142D01*
X12462789Y-9402450D01*
X12462789Y-9402450D01*
X12448991Y-9402450D01*
X12448990Y-9402450D01*
X12435458Y-9405142D01*
X12435457Y-9405142D01*
X12422709Y-9410422D01*
X12422708Y-9410423D01*
X12411236Y-9418089D01*
X12411235Y-9418089D01*
X12401479Y-9427845D01*
X12401478Y-9427846D01*
X12393813Y-9439318D01*
X12393812Y-9439320D01*
X12388532Y-9452067D01*
X12388532Y-9452068D01*
X12385840Y-9465600D01*
X12385840Y-9465601D01*
X12385840Y-9479399D01*
X12385840Y-9479400D01*
X12385840Y-9479400D01*
X12388532Y-9492932D01*
X12388532Y-9492933D01*
X12393812Y-9505680D01*
X12393813Y-9505682D01*
X12401478Y-9517154D01*
X12401479Y-9517155D01*
X12411235Y-9526911D01*
X12411236Y-9526911D01*
X12422708Y-9534577D01*
X12422709Y-9534578D01*
X12435457Y-9539858D01*
X12435457Y-9539858D01*
X12435458Y-9539858D01*
X12435458Y-9539858D01*
X12448990Y-9542550D01*
X12448991Y-9542550D01*
X12462789Y-9542550D01*
X12471894Y-9540739D01*
X12476323Y-9539858D01*
X12489071Y-9534578D01*
X12500544Y-9526911D01*
X12500948Y-9526507D01*
X12508832Y-9518624D01*
X12514964Y-9515275D01*
X12521933Y-9515774D01*
X12527527Y-9519961D01*
X12529968Y-9526507D01*
X12530000Y-9527392D01*
X12530000Y-10790764D01*
X12528031Y-10797468D01*
X12522751Y-10802043D01*
X12515835Y-10803038D01*
X12515181Y-10802926D01*
X12512789Y-10802450D01*
X12512789Y-10802450D01*
X12498991Y-10802450D01*
X12498990Y-10802450D01*
X12485458Y-10805142D01*
X12485457Y-10805142D01*
X12472709Y-10810422D01*
X12472708Y-10810423D01*
X12461236Y-10818089D01*
X12461235Y-10818089D01*
X12451479Y-10827845D01*
X12451478Y-10827846D01*
X12443813Y-10839318D01*
X12443812Y-10839320D01*
X12438532Y-10852067D01*
X12438532Y-10852068D01*
X12435840Y-10865600D01*
X12435840Y-10865601D01*
X12435840Y-10879399D01*
X12435840Y-10879400D01*
X12435840Y-10879400D01*
X12438532Y-10892932D01*
X12438532Y-10892933D01*
X12443812Y-10905680D01*
X12443813Y-10905682D01*
X12451478Y-10917154D01*
X12451479Y-10917155D01*
X12461235Y-10926911D01*
X12461236Y-10926911D01*
X12472708Y-10934577D01*
X12472709Y-10934578D01*
X12485457Y-10939858D01*
X12485457Y-10939858D01*
X12485458Y-10939858D01*
X12485458Y-10939858D01*
X12498990Y-10942550D01*
X12498991Y-10942550D01*
X12512789Y-10942550D01*
X12514061Y-10942297D01*
X12515181Y-10942074D01*
X12522140Y-10942697D01*
X12527658Y-10946983D01*
X12529982Y-10953572D01*
X12530000Y-10954236D01*
X12530000Y-11187600D01*
X12528031Y-11194304D01*
X12522751Y-11198879D01*
X12517600Y-11200000D01*
X11872400Y-11200000D01*
X11865696Y-11198031D01*
X11861121Y-11192751D01*
X11860000Y-11187600D01*
X11860000Y-10672400D01*
X11861968Y-10665696D01*
X11867249Y-10661121D01*
X11872400Y-10660000D01*
X12190000Y-10660000D01*
X12190000Y-8520000D01*
X11872400Y-8520000D01*
X11865696Y-8518032D01*
X11861121Y-8512751D01*
X11860000Y-8507600D01*
X11860000Y-7156899D01*
X12369950Y-7156899D01*
X12372642Y-7170432D01*
X12372642Y-7170433D01*
X12377922Y-7183180D01*
X12377923Y-7183182D01*
X12385588Y-7194654D01*
X12385589Y-7194654D01*
X12395345Y-7204411D01*
X12395346Y-7204411D01*
X12406818Y-7212077D01*
X12406819Y-7212078D01*
X12419567Y-7217358D01*
X12419567Y-7217358D01*
X12419568Y-7217358D01*
X12419568Y-7217358D01*
X12433100Y-7220050D01*
X12433101Y-7220050D01*
X12446899Y-7220050D01*
X12456004Y-7218239D01*
X12460433Y-7217358D01*
X12473181Y-7212077D01*
X12484654Y-7204411D01*
X12484654Y-7204411D01*
X12491232Y-7197834D01*
X12497364Y-7194485D01*
X12504333Y-7194984D01*
X12508768Y-7197834D01*
X12515345Y-7204411D01*
X12515346Y-7204411D01*
X12526818Y-7212077D01*
X12526819Y-7212078D01*
X12539567Y-7217358D01*
X12539567Y-7217358D01*
X12539568Y-7217358D01*
X12539568Y-7217358D01*
X12553100Y-7220050D01*
X12553101Y-7220050D01*
X12566899Y-7220050D01*
X12576004Y-7218239D01*
X12580433Y-7217358D01*
X12593181Y-7212077D01*
X12604654Y-7204411D01*
X12614411Y-7194654D01*
X12622077Y-7183181D01*
X12627358Y-7170433D01*
X12629519Y-7159567D01*
X12630050Y-7156899D01*
X12630050Y-7143100D01*
X12627358Y-7129568D01*
X12627358Y-7129568D01*
X12627358Y-7129567D01*
X12627358Y-7129567D01*
X12622078Y-7116819D01*
X12622077Y-7116818D01*
X12614411Y-7105346D01*
X12614411Y-7105345D01*
X12605965Y-7096899D01*
X12809950Y-7096899D01*
X12812642Y-7110432D01*
X12812642Y-7110433D01*
X12817922Y-7123180D01*
X12817923Y-7123182D01*
X12825588Y-7134654D01*
X12825589Y-7134654D01*
X12835345Y-7144411D01*
X12835346Y-7144411D01*
X12846818Y-7152077D01*
X12846819Y-7152078D01*
X12853412Y-7154808D01*
X12858852Y-7159193D01*
X12861059Y-7165822D01*
X12860828Y-7168684D01*
X12859950Y-7173100D01*
X12859950Y-7173101D01*
X12859950Y-7186899D01*
X12859950Y-7186899D01*
X12859950Y-7186899D01*
X12862642Y-7200432D01*
X12862642Y-7200433D01*
X12867922Y-7213180D01*
X12867923Y-7213182D01*
X12875588Y-7224654D01*
X12875589Y-7224654D01*
X12885345Y-7234411D01*
X12885346Y-7234411D01*
X12896818Y-7242077D01*
X12896819Y-7242078D01*
X12909567Y-7247358D01*
X12909567Y-7247358D01*
X12909568Y-7247358D01*
X12909568Y-7247358D01*
X12923100Y-7250050D01*
X12923101Y-7250050D01*
X12936899Y-7250050D01*
X12946004Y-7248239D01*
X12950433Y-7247358D01*
X12963181Y-7242077D01*
X12974654Y-7234411D01*
X12984411Y-7224654D01*
X12992077Y-7213181D01*
X12997358Y-7200433D01*
X13000050Y-7186899D01*
X13000050Y-7173101D01*
X13000050Y-7173100D01*
X12999171Y-7168684D01*
X12999794Y-7161725D01*
X13004080Y-7156207D01*
X13006587Y-7154809D01*
X13013181Y-7152077D01*
X13024654Y-7144411D01*
X13034411Y-7134654D01*
X13042077Y-7123181D01*
X13047358Y-7110433D01*
X13050050Y-7096899D01*
X13050050Y-7083101D01*
X13050050Y-7083100D01*
X13047358Y-7069568D01*
X13047358Y-7069568D01*
X13047358Y-7069567D01*
X13046253Y-7066899D01*
X13042078Y-7056819D01*
X13042077Y-7056818D01*
X13034411Y-7045346D01*
X13034411Y-7045345D01*
X13024654Y-7035589D01*
X13024654Y-7035588D01*
X13013182Y-7027923D01*
X13013180Y-7027922D01*
X13000433Y-7022642D01*
X13000432Y-7022642D01*
X12986899Y-7019950D01*
X12986899Y-7019950D01*
X12973101Y-7019950D01*
X12973100Y-7019950D01*
X12959568Y-7022642D01*
X12959567Y-7022642D01*
X12946819Y-7027922D01*
X12946818Y-7027923D01*
X12936889Y-7034557D01*
X12930221Y-7036645D01*
X12923483Y-7034797D01*
X12923111Y-7034557D01*
X12913182Y-7027923D01*
X12913180Y-7027922D01*
X12900433Y-7022642D01*
X12900432Y-7022642D01*
X12886899Y-7019950D01*
X12886899Y-7019950D01*
X12873101Y-7019950D01*
X12873100Y-7019950D01*
X12859568Y-7022642D01*
X12859567Y-7022642D01*
X12846819Y-7027922D01*
X12846818Y-7027923D01*
X12835346Y-7035588D01*
X12835345Y-7035589D01*
X12825589Y-7045345D01*
X12825588Y-7045346D01*
X12817923Y-7056818D01*
X12817922Y-7056819D01*
X12812642Y-7069567D01*
X12812642Y-7069568D01*
X12809950Y-7083100D01*
X12809950Y-7083101D01*
X12809950Y-7096899D01*
X12809950Y-7096899D01*
X12809950Y-7096899D01*
X12605965Y-7096899D01*
X12604654Y-7095589D01*
X12604654Y-7095588D01*
X12600483Y-7092802D01*
X12593182Y-7087923D01*
X12593180Y-7087922D01*
X12580433Y-7082642D01*
X12580433Y-7082642D01*
X12579594Y-7082475D01*
X12573403Y-7079236D01*
X12569946Y-7073165D01*
X12569852Y-7067894D01*
X12570050Y-7066899D01*
X12570050Y-7053100D01*
X12567358Y-7039568D01*
X12567358Y-7039568D01*
X12567358Y-7039567D01*
X12565382Y-7034797D01*
X12562078Y-7026819D01*
X12562077Y-7026818D01*
X12554411Y-7015346D01*
X12554411Y-7015345D01*
X12544654Y-7005589D01*
X12544654Y-7005588D01*
X12533182Y-6997923D01*
X12533180Y-6997922D01*
X12520433Y-6992642D01*
X12520432Y-6992642D01*
X12506899Y-6989950D01*
X12506899Y-6989950D01*
X12493101Y-6989950D01*
X12493100Y-6989950D01*
X12479568Y-6992642D01*
X12479567Y-6992642D01*
X12466819Y-6997922D01*
X12466818Y-6997923D01*
X12455346Y-7005588D01*
X12455345Y-7005589D01*
X12445589Y-7015345D01*
X12445588Y-7015346D01*
X12437923Y-7026818D01*
X12437922Y-7026819D01*
X12432642Y-7039567D01*
X12432642Y-7039568D01*
X12429950Y-7053100D01*
X12429950Y-7066899D01*
X12430148Y-7067895D01*
X12429525Y-7074854D01*
X12425238Y-7080372D01*
X12420406Y-7082475D01*
X12419568Y-7082642D01*
X12419567Y-7082642D01*
X12406819Y-7087922D01*
X12406818Y-7087923D01*
X12395346Y-7095588D01*
X12395345Y-7095589D01*
X12385589Y-7105345D01*
X12385588Y-7105346D01*
X12377923Y-7116818D01*
X12377922Y-7116819D01*
X12372642Y-7129567D01*
X12372642Y-7129568D01*
X12369950Y-7143100D01*
X12369950Y-7143101D01*
X12369950Y-7156899D01*
X12369950Y-7156899D01*
X12369950Y-7156899D01*
X11860000Y-7156899D01*
X11860000Y-6862450D01*
X11861968Y-6855746D01*
X11867249Y-6851171D01*
X11872400Y-6850050D01*
X13787600Y-6850050D01*
X13794304Y-6852018D01*
G37*
%TD.AperFunction*%
%TD*%
%TA.AperFunction,Conductor*%
%TO.N,+3V3*%
G36*
X15564168Y-8142044D02*
G01*
X15568812Y-8147265D01*
X15570000Y-8152562D01*
X15570000Y-8374192D01*
X15568031Y-8380896D01*
X15565538Y-8383718D01*
X15510000Y-8430000D01*
X15510000Y-8629436D01*
X15508031Y-8636139D01*
X15502751Y-8640715D01*
X15495835Y-8641709D01*
X15495181Y-8641597D01*
X15486900Y-8639950D01*
X15486899Y-8639950D01*
X15473101Y-8639950D01*
X15473100Y-8639950D01*
X15459568Y-8642642D01*
X15459567Y-8642642D01*
X15446819Y-8647922D01*
X15446818Y-8647923D01*
X15435346Y-8655589D01*
X15435345Y-8655589D01*
X15425589Y-8665345D01*
X15425588Y-8665346D01*
X15417923Y-8676818D01*
X15417922Y-8676820D01*
X15412642Y-8689567D01*
X15412642Y-8689568D01*
X15409950Y-8703100D01*
X15409950Y-8703101D01*
X15409950Y-8716899D01*
X15409950Y-8716900D01*
X15409950Y-8716900D01*
X15412642Y-8730432D01*
X15412642Y-8730433D01*
X15417922Y-8743180D01*
X15417923Y-8743182D01*
X15425588Y-8754654D01*
X15425589Y-8754655D01*
X15435345Y-8764411D01*
X15435346Y-8764411D01*
X15446818Y-8772077D01*
X15446819Y-8772078D01*
X15458266Y-8776819D01*
X15459567Y-8777358D01*
X15459568Y-8777358D01*
X15459568Y-8777358D01*
X15473100Y-8780050D01*
X15473101Y-8780050D01*
X15486899Y-8780050D01*
X15495181Y-8778403D01*
X15502140Y-8779025D01*
X15507658Y-8783312D01*
X15509982Y-8789901D01*
X15510000Y-8790564D01*
X15510000Y-9220000D01*
X15635757Y-9335696D01*
X15755995Y-9446316D01*
X15759596Y-9452303D01*
X15760000Y-9455441D01*
X15760000Y-10160000D01*
X15987600Y-10160000D01*
X15994304Y-10161969D01*
X15998879Y-10167249D01*
X16000000Y-10172400D01*
X16000000Y-10317600D01*
X15998031Y-10324304D01*
X15992751Y-10328879D01*
X15987600Y-10330000D01*
X15760000Y-10330000D01*
X15420000Y-10330000D01*
X14580000Y-10330000D01*
X13102400Y-10330000D01*
X13095696Y-10328032D01*
X13091121Y-10322751D01*
X13090000Y-10317600D01*
X13090000Y-9799109D01*
X13091968Y-9792405D01*
X13097249Y-9787830D01*
X13104165Y-9786835D01*
X13110520Y-9789738D01*
X13113856Y-9794364D01*
X13117922Y-9804180D01*
X13117923Y-9804182D01*
X13125588Y-9815654D01*
X13125589Y-9815655D01*
X13135345Y-9825411D01*
X13135346Y-9825411D01*
X13146818Y-9833077D01*
X13146819Y-9833078D01*
X13159567Y-9838358D01*
X13159567Y-9838358D01*
X13159568Y-9838358D01*
X13159568Y-9838358D01*
X13173100Y-9841050D01*
X13173101Y-9841050D01*
X13186899Y-9841050D01*
X13196004Y-9839239D01*
X13200433Y-9838358D01*
X13213181Y-9833078D01*
X13224654Y-9825411D01*
X13234411Y-9815654D01*
X13242077Y-9804181D01*
X13247358Y-9791433D01*
X13248260Y-9786900D01*
X14309950Y-9786900D01*
X14312642Y-9800432D01*
X14312642Y-9800433D01*
X14317922Y-9813180D01*
X14317923Y-9813182D01*
X14325588Y-9824654D01*
X14325589Y-9824655D01*
X14335345Y-9834411D01*
X14335346Y-9834411D01*
X14346818Y-9842077D01*
X14346819Y-9842078D01*
X14359567Y-9847358D01*
X14359567Y-9847358D01*
X14359568Y-9847358D01*
X14359568Y-9847358D01*
X14373100Y-9850050D01*
X14373101Y-9850050D01*
X14386899Y-9850050D01*
X14396004Y-9848239D01*
X14400433Y-9847358D01*
X14413181Y-9842078D01*
X14424654Y-9834411D01*
X14434411Y-9824654D01*
X14442077Y-9813181D01*
X14447358Y-9800433D01*
X14448955Y-9792405D01*
X14450050Y-9786900D01*
X15469950Y-9786900D01*
X15472642Y-9800432D01*
X15472642Y-9800433D01*
X15477922Y-9813180D01*
X15477923Y-9813182D01*
X15485588Y-9824654D01*
X15485589Y-9824655D01*
X15495345Y-9834411D01*
X15495346Y-9834411D01*
X15506818Y-9842077D01*
X15506819Y-9842078D01*
X15519567Y-9847358D01*
X15519567Y-9847358D01*
X15519568Y-9847358D01*
X15519568Y-9847358D01*
X15533100Y-9850050D01*
X15533101Y-9850050D01*
X15546899Y-9850050D01*
X15556004Y-9848239D01*
X15560433Y-9847358D01*
X15573181Y-9842078D01*
X15584654Y-9834411D01*
X15594411Y-9824654D01*
X15602077Y-9813181D01*
X15607358Y-9800433D01*
X15608955Y-9792405D01*
X15610050Y-9786900D01*
X15610050Y-9773100D01*
X15607358Y-9759568D01*
X15607358Y-9759568D01*
X15607358Y-9759567D01*
X15604868Y-9753555D01*
X15602078Y-9746820D01*
X15602077Y-9746818D01*
X15594411Y-9735346D01*
X15594411Y-9735345D01*
X15584654Y-9725589D01*
X15584654Y-9725589D01*
X15573182Y-9717923D01*
X15573180Y-9717922D01*
X15560433Y-9712642D01*
X15560432Y-9712642D01*
X15546899Y-9709950D01*
X15546899Y-9709950D01*
X15533101Y-9709950D01*
X15533100Y-9709950D01*
X15519568Y-9712642D01*
X15519567Y-9712642D01*
X15506819Y-9717922D01*
X15506818Y-9717923D01*
X15495346Y-9725589D01*
X15495345Y-9725589D01*
X15485589Y-9735345D01*
X15485588Y-9735346D01*
X15477923Y-9746818D01*
X15477922Y-9746820D01*
X15472642Y-9759567D01*
X15472642Y-9759568D01*
X15469950Y-9773100D01*
X15469950Y-9773101D01*
X15469950Y-9786899D01*
X15469950Y-9786900D01*
X15469950Y-9786900D01*
X14450050Y-9786900D01*
X14450050Y-9773100D01*
X14447358Y-9759568D01*
X14447358Y-9759568D01*
X14447358Y-9759567D01*
X14444868Y-9753555D01*
X14442078Y-9746820D01*
X14442077Y-9746818D01*
X14434411Y-9735346D01*
X14434411Y-9735345D01*
X14424654Y-9725589D01*
X14424654Y-9725589D01*
X14413182Y-9717923D01*
X14413180Y-9717922D01*
X14400433Y-9712642D01*
X14400432Y-9712642D01*
X14386899Y-9709950D01*
X14386899Y-9709950D01*
X14373101Y-9709950D01*
X14373100Y-9709950D01*
X14359568Y-9712642D01*
X14359567Y-9712642D01*
X14346819Y-9717922D01*
X14346818Y-9717923D01*
X14335346Y-9725589D01*
X14335345Y-9725589D01*
X14325589Y-9735345D01*
X14325588Y-9735346D01*
X14317923Y-9746818D01*
X14317922Y-9746820D01*
X14312642Y-9759567D01*
X14312642Y-9759568D01*
X14309950Y-9773100D01*
X14309950Y-9773101D01*
X14309950Y-9786899D01*
X14309950Y-9786900D01*
X14309950Y-9786900D01*
X13248260Y-9786900D01*
X13250050Y-9777899D01*
X13250050Y-9764101D01*
X13250050Y-9764100D01*
X13247358Y-9750568D01*
X13247358Y-9750568D01*
X13247358Y-9750567D01*
X13245805Y-9746818D01*
X13242078Y-9737820D01*
X13242077Y-9737818D01*
X13234411Y-9726346D01*
X13234411Y-9726345D01*
X13224654Y-9716589D01*
X13224654Y-9716589D01*
X13213182Y-9708923D01*
X13213180Y-9708922D01*
X13200433Y-9703642D01*
X13200432Y-9703642D01*
X13186899Y-9700950D01*
X13186899Y-9700950D01*
X13173101Y-9700950D01*
X13173100Y-9700950D01*
X13159568Y-9703642D01*
X13159567Y-9703642D01*
X13146819Y-9708922D01*
X13146818Y-9708923D01*
X13135346Y-9716589D01*
X13135345Y-9716589D01*
X13125589Y-9726345D01*
X13125588Y-9726346D01*
X13117923Y-9737818D01*
X13117922Y-9737820D01*
X13113856Y-9747636D01*
X13109472Y-9753076D01*
X13102843Y-9755283D01*
X13096073Y-9753555D01*
X13091312Y-9748441D01*
X13090000Y-9742891D01*
X13090000Y-9640400D01*
X13749950Y-9640400D01*
X13752642Y-9653932D01*
X13752642Y-9653933D01*
X13757922Y-9666680D01*
X13757923Y-9666682D01*
X13765588Y-9678154D01*
X13765589Y-9678155D01*
X13775345Y-9687911D01*
X13775346Y-9687911D01*
X13786818Y-9695577D01*
X13786819Y-9695578D01*
X13797616Y-9700050D01*
X13799567Y-9700858D01*
X13799568Y-9700858D01*
X13799568Y-9700858D01*
X13813100Y-9703550D01*
X13813101Y-9703550D01*
X13826899Y-9703550D01*
X13836004Y-9701739D01*
X13840433Y-9700858D01*
X13853181Y-9695578D01*
X13864654Y-9687911D01*
X13874411Y-9678154D01*
X13882077Y-9666681D01*
X13887358Y-9653933D01*
X13890050Y-9640399D01*
X13890050Y-9636900D01*
X14913450Y-9636900D01*
X14916142Y-9650432D01*
X14916142Y-9650433D01*
X14921422Y-9663180D01*
X14921423Y-9663182D01*
X14929088Y-9674654D01*
X14929089Y-9674655D01*
X14938845Y-9684411D01*
X14938846Y-9684411D01*
X14950318Y-9692077D01*
X14950319Y-9692078D01*
X14963067Y-9697358D01*
X14963067Y-9697358D01*
X14963068Y-9697358D01*
X14963068Y-9697358D01*
X14976600Y-9700050D01*
X14976601Y-9700050D01*
X14990399Y-9700050D01*
X14999504Y-9698239D01*
X15003933Y-9697358D01*
X15016681Y-9692078D01*
X15028154Y-9684411D01*
X15037911Y-9674654D01*
X15045577Y-9663181D01*
X15050858Y-9650433D01*
X15053550Y-9636899D01*
X15053550Y-9623101D01*
X15053550Y-9623100D01*
X15050858Y-9609568D01*
X15050858Y-9609568D01*
X15050858Y-9609567D01*
X15050858Y-9609567D01*
X15045578Y-9596820D01*
X15045577Y-9596818D01*
X15037911Y-9585346D01*
X15037911Y-9585345D01*
X15028154Y-9575589D01*
X15028154Y-9575589D01*
X15016682Y-9567923D01*
X15016680Y-9567922D01*
X15003933Y-9562642D01*
X15003932Y-9562642D01*
X14990399Y-9559950D01*
X14990399Y-9559950D01*
X14976601Y-9559950D01*
X14976600Y-9559950D01*
X14963068Y-9562642D01*
X14963067Y-9562642D01*
X14950319Y-9567922D01*
X14950318Y-9567923D01*
X14938846Y-9575589D01*
X14938845Y-9575589D01*
X14929089Y-9585345D01*
X14929088Y-9585346D01*
X14921423Y-9596818D01*
X14921422Y-9596820D01*
X14916142Y-9609567D01*
X14916142Y-9609568D01*
X14913450Y-9623100D01*
X14913450Y-9623101D01*
X14913450Y-9636899D01*
X14913450Y-9636900D01*
X14913450Y-9636900D01*
X13890050Y-9636900D01*
X13890050Y-9626601D01*
X13890050Y-9626600D01*
X13890050Y-9626600D01*
X13889714Y-9624911D01*
X13887358Y-9613068D01*
X13887358Y-9613068D01*
X13887358Y-9613067D01*
X13883590Y-9603971D01*
X13882078Y-9600320D01*
X13882077Y-9600318D01*
X13874411Y-9588846D01*
X13874411Y-9588845D01*
X13864654Y-9579089D01*
X13864654Y-9579089D01*
X13853182Y-9571423D01*
X13853180Y-9571422D01*
X13840433Y-9566142D01*
X13840432Y-9566142D01*
X13826899Y-9563450D01*
X13826899Y-9563450D01*
X13813101Y-9563450D01*
X13813100Y-9563450D01*
X13799568Y-9566142D01*
X13799567Y-9566142D01*
X13786819Y-9571422D01*
X13786818Y-9571423D01*
X13775346Y-9579089D01*
X13775345Y-9579089D01*
X13765589Y-9588845D01*
X13765588Y-9588846D01*
X13757923Y-9600318D01*
X13757922Y-9600320D01*
X13752642Y-9613067D01*
X13752642Y-9613068D01*
X13749950Y-9626600D01*
X13749950Y-9626601D01*
X13749950Y-9640399D01*
X13749950Y-9640400D01*
X13749950Y-9640400D01*
X13090000Y-9640400D01*
X13090000Y-9479400D01*
X13589950Y-9479400D01*
X13592642Y-9492932D01*
X13592642Y-9492933D01*
X13597922Y-9505680D01*
X13597923Y-9505682D01*
X13605588Y-9517154D01*
X13605589Y-9517155D01*
X13615345Y-9526911D01*
X13615346Y-9526911D01*
X13626818Y-9534577D01*
X13626819Y-9534578D01*
X13639567Y-9539858D01*
X13639567Y-9539858D01*
X13639568Y-9539858D01*
X13639568Y-9539858D01*
X13653100Y-9542550D01*
X13653101Y-9542550D01*
X13666899Y-9542550D01*
X13676004Y-9540739D01*
X13680433Y-9539858D01*
X13693181Y-9534578D01*
X13704654Y-9526911D01*
X13714411Y-9517154D01*
X13722077Y-9505681D01*
X13727358Y-9492933D01*
X13730050Y-9479400D01*
X14759950Y-9479400D01*
X14762642Y-9492932D01*
X14762642Y-9492933D01*
X14767922Y-9505680D01*
X14767923Y-9505682D01*
X14775588Y-9517154D01*
X14775589Y-9517155D01*
X14785345Y-9526911D01*
X14785346Y-9526911D01*
X14796818Y-9534577D01*
X14796819Y-9534578D01*
X14809567Y-9539858D01*
X14809567Y-9539858D01*
X14809568Y-9539858D01*
X14809568Y-9539858D01*
X14823100Y-9542550D01*
X14823101Y-9542550D01*
X14836899Y-9542550D01*
X14846004Y-9540739D01*
X14850433Y-9539858D01*
X14863181Y-9534578D01*
X14874654Y-9526911D01*
X14884411Y-9517154D01*
X14892077Y-9505681D01*
X14897358Y-9492933D01*
X14900050Y-9479399D01*
X14900050Y-9465601D01*
X14900050Y-9465600D01*
X14897358Y-9452068D01*
X14897358Y-9452068D01*
X14897358Y-9452067D01*
X14897358Y-9452067D01*
X14892078Y-9439320D01*
X14892077Y-9439318D01*
X14884411Y-9427846D01*
X14884411Y-9427845D01*
X14874654Y-9418089D01*
X14874654Y-9418089D01*
X14863182Y-9410423D01*
X14863180Y-9410422D01*
X14850433Y-9405142D01*
X14850432Y-9405142D01*
X14836899Y-9402450D01*
X14836899Y-9402450D01*
X14823101Y-9402450D01*
X14823100Y-9402450D01*
X14809568Y-9405142D01*
X14809567Y-9405142D01*
X14796819Y-9410422D01*
X14796818Y-9410423D01*
X14785346Y-9418089D01*
X14785345Y-9418089D01*
X14775589Y-9427845D01*
X14775588Y-9427846D01*
X14767923Y-9439318D01*
X14767922Y-9439320D01*
X14762642Y-9452067D01*
X14762642Y-9452068D01*
X14759950Y-9465600D01*
X14759950Y-9465601D01*
X14759950Y-9479399D01*
X14759950Y-9479400D01*
X14759950Y-9479400D01*
X13730050Y-9479400D01*
X13730050Y-9479399D01*
X13730050Y-9465601D01*
X13730050Y-9465600D01*
X13727358Y-9452068D01*
X13727358Y-9452068D01*
X13727358Y-9452067D01*
X13727358Y-9452067D01*
X13722078Y-9439320D01*
X13722077Y-9439318D01*
X13714411Y-9427846D01*
X13714411Y-9427845D01*
X13704654Y-9418089D01*
X13704654Y-9418089D01*
X13693182Y-9410423D01*
X13693180Y-9410422D01*
X13680433Y-9405142D01*
X13680432Y-9405142D01*
X13666899Y-9402450D01*
X13666899Y-9402450D01*
X13653101Y-9402450D01*
X13653100Y-9402450D01*
X13639568Y-9405142D01*
X13639567Y-9405142D01*
X13626819Y-9410422D01*
X13626818Y-9410423D01*
X13615346Y-9418089D01*
X13615345Y-9418089D01*
X13605589Y-9427845D01*
X13605588Y-9427846D01*
X13597923Y-9439318D01*
X13597922Y-9439320D01*
X13592642Y-9452067D01*
X13592642Y-9452068D01*
X13589950Y-9465600D01*
X13589950Y-9465601D01*
X13589950Y-9479399D01*
X13589950Y-9479400D01*
X13589950Y-9479400D01*
X13090000Y-9479400D01*
X13090000Y-9342400D01*
X13091968Y-9335696D01*
X13097249Y-9331121D01*
X13102400Y-9330000D01*
X14550000Y-9330000D01*
X14800000Y-9110000D01*
X14800000Y-8540000D01*
X14800000Y-8311899D01*
X15119950Y-8311899D01*
X15122642Y-8325432D01*
X15122642Y-8325433D01*
X15127922Y-8338180D01*
X15127923Y-8338182D01*
X15135588Y-8349654D01*
X15135589Y-8349654D01*
X15145345Y-8359411D01*
X15145346Y-8359411D01*
X15156818Y-8367077D01*
X15156819Y-8367078D01*
X15169567Y-8372358D01*
X15169567Y-8372358D01*
X15169568Y-8372358D01*
X15169568Y-8372358D01*
X15183100Y-8375050D01*
X15183101Y-8375050D01*
X15196899Y-8375050D01*
X15206004Y-8373239D01*
X15210433Y-8372358D01*
X15223181Y-8367077D01*
X15234654Y-8359411D01*
X15244411Y-8349654D01*
X15252077Y-8338181D01*
X15257358Y-8325433D01*
X15258239Y-8321004D01*
X15260050Y-8311899D01*
X15260050Y-8298100D01*
X15257358Y-8284568D01*
X15257358Y-8284568D01*
X15257358Y-8284567D01*
X15257358Y-8284567D01*
X15252078Y-8271819D01*
X15252077Y-8271818D01*
X15244411Y-8260346D01*
X15244411Y-8260345D01*
X15234654Y-8250589D01*
X15234654Y-8250588D01*
X15223182Y-8242923D01*
X15223180Y-8242922D01*
X15210433Y-8237642D01*
X15210432Y-8237642D01*
X15196899Y-8234950D01*
X15196899Y-8234950D01*
X15183101Y-8234950D01*
X15183100Y-8234950D01*
X15169568Y-8237642D01*
X15169567Y-8237642D01*
X15156819Y-8242922D01*
X15156818Y-8242923D01*
X15145346Y-8250588D01*
X15145345Y-8250589D01*
X15135589Y-8260345D01*
X15135588Y-8260346D01*
X15127923Y-8271818D01*
X15127922Y-8271819D01*
X15122642Y-8284567D01*
X15122642Y-8284568D01*
X15119950Y-8298100D01*
X15119950Y-8298101D01*
X15119950Y-8311899D01*
X15119950Y-8311899D01*
X15119950Y-8311899D01*
X14800000Y-8311899D01*
X14800000Y-8250000D01*
X14800000Y-8162240D01*
X14801968Y-8155536D01*
X14807249Y-8150961D01*
X14812239Y-8149841D01*
X15557439Y-8140163D01*
X15564168Y-8142044D01*
G37*
%TD.AperFunction*%
%TD*%
M02*
