%TF.GenerationSoftware,KiCad,Pcbnew,9.0.6*%
%TF.CreationDate,2026-08-09T07:51:20+08:00*%
%TF.ProjectId,MQTT-Module-CurrentSensors,4d515454-2d4d-46f6-9475-6c652d437572,rev?*%
%TF.SameCoordinates,Original*%
%TF.FileFunction,Paste,Top*%
%TF.FilePolarity,Positive*%
%FSLAX45Y45*%
G04 Gerber Fmt 4.5, Leading zero omitted, Abs format (unit mm)*
G04 Created by KiCad (PCBNEW 9.0.6) date 2026-08-09 07:51:20*
%MOMM*%
%LPD*%
G01*
G04 APERTURE LIST*
G04 Aperture macros list*
%AMRoundRect*
0 Rectangle with rounded corners*
0 $1 Rounding radius*
0 $2 $3 $4 $5 $6 $7 $8 $9 X,Y pos of 4 corners*
0 Add a 4 corners polygon primitive as box body*
4,1,4,$2,$3,$4,$5,$6,$7,$8,$9,$2,$3,0*
0 Add four circle primitives for the rounded corners*
1,1,$1+$1,$2,$3*
1,1,$1+$1,$4,$5*
1,1,$1+$1,$6,$7*
1,1,$1+$1,$8,$9*
0 Add four rect primitives between the rounded corners*
20,1,$1+$1,$2,$3,$4,$5,0*
20,1,$1+$1,$4,$5,$6,$7,0*
20,1,$1+$1,$6,$7,$8,$9,0*
20,1,$1+$1,$8,$9,$2,$3,0*%
G04 Aperture macros list end*
%ADD10R,0.940000X1.430000*%
%ADD11R,1.400000X1.310000*%
%ADD12R,1.450000X1.000000*%
%ADD13R,2.810000X0.880000*%
%ADD14R,0.910000X1.390000*%
%ADD15R,0.600000X0.350000*%
%ADD16R,1.100000X1.700000*%
%ADD17R,1.000000X1.450000*%
%ADD18R,0.990600X0.508000*%
%ADD19R,1.400000X0.300000*%
%ADD20R,1.310000X1.400000*%
%ADD21RoundRect,0.137500X0.600000X0.137500X-0.600000X0.137500X-0.600000X-0.137500X0.600000X-0.137500X0*%
%ADD22RoundRect,0.137500X0.137500X0.600000X-0.137500X0.600000X-0.137500X-0.600000X0.137500X-0.600000X0*%
%ADD23R,0.830000X0.940000*%
%ADD24R,0.940000X0.830000*%
%ADD25R,3.250000X2.150000*%
%ADD26R,1.117600X1.752600*%
%ADD27R,1.050000X1.820000*%
%ADD28R,1.390000X0.910000*%
%ADD29R,0.750000X0.750000*%
%ADD30R,2.800000X1.600000*%
G04 APERTURE END LIST*
D10*
%TO.C,C302*%
X13078000Y-7090000D03*
X13242000Y-7090000D03*
%TD*%
D11*
%TO.C,D401*%
X12400000Y-10474500D03*
X12400000Y-10765500D03*
%TD*%
D12*
%TO.C,R508*%
X14440000Y-10165000D03*
X14440000Y-9975000D03*
%TD*%
D13*
%TO.C,F505*%
X15130000Y-11143500D03*
X15130000Y-10816500D03*
%TD*%
D14*
%TO.C,C505*%
X15309320Y-9950000D03*
X15145320Y-9950000D03*
%TD*%
D15*
%TO.C,PS301*%
X12970000Y-7690000D03*
X12970000Y-7755000D03*
X12970000Y-7820000D03*
X13180000Y-7820000D03*
X13180000Y-7755000D03*
X13180000Y-7690000D03*
D16*
X13075000Y-7755000D03*
%TD*%
D17*
%TO.C,R505*%
X12735000Y-9310000D03*
X12925000Y-9310000D03*
%TD*%
D18*
%TO.C,U501*%
X12729430Y-9535000D03*
X12729430Y-9630000D03*
X12729430Y-9725000D03*
X13001210Y-9725000D03*
X13001210Y-9535000D03*
%TD*%
D12*
%TO.C,R509*%
X13660000Y-9767500D03*
X13660000Y-9577500D03*
%TD*%
D13*
%TO.C,F503*%
X13970000Y-11143500D03*
X13970000Y-10816500D03*
%TD*%
D19*
%TO.C,IC401*%
X14710000Y-8710000D03*
X14710000Y-8760000D03*
X14710000Y-8810000D03*
X14710000Y-8860000D03*
X14710000Y-8910000D03*
X15150000Y-8910000D03*
X15150000Y-8860000D03*
X15150000Y-8810000D03*
X15150000Y-8760000D03*
X15150000Y-8710000D03*
%TD*%
D12*
%TO.C,R502*%
X13230000Y-10165000D03*
X13230000Y-9975000D03*
%TD*%
D17*
%TO.C,R201*%
X15245000Y-8168750D03*
X15435000Y-8168750D03*
%TD*%
D14*
%TO.C,C503*%
X14145210Y-9950000D03*
X13981210Y-9950000D03*
%TD*%
D20*
%TO.C,D405*%
X13920750Y-10560000D03*
X14211750Y-10560000D03*
%TD*%
D11*
%TO.C,D407*%
X14820000Y-10474500D03*
X14820000Y-10765500D03*
%TD*%
D13*
%TO.C,F502*%
X12740000Y-11147000D03*
X12740000Y-10820000D03*
%TD*%
D21*
%TO.C,U202*%
X15416250Y-7820000D03*
X15416250Y-7740000D03*
X15416250Y-7660000D03*
X15416250Y-7580000D03*
X15416250Y-7500000D03*
X15416250Y-7420000D03*
X15416250Y-7340000D03*
X15416250Y-7260000D03*
D22*
X15280000Y-7123750D03*
X15200000Y-7123750D03*
X15120000Y-7123750D03*
X15040000Y-7123750D03*
X14960000Y-7123750D03*
X14880000Y-7123750D03*
X14800000Y-7123750D03*
X14720000Y-7123750D03*
D21*
X14583750Y-7260000D03*
X14583750Y-7340000D03*
X14583750Y-7420000D03*
X14583750Y-7500000D03*
X14583750Y-7580000D03*
X14583750Y-7660000D03*
X14583750Y-7740000D03*
X14583750Y-7820000D03*
D22*
X14720000Y-7956250D03*
X14800000Y-7956250D03*
X14880000Y-7956250D03*
X14960000Y-7956250D03*
X15040000Y-7956250D03*
X15120000Y-7956250D03*
X15200000Y-7956250D03*
X15280000Y-7956250D03*
%TD*%
D23*
%TO.C,C201*%
X14284000Y-7315000D03*
X14416000Y-7315000D03*
%TD*%
D12*
%TO.C,R513*%
X15600000Y-10165000D03*
X15600000Y-9975000D03*
%TD*%
D17*
%TO.C,R301*%
X12595000Y-7810000D03*
X12785000Y-7810000D03*
%TD*%
D12*
%TO.C,R401*%
X14710000Y-8460000D03*
X14710000Y-8270000D03*
%TD*%
D24*
%TO.C,C502*%
X13180000Y-9549000D03*
X13180000Y-9681000D03*
%TD*%
D12*
%TO.C,R514*%
X14830000Y-9767500D03*
X14830000Y-9577500D03*
%TD*%
D17*
%TO.C,R303*%
X12675000Y-7540000D03*
X12485000Y-7540000D03*
%TD*%
%TO.C,R417*%
X15075000Y-8480000D03*
X15265000Y-8480000D03*
%TD*%
D25*
%TO.C,L301*%
X13640000Y-7485000D03*
X13640000Y-7795000D03*
%TD*%
D12*
%TO.C,R507*%
X13690000Y-10165000D03*
X13690000Y-9975000D03*
%TD*%
D26*
%TO.C,R501*%
X12994640Y-10220000D03*
X12700000Y-10220000D03*
%TD*%
D12*
%TO.C,R512*%
X14860000Y-10165000D03*
X14860000Y-9975000D03*
%TD*%
D23*
%TO.C,C203*%
X15624000Y-7605000D03*
X15756000Y-7605000D03*
%TD*%
D11*
%TO.C,D404*%
X13630000Y-10474500D03*
X13630000Y-10765500D03*
%TD*%
D18*
%TO.C,U502*%
X13921430Y-9535000D03*
X13921430Y-9630000D03*
X13921430Y-9725000D03*
X14193210Y-9725000D03*
X14193210Y-9535000D03*
%TD*%
D26*
%TO.C,R506*%
X14217320Y-10220000D03*
X13922680Y-10220000D03*
%TD*%
D11*
%TO.C,D409*%
X15620000Y-10474500D03*
X15620000Y-10765500D03*
%TD*%
D24*
%TO.C,C202*%
X15090000Y-8132750D03*
X15090000Y-8264750D03*
%TD*%
%TO.C,C506*%
X15540000Y-9550000D03*
X15540000Y-9682000D03*
%TD*%
D12*
%TO.C,R504*%
X12450000Y-9767500D03*
X12450000Y-9577500D03*
%TD*%
D27*
%TO.C,C307*%
X13121000Y-8200000D03*
X13399000Y-8200000D03*
%TD*%
D10*
%TO.C,C304*%
X13078000Y-7470000D03*
X13242000Y-7470000D03*
%TD*%
D23*
%TO.C,C204*%
X14416000Y-7535000D03*
X14284000Y-7535000D03*
%TD*%
D20*
%TO.C,D408*%
X15080750Y-10560000D03*
X15371750Y-10560000D03*
%TD*%
D11*
%TO.C,D403*%
X13251658Y-10472997D03*
X13251658Y-10763997D03*
%TD*%
D23*
%TO.C,C407*%
X15476000Y-8810000D03*
X15344000Y-8810000D03*
%TD*%
D12*
%TO.C,R304*%
X12710000Y-7155000D03*
X12710000Y-7345000D03*
%TD*%
D28*
%TO.C,C308*%
X12395000Y-8002000D03*
X12395000Y-7838000D03*
%TD*%
D26*
%TO.C,R511*%
X15377320Y-10220000D03*
X15082680Y-10220000D03*
%TD*%
D17*
%TO.C,R510*%
X13975000Y-9310000D03*
X14165000Y-9310000D03*
%TD*%
D29*
%TO.C,D301*%
X13640000Y-8230000D03*
X13640000Y-8010000D03*
%TD*%
D20*
%TO.C,D402*%
X12704500Y-10560000D03*
X12995500Y-10560000D03*
%TD*%
D30*
%TO.C,C309*%
X13515000Y-8660000D03*
X13085000Y-8660000D03*
%TD*%
D17*
%TO.C,R515*%
X15085000Y-9310000D03*
X15275000Y-9310000D03*
%TD*%
D12*
%TO.C,R503*%
X12480000Y-10165000D03*
X12480000Y-9975000D03*
%TD*%
D10*
%TO.C,C303*%
X13078000Y-7280000D03*
X13242000Y-7280000D03*
%TD*%
D14*
%TO.C,C501*%
X12937320Y-9947500D03*
X12773320Y-9947500D03*
%TD*%
D24*
%TO.C,C504*%
X14380000Y-9550000D03*
X14380000Y-9682000D03*
%TD*%
D11*
%TO.C,D406*%
X14450000Y-10474500D03*
X14450000Y-10765500D03*
%TD*%
D18*
%TO.C,U503*%
X15081430Y-9535000D03*
X15081430Y-9630000D03*
X15081430Y-9725000D03*
X15353210Y-9725000D03*
X15353210Y-9535000D03*
%TD*%
M02*
