%TF.GenerationSoftware,KiCad,Pcbnew,9.0.6*%
%TF.CreationDate,2026-08-09T07:51:20+08:00*%
%TF.ProjectId,MQTT-Module-CurrentSensors,4d515454-2d4d-46f6-9475-6c652d437572,rev?*%
%TF.SameCoordinates,Original*%
%TF.FileFunction,Soldermask,Top*%
%TF.FilePolarity,Negative*%
%FSLAX45Y45*%
G04 Gerber Fmt 4.5, Leading zero omitted, Abs format (unit mm)*
G04 Created by KiCad (PCBNEW 9.0.6) date 2026-08-09 07:51:20*
%MOMM*%
%LPD*%
G01*
G04 APERTURE LIST*
G04 APERTURE END LIST*
G36*
X13309187Y-11750761D02*
G01*
X13312431Y-11752929D01*
X13314599Y-11756173D01*
X13315360Y-11760000D01*
X13315360Y-11955000D01*
X13314599Y-11958827D01*
X13312431Y-11962071D01*
X13309187Y-11964239D01*
X13305360Y-11965000D01*
X13110360Y-11965000D01*
X13106533Y-11964239D01*
X13103289Y-11962071D01*
X13101121Y-11958827D01*
X13100360Y-11955000D01*
X13100360Y-11760000D01*
X13101121Y-11756173D01*
X13103289Y-11752929D01*
X13106533Y-11750761D01*
X13110360Y-11750000D01*
X13305360Y-11750000D01*
X13309187Y-11750761D01*
G37*
G36*
X13740955Y-11752970D02*
G01*
X13756998Y-11758183D01*
X13772029Y-11765841D01*
X13785676Y-11775756D01*
X13797604Y-11787684D01*
X13807519Y-11801331D01*
X13815177Y-11816361D01*
X13820390Y-11832405D01*
X13823029Y-11849066D01*
X13823029Y-11865934D01*
X13820390Y-11882595D01*
X13815177Y-11898638D01*
X13807519Y-11913669D01*
X13797604Y-11927316D01*
X13785676Y-11939244D01*
X13772029Y-11949159D01*
X13756998Y-11956817D01*
X13740955Y-11962030D01*
X13724294Y-11964669D01*
X13707426Y-11964669D01*
X13690765Y-11962030D01*
X13674721Y-11956817D01*
X13659691Y-11949159D01*
X13646044Y-11939244D01*
X13634116Y-11927316D01*
X13624201Y-11913669D01*
X13616543Y-11898638D01*
X13611330Y-11882595D01*
X13608691Y-11865934D01*
X13608691Y-11849066D01*
X13611330Y-11832405D01*
X13616543Y-11816361D01*
X13624201Y-11801331D01*
X13634116Y-11787684D01*
X13646044Y-11775756D01*
X13659691Y-11765841D01*
X13674721Y-11758183D01*
X13690765Y-11752970D01*
X13707426Y-11750331D01*
X13724294Y-11750331D01*
X13740955Y-11752970D01*
G37*
G36*
X14248955Y-11752970D02*
G01*
X14264998Y-11758183D01*
X14280029Y-11765841D01*
X14293676Y-11775756D01*
X14305604Y-11787684D01*
X14315519Y-11801331D01*
X14323177Y-11816361D01*
X14328390Y-11832405D01*
X14331029Y-11849066D01*
X14331029Y-11865934D01*
X14328390Y-11882595D01*
X14323177Y-11898638D01*
X14315519Y-11913669D01*
X14305604Y-11927316D01*
X14293676Y-11939244D01*
X14280029Y-11949159D01*
X14264998Y-11956817D01*
X14248955Y-11962030D01*
X14232294Y-11964669D01*
X14215426Y-11964669D01*
X14198765Y-11962030D01*
X14182721Y-11956817D01*
X14167691Y-11949159D01*
X14154044Y-11939244D01*
X14142116Y-11927316D01*
X14132201Y-11913669D01*
X14124543Y-11898638D01*
X14119330Y-11882595D01*
X14116691Y-11865934D01*
X14116691Y-11849066D01*
X14119330Y-11832405D01*
X14124543Y-11816361D01*
X14132201Y-11801331D01*
X14142116Y-11787684D01*
X14154044Y-11775756D01*
X14167691Y-11765841D01*
X14182721Y-11758183D01*
X14198765Y-11752970D01*
X14215426Y-11750331D01*
X14232294Y-11750331D01*
X14248955Y-11752970D01*
G37*
G36*
X14756955Y-11752970D02*
G01*
X14772998Y-11758183D01*
X14788029Y-11765841D01*
X14801676Y-11775756D01*
X14813604Y-11787684D01*
X14823519Y-11801331D01*
X14831177Y-11816361D01*
X14836390Y-11832405D01*
X14839029Y-11849066D01*
X14839029Y-11865934D01*
X14836390Y-11882595D01*
X14831177Y-11898638D01*
X14823519Y-11913669D01*
X14813604Y-11927316D01*
X14801676Y-11939244D01*
X14788029Y-11949159D01*
X14772998Y-11956817D01*
X14756955Y-11962030D01*
X14740294Y-11964669D01*
X14723426Y-11964669D01*
X14706765Y-11962030D01*
X14690721Y-11956817D01*
X14675691Y-11949159D01*
X14662044Y-11939244D01*
X14650116Y-11927316D01*
X14640201Y-11913669D01*
X14632543Y-11898638D01*
X14627330Y-11882595D01*
X14624691Y-11865934D01*
X14624691Y-11849066D01*
X14627330Y-11832405D01*
X14632543Y-11816361D01*
X14640201Y-11801331D01*
X14650116Y-11787684D01*
X14662044Y-11775756D01*
X14675691Y-11765841D01*
X14690721Y-11758183D01*
X14706765Y-11752970D01*
X14723426Y-11750331D01*
X14740294Y-11750331D01*
X14756955Y-11752970D01*
G37*
G36*
X12884327Y-11093761D02*
G01*
X12887571Y-11095929D01*
X12889739Y-11099173D01*
X12890500Y-11103000D01*
X12890500Y-11191000D01*
X12889739Y-11194827D01*
X12887571Y-11198071D01*
X12884327Y-11200239D01*
X12880500Y-11201000D01*
X12599500Y-11201000D01*
X12595673Y-11200239D01*
X12592429Y-11198071D01*
X12590261Y-11194827D01*
X12589500Y-11191000D01*
X12589500Y-11103000D01*
X12590261Y-11099173D01*
X12592429Y-11095929D01*
X12595673Y-11093761D01*
X12599500Y-11093000D01*
X12880500Y-11093000D01*
X12884327Y-11093761D01*
G37*
G36*
X14114327Y-11090261D02*
G01*
X14117571Y-11092429D01*
X14119739Y-11095673D01*
X14120500Y-11099500D01*
X14120500Y-11187500D01*
X14119739Y-11191327D01*
X14117571Y-11194571D01*
X14114327Y-11196739D01*
X14110500Y-11197500D01*
X13829500Y-11197500D01*
X13825673Y-11196739D01*
X13822429Y-11194571D01*
X13820261Y-11191327D01*
X13819500Y-11187500D01*
X13819500Y-11099500D01*
X13820261Y-11095673D01*
X13822429Y-11092429D01*
X13825673Y-11090261D01*
X13829500Y-11089500D01*
X14110500Y-11089500D01*
X14114327Y-11090261D01*
G37*
G36*
X15274327Y-11090261D02*
G01*
X15277571Y-11092429D01*
X15279739Y-11095673D01*
X15280500Y-11099500D01*
X15280500Y-11187500D01*
X15279739Y-11191327D01*
X15277571Y-11194571D01*
X15274327Y-11196739D01*
X15270500Y-11197500D01*
X14989500Y-11197500D01*
X14985673Y-11196739D01*
X14982429Y-11194571D01*
X14980261Y-11191327D01*
X14979500Y-11187500D01*
X14979500Y-11099500D01*
X14980261Y-11095673D01*
X14982429Y-11092429D01*
X14985673Y-11090261D01*
X14989500Y-11089500D01*
X15270500Y-11089500D01*
X15274327Y-11090261D01*
G37*
G36*
X12088827Y-10911761D02*
G01*
X12092071Y-10913929D01*
X12094239Y-10917173D01*
X12095000Y-10921000D01*
X12095000Y-11091000D01*
X12094239Y-11094827D01*
X12092071Y-11098071D01*
X12088827Y-11100239D01*
X12085000Y-11101000D01*
X11915000Y-11101000D01*
X11911173Y-11100239D01*
X11907929Y-11098071D01*
X11905761Y-11094827D01*
X11905000Y-11091000D01*
X11905000Y-10921000D01*
X11905761Y-10917173D01*
X11907929Y-10913929D01*
X11911173Y-10911761D01*
X11915000Y-10911000D01*
X12085000Y-10911000D01*
X12088827Y-10911761D01*
G37*
G36*
X16088827Y-10911761D02*
G01*
X16092071Y-10913929D01*
X16094239Y-10917173D01*
X16095000Y-10921000D01*
X16095000Y-11091000D01*
X16094239Y-11094827D01*
X16092071Y-11098071D01*
X16088827Y-11100239D01*
X16085000Y-11101000D01*
X15915000Y-11101000D01*
X15911173Y-11100239D01*
X15907929Y-11098071D01*
X15905761Y-11094827D01*
X15905000Y-11091000D01*
X15905000Y-10921000D01*
X15905761Y-10917173D01*
X15907929Y-10913929D01*
X15911173Y-10911761D01*
X15915000Y-10911000D01*
X16085000Y-10911000D01*
X16088827Y-10911761D01*
G37*
G36*
X12884327Y-10766761D02*
G01*
X12887571Y-10768929D01*
X12889739Y-10772173D01*
X12890500Y-10776000D01*
X12890500Y-10864000D01*
X12889739Y-10867827D01*
X12887571Y-10871071D01*
X12884327Y-10873239D01*
X12880500Y-10874000D01*
X12599500Y-10874000D01*
X12595673Y-10873239D01*
X12592429Y-10871071D01*
X12590261Y-10867827D01*
X12589500Y-10864000D01*
X12589500Y-10776000D01*
X12590261Y-10772173D01*
X12592429Y-10768929D01*
X12595673Y-10766761D01*
X12599500Y-10766000D01*
X12880500Y-10766000D01*
X12884327Y-10766761D01*
G37*
G36*
X14114327Y-10763261D02*
G01*
X14117571Y-10765429D01*
X14119739Y-10768673D01*
X14120500Y-10772500D01*
X14120500Y-10860500D01*
X14119739Y-10864327D01*
X14117571Y-10867571D01*
X14114327Y-10869739D01*
X14110500Y-10870500D01*
X13829500Y-10870500D01*
X13825673Y-10869739D01*
X13822429Y-10867571D01*
X13820261Y-10864327D01*
X13819500Y-10860500D01*
X13819500Y-10772500D01*
X13820261Y-10768673D01*
X13822429Y-10765429D01*
X13825673Y-10763261D01*
X13829500Y-10762500D01*
X14110500Y-10762500D01*
X14114327Y-10763261D01*
G37*
G36*
X15274327Y-10763261D02*
G01*
X15277571Y-10765429D01*
X15279739Y-10768673D01*
X15280500Y-10772500D01*
X15280500Y-10860500D01*
X15279739Y-10864327D01*
X15277571Y-10867571D01*
X15274327Y-10869739D01*
X15270500Y-10870500D01*
X14989500Y-10870500D01*
X14985673Y-10869739D01*
X14982429Y-10867571D01*
X14980261Y-10864327D01*
X14979500Y-10860500D01*
X14979500Y-10772500D01*
X14980261Y-10768673D01*
X14982429Y-10765429D01*
X14985673Y-10763261D01*
X14989500Y-10762500D01*
X15270500Y-10762500D01*
X15274327Y-10763261D01*
G37*
G36*
X12027577Y-10661091D02*
G01*
X12044783Y-10668218D01*
X12060267Y-10678564D01*
X12073436Y-10691733D01*
X12083782Y-10707217D01*
X12090909Y-10724423D01*
X12094542Y-10742688D01*
X12094542Y-10761312D01*
X12090909Y-10779577D01*
X12083782Y-10796783D01*
X12073436Y-10812267D01*
X12060267Y-10825436D01*
X12044783Y-10835783D01*
X12027577Y-10842909D01*
X12009312Y-10846543D01*
X11990688Y-10846543D01*
X11972423Y-10842909D01*
X11955217Y-10835783D01*
X11939733Y-10825436D01*
X11926564Y-10812267D01*
X11916217Y-10796783D01*
X11909091Y-10779577D01*
X11905457Y-10761312D01*
X11905457Y-10742688D01*
X11909091Y-10724423D01*
X11916217Y-10707217D01*
X11926564Y-10691733D01*
X11939733Y-10678564D01*
X11955217Y-10668218D01*
X11972423Y-10661091D01*
X11990688Y-10657458D01*
X12009312Y-10657458D01*
X12027577Y-10661091D01*
G37*
G36*
X16027577Y-10661091D02*
G01*
X16044783Y-10668218D01*
X16060267Y-10678564D01*
X16073436Y-10691733D01*
X16083782Y-10707217D01*
X16090909Y-10724423D01*
X16094542Y-10742688D01*
X16094542Y-10761312D01*
X16090909Y-10779577D01*
X16083782Y-10796783D01*
X16073436Y-10812267D01*
X16060267Y-10825436D01*
X16044783Y-10835783D01*
X16027577Y-10842909D01*
X16009312Y-10846543D01*
X15990688Y-10846543D01*
X15972423Y-10842909D01*
X15955217Y-10835783D01*
X15939733Y-10825436D01*
X15926564Y-10812267D01*
X15916217Y-10796783D01*
X15909091Y-10779577D01*
X15905457Y-10761312D01*
X15905457Y-10742688D01*
X15909091Y-10724423D01*
X15916217Y-10707217D01*
X15926564Y-10691733D01*
X15939733Y-10678564D01*
X15955217Y-10668218D01*
X15972423Y-10661091D01*
X15990688Y-10657458D01*
X16009312Y-10657458D01*
X16027577Y-10661091D01*
G37*
G36*
X12473827Y-10690761D02*
G01*
X12477071Y-10692929D01*
X12479239Y-10696173D01*
X12480000Y-10700000D01*
X12480000Y-10831000D01*
X12479239Y-10834827D01*
X12477071Y-10838071D01*
X12473827Y-10840239D01*
X12470000Y-10841000D01*
X12330000Y-10841000D01*
X12326173Y-10840239D01*
X12322929Y-10838071D01*
X12320761Y-10834827D01*
X12320000Y-10831000D01*
X12320000Y-10700000D01*
X12320761Y-10696173D01*
X12322929Y-10692929D01*
X12326173Y-10690761D01*
X12330000Y-10690000D01*
X12470000Y-10690000D01*
X12473827Y-10690761D01*
G37*
G36*
X13703827Y-10690761D02*
G01*
X13707071Y-10692929D01*
X13709239Y-10696173D01*
X13710000Y-10700000D01*
X13710000Y-10831000D01*
X13709239Y-10834827D01*
X13707071Y-10838071D01*
X13703827Y-10840239D01*
X13700000Y-10841000D01*
X13560000Y-10841000D01*
X13556173Y-10840239D01*
X13552929Y-10838071D01*
X13550761Y-10834827D01*
X13550000Y-10831000D01*
X13550000Y-10700000D01*
X13550761Y-10696173D01*
X13552929Y-10692929D01*
X13556173Y-10690761D01*
X13560000Y-10690000D01*
X13700000Y-10690000D01*
X13703827Y-10690761D01*
G37*
G36*
X14523827Y-10690761D02*
G01*
X14527071Y-10692929D01*
X14529239Y-10696173D01*
X14530000Y-10700000D01*
X14530000Y-10831000D01*
X14529239Y-10834827D01*
X14527071Y-10838071D01*
X14523827Y-10840239D01*
X14520000Y-10841000D01*
X14380000Y-10841000D01*
X14376173Y-10840239D01*
X14372929Y-10838071D01*
X14370761Y-10834827D01*
X14370000Y-10831000D01*
X14370000Y-10700000D01*
X14370761Y-10696173D01*
X14372929Y-10692929D01*
X14376173Y-10690761D01*
X14380000Y-10690000D01*
X14520000Y-10690000D01*
X14523827Y-10690761D01*
G37*
G36*
X14893827Y-10690761D02*
G01*
X14897071Y-10692929D01*
X14899239Y-10696173D01*
X14900000Y-10700000D01*
X14900000Y-10831000D01*
X14899239Y-10834827D01*
X14897071Y-10838071D01*
X14893827Y-10840239D01*
X14890000Y-10841000D01*
X14750000Y-10841000D01*
X14746173Y-10840239D01*
X14742929Y-10838071D01*
X14740761Y-10834827D01*
X14740000Y-10831000D01*
X14740000Y-10700000D01*
X14740761Y-10696173D01*
X14742929Y-10692929D01*
X14746173Y-10690761D01*
X14750000Y-10690000D01*
X14890000Y-10690000D01*
X14893827Y-10690761D01*
G37*
G36*
X15693827Y-10690761D02*
G01*
X15697071Y-10692929D01*
X15699239Y-10696173D01*
X15700000Y-10700000D01*
X15700000Y-10831000D01*
X15699239Y-10834827D01*
X15697071Y-10838071D01*
X15693827Y-10840239D01*
X15690000Y-10841000D01*
X15550000Y-10841000D01*
X15546173Y-10840239D01*
X15542929Y-10838071D01*
X15540761Y-10834827D01*
X15540000Y-10831000D01*
X15540000Y-10700000D01*
X15540761Y-10696173D01*
X15542929Y-10692929D01*
X15546173Y-10690761D01*
X15550000Y-10690000D01*
X15690000Y-10690000D01*
X15693827Y-10690761D01*
G37*
G36*
X13325485Y-10689258D02*
G01*
X13328729Y-10691426D01*
X13330897Y-10694670D01*
X13331658Y-10698497D01*
X13331658Y-10829497D01*
X13330897Y-10833324D01*
X13328729Y-10836568D01*
X13325485Y-10838736D01*
X13321658Y-10839497D01*
X13181658Y-10839497D01*
X13177831Y-10838736D01*
X13174587Y-10836568D01*
X13172419Y-10833324D01*
X13171658Y-10829497D01*
X13171658Y-10698497D01*
X13172419Y-10694670D01*
X13174587Y-10691426D01*
X13177831Y-10689258D01*
X13181658Y-10688497D01*
X13321658Y-10688497D01*
X13325485Y-10689258D01*
G37*
G36*
X12773827Y-10480761D02*
G01*
X12777071Y-10482929D01*
X12779239Y-10486173D01*
X12780000Y-10490000D01*
X12780000Y-10630000D01*
X12779239Y-10633827D01*
X12777071Y-10637071D01*
X12773827Y-10639239D01*
X12770000Y-10640000D01*
X12639000Y-10640000D01*
X12635173Y-10639239D01*
X12631929Y-10637071D01*
X12629761Y-10633827D01*
X12629000Y-10630000D01*
X12629000Y-10490000D01*
X12629761Y-10486173D01*
X12631929Y-10482929D01*
X12635173Y-10480761D01*
X12639000Y-10480000D01*
X12770000Y-10480000D01*
X12773827Y-10480761D01*
G37*
G36*
X13064827Y-10480761D02*
G01*
X13068071Y-10482929D01*
X13070239Y-10486173D01*
X13071000Y-10490000D01*
X13071000Y-10630000D01*
X13070239Y-10633827D01*
X13068071Y-10637071D01*
X13064827Y-10639239D01*
X13061000Y-10640000D01*
X12930000Y-10640000D01*
X12926173Y-10639239D01*
X12922929Y-10637071D01*
X12920761Y-10633827D01*
X12920000Y-10630000D01*
X12920000Y-10490000D01*
X12920761Y-10486173D01*
X12922929Y-10482929D01*
X12926173Y-10480761D01*
X12930000Y-10480000D01*
X13061000Y-10480000D01*
X13064827Y-10480761D01*
G37*
G36*
X13990077Y-10480761D02*
G01*
X13993321Y-10482929D01*
X13995489Y-10486173D01*
X13996250Y-10490000D01*
X13996250Y-10630000D01*
X13995489Y-10633827D01*
X13993321Y-10637071D01*
X13990077Y-10639239D01*
X13986250Y-10640000D01*
X13855250Y-10640000D01*
X13851423Y-10639239D01*
X13848179Y-10637071D01*
X13846011Y-10633827D01*
X13845250Y-10630000D01*
X13845250Y-10490000D01*
X13846011Y-10486173D01*
X13848179Y-10482929D01*
X13851423Y-10480761D01*
X13855250Y-10480000D01*
X13986250Y-10480000D01*
X13990077Y-10480761D01*
G37*
G36*
X14281077Y-10480761D02*
G01*
X14284321Y-10482929D01*
X14286489Y-10486173D01*
X14287250Y-10490000D01*
X14287250Y-10630000D01*
X14286489Y-10633827D01*
X14284321Y-10637071D01*
X14281077Y-10639239D01*
X14277250Y-10640000D01*
X14146250Y-10640000D01*
X14142423Y-10639239D01*
X14139179Y-10637071D01*
X14137011Y-10633827D01*
X14136250Y-10630000D01*
X14136250Y-10490000D01*
X14137011Y-10486173D01*
X14139179Y-10482929D01*
X14142423Y-10480761D01*
X14146250Y-10480000D01*
X14277250Y-10480000D01*
X14281077Y-10480761D01*
G37*
G36*
X15150077Y-10480761D02*
G01*
X15153321Y-10482929D01*
X15155489Y-10486173D01*
X15156250Y-10490000D01*
X15156250Y-10630000D01*
X15155489Y-10633827D01*
X15153321Y-10637071D01*
X15150077Y-10639239D01*
X15146250Y-10640000D01*
X15015250Y-10640000D01*
X15011423Y-10639239D01*
X15008179Y-10637071D01*
X15006011Y-10633827D01*
X15005250Y-10630000D01*
X15005250Y-10490000D01*
X15006011Y-10486173D01*
X15008179Y-10482929D01*
X15011423Y-10480761D01*
X15015250Y-10480000D01*
X15146250Y-10480000D01*
X15150077Y-10480761D01*
G37*
G36*
X15441077Y-10480761D02*
G01*
X15444321Y-10482929D01*
X15446489Y-10486173D01*
X15447250Y-10490000D01*
X15447250Y-10630000D01*
X15446489Y-10633827D01*
X15444321Y-10637071D01*
X15441077Y-10639239D01*
X15437250Y-10640000D01*
X15306250Y-10640000D01*
X15302423Y-10639239D01*
X15299179Y-10637071D01*
X15297011Y-10633827D01*
X15296250Y-10630000D01*
X15296250Y-10490000D01*
X15297011Y-10486173D01*
X15299179Y-10482929D01*
X15302423Y-10480761D01*
X15306250Y-10480000D01*
X15437250Y-10480000D01*
X15441077Y-10480761D01*
G37*
G36*
X12027577Y-10407091D02*
G01*
X12044783Y-10414218D01*
X12060267Y-10424564D01*
X12073436Y-10437733D01*
X12083782Y-10453217D01*
X12090909Y-10470423D01*
X12094542Y-10488688D01*
X12094542Y-10507312D01*
X12090909Y-10525577D01*
X12083782Y-10542783D01*
X12073436Y-10558267D01*
X12060267Y-10571436D01*
X12044783Y-10581783D01*
X12027577Y-10588909D01*
X12009312Y-10592543D01*
X11990688Y-10592543D01*
X11972423Y-10588909D01*
X11955217Y-10581783D01*
X11939733Y-10571436D01*
X11926564Y-10558267D01*
X11916217Y-10542783D01*
X11909091Y-10525577D01*
X11905457Y-10507312D01*
X11905457Y-10488688D01*
X11909091Y-10470423D01*
X11916217Y-10453217D01*
X11926564Y-10437733D01*
X11939733Y-10424564D01*
X11955217Y-10414218D01*
X11972423Y-10407091D01*
X11990688Y-10403458D01*
X12009312Y-10403458D01*
X12027577Y-10407091D01*
G37*
G36*
X16027577Y-10407091D02*
G01*
X16044783Y-10414218D01*
X16060267Y-10424564D01*
X16073436Y-10437733D01*
X16083782Y-10453217D01*
X16090909Y-10470423D01*
X16094542Y-10488688D01*
X16094542Y-10507312D01*
X16090909Y-10525577D01*
X16083782Y-10542783D01*
X16073436Y-10558267D01*
X16060267Y-10571436D01*
X16044783Y-10581783D01*
X16027577Y-10588909D01*
X16009312Y-10592543D01*
X15990688Y-10592543D01*
X15972423Y-10588909D01*
X15955217Y-10581783D01*
X15939733Y-10571436D01*
X15926564Y-10558267D01*
X15916217Y-10542783D01*
X15909091Y-10525577D01*
X15905457Y-10507312D01*
X15905457Y-10488688D01*
X15909091Y-10470423D01*
X15916217Y-10453217D01*
X15926564Y-10437733D01*
X15939733Y-10424564D01*
X15955217Y-10414218D01*
X15972423Y-10407091D01*
X15990688Y-10403458D01*
X16009312Y-10403458D01*
X16027577Y-10407091D01*
G37*
G36*
X12473827Y-10399761D02*
G01*
X12477071Y-10401929D01*
X12479239Y-10405173D01*
X12480000Y-10409000D01*
X12480000Y-10540000D01*
X12479239Y-10543827D01*
X12477071Y-10547071D01*
X12473827Y-10549239D01*
X12470000Y-10550000D01*
X12330000Y-10550000D01*
X12326173Y-10549239D01*
X12322929Y-10547071D01*
X12320761Y-10543827D01*
X12320000Y-10540000D01*
X12320000Y-10409000D01*
X12320761Y-10405173D01*
X12322929Y-10401929D01*
X12326173Y-10399761D01*
X12330000Y-10399000D01*
X12470000Y-10399000D01*
X12473827Y-10399761D01*
G37*
G36*
X13703827Y-10399761D02*
G01*
X13707071Y-10401929D01*
X13709239Y-10405173D01*
X13710000Y-10409000D01*
X13710000Y-10540000D01*
X13709239Y-10543827D01*
X13707071Y-10547071D01*
X13703827Y-10549239D01*
X13700000Y-10550000D01*
X13560000Y-10550000D01*
X13556173Y-10549239D01*
X13552929Y-10547071D01*
X13550761Y-10543827D01*
X13550000Y-10540000D01*
X13550000Y-10409000D01*
X13550761Y-10405173D01*
X13552929Y-10401929D01*
X13556173Y-10399761D01*
X13560000Y-10399000D01*
X13700000Y-10399000D01*
X13703827Y-10399761D01*
G37*
G36*
X14523827Y-10399761D02*
G01*
X14527071Y-10401929D01*
X14529239Y-10405173D01*
X14530000Y-10409000D01*
X14530000Y-10540000D01*
X14529239Y-10543827D01*
X14527071Y-10547071D01*
X14523827Y-10549239D01*
X14520000Y-10550000D01*
X14380000Y-10550000D01*
X14376173Y-10549239D01*
X14372929Y-10547071D01*
X14370761Y-10543827D01*
X14370000Y-10540000D01*
X14370000Y-10409000D01*
X14370761Y-10405173D01*
X14372929Y-10401929D01*
X14376173Y-10399761D01*
X14380000Y-10399000D01*
X14520000Y-10399000D01*
X14523827Y-10399761D01*
G37*
G36*
X14893827Y-10399761D02*
G01*
X14897071Y-10401929D01*
X14899239Y-10405173D01*
X14900000Y-10409000D01*
X14900000Y-10540000D01*
X14899239Y-10543827D01*
X14897071Y-10547071D01*
X14893827Y-10549239D01*
X14890000Y-10550000D01*
X14750000Y-10550000D01*
X14746173Y-10549239D01*
X14742929Y-10547071D01*
X14740761Y-10543827D01*
X14740000Y-10540000D01*
X14740000Y-10409000D01*
X14740761Y-10405173D01*
X14742929Y-10401929D01*
X14746173Y-10399761D01*
X14750000Y-10399000D01*
X14890000Y-10399000D01*
X14893827Y-10399761D01*
G37*
G36*
X15693827Y-10399761D02*
G01*
X15697071Y-10401929D01*
X15699239Y-10405173D01*
X15700000Y-10409000D01*
X15700000Y-10540000D01*
X15699239Y-10543827D01*
X15697071Y-10547071D01*
X15693827Y-10549239D01*
X15690000Y-10550000D01*
X15550000Y-10550000D01*
X15546173Y-10549239D01*
X15542929Y-10547071D01*
X15540761Y-10543827D01*
X15540000Y-10540000D01*
X15540000Y-10409000D01*
X15540761Y-10405173D01*
X15542929Y-10401929D01*
X15546173Y-10399761D01*
X15550000Y-10399000D01*
X15690000Y-10399000D01*
X15693827Y-10399761D01*
G37*
G36*
X13325485Y-10398258D02*
G01*
X13328729Y-10400426D01*
X13330897Y-10403670D01*
X13331658Y-10407497D01*
X13331658Y-10538497D01*
X13330897Y-10542324D01*
X13328729Y-10545568D01*
X13325485Y-10547736D01*
X13321658Y-10548497D01*
X13181658Y-10548497D01*
X13177831Y-10547736D01*
X13174587Y-10545568D01*
X13172419Y-10542324D01*
X13171658Y-10538497D01*
X13171658Y-10407497D01*
X13172419Y-10403670D01*
X13174587Y-10400426D01*
X13177831Y-10398258D01*
X13181658Y-10397497D01*
X13321658Y-10397497D01*
X13325485Y-10398258D01*
G37*
G36*
X12027577Y-10153091D02*
G01*
X12044783Y-10160218D01*
X12060267Y-10170564D01*
X12073436Y-10183733D01*
X12083782Y-10199217D01*
X12090909Y-10216423D01*
X12094542Y-10234688D01*
X12094542Y-10253312D01*
X12090909Y-10271577D01*
X12083782Y-10288783D01*
X12073436Y-10304267D01*
X12060267Y-10317436D01*
X12044783Y-10327783D01*
X12027577Y-10334909D01*
X12009312Y-10338543D01*
X11990688Y-10338543D01*
X11972423Y-10334909D01*
X11955217Y-10327783D01*
X11939733Y-10317436D01*
X11926564Y-10304267D01*
X11916217Y-10288783D01*
X11909091Y-10271577D01*
X11905457Y-10253312D01*
X11905457Y-10234688D01*
X11909091Y-10216423D01*
X11916217Y-10199217D01*
X11926564Y-10183733D01*
X11939733Y-10170564D01*
X11955217Y-10160218D01*
X11972423Y-10153091D01*
X11990688Y-10149458D01*
X12009312Y-10149458D01*
X12027577Y-10153091D01*
G37*
G36*
X16027577Y-10153091D02*
G01*
X16044783Y-10160218D01*
X16060267Y-10170564D01*
X16073436Y-10183733D01*
X16083782Y-10199217D01*
X16090909Y-10216423D01*
X16094542Y-10234688D01*
X16094542Y-10253312D01*
X16090909Y-10271577D01*
X16083782Y-10288783D01*
X16073436Y-10304267D01*
X16060267Y-10317436D01*
X16044783Y-10327783D01*
X16027577Y-10334909D01*
X16009312Y-10338543D01*
X15990688Y-10338543D01*
X15972423Y-10334909D01*
X15955217Y-10327783D01*
X15939733Y-10317436D01*
X15926564Y-10304267D01*
X15916217Y-10288783D01*
X15909091Y-10271577D01*
X15905457Y-10253312D01*
X15905457Y-10234688D01*
X15909091Y-10216423D01*
X15916217Y-10199217D01*
X15926564Y-10183733D01*
X15939733Y-10170564D01*
X15955217Y-10160218D01*
X15972423Y-10153091D01*
X15990688Y-10149458D01*
X16009312Y-10149458D01*
X16027577Y-10153091D01*
G37*
G36*
X12759707Y-10123131D02*
G01*
X12762951Y-10125299D01*
X12765119Y-10128543D01*
X12765880Y-10132370D01*
X12765880Y-10307630D01*
X12765119Y-10311457D01*
X12762951Y-10314701D01*
X12759707Y-10316869D01*
X12755880Y-10317630D01*
X12644120Y-10317630D01*
X12640293Y-10316869D01*
X12637049Y-10314701D01*
X12634881Y-10311457D01*
X12634120Y-10307630D01*
X12634120Y-10132370D01*
X12634881Y-10128543D01*
X12637049Y-10125299D01*
X12640293Y-10123131D01*
X12644120Y-10122370D01*
X12755880Y-10122370D01*
X12759707Y-10123131D01*
G37*
G36*
X13054347Y-10123131D02*
G01*
X13057591Y-10125299D01*
X13059759Y-10128543D01*
X13060520Y-10132370D01*
X13060520Y-10307630D01*
X13059759Y-10311457D01*
X13057591Y-10314701D01*
X13054347Y-10316869D01*
X13050520Y-10317630D01*
X12938760Y-10317630D01*
X12934933Y-10316869D01*
X12931689Y-10314701D01*
X12929521Y-10311457D01*
X12928760Y-10307630D01*
X12928760Y-10132370D01*
X12929521Y-10128543D01*
X12931689Y-10125299D01*
X12934933Y-10123131D01*
X12938760Y-10122370D01*
X13050520Y-10122370D01*
X13054347Y-10123131D01*
G37*
G36*
X13982387Y-10123131D02*
G01*
X13985631Y-10125299D01*
X13987799Y-10128543D01*
X13988560Y-10132370D01*
X13988560Y-10307630D01*
X13987799Y-10311457D01*
X13985631Y-10314701D01*
X13982387Y-10316869D01*
X13978560Y-10317630D01*
X13866800Y-10317630D01*
X13862973Y-10316869D01*
X13859729Y-10314701D01*
X13857561Y-10311457D01*
X13856800Y-10307630D01*
X13856800Y-10132370D01*
X13857561Y-10128543D01*
X13859729Y-10125299D01*
X13862973Y-10123131D01*
X13866800Y-10122370D01*
X13978560Y-10122370D01*
X13982387Y-10123131D01*
G37*
G36*
X14277027Y-10123131D02*
G01*
X14280271Y-10125299D01*
X14282439Y-10128543D01*
X14283200Y-10132370D01*
X14283200Y-10307630D01*
X14282439Y-10311457D01*
X14280271Y-10314701D01*
X14277027Y-10316869D01*
X14273200Y-10317630D01*
X14161440Y-10317630D01*
X14157613Y-10316869D01*
X14154369Y-10314701D01*
X14152201Y-10311457D01*
X14151440Y-10307630D01*
X14151440Y-10132370D01*
X14152201Y-10128543D01*
X14154369Y-10125299D01*
X14157613Y-10123131D01*
X14161440Y-10122370D01*
X14273200Y-10122370D01*
X14277027Y-10123131D01*
G37*
G36*
X15142387Y-10123131D02*
G01*
X15145631Y-10125299D01*
X15147799Y-10128543D01*
X15148560Y-10132370D01*
X15148560Y-10307630D01*
X15147799Y-10311457D01*
X15145631Y-10314701D01*
X15142387Y-10316869D01*
X15138560Y-10317630D01*
X15026800Y-10317630D01*
X15022973Y-10316869D01*
X15019729Y-10314701D01*
X15017561Y-10311457D01*
X15016800Y-10307630D01*
X15016800Y-10132370D01*
X15017561Y-10128543D01*
X15019729Y-10125299D01*
X15022973Y-10123131D01*
X15026800Y-10122370D01*
X15138560Y-10122370D01*
X15142387Y-10123131D01*
G37*
G36*
X15437027Y-10123131D02*
G01*
X15440271Y-10125299D01*
X15442439Y-10128543D01*
X15443200Y-10132370D01*
X15443200Y-10307630D01*
X15442439Y-10311457D01*
X15440271Y-10314701D01*
X15437027Y-10316869D01*
X15433200Y-10317630D01*
X15321440Y-10317630D01*
X15317613Y-10316869D01*
X15314369Y-10314701D01*
X15312201Y-10311457D01*
X15311440Y-10307630D01*
X15311440Y-10132370D01*
X15312201Y-10128543D01*
X15314369Y-10125299D01*
X15317613Y-10123131D01*
X15321440Y-10122370D01*
X15433200Y-10122370D01*
X15437027Y-10123131D01*
G37*
G36*
X12556327Y-10105761D02*
G01*
X12559571Y-10107929D01*
X12561739Y-10111173D01*
X12562500Y-10115000D01*
X12562500Y-10215000D01*
X12561739Y-10218827D01*
X12559571Y-10222071D01*
X12556327Y-10224239D01*
X12552500Y-10225000D01*
X12407500Y-10225000D01*
X12403673Y-10224239D01*
X12400429Y-10222071D01*
X12398261Y-10218827D01*
X12397500Y-10215000D01*
X12397500Y-10115000D01*
X12398261Y-10111173D01*
X12400429Y-10107929D01*
X12403673Y-10105761D01*
X12407500Y-10105000D01*
X12552500Y-10105000D01*
X12556327Y-10105761D01*
G37*
G36*
X13306327Y-10105761D02*
G01*
X13309571Y-10107929D01*
X13311739Y-10111173D01*
X13312500Y-10115000D01*
X13312500Y-10215000D01*
X13311739Y-10218827D01*
X13309571Y-10222071D01*
X13306327Y-10224239D01*
X13302500Y-10225000D01*
X13157500Y-10225000D01*
X13153673Y-10224239D01*
X13150429Y-10222071D01*
X13148261Y-10218827D01*
X13147500Y-10215000D01*
X13147500Y-10115000D01*
X13148261Y-10111173D01*
X13150429Y-10107929D01*
X13153673Y-10105761D01*
X13157500Y-10105000D01*
X13302500Y-10105000D01*
X13306327Y-10105761D01*
G37*
G36*
X13766327Y-10105761D02*
G01*
X13769571Y-10107929D01*
X13771739Y-10111173D01*
X13772500Y-10115000D01*
X13772500Y-10215000D01*
X13771739Y-10218827D01*
X13769571Y-10222071D01*
X13766327Y-10224239D01*
X13762500Y-10225000D01*
X13617500Y-10225000D01*
X13613673Y-10224239D01*
X13610429Y-10222071D01*
X13608261Y-10218827D01*
X13607500Y-10215000D01*
X13607500Y-10115000D01*
X13608261Y-10111173D01*
X13610429Y-10107929D01*
X13613673Y-10105761D01*
X13617500Y-10105000D01*
X13762500Y-10105000D01*
X13766327Y-10105761D01*
G37*
G36*
X14516327Y-10105761D02*
G01*
X14519571Y-10107929D01*
X14521739Y-10111173D01*
X14522500Y-10115000D01*
X14522500Y-10215000D01*
X14521739Y-10218827D01*
X14519571Y-10222071D01*
X14516327Y-10224239D01*
X14512500Y-10225000D01*
X14367500Y-10225000D01*
X14363673Y-10224239D01*
X14360429Y-10222071D01*
X14358261Y-10218827D01*
X14357500Y-10215000D01*
X14357500Y-10115000D01*
X14358261Y-10111173D01*
X14360429Y-10107929D01*
X14363673Y-10105761D01*
X14367500Y-10105000D01*
X14512500Y-10105000D01*
X14516327Y-10105761D01*
G37*
G36*
X14936327Y-10105761D02*
G01*
X14939571Y-10107929D01*
X14941739Y-10111173D01*
X14942500Y-10115000D01*
X14942500Y-10215000D01*
X14941739Y-10218827D01*
X14939571Y-10222071D01*
X14936327Y-10224239D01*
X14932500Y-10225000D01*
X14787500Y-10225000D01*
X14783673Y-10224239D01*
X14780429Y-10222071D01*
X14778261Y-10218827D01*
X14777500Y-10215000D01*
X14777500Y-10115000D01*
X14778261Y-10111173D01*
X14780429Y-10107929D01*
X14783673Y-10105761D01*
X14787500Y-10105000D01*
X14932500Y-10105000D01*
X14936327Y-10105761D01*
G37*
G36*
X15676327Y-10105761D02*
G01*
X15679571Y-10107929D01*
X15681739Y-10111173D01*
X15682500Y-10115000D01*
X15682500Y-10215000D01*
X15681739Y-10218827D01*
X15679571Y-10222071D01*
X15676327Y-10224239D01*
X15672500Y-10225000D01*
X15527500Y-10225000D01*
X15523673Y-10224239D01*
X15520429Y-10222071D01*
X15518261Y-10218827D01*
X15517500Y-10215000D01*
X15517500Y-10115000D01*
X15518261Y-10111173D01*
X15520429Y-10107929D01*
X15523673Y-10105761D01*
X15527500Y-10105000D01*
X15672500Y-10105000D01*
X15676327Y-10105761D01*
G37*
G36*
X12027577Y-9899091D02*
G01*
X12044783Y-9906218D01*
X12060267Y-9916564D01*
X12073436Y-9929733D01*
X12083782Y-9945217D01*
X12090909Y-9962423D01*
X12094542Y-9980688D01*
X12094542Y-9999312D01*
X12090909Y-10017577D01*
X12083782Y-10034783D01*
X12073436Y-10050267D01*
X12060267Y-10063436D01*
X12044783Y-10073783D01*
X12027577Y-10080909D01*
X12009312Y-10084543D01*
X11990688Y-10084543D01*
X11972423Y-10080909D01*
X11955217Y-10073783D01*
X11939733Y-10063436D01*
X11926564Y-10050267D01*
X11916217Y-10034783D01*
X11909091Y-10017577D01*
X11905457Y-9999312D01*
X11905457Y-9980688D01*
X11909091Y-9962423D01*
X11916217Y-9945217D01*
X11926564Y-9929733D01*
X11939733Y-9916564D01*
X11955217Y-9906218D01*
X11972423Y-9899091D01*
X11990688Y-9895458D01*
X12009312Y-9895458D01*
X12027577Y-9899091D01*
G37*
G36*
X16027577Y-9899091D02*
G01*
X16044783Y-9906218D01*
X16060267Y-9916564D01*
X16073436Y-9929733D01*
X16083782Y-9945217D01*
X16090909Y-9962423D01*
X16094542Y-9980688D01*
X16094542Y-9999312D01*
X16090909Y-10017577D01*
X16083782Y-10034783D01*
X16073436Y-10050267D01*
X16060267Y-10063436D01*
X16044783Y-10073783D01*
X16027577Y-10080909D01*
X16009312Y-10084543D01*
X15990688Y-10084543D01*
X15972423Y-10080909D01*
X15955217Y-10073783D01*
X15939733Y-10063436D01*
X15926564Y-10050267D01*
X15916217Y-10034783D01*
X15909091Y-10017577D01*
X15905457Y-9999312D01*
X15905457Y-9980688D01*
X15909091Y-9962423D01*
X15916217Y-9945217D01*
X15926564Y-9929733D01*
X15939733Y-9916564D01*
X15955217Y-9906218D01*
X15972423Y-9899091D01*
X15990688Y-9895458D01*
X16009312Y-9895458D01*
X16027577Y-9899091D01*
G37*
G36*
X12556327Y-9915761D02*
G01*
X12559571Y-9917929D01*
X12561739Y-9921173D01*
X12562500Y-9925000D01*
X12562500Y-10025000D01*
X12561739Y-10028827D01*
X12559571Y-10032071D01*
X12556327Y-10034239D01*
X12552500Y-10035000D01*
X12407500Y-10035000D01*
X12403673Y-10034239D01*
X12400429Y-10032071D01*
X12398261Y-10028827D01*
X12397500Y-10025000D01*
X12397500Y-9925000D01*
X12398261Y-9921173D01*
X12400429Y-9917929D01*
X12403673Y-9915761D01*
X12407500Y-9915000D01*
X12552500Y-9915000D01*
X12556327Y-9915761D01*
G37*
G36*
X13306327Y-9915761D02*
G01*
X13309571Y-9917929D01*
X13311739Y-9921173D01*
X13312500Y-9925000D01*
X13312500Y-10025000D01*
X13311739Y-10028827D01*
X13309571Y-10032071D01*
X13306327Y-10034239D01*
X13302500Y-10035000D01*
X13157500Y-10035000D01*
X13153673Y-10034239D01*
X13150429Y-10032071D01*
X13148261Y-10028827D01*
X13147500Y-10025000D01*
X13147500Y-9925000D01*
X13148261Y-9921173D01*
X13150429Y-9917929D01*
X13153673Y-9915761D01*
X13157500Y-9915000D01*
X13302500Y-9915000D01*
X13306327Y-9915761D01*
G37*
G36*
X13766327Y-9915761D02*
G01*
X13769571Y-9917929D01*
X13771739Y-9921173D01*
X13772500Y-9925000D01*
X13772500Y-10025000D01*
X13771739Y-10028827D01*
X13769571Y-10032071D01*
X13766327Y-10034239D01*
X13762500Y-10035000D01*
X13617500Y-10035000D01*
X13613673Y-10034239D01*
X13610429Y-10032071D01*
X13608261Y-10028827D01*
X13607500Y-10025000D01*
X13607500Y-9925000D01*
X13608261Y-9921173D01*
X13610429Y-9917929D01*
X13613673Y-9915761D01*
X13617500Y-9915000D01*
X13762500Y-9915000D01*
X13766327Y-9915761D01*
G37*
G36*
X14516327Y-9915761D02*
G01*
X14519571Y-9917929D01*
X14521739Y-9921173D01*
X14522500Y-9925000D01*
X14522500Y-10025000D01*
X14521739Y-10028827D01*
X14519571Y-10032071D01*
X14516327Y-10034239D01*
X14512500Y-10035000D01*
X14367500Y-10035000D01*
X14363673Y-10034239D01*
X14360429Y-10032071D01*
X14358261Y-10028827D01*
X14357500Y-10025000D01*
X14357500Y-9925000D01*
X14358261Y-9921173D01*
X14360429Y-9917929D01*
X14363673Y-9915761D01*
X14367500Y-9915000D01*
X14512500Y-9915000D01*
X14516327Y-9915761D01*
G37*
G36*
X14936327Y-9915761D02*
G01*
X14939571Y-9917929D01*
X14941739Y-9921173D01*
X14942500Y-9925000D01*
X14942500Y-10025000D01*
X14941739Y-10028827D01*
X14939571Y-10032071D01*
X14936327Y-10034239D01*
X14932500Y-10035000D01*
X14787500Y-10035000D01*
X14783673Y-10034239D01*
X14780429Y-10032071D01*
X14778261Y-10028827D01*
X14777500Y-10025000D01*
X14777500Y-9925000D01*
X14778261Y-9921173D01*
X14780429Y-9917929D01*
X14783673Y-9915761D01*
X14787500Y-9915000D01*
X14932500Y-9915000D01*
X14936327Y-9915761D01*
G37*
G36*
X15676327Y-9915761D02*
G01*
X15679571Y-9917929D01*
X15681739Y-9921173D01*
X15682500Y-9925000D01*
X15682500Y-10025000D01*
X15681739Y-10028827D01*
X15679571Y-10032071D01*
X15676327Y-10034239D01*
X15672500Y-10035000D01*
X15527500Y-10035000D01*
X15523673Y-10034239D01*
X15520429Y-10032071D01*
X15518261Y-10028827D01*
X15517500Y-10025000D01*
X15517500Y-9925000D01*
X15518261Y-9921173D01*
X15520429Y-9917929D01*
X15523673Y-9915761D01*
X15527500Y-9915000D01*
X15672500Y-9915000D01*
X15676327Y-9915761D01*
G37*
G36*
X14030537Y-9871261D02*
G01*
X14033781Y-9873429D01*
X14035949Y-9876673D01*
X14036710Y-9880500D01*
X14036710Y-10019500D01*
X14035949Y-10023327D01*
X14033781Y-10026571D01*
X14030537Y-10028739D01*
X14026710Y-10029500D01*
X13935710Y-10029500D01*
X13931883Y-10028739D01*
X13928639Y-10026571D01*
X13926471Y-10023327D01*
X13925710Y-10019500D01*
X13925710Y-9880500D01*
X13926471Y-9876673D01*
X13928639Y-9873429D01*
X13931883Y-9871261D01*
X13935710Y-9870500D01*
X14026710Y-9870500D01*
X14030537Y-9871261D01*
G37*
G36*
X14194537Y-9871261D02*
G01*
X14197781Y-9873429D01*
X14199949Y-9876673D01*
X14200710Y-9880500D01*
X14200710Y-10019500D01*
X14199949Y-10023327D01*
X14197781Y-10026571D01*
X14194537Y-10028739D01*
X14190710Y-10029500D01*
X14099710Y-10029500D01*
X14095883Y-10028739D01*
X14092639Y-10026571D01*
X14090471Y-10023327D01*
X14089710Y-10019500D01*
X14089710Y-9880500D01*
X14090471Y-9876673D01*
X14092639Y-9873429D01*
X14095883Y-9871261D01*
X14099710Y-9870500D01*
X14190710Y-9870500D01*
X14194537Y-9871261D01*
G37*
G36*
X15194647Y-9871261D02*
G01*
X15197891Y-9873429D01*
X15200059Y-9876673D01*
X15200820Y-9880500D01*
X15200820Y-10019500D01*
X15200059Y-10023327D01*
X15197891Y-10026571D01*
X15194647Y-10028739D01*
X15190820Y-10029500D01*
X15099820Y-10029500D01*
X15095993Y-10028739D01*
X15092749Y-10026571D01*
X15090581Y-10023327D01*
X15089820Y-10019500D01*
X15089820Y-9880500D01*
X15090581Y-9876673D01*
X15092749Y-9873429D01*
X15095993Y-9871261D01*
X15099820Y-9870500D01*
X15190820Y-9870500D01*
X15194647Y-9871261D01*
G37*
G36*
X15358647Y-9871261D02*
G01*
X15361891Y-9873429D01*
X15364059Y-9876673D01*
X15364820Y-9880500D01*
X15364820Y-10019500D01*
X15364059Y-10023327D01*
X15361891Y-10026571D01*
X15358647Y-10028739D01*
X15354820Y-10029500D01*
X15263820Y-10029500D01*
X15259993Y-10028739D01*
X15256749Y-10026571D01*
X15254581Y-10023327D01*
X15253820Y-10019500D01*
X15253820Y-9880500D01*
X15254581Y-9876673D01*
X15256749Y-9873429D01*
X15259993Y-9871261D01*
X15263820Y-9870500D01*
X15354820Y-9870500D01*
X15358647Y-9871261D01*
G37*
G36*
X12822647Y-9868761D02*
G01*
X12825891Y-9870929D01*
X12828059Y-9874173D01*
X12828820Y-9878000D01*
X12828820Y-10017000D01*
X12828059Y-10020827D01*
X12825891Y-10024071D01*
X12822647Y-10026239D01*
X12818820Y-10027000D01*
X12727820Y-10027000D01*
X12723993Y-10026239D01*
X12720749Y-10024071D01*
X12718581Y-10020827D01*
X12717820Y-10017000D01*
X12717820Y-9878000D01*
X12718581Y-9874173D01*
X12720749Y-9870929D01*
X12723993Y-9868761D01*
X12727820Y-9868000D01*
X12818820Y-9868000D01*
X12822647Y-9868761D01*
G37*
G36*
X12986647Y-9868761D02*
G01*
X12989891Y-9870929D01*
X12992059Y-9874173D01*
X12992820Y-9878000D01*
X12992820Y-10017000D01*
X12992059Y-10020827D01*
X12989891Y-10024071D01*
X12986647Y-10026239D01*
X12982820Y-10027000D01*
X12891820Y-10027000D01*
X12887993Y-10026239D01*
X12884749Y-10024071D01*
X12882581Y-10020827D01*
X12881820Y-10017000D01*
X12881820Y-9878000D01*
X12882581Y-9874173D01*
X12884749Y-9870929D01*
X12887993Y-9868761D01*
X12891820Y-9868000D01*
X12982820Y-9868000D01*
X12986647Y-9868761D01*
G37*
G36*
X12027577Y-9645091D02*
G01*
X12044783Y-9652218D01*
X12060267Y-9662564D01*
X12073436Y-9675733D01*
X12083782Y-9691217D01*
X12090909Y-9708423D01*
X12094542Y-9726688D01*
X12094542Y-9745312D01*
X12090909Y-9763577D01*
X12083782Y-9780783D01*
X12073436Y-9796267D01*
X12060267Y-9809436D01*
X12044783Y-9819783D01*
X12027577Y-9826909D01*
X12009312Y-9830543D01*
X11990688Y-9830543D01*
X11972423Y-9826909D01*
X11955217Y-9819783D01*
X11939733Y-9809436D01*
X11926564Y-9796267D01*
X11916217Y-9780783D01*
X11909091Y-9763577D01*
X11905457Y-9745312D01*
X11905457Y-9726688D01*
X11909091Y-9708423D01*
X11916217Y-9691217D01*
X11926564Y-9675733D01*
X11939733Y-9662564D01*
X11955217Y-9652218D01*
X11972423Y-9645091D01*
X11990688Y-9641458D01*
X12009312Y-9641458D01*
X12027577Y-9645091D01*
G37*
G36*
X16027577Y-9645091D02*
G01*
X16044783Y-9652218D01*
X16060267Y-9662564D01*
X16073436Y-9675733D01*
X16083782Y-9691217D01*
X16090909Y-9708423D01*
X16094542Y-9726688D01*
X16094542Y-9745312D01*
X16090909Y-9763577D01*
X16083782Y-9780783D01*
X16073436Y-9796267D01*
X16060267Y-9809436D01*
X16044783Y-9819783D01*
X16027577Y-9826909D01*
X16009312Y-9830543D01*
X15990688Y-9830543D01*
X15972423Y-9826909D01*
X15955217Y-9819783D01*
X15939733Y-9809436D01*
X15926564Y-9796267D01*
X15916217Y-9780783D01*
X15909091Y-9763577D01*
X15905457Y-9745312D01*
X15905457Y-9726688D01*
X15909091Y-9708423D01*
X15916217Y-9691217D01*
X15926564Y-9675733D01*
X15939733Y-9662564D01*
X15955217Y-9652218D01*
X15972423Y-9645091D01*
X15990688Y-9641458D01*
X16009312Y-9641458D01*
X16027577Y-9645091D01*
G37*
G36*
X12526327Y-9708261D02*
G01*
X12529571Y-9710429D01*
X12531739Y-9713673D01*
X12532500Y-9717500D01*
X12532500Y-9817500D01*
X12531739Y-9821327D01*
X12529571Y-9824571D01*
X12526327Y-9826739D01*
X12522500Y-9827500D01*
X12377500Y-9827500D01*
X12373673Y-9826739D01*
X12370429Y-9824571D01*
X12368261Y-9821327D01*
X12367500Y-9817500D01*
X12367500Y-9717500D01*
X12368261Y-9713673D01*
X12370429Y-9710429D01*
X12373673Y-9708261D01*
X12377500Y-9707500D01*
X12522500Y-9707500D01*
X12526327Y-9708261D01*
G37*
G36*
X13736327Y-9708261D02*
G01*
X13739571Y-9710429D01*
X13741739Y-9713673D01*
X13742500Y-9717500D01*
X13742500Y-9817500D01*
X13741739Y-9821327D01*
X13739571Y-9824571D01*
X13736327Y-9826739D01*
X13732500Y-9827500D01*
X13587500Y-9827500D01*
X13583673Y-9826739D01*
X13580429Y-9824571D01*
X13578261Y-9821327D01*
X13577500Y-9817500D01*
X13577500Y-9717500D01*
X13578261Y-9713673D01*
X13580429Y-9710429D01*
X13583673Y-9708261D01*
X13587500Y-9707500D01*
X13732500Y-9707500D01*
X13736327Y-9708261D01*
G37*
G36*
X14906327Y-9708261D02*
G01*
X14909571Y-9710429D01*
X14911739Y-9713673D01*
X14912500Y-9717500D01*
X14912500Y-9817500D01*
X14911739Y-9821327D01*
X14909571Y-9824571D01*
X14906327Y-9826739D01*
X14902500Y-9827500D01*
X14757500Y-9827500D01*
X14753673Y-9826739D01*
X14750429Y-9824571D01*
X14748261Y-9821327D01*
X14747500Y-9817500D01*
X14747500Y-9717500D01*
X14748261Y-9713673D01*
X14750429Y-9710429D01*
X14753673Y-9708261D01*
X14757500Y-9707500D01*
X14902500Y-9707500D01*
X14906327Y-9708261D01*
G37*
G36*
X12782787Y-9690361D02*
G01*
X12786031Y-9692529D01*
X12788199Y-9695773D01*
X12788960Y-9699600D01*
X12788960Y-9750400D01*
X12788199Y-9754227D01*
X12786031Y-9757471D01*
X12782787Y-9759639D01*
X12778960Y-9760400D01*
X12679900Y-9760400D01*
X12676073Y-9759639D01*
X12672829Y-9757471D01*
X12670661Y-9754227D01*
X12669900Y-9750400D01*
X12669900Y-9699600D01*
X12670661Y-9695773D01*
X12672829Y-9692529D01*
X12676073Y-9690361D01*
X12679900Y-9689600D01*
X12778960Y-9689600D01*
X12782787Y-9690361D01*
G37*
G36*
X13054567Y-9690361D02*
G01*
X13057811Y-9692529D01*
X13059979Y-9695773D01*
X13060740Y-9699600D01*
X13060740Y-9750400D01*
X13059979Y-9754227D01*
X13057811Y-9757471D01*
X13054567Y-9759639D01*
X13050740Y-9760400D01*
X12951680Y-9760400D01*
X12947853Y-9759639D01*
X12944609Y-9757471D01*
X12942441Y-9754227D01*
X12941680Y-9750400D01*
X12941680Y-9699600D01*
X12942441Y-9695773D01*
X12944609Y-9692529D01*
X12947853Y-9690361D01*
X12951680Y-9689600D01*
X13050740Y-9689600D01*
X13054567Y-9690361D01*
G37*
G36*
X13974787Y-9690361D02*
G01*
X13978031Y-9692529D01*
X13980199Y-9695773D01*
X13980960Y-9699600D01*
X13980960Y-9750400D01*
X13980199Y-9754227D01*
X13978031Y-9757471D01*
X13974787Y-9759639D01*
X13970960Y-9760400D01*
X13871900Y-9760400D01*
X13868073Y-9759639D01*
X13864829Y-9757471D01*
X13862661Y-9754227D01*
X13861900Y-9750400D01*
X13861900Y-9699600D01*
X13862661Y-9695773D01*
X13864829Y-9692529D01*
X13868073Y-9690361D01*
X13871900Y-9689600D01*
X13970960Y-9689600D01*
X13974787Y-9690361D01*
G37*
G36*
X14246567Y-9690361D02*
G01*
X14249811Y-9692529D01*
X14251979Y-9695773D01*
X14252740Y-9699600D01*
X14252740Y-9750400D01*
X14251979Y-9754227D01*
X14249811Y-9757471D01*
X14246567Y-9759639D01*
X14242740Y-9760400D01*
X14143680Y-9760400D01*
X14139853Y-9759639D01*
X14136609Y-9757471D01*
X14134441Y-9754227D01*
X14133680Y-9750400D01*
X14133680Y-9699600D01*
X14134441Y-9695773D01*
X14136609Y-9692529D01*
X14139853Y-9690361D01*
X14143680Y-9689600D01*
X14242740Y-9689600D01*
X14246567Y-9690361D01*
G37*
G36*
X15134787Y-9690361D02*
G01*
X15138031Y-9692529D01*
X15140199Y-9695773D01*
X15140960Y-9699600D01*
X15140960Y-9750400D01*
X15140199Y-9754227D01*
X15138031Y-9757471D01*
X15134787Y-9759639D01*
X15130960Y-9760400D01*
X15031900Y-9760400D01*
X15028073Y-9759639D01*
X15024829Y-9757471D01*
X15022661Y-9754227D01*
X15021900Y-9750400D01*
X15021900Y-9699600D01*
X15022661Y-9695773D01*
X15024829Y-9692529D01*
X15028073Y-9690361D01*
X15031900Y-9689600D01*
X15130960Y-9689600D01*
X15134787Y-9690361D01*
G37*
G36*
X15406567Y-9690361D02*
G01*
X15409811Y-9692529D01*
X15411979Y-9695773D01*
X15412740Y-9699600D01*
X15412740Y-9750400D01*
X15411979Y-9754227D01*
X15409811Y-9757471D01*
X15406567Y-9759639D01*
X15402740Y-9760400D01*
X15303680Y-9760400D01*
X15299853Y-9759639D01*
X15296609Y-9757471D01*
X15294441Y-9754227D01*
X15293680Y-9750400D01*
X15293680Y-9699600D01*
X15294441Y-9695773D01*
X15296609Y-9692529D01*
X15299853Y-9690361D01*
X15303680Y-9689600D01*
X15402740Y-9689600D01*
X15406567Y-9690361D01*
G37*
G36*
X14430827Y-9631261D02*
G01*
X14434071Y-9633429D01*
X14436239Y-9636673D01*
X14437000Y-9640500D01*
X14437000Y-9723500D01*
X14436239Y-9727327D01*
X14434071Y-9730571D01*
X14430827Y-9732739D01*
X14427000Y-9733500D01*
X14333000Y-9733500D01*
X14329173Y-9732739D01*
X14325929Y-9730571D01*
X14323761Y-9727327D01*
X14323000Y-9723500D01*
X14323000Y-9640500D01*
X14323761Y-9636673D01*
X14325929Y-9633429D01*
X14329173Y-9631261D01*
X14333000Y-9630500D01*
X14427000Y-9630500D01*
X14430827Y-9631261D01*
G37*
G36*
X15590827Y-9631261D02*
G01*
X15594071Y-9633429D01*
X15596239Y-9636673D01*
X15597000Y-9640500D01*
X15597000Y-9723500D01*
X15596239Y-9727327D01*
X15594071Y-9730571D01*
X15590827Y-9732739D01*
X15587000Y-9733500D01*
X15493000Y-9733500D01*
X15489173Y-9732739D01*
X15485929Y-9730571D01*
X15483761Y-9727327D01*
X15483000Y-9723500D01*
X15483000Y-9640500D01*
X15483761Y-9636673D01*
X15485929Y-9633429D01*
X15489173Y-9631261D01*
X15493000Y-9630500D01*
X15587000Y-9630500D01*
X15590827Y-9631261D01*
G37*
G36*
X13230827Y-9630261D02*
G01*
X13234071Y-9632429D01*
X13236239Y-9635673D01*
X13237000Y-9639500D01*
X13237000Y-9722500D01*
X13236239Y-9726327D01*
X13234071Y-9729571D01*
X13230827Y-9731739D01*
X13227000Y-9732500D01*
X13133000Y-9732500D01*
X13129173Y-9731739D01*
X13125929Y-9729571D01*
X13123761Y-9726327D01*
X13123000Y-9722500D01*
X13123000Y-9639500D01*
X13123761Y-9635673D01*
X13125929Y-9632429D01*
X13129173Y-9630261D01*
X13133000Y-9629500D01*
X13227000Y-9629500D01*
X13230827Y-9630261D01*
G37*
G36*
X12782787Y-9595361D02*
G01*
X12786031Y-9597529D01*
X12788199Y-9600773D01*
X12788960Y-9604600D01*
X12788960Y-9655400D01*
X12788199Y-9659227D01*
X12786031Y-9662471D01*
X12782787Y-9664639D01*
X12778960Y-9665400D01*
X12679900Y-9665400D01*
X12676073Y-9664639D01*
X12672829Y-9662471D01*
X12670661Y-9659227D01*
X12669900Y-9655400D01*
X12669900Y-9604600D01*
X12670661Y-9600773D01*
X12672829Y-9597529D01*
X12676073Y-9595361D01*
X12679900Y-9594600D01*
X12778960Y-9594600D01*
X12782787Y-9595361D01*
G37*
G36*
X13974787Y-9595361D02*
G01*
X13978031Y-9597529D01*
X13980199Y-9600773D01*
X13980960Y-9604600D01*
X13980960Y-9655400D01*
X13980199Y-9659227D01*
X13978031Y-9662471D01*
X13974787Y-9664639D01*
X13970960Y-9665400D01*
X13871900Y-9665400D01*
X13868073Y-9664639D01*
X13864829Y-9662471D01*
X13862661Y-9659227D01*
X13861900Y-9655400D01*
X13861900Y-9604600D01*
X13862661Y-9600773D01*
X13864829Y-9597529D01*
X13868073Y-9595361D01*
X13871900Y-9594600D01*
X13970960Y-9594600D01*
X13974787Y-9595361D01*
G37*
G36*
X15134787Y-9595361D02*
G01*
X15138031Y-9597529D01*
X15140199Y-9600773D01*
X15140960Y-9604600D01*
X15140960Y-9655400D01*
X15140199Y-9659227D01*
X15138031Y-9662471D01*
X15134787Y-9664639D01*
X15130960Y-9665400D01*
X15031900Y-9665400D01*
X15028073Y-9664639D01*
X15024829Y-9662471D01*
X15022661Y-9659227D01*
X15021900Y-9655400D01*
X15021900Y-9604600D01*
X15022661Y-9600773D01*
X15024829Y-9597529D01*
X15028073Y-9595361D01*
X15031900Y-9594600D01*
X15130960Y-9594600D01*
X15134787Y-9595361D01*
G37*
G36*
X12526327Y-9518261D02*
G01*
X12529571Y-9520429D01*
X12531739Y-9523673D01*
X12532500Y-9527500D01*
X12532500Y-9627500D01*
X12531739Y-9631327D01*
X12529571Y-9634571D01*
X12526327Y-9636739D01*
X12522500Y-9637500D01*
X12377500Y-9637500D01*
X12373673Y-9636739D01*
X12370429Y-9634571D01*
X12368261Y-9631327D01*
X12367500Y-9627500D01*
X12367500Y-9527500D01*
X12368261Y-9523673D01*
X12370429Y-9520429D01*
X12373673Y-9518261D01*
X12377500Y-9517500D01*
X12522500Y-9517500D01*
X12526327Y-9518261D01*
G37*
G36*
X13736327Y-9518261D02*
G01*
X13739571Y-9520429D01*
X13741739Y-9523673D01*
X13742500Y-9527500D01*
X13742500Y-9627500D01*
X13741739Y-9631327D01*
X13739571Y-9634571D01*
X13736327Y-9636739D01*
X13732500Y-9637500D01*
X13587500Y-9637500D01*
X13583673Y-9636739D01*
X13580429Y-9634571D01*
X13578261Y-9631327D01*
X13577500Y-9627500D01*
X13577500Y-9527500D01*
X13578261Y-9523673D01*
X13580429Y-9520429D01*
X13583673Y-9518261D01*
X13587500Y-9517500D01*
X13732500Y-9517500D01*
X13736327Y-9518261D01*
G37*
G36*
X14906327Y-9518261D02*
G01*
X14909571Y-9520429D01*
X14911739Y-9523673D01*
X14912500Y-9527500D01*
X14912500Y-9627500D01*
X14911739Y-9631327D01*
X14909571Y-9634571D01*
X14906327Y-9636739D01*
X14902500Y-9637500D01*
X14757500Y-9637500D01*
X14753673Y-9636739D01*
X14750429Y-9634571D01*
X14748261Y-9631327D01*
X14747500Y-9627500D01*
X14747500Y-9527500D01*
X14748261Y-9523673D01*
X14750429Y-9520429D01*
X14753673Y-9518261D01*
X14757500Y-9517500D01*
X14902500Y-9517500D01*
X14906327Y-9518261D01*
G37*
G36*
X14430827Y-9499261D02*
G01*
X14434071Y-9501429D01*
X14436239Y-9504673D01*
X14437000Y-9508500D01*
X14437000Y-9591500D01*
X14436239Y-9595327D01*
X14434071Y-9598571D01*
X14430827Y-9600739D01*
X14427000Y-9601500D01*
X14333000Y-9601500D01*
X14329173Y-9600739D01*
X14325929Y-9598571D01*
X14323761Y-9595327D01*
X14323000Y-9591500D01*
X14323000Y-9508500D01*
X14323761Y-9504673D01*
X14325929Y-9501429D01*
X14329173Y-9499261D01*
X14333000Y-9498500D01*
X14427000Y-9498500D01*
X14430827Y-9499261D01*
G37*
G36*
X15590827Y-9499261D02*
G01*
X15594071Y-9501429D01*
X15596239Y-9504673D01*
X15597000Y-9508500D01*
X15597000Y-9591500D01*
X15596239Y-9595327D01*
X15594071Y-9598571D01*
X15590827Y-9600739D01*
X15587000Y-9601500D01*
X15493000Y-9601500D01*
X15489173Y-9600739D01*
X15485929Y-9598571D01*
X15483761Y-9595327D01*
X15483000Y-9591500D01*
X15483000Y-9508500D01*
X15483761Y-9504673D01*
X15485929Y-9501429D01*
X15489173Y-9499261D01*
X15493000Y-9498500D01*
X15587000Y-9498500D01*
X15590827Y-9499261D01*
G37*
G36*
X13230827Y-9498261D02*
G01*
X13234071Y-9500429D01*
X13236239Y-9503673D01*
X13237000Y-9507500D01*
X13237000Y-9590500D01*
X13236239Y-9594327D01*
X13234071Y-9597571D01*
X13230827Y-9599739D01*
X13227000Y-9600500D01*
X13133000Y-9600500D01*
X13129173Y-9599739D01*
X13125929Y-9597571D01*
X13123761Y-9594327D01*
X13123000Y-9590500D01*
X13123000Y-9507500D01*
X13123761Y-9503673D01*
X13125929Y-9500429D01*
X13129173Y-9498261D01*
X13133000Y-9497500D01*
X13227000Y-9497500D01*
X13230827Y-9498261D01*
G37*
G36*
X12027577Y-9391091D02*
G01*
X12044783Y-9398218D01*
X12060267Y-9408564D01*
X12073436Y-9421733D01*
X12083782Y-9437217D01*
X12090909Y-9454423D01*
X12094542Y-9472688D01*
X12094542Y-9491312D01*
X12090909Y-9509577D01*
X12083782Y-9526783D01*
X12073436Y-9542267D01*
X12060267Y-9555436D01*
X12044783Y-9565783D01*
X12027577Y-9572909D01*
X12009312Y-9576543D01*
X11990688Y-9576543D01*
X11972423Y-9572909D01*
X11955217Y-9565783D01*
X11939733Y-9555436D01*
X11926564Y-9542267D01*
X11916217Y-9526783D01*
X11909091Y-9509577D01*
X11905457Y-9491312D01*
X11905457Y-9472688D01*
X11909091Y-9454423D01*
X11916217Y-9437217D01*
X11926564Y-9421733D01*
X11939733Y-9408564D01*
X11955217Y-9398218D01*
X11972423Y-9391091D01*
X11990688Y-9387458D01*
X12009312Y-9387458D01*
X12027577Y-9391091D01*
G37*
G36*
X16027577Y-9391091D02*
G01*
X16044783Y-9398218D01*
X16060267Y-9408564D01*
X16073436Y-9421733D01*
X16083782Y-9437217D01*
X16090909Y-9454423D01*
X16094542Y-9472688D01*
X16094542Y-9491312D01*
X16090909Y-9509577D01*
X16083782Y-9526783D01*
X16073436Y-9542267D01*
X16060267Y-9555436D01*
X16044783Y-9565783D01*
X16027577Y-9572909D01*
X16009312Y-9576543D01*
X15990688Y-9576543D01*
X15972423Y-9572909D01*
X15955217Y-9565783D01*
X15939733Y-9555436D01*
X15926564Y-9542267D01*
X15916217Y-9526783D01*
X15909091Y-9509577D01*
X15905457Y-9491312D01*
X15905457Y-9472688D01*
X15909091Y-9454423D01*
X15916217Y-9437217D01*
X15926564Y-9421733D01*
X15939733Y-9408564D01*
X15955217Y-9398218D01*
X15972423Y-9391091D01*
X15990688Y-9387458D01*
X16009312Y-9387458D01*
X16027577Y-9391091D01*
G37*
G36*
X12782787Y-9500361D02*
G01*
X12786031Y-9502529D01*
X12788199Y-9505773D01*
X12788960Y-9509600D01*
X12788960Y-9560400D01*
X12788199Y-9564227D01*
X12786031Y-9567471D01*
X12782787Y-9569639D01*
X12778960Y-9570400D01*
X12679900Y-9570400D01*
X12676073Y-9569639D01*
X12672829Y-9567471D01*
X12670661Y-9564227D01*
X12669900Y-9560400D01*
X12669900Y-9509600D01*
X12670661Y-9505773D01*
X12672829Y-9502529D01*
X12676073Y-9500361D01*
X12679900Y-9499600D01*
X12778960Y-9499600D01*
X12782787Y-9500361D01*
G37*
G36*
X13054567Y-9500361D02*
G01*
X13057811Y-9502529D01*
X13059979Y-9505773D01*
X13060740Y-9509600D01*
X13060740Y-9560400D01*
X13059979Y-9564227D01*
X13057811Y-9567471D01*
X13054567Y-9569639D01*
X13050740Y-9570400D01*
X12951680Y-9570400D01*
X12947853Y-9569639D01*
X12944609Y-9567471D01*
X12942441Y-9564227D01*
X12941680Y-9560400D01*
X12941680Y-9509600D01*
X12942441Y-9505773D01*
X12944609Y-9502529D01*
X12947853Y-9500361D01*
X12951680Y-9499600D01*
X13050740Y-9499600D01*
X13054567Y-9500361D01*
G37*
G36*
X13974787Y-9500361D02*
G01*
X13978031Y-9502529D01*
X13980199Y-9505773D01*
X13980960Y-9509600D01*
X13980960Y-9560400D01*
X13980199Y-9564227D01*
X13978031Y-9567471D01*
X13974787Y-9569639D01*
X13970960Y-9570400D01*
X13871900Y-9570400D01*
X13868073Y-9569639D01*
X13864829Y-9567471D01*
X13862661Y-9564227D01*
X13861900Y-9560400D01*
X13861900Y-9509600D01*
X13862661Y-9505773D01*
X13864829Y-9502529D01*
X13868073Y-9500361D01*
X13871900Y-9499600D01*
X13970960Y-9499600D01*
X13974787Y-9500361D01*
G37*
G36*
X14246567Y-9500361D02*
G01*
X14249811Y-9502529D01*
X14251979Y-9505773D01*
X14252740Y-9509600D01*
X14252740Y-9560400D01*
X14251979Y-9564227D01*
X14249811Y-9567471D01*
X14246567Y-9569639D01*
X14242740Y-9570400D01*
X14143680Y-9570400D01*
X14139853Y-9569639D01*
X14136609Y-9567471D01*
X14134441Y-9564227D01*
X14133680Y-9560400D01*
X14133680Y-9509600D01*
X14134441Y-9505773D01*
X14136609Y-9502529D01*
X14139853Y-9500361D01*
X14143680Y-9499600D01*
X14242740Y-9499600D01*
X14246567Y-9500361D01*
G37*
G36*
X15134787Y-9500361D02*
G01*
X15138031Y-9502529D01*
X15140199Y-9505773D01*
X15140960Y-9509600D01*
X15140960Y-9560400D01*
X15140199Y-9564227D01*
X15138031Y-9567471D01*
X15134787Y-9569639D01*
X15130960Y-9570400D01*
X15031900Y-9570400D01*
X15028073Y-9569639D01*
X15024829Y-9567471D01*
X15022661Y-9564227D01*
X15021900Y-9560400D01*
X15021900Y-9509600D01*
X15022661Y-9505773D01*
X15024829Y-9502529D01*
X15028073Y-9500361D01*
X15031900Y-9499600D01*
X15130960Y-9499600D01*
X15134787Y-9500361D01*
G37*
G36*
X15406567Y-9500361D02*
G01*
X15409811Y-9502529D01*
X15411979Y-9505773D01*
X15412740Y-9509600D01*
X15412740Y-9560400D01*
X15411979Y-9564227D01*
X15409811Y-9567471D01*
X15406567Y-9569639D01*
X15402740Y-9570400D01*
X15303680Y-9570400D01*
X15299853Y-9569639D01*
X15296609Y-9567471D01*
X15294441Y-9564227D01*
X15293680Y-9560400D01*
X15293680Y-9509600D01*
X15294441Y-9505773D01*
X15296609Y-9502529D01*
X15299853Y-9500361D01*
X15303680Y-9499600D01*
X15402740Y-9499600D01*
X15406567Y-9500361D01*
G37*
G36*
X12788827Y-9228261D02*
G01*
X12792071Y-9230429D01*
X12794239Y-9233673D01*
X12795000Y-9237500D01*
X12795000Y-9382500D01*
X12794239Y-9386327D01*
X12792071Y-9389571D01*
X12788827Y-9391739D01*
X12785000Y-9392500D01*
X12685000Y-9392500D01*
X12681173Y-9391739D01*
X12677929Y-9389571D01*
X12675761Y-9386327D01*
X12675000Y-9382500D01*
X12675000Y-9237500D01*
X12675761Y-9233673D01*
X12677929Y-9230429D01*
X12681173Y-9228261D01*
X12685000Y-9227500D01*
X12785000Y-9227500D01*
X12788827Y-9228261D01*
G37*
G36*
X12978827Y-9228261D02*
G01*
X12982071Y-9230429D01*
X12984239Y-9233673D01*
X12985000Y-9237500D01*
X12985000Y-9382500D01*
X12984239Y-9386327D01*
X12982071Y-9389571D01*
X12978827Y-9391739D01*
X12975000Y-9392500D01*
X12875000Y-9392500D01*
X12871173Y-9391739D01*
X12867929Y-9389571D01*
X12865761Y-9386327D01*
X12865000Y-9382500D01*
X12865000Y-9237500D01*
X12865761Y-9233673D01*
X12867929Y-9230429D01*
X12871173Y-9228261D01*
X12875000Y-9227500D01*
X12975000Y-9227500D01*
X12978827Y-9228261D01*
G37*
G36*
X14028827Y-9228261D02*
G01*
X14032071Y-9230429D01*
X14034239Y-9233673D01*
X14035000Y-9237500D01*
X14035000Y-9382500D01*
X14034239Y-9386327D01*
X14032071Y-9389571D01*
X14028827Y-9391739D01*
X14025000Y-9392500D01*
X13925000Y-9392500D01*
X13921173Y-9391739D01*
X13917929Y-9389571D01*
X13915761Y-9386327D01*
X13915000Y-9382500D01*
X13915000Y-9237500D01*
X13915761Y-9233673D01*
X13917929Y-9230429D01*
X13921173Y-9228261D01*
X13925000Y-9227500D01*
X14025000Y-9227500D01*
X14028827Y-9228261D01*
G37*
G36*
X14218827Y-9228261D02*
G01*
X14222071Y-9230429D01*
X14224239Y-9233673D01*
X14225000Y-9237500D01*
X14225000Y-9382500D01*
X14224239Y-9386327D01*
X14222071Y-9389571D01*
X14218827Y-9391739D01*
X14215000Y-9392500D01*
X14115000Y-9392500D01*
X14111173Y-9391739D01*
X14107929Y-9389571D01*
X14105761Y-9386327D01*
X14105000Y-9382500D01*
X14105000Y-9237500D01*
X14105761Y-9233673D01*
X14107929Y-9230429D01*
X14111173Y-9228261D01*
X14115000Y-9227500D01*
X14215000Y-9227500D01*
X14218827Y-9228261D01*
G37*
G36*
X15138827Y-9228261D02*
G01*
X15142071Y-9230429D01*
X15144239Y-9233673D01*
X15145000Y-9237500D01*
X15145000Y-9382500D01*
X15144239Y-9386327D01*
X15142071Y-9389571D01*
X15138827Y-9391739D01*
X15135000Y-9392500D01*
X15035000Y-9392500D01*
X15031173Y-9391739D01*
X15027929Y-9389571D01*
X15025761Y-9386327D01*
X15025000Y-9382500D01*
X15025000Y-9237500D01*
X15025761Y-9233673D01*
X15027929Y-9230429D01*
X15031173Y-9228261D01*
X15035000Y-9227500D01*
X15135000Y-9227500D01*
X15138827Y-9228261D01*
G37*
G36*
X15328827Y-9228261D02*
G01*
X15332071Y-9230429D01*
X15334239Y-9233673D01*
X15335000Y-9237500D01*
X15335000Y-9382500D01*
X15334239Y-9386327D01*
X15332071Y-9389571D01*
X15328827Y-9391739D01*
X15325000Y-9392500D01*
X15225000Y-9392500D01*
X15221173Y-9391739D01*
X15217929Y-9389571D01*
X15215761Y-9386327D01*
X15215000Y-9382500D01*
X15215000Y-9237500D01*
X15215761Y-9233673D01*
X15217929Y-9230429D01*
X15221173Y-9228261D01*
X15225000Y-9227500D01*
X15325000Y-9227500D01*
X15328827Y-9228261D01*
G37*
G36*
X12027577Y-9137091D02*
G01*
X12044783Y-9144218D01*
X12060267Y-9154564D01*
X12073436Y-9167733D01*
X12083782Y-9183217D01*
X12090909Y-9200423D01*
X12094542Y-9218688D01*
X12094542Y-9237312D01*
X12090909Y-9255577D01*
X12083782Y-9272783D01*
X12073436Y-9288267D01*
X12060267Y-9301436D01*
X12044783Y-9311783D01*
X12027577Y-9318909D01*
X12009312Y-9322543D01*
X11990688Y-9322543D01*
X11972423Y-9318909D01*
X11955217Y-9311783D01*
X11939733Y-9301436D01*
X11926564Y-9288267D01*
X11916217Y-9272783D01*
X11909091Y-9255577D01*
X11905457Y-9237312D01*
X11905457Y-9218688D01*
X11909091Y-9200423D01*
X11916217Y-9183217D01*
X11926564Y-9167733D01*
X11939733Y-9154564D01*
X11955217Y-9144218D01*
X11972423Y-9137091D01*
X11990688Y-9133458D01*
X12009312Y-9133458D01*
X12027577Y-9137091D01*
G37*
G36*
X16027577Y-9137091D02*
G01*
X16044783Y-9144218D01*
X16060267Y-9154564D01*
X16073436Y-9167733D01*
X16083782Y-9183217D01*
X16090909Y-9200423D01*
X16094542Y-9218688D01*
X16094542Y-9237312D01*
X16090909Y-9255577D01*
X16083782Y-9272783D01*
X16073436Y-9288267D01*
X16060267Y-9301436D01*
X16044783Y-9311783D01*
X16027577Y-9318909D01*
X16009312Y-9322543D01*
X15990688Y-9322543D01*
X15972423Y-9318909D01*
X15955217Y-9311783D01*
X15939733Y-9301436D01*
X15926564Y-9288267D01*
X15916217Y-9272783D01*
X15909091Y-9255577D01*
X15905457Y-9237312D01*
X15905457Y-9218688D01*
X15909091Y-9200423D01*
X15916217Y-9183217D01*
X15926564Y-9167733D01*
X15939733Y-9154564D01*
X15955217Y-9144218D01*
X15972423Y-9137091D01*
X15990688Y-9133458D01*
X16009312Y-9133458D01*
X16027577Y-9137091D01*
G37*
G36*
X12027577Y-8883091D02*
G01*
X12044783Y-8890218D01*
X12060267Y-8900564D01*
X12073436Y-8913733D01*
X12083782Y-8929217D01*
X12090909Y-8946423D01*
X12094542Y-8964688D01*
X12094542Y-8983312D01*
X12090909Y-9001577D01*
X12083782Y-9018783D01*
X12073436Y-9034267D01*
X12060267Y-9047436D01*
X12044783Y-9057783D01*
X12027577Y-9064909D01*
X12009312Y-9068543D01*
X11990688Y-9068543D01*
X11972423Y-9064909D01*
X11955217Y-9057783D01*
X11939733Y-9047436D01*
X11926564Y-9034267D01*
X11916217Y-9018783D01*
X11909091Y-9001577D01*
X11905457Y-8983312D01*
X11905457Y-8964688D01*
X11909091Y-8946423D01*
X11916217Y-8929217D01*
X11926564Y-8913733D01*
X11939733Y-8900564D01*
X11955217Y-8890218D01*
X11972423Y-8883091D01*
X11990688Y-8879458D01*
X12009312Y-8879458D01*
X12027577Y-8883091D01*
G37*
G36*
X16027577Y-8883091D02*
G01*
X16044783Y-8890218D01*
X16060267Y-8900564D01*
X16073436Y-8913733D01*
X16083782Y-8929217D01*
X16090909Y-8946423D01*
X16094542Y-8964688D01*
X16094542Y-8983312D01*
X16090909Y-9001577D01*
X16083782Y-9018783D01*
X16073436Y-9034267D01*
X16060267Y-9047436D01*
X16044783Y-9057783D01*
X16027577Y-9064909D01*
X16009312Y-9068543D01*
X15990688Y-9068543D01*
X15972423Y-9064909D01*
X15955217Y-9057783D01*
X15939733Y-9047436D01*
X15926564Y-9034267D01*
X15916217Y-9018783D01*
X15909091Y-9001577D01*
X15905457Y-8983312D01*
X15905457Y-8964688D01*
X15909091Y-8946423D01*
X15916217Y-8929217D01*
X15926564Y-8913733D01*
X15939733Y-8900564D01*
X15955217Y-8890218D01*
X15972423Y-8883091D01*
X15990688Y-8879458D01*
X16009312Y-8879458D01*
X16027577Y-8883091D01*
G37*
G36*
X13873827Y-8830761D02*
G01*
X13877071Y-8832929D01*
X13879239Y-8836173D01*
X13880000Y-8840000D01*
X13880000Y-9040000D01*
X13879239Y-9043827D01*
X13877071Y-9047071D01*
X13873827Y-9049239D01*
X13870000Y-9050000D01*
X13670000Y-9050000D01*
X13666173Y-9049239D01*
X13662929Y-9047071D01*
X13660761Y-9043827D01*
X13660000Y-9040000D01*
X13660000Y-8840000D01*
X13660761Y-8836173D01*
X13662929Y-8832929D01*
X13666173Y-8830761D01*
X13670000Y-8830000D01*
X13870000Y-8830000D01*
X13873827Y-8830761D01*
G37*
G36*
X14780957Y-8892690D02*
G01*
X14781768Y-8893232D01*
X14782310Y-8894043D01*
X14782500Y-8895000D01*
X14782500Y-8925000D01*
X14782310Y-8925957D01*
X14781768Y-8926768D01*
X14780957Y-8927310D01*
X14780000Y-8927500D01*
X14640000Y-8927500D01*
X14639043Y-8927310D01*
X14638232Y-8926768D01*
X14637690Y-8925957D01*
X14637500Y-8925000D01*
X14637500Y-8895000D01*
X14637690Y-8894043D01*
X14638232Y-8893232D01*
X14639043Y-8892690D01*
X14640000Y-8892500D01*
X14780000Y-8892500D01*
X14780957Y-8892690D01*
G37*
G36*
X15220957Y-8892690D02*
G01*
X15221768Y-8893232D01*
X15222310Y-8894043D01*
X15222500Y-8895000D01*
X15222500Y-8925000D01*
X15222310Y-8925957D01*
X15221768Y-8926768D01*
X15220957Y-8927310D01*
X15220000Y-8927500D01*
X15080000Y-8927500D01*
X15079043Y-8927310D01*
X15078232Y-8926768D01*
X15077690Y-8925957D01*
X15077500Y-8925000D01*
X15077500Y-8895000D01*
X15077690Y-8894043D01*
X15078232Y-8893232D01*
X15079043Y-8892690D01*
X15080000Y-8892500D01*
X15220000Y-8892500D01*
X15220957Y-8892690D01*
G37*
G36*
X14780957Y-8842690D02*
G01*
X14781768Y-8843232D01*
X14782310Y-8844043D01*
X14782500Y-8845000D01*
X14782500Y-8875000D01*
X14782310Y-8875957D01*
X14781768Y-8876768D01*
X14780957Y-8877310D01*
X14780000Y-8877500D01*
X14640000Y-8877500D01*
X14639043Y-8877310D01*
X14638232Y-8876768D01*
X14637690Y-8875957D01*
X14637500Y-8875000D01*
X14637500Y-8845000D01*
X14637690Y-8844043D01*
X14638232Y-8843232D01*
X14639043Y-8842690D01*
X14640000Y-8842500D01*
X14780000Y-8842500D01*
X14780957Y-8842690D01*
G37*
G36*
X15220957Y-8842690D02*
G01*
X15221768Y-8843232D01*
X15222310Y-8844043D01*
X15222500Y-8845000D01*
X15222500Y-8875000D01*
X15222310Y-8875957D01*
X15221768Y-8876768D01*
X15220957Y-8877310D01*
X15220000Y-8877500D01*
X15080000Y-8877500D01*
X15079043Y-8877310D01*
X15078232Y-8876768D01*
X15077690Y-8875957D01*
X15077500Y-8875000D01*
X15077500Y-8845000D01*
X15077690Y-8844043D01*
X15078232Y-8843232D01*
X15079043Y-8842690D01*
X15080000Y-8842500D01*
X15220000Y-8842500D01*
X15220957Y-8842690D01*
G37*
G36*
X15389327Y-8753761D02*
G01*
X15392571Y-8755929D01*
X15394739Y-8759173D01*
X15395500Y-8763000D01*
X15395500Y-8857000D01*
X15394739Y-8860827D01*
X15392571Y-8864071D01*
X15389327Y-8866239D01*
X15385500Y-8867000D01*
X15302500Y-8867000D01*
X15298673Y-8866239D01*
X15295429Y-8864071D01*
X15293261Y-8860827D01*
X15292500Y-8857000D01*
X15292500Y-8763000D01*
X15293261Y-8759173D01*
X15295429Y-8755929D01*
X15298673Y-8753761D01*
X15302500Y-8753000D01*
X15385500Y-8753000D01*
X15389327Y-8753761D01*
G37*
G36*
X15521327Y-8753761D02*
G01*
X15524571Y-8755929D01*
X15526739Y-8759173D01*
X15527500Y-8763000D01*
X15527500Y-8857000D01*
X15526739Y-8860827D01*
X15524571Y-8864071D01*
X15521327Y-8866239D01*
X15517500Y-8867000D01*
X15434500Y-8867000D01*
X15430673Y-8866239D01*
X15427429Y-8864071D01*
X15425261Y-8860827D01*
X15424500Y-8857000D01*
X15424500Y-8763000D01*
X15425261Y-8759173D01*
X15427429Y-8755929D01*
X15430673Y-8753761D01*
X15434500Y-8753000D01*
X15517500Y-8753000D01*
X15521327Y-8753761D01*
G37*
G36*
X14780957Y-8792690D02*
G01*
X14781768Y-8793232D01*
X14782310Y-8794043D01*
X14782500Y-8795000D01*
X14782500Y-8825000D01*
X14782310Y-8825957D01*
X14781768Y-8826768D01*
X14780957Y-8827310D01*
X14780000Y-8827500D01*
X14640000Y-8827500D01*
X14639043Y-8827310D01*
X14638232Y-8826768D01*
X14637690Y-8825957D01*
X14637500Y-8825000D01*
X14637500Y-8795000D01*
X14637690Y-8794043D01*
X14638232Y-8793232D01*
X14639043Y-8792690D01*
X14640000Y-8792500D01*
X14780000Y-8792500D01*
X14780957Y-8792690D01*
G37*
G36*
X15220957Y-8792690D02*
G01*
X15221768Y-8793232D01*
X15222310Y-8794043D01*
X15222500Y-8795000D01*
X15222500Y-8825000D01*
X15222310Y-8825957D01*
X15221768Y-8826768D01*
X15220957Y-8827310D01*
X15220000Y-8827500D01*
X15080000Y-8827500D01*
X15079043Y-8827310D01*
X15078232Y-8826768D01*
X15077690Y-8825957D01*
X15077500Y-8825000D01*
X15077500Y-8795000D01*
X15077690Y-8794043D01*
X15078232Y-8793232D01*
X15079043Y-8792690D01*
X15080000Y-8792500D01*
X15220000Y-8792500D01*
X15220957Y-8792690D01*
G37*
G36*
X12027577Y-8629091D02*
G01*
X12044783Y-8636218D01*
X12060267Y-8646564D01*
X12073436Y-8659733D01*
X12083782Y-8675217D01*
X12090909Y-8692423D01*
X12094542Y-8710688D01*
X12094542Y-8729312D01*
X12090909Y-8747577D01*
X12083782Y-8764783D01*
X12073436Y-8780267D01*
X12060267Y-8793436D01*
X12044783Y-8803783D01*
X12027577Y-8810909D01*
X12009312Y-8814543D01*
X11990688Y-8814543D01*
X11972423Y-8810909D01*
X11955217Y-8803783D01*
X11939733Y-8793436D01*
X11926564Y-8780267D01*
X11916217Y-8764783D01*
X11909091Y-8747577D01*
X11905457Y-8729312D01*
X11905457Y-8710688D01*
X11909091Y-8692423D01*
X11916217Y-8675217D01*
X11926564Y-8659733D01*
X11939733Y-8646564D01*
X11955217Y-8636218D01*
X11972423Y-8629091D01*
X11990688Y-8625458D01*
X12009312Y-8625458D01*
X12027577Y-8629091D01*
G37*
G36*
X16027577Y-8629091D02*
G01*
X16044783Y-8636218D01*
X16060267Y-8646564D01*
X16073436Y-8659733D01*
X16083782Y-8675217D01*
X16090909Y-8692423D01*
X16094542Y-8710688D01*
X16094542Y-8729312D01*
X16090909Y-8747577D01*
X16083782Y-8764783D01*
X16073436Y-8780267D01*
X16060267Y-8793436D01*
X16044783Y-8803783D01*
X16027577Y-8810909D01*
X16009312Y-8814543D01*
X15990688Y-8814543D01*
X15972423Y-8810909D01*
X15955217Y-8803783D01*
X15939733Y-8793436D01*
X15926564Y-8780267D01*
X15916217Y-8764783D01*
X15909091Y-8747577D01*
X15905457Y-8729312D01*
X15905457Y-8710688D01*
X15909091Y-8692423D01*
X15916217Y-8675217D01*
X15926564Y-8659733D01*
X15939733Y-8646564D01*
X15955217Y-8636218D01*
X15972423Y-8629091D01*
X15990688Y-8625458D01*
X16009312Y-8625458D01*
X16027577Y-8629091D01*
G37*
G36*
X14780957Y-8742690D02*
G01*
X14781768Y-8743232D01*
X14782310Y-8744043D01*
X14782500Y-8745000D01*
X14782500Y-8775000D01*
X14782310Y-8775957D01*
X14781768Y-8776768D01*
X14780957Y-8777310D01*
X14780000Y-8777500D01*
X14640000Y-8777500D01*
X14639043Y-8777310D01*
X14638232Y-8776768D01*
X14637690Y-8775957D01*
X14637500Y-8775000D01*
X14637500Y-8745000D01*
X14637690Y-8744043D01*
X14638232Y-8743232D01*
X14639043Y-8742690D01*
X14640000Y-8742500D01*
X14780000Y-8742500D01*
X14780957Y-8742690D01*
G37*
G36*
X15220957Y-8742690D02*
G01*
X15221768Y-8743232D01*
X15222310Y-8744043D01*
X15222500Y-8745000D01*
X15222500Y-8775000D01*
X15222310Y-8775957D01*
X15221768Y-8776768D01*
X15220957Y-8777310D01*
X15220000Y-8777500D01*
X15080000Y-8777500D01*
X15079043Y-8777310D01*
X15078232Y-8776768D01*
X15077690Y-8775957D01*
X15077500Y-8775000D01*
X15077500Y-8745000D01*
X15077690Y-8744043D01*
X15078232Y-8743232D01*
X15079043Y-8742690D01*
X15080000Y-8742500D01*
X15220000Y-8742500D01*
X15220957Y-8742690D01*
G37*
G36*
X13228827Y-8570761D02*
G01*
X13232071Y-8572929D01*
X13234239Y-8576173D01*
X13235000Y-8580000D01*
X13235000Y-8740000D01*
X13234239Y-8743827D01*
X13232071Y-8747071D01*
X13228827Y-8749239D01*
X13225000Y-8750000D01*
X12945000Y-8750000D01*
X12941173Y-8749239D01*
X12937929Y-8747071D01*
X12935761Y-8743827D01*
X12935000Y-8740000D01*
X12935000Y-8580000D01*
X12935761Y-8576173D01*
X12937929Y-8572929D01*
X12941173Y-8570761D01*
X12945000Y-8570000D01*
X13225000Y-8570000D01*
X13228827Y-8570761D01*
G37*
G36*
X13658827Y-8570761D02*
G01*
X13662071Y-8572929D01*
X13664239Y-8576173D01*
X13665000Y-8580000D01*
X13665000Y-8740000D01*
X13664239Y-8743827D01*
X13662071Y-8747071D01*
X13658827Y-8749239D01*
X13655000Y-8750000D01*
X13375000Y-8750000D01*
X13371173Y-8749239D01*
X13367929Y-8747071D01*
X13365761Y-8743827D01*
X13365000Y-8740000D01*
X13365000Y-8580000D01*
X13365761Y-8576173D01*
X13367929Y-8572929D01*
X13371173Y-8570761D01*
X13375000Y-8570000D01*
X13655000Y-8570000D01*
X13658827Y-8570761D01*
G37*
G36*
X14780957Y-8692690D02*
G01*
X14781768Y-8693232D01*
X14782310Y-8694043D01*
X14782500Y-8695000D01*
X14782500Y-8725000D01*
X14782310Y-8725957D01*
X14781768Y-8726768D01*
X14780957Y-8727310D01*
X14780000Y-8727500D01*
X14640000Y-8727500D01*
X14639043Y-8727310D01*
X14638232Y-8726768D01*
X14637690Y-8725957D01*
X14637500Y-8725000D01*
X14637500Y-8695000D01*
X14637690Y-8694043D01*
X14638232Y-8693232D01*
X14639043Y-8692690D01*
X14640000Y-8692500D01*
X14780000Y-8692500D01*
X14780957Y-8692690D01*
G37*
G36*
X15220957Y-8692690D02*
G01*
X15221768Y-8693232D01*
X15222310Y-8694043D01*
X15222500Y-8695000D01*
X15222500Y-8725000D01*
X15222310Y-8725957D01*
X15221768Y-8726768D01*
X15220957Y-8727310D01*
X15220000Y-8727500D01*
X15080000Y-8727500D01*
X15079043Y-8727310D01*
X15078232Y-8726768D01*
X15077690Y-8725957D01*
X15077500Y-8725000D01*
X15077500Y-8695000D01*
X15077690Y-8694043D01*
X15078232Y-8693232D01*
X15079043Y-8692690D01*
X15080000Y-8692500D01*
X15220000Y-8692500D01*
X15220957Y-8692690D01*
G37*
G36*
X14110077Y-8512091D02*
G01*
X14127283Y-8519218D01*
X14142767Y-8529564D01*
X14155936Y-8542733D01*
X14166282Y-8558217D01*
X14173409Y-8575423D01*
X14177042Y-8593688D01*
X14177042Y-8612312D01*
X14173409Y-8630577D01*
X14166282Y-8647783D01*
X14155936Y-8663267D01*
X14142767Y-8676436D01*
X14127283Y-8686783D01*
X14110077Y-8693909D01*
X14091812Y-8697543D01*
X14073188Y-8697543D01*
X14054923Y-8693909D01*
X14037717Y-8686783D01*
X14022233Y-8676436D01*
X14009064Y-8663267D01*
X13998717Y-8647783D01*
X13991591Y-8630577D01*
X13987957Y-8612312D01*
X13987957Y-8593688D01*
X13991591Y-8575423D01*
X13998717Y-8558217D01*
X14009064Y-8542733D01*
X14022233Y-8529564D01*
X14037717Y-8519218D01*
X14054923Y-8512091D01*
X14073188Y-8508458D01*
X14091812Y-8508458D01*
X14110077Y-8512091D01*
G37*
G36*
X14364077Y-8512091D02*
G01*
X14381283Y-8519218D01*
X14396767Y-8529564D01*
X14409936Y-8542733D01*
X14420282Y-8558217D01*
X14427409Y-8575423D01*
X14431042Y-8593688D01*
X14431042Y-8612312D01*
X14427409Y-8630577D01*
X14420282Y-8647783D01*
X14409936Y-8663267D01*
X14396767Y-8676436D01*
X14381283Y-8686783D01*
X14364077Y-8693909D01*
X14345812Y-8697543D01*
X14327188Y-8697543D01*
X14308923Y-8693909D01*
X14291717Y-8686783D01*
X14276233Y-8676436D01*
X14263064Y-8663267D01*
X14252717Y-8647783D01*
X14245591Y-8630577D01*
X14241957Y-8612312D01*
X14241957Y-8593688D01*
X14245591Y-8575423D01*
X14252717Y-8558217D01*
X14263064Y-8542733D01*
X14276233Y-8529564D01*
X14291717Y-8519218D01*
X14308923Y-8512091D01*
X14327188Y-8508458D01*
X14345812Y-8508458D01*
X14364077Y-8512091D01*
G37*
G36*
X15128827Y-8398261D02*
G01*
X15132071Y-8400429D01*
X15134239Y-8403673D01*
X15135000Y-8407500D01*
X15135000Y-8552500D01*
X15134239Y-8556327D01*
X15132071Y-8559571D01*
X15128827Y-8561739D01*
X15125000Y-8562500D01*
X15025000Y-8562500D01*
X15021173Y-8561739D01*
X15017929Y-8559571D01*
X15015761Y-8556327D01*
X15015000Y-8552500D01*
X15015000Y-8407500D01*
X15015761Y-8403673D01*
X15017929Y-8400429D01*
X15021173Y-8398261D01*
X15025000Y-8397500D01*
X15125000Y-8397500D01*
X15128827Y-8398261D01*
G37*
G36*
X15318827Y-8398261D02*
G01*
X15322071Y-8400429D01*
X15324239Y-8403673D01*
X15325000Y-8407500D01*
X15325000Y-8552500D01*
X15324239Y-8556327D01*
X15322071Y-8559571D01*
X15318827Y-8561739D01*
X15315000Y-8562500D01*
X15215000Y-8562500D01*
X15211173Y-8561739D01*
X15207929Y-8559571D01*
X15205761Y-8556327D01*
X15205000Y-8552500D01*
X15205000Y-8407500D01*
X15205761Y-8403673D01*
X15207929Y-8400429D01*
X15211173Y-8398261D01*
X15215000Y-8397500D01*
X15315000Y-8397500D01*
X15318827Y-8398261D01*
G37*
G36*
X14786327Y-8400761D02*
G01*
X14789571Y-8402929D01*
X14791739Y-8406173D01*
X14792500Y-8410000D01*
X14792500Y-8510000D01*
X14791739Y-8513827D01*
X14789571Y-8517071D01*
X14786327Y-8519239D01*
X14782500Y-8520000D01*
X14637500Y-8520000D01*
X14633673Y-8519239D01*
X14630429Y-8517071D01*
X14628261Y-8513827D01*
X14627500Y-8510000D01*
X14627500Y-8410000D01*
X14628261Y-8406173D01*
X14630429Y-8402929D01*
X14633673Y-8400761D01*
X14637500Y-8400000D01*
X14782500Y-8400000D01*
X14786327Y-8400761D01*
G37*
G36*
X14110077Y-8258091D02*
G01*
X14127283Y-8265217D01*
X14142767Y-8275564D01*
X14155936Y-8288733D01*
X14166282Y-8304217D01*
X14173409Y-8321423D01*
X14177042Y-8339688D01*
X14177042Y-8358312D01*
X14173409Y-8376577D01*
X14166282Y-8393783D01*
X14155936Y-8409267D01*
X14142767Y-8422436D01*
X14127283Y-8432783D01*
X14110077Y-8439909D01*
X14091812Y-8443543D01*
X14073188Y-8443543D01*
X14054923Y-8439909D01*
X14037717Y-8432783D01*
X14022233Y-8422436D01*
X14009064Y-8409267D01*
X13998717Y-8393783D01*
X13991591Y-8376577D01*
X13987957Y-8358312D01*
X13987957Y-8339688D01*
X13991591Y-8321423D01*
X13998717Y-8304217D01*
X14009064Y-8288733D01*
X14022233Y-8275564D01*
X14037717Y-8265217D01*
X14054923Y-8258091D01*
X14073188Y-8254457D01*
X14091812Y-8254457D01*
X14110077Y-8258091D01*
G37*
G36*
X14364077Y-8258091D02*
G01*
X14381283Y-8265217D01*
X14396767Y-8275564D01*
X14409936Y-8288733D01*
X14420282Y-8304217D01*
X14427409Y-8321423D01*
X14431042Y-8339688D01*
X14431042Y-8358312D01*
X14427409Y-8376577D01*
X14420282Y-8393783D01*
X14409936Y-8409267D01*
X14396767Y-8422436D01*
X14381283Y-8432783D01*
X14364077Y-8439909D01*
X14345812Y-8443543D01*
X14327188Y-8443543D01*
X14308923Y-8439909D01*
X14291717Y-8432783D01*
X14276233Y-8422436D01*
X14263064Y-8409267D01*
X14252717Y-8393783D01*
X14245591Y-8376577D01*
X14241957Y-8358312D01*
X14241957Y-8339688D01*
X14245591Y-8321423D01*
X14252717Y-8304217D01*
X14263064Y-8288733D01*
X14276233Y-8275564D01*
X14291717Y-8265217D01*
X14308923Y-8258091D01*
X14327188Y-8254457D01*
X14345812Y-8254457D01*
X14364077Y-8258091D01*
G37*
G36*
X14786327Y-8210761D02*
G01*
X14789571Y-8212929D01*
X14791739Y-8216173D01*
X14792500Y-8220000D01*
X14792500Y-8320000D01*
X14791739Y-8323827D01*
X14789571Y-8327071D01*
X14786327Y-8329239D01*
X14782500Y-8330000D01*
X14637500Y-8330000D01*
X14633673Y-8329239D01*
X14630429Y-8327071D01*
X14628261Y-8323827D01*
X14627500Y-8320000D01*
X14627500Y-8220000D01*
X14628261Y-8216173D01*
X14630429Y-8212929D01*
X14633673Y-8210761D01*
X14637500Y-8210000D01*
X14782500Y-8210000D01*
X14786327Y-8210761D01*
G37*
G36*
X15140827Y-8214011D02*
G01*
X15144071Y-8216179D01*
X15146239Y-8219423D01*
X15147000Y-8223250D01*
X15147000Y-8306250D01*
X15146239Y-8310077D01*
X15144071Y-8313321D01*
X15140827Y-8315489D01*
X15137000Y-8316250D01*
X15043000Y-8316250D01*
X15039173Y-8315489D01*
X15035929Y-8313321D01*
X15033761Y-8310077D01*
X15033000Y-8306250D01*
X15033000Y-8223250D01*
X15033761Y-8219423D01*
X15035929Y-8216179D01*
X15039173Y-8214011D01*
X15043000Y-8213250D01*
X15137000Y-8213250D01*
X15140827Y-8214011D01*
G37*
G36*
X13177327Y-8099761D02*
G01*
X13180571Y-8101929D01*
X13182739Y-8105173D01*
X13183500Y-8109000D01*
X13183500Y-8291000D01*
X13182739Y-8294827D01*
X13180571Y-8298071D01*
X13177327Y-8300239D01*
X13173500Y-8301000D01*
X13068500Y-8301000D01*
X13064673Y-8300239D01*
X13061429Y-8298071D01*
X13059261Y-8294827D01*
X13058500Y-8291000D01*
X13058500Y-8109000D01*
X13059261Y-8105173D01*
X13061429Y-8101929D01*
X13064673Y-8099761D01*
X13068500Y-8099000D01*
X13173500Y-8099000D01*
X13177327Y-8099761D01*
G37*
G36*
X13455327Y-8099761D02*
G01*
X13458571Y-8101929D01*
X13460739Y-8105173D01*
X13461500Y-8109000D01*
X13461500Y-8291000D01*
X13460739Y-8294827D01*
X13458571Y-8298071D01*
X13455327Y-8300239D01*
X13451500Y-8301000D01*
X13346500Y-8301000D01*
X13342673Y-8300239D01*
X13339429Y-8298071D01*
X13337261Y-8294827D01*
X13336500Y-8291000D01*
X13336500Y-8109000D01*
X13337261Y-8105173D01*
X13339429Y-8101929D01*
X13342673Y-8099761D01*
X13346500Y-8099000D01*
X13451500Y-8099000D01*
X13455327Y-8099761D01*
G37*
G36*
X13681327Y-8183261D02*
G01*
X13684571Y-8185429D01*
X13686739Y-8188673D01*
X13687500Y-8192500D01*
X13687500Y-8267500D01*
X13686739Y-8271327D01*
X13684571Y-8274571D01*
X13681327Y-8276739D01*
X13677500Y-8277500D01*
X13602500Y-8277500D01*
X13598673Y-8276739D01*
X13595429Y-8274571D01*
X13593261Y-8271327D01*
X13592500Y-8267500D01*
X13592500Y-8192500D01*
X13593261Y-8188673D01*
X13595429Y-8185429D01*
X13598673Y-8183261D01*
X13602500Y-8182500D01*
X13677500Y-8182500D01*
X13681327Y-8183261D01*
G37*
G36*
X15298827Y-8087011D02*
G01*
X15302071Y-8089179D01*
X15304239Y-8092423D01*
X15305000Y-8096250D01*
X15305000Y-8241250D01*
X15304239Y-8245077D01*
X15302071Y-8248321D01*
X15298827Y-8250489D01*
X15295000Y-8251250D01*
X15195000Y-8251250D01*
X15191173Y-8250489D01*
X15187929Y-8248321D01*
X15185761Y-8245077D01*
X15185000Y-8241250D01*
X15185000Y-8096250D01*
X15185761Y-8092423D01*
X15187929Y-8089179D01*
X15191173Y-8087011D01*
X15195000Y-8086250D01*
X15295000Y-8086250D01*
X15298827Y-8087011D01*
G37*
G36*
X15488827Y-8087011D02*
G01*
X15492071Y-8089179D01*
X15494239Y-8092423D01*
X15495000Y-8096250D01*
X15495000Y-8241250D01*
X15494239Y-8245077D01*
X15492071Y-8248321D01*
X15488827Y-8250489D01*
X15485000Y-8251250D01*
X15385000Y-8251250D01*
X15381173Y-8250489D01*
X15377929Y-8248321D01*
X15375761Y-8245077D01*
X15375000Y-8241250D01*
X15375000Y-8096250D01*
X15375761Y-8092423D01*
X15377929Y-8089179D01*
X15381173Y-8087011D01*
X15385000Y-8086250D01*
X15485000Y-8086250D01*
X15488827Y-8087011D01*
G37*
G36*
X14171327Y-8000761D02*
G01*
X14174571Y-8002929D01*
X14176739Y-8006173D01*
X14177500Y-8010000D01*
X14177500Y-8180000D01*
X14176739Y-8183827D01*
X14174571Y-8187071D01*
X14171327Y-8189239D01*
X14167500Y-8190000D01*
X13997500Y-8190000D01*
X13993673Y-8189239D01*
X13990429Y-8187071D01*
X13988261Y-8183827D01*
X13987500Y-8180000D01*
X13987500Y-8010000D01*
X13988261Y-8006173D01*
X13990429Y-8002929D01*
X13993673Y-8000761D01*
X13997500Y-8000000D01*
X14167500Y-8000000D01*
X14171327Y-8000761D01*
G37*
G36*
X14364077Y-8004091D02*
G01*
X14381283Y-8011217D01*
X14396767Y-8021564D01*
X14409936Y-8034733D01*
X14420282Y-8050217D01*
X14427409Y-8067423D01*
X14431042Y-8085688D01*
X14431042Y-8104312D01*
X14427409Y-8122577D01*
X14420282Y-8139783D01*
X14409936Y-8155267D01*
X14396767Y-8168436D01*
X14381283Y-8178782D01*
X14364077Y-8185909D01*
X14345812Y-8189542D01*
X14327188Y-8189542D01*
X14308923Y-8185909D01*
X14291717Y-8178782D01*
X14276233Y-8168436D01*
X14263064Y-8155267D01*
X14252717Y-8139783D01*
X14245591Y-8122577D01*
X14241957Y-8104312D01*
X14241957Y-8085688D01*
X14245591Y-8067423D01*
X14252717Y-8050217D01*
X14263064Y-8034733D01*
X14276233Y-8021564D01*
X14291717Y-8011217D01*
X14308923Y-8004091D01*
X14327188Y-8000457D01*
X14345812Y-8000457D01*
X14364077Y-8004091D01*
G37*
G36*
X15140827Y-8082011D02*
G01*
X15144071Y-8084179D01*
X15146239Y-8087423D01*
X15147000Y-8091250D01*
X15147000Y-8174250D01*
X15146239Y-8178077D01*
X15144071Y-8181321D01*
X15140827Y-8183489D01*
X15137000Y-8184250D01*
X15043000Y-8184250D01*
X15039173Y-8183489D01*
X15035929Y-8181321D01*
X15033761Y-8178077D01*
X15033000Y-8174250D01*
X15033000Y-8091250D01*
X15033761Y-8087423D01*
X15035929Y-8084179D01*
X15039173Y-8082011D01*
X15043000Y-8081250D01*
X15137000Y-8081250D01*
X15140827Y-8082011D01*
G37*
G36*
X12468327Y-7947261D02*
G01*
X12471571Y-7949429D01*
X12473739Y-7952673D01*
X12474500Y-7956500D01*
X12474500Y-8047500D01*
X12473739Y-8051327D01*
X12471571Y-8054571D01*
X12468327Y-8056739D01*
X12464500Y-8057500D01*
X12325500Y-8057500D01*
X12321673Y-8056739D01*
X12318429Y-8054571D01*
X12316261Y-8051327D01*
X12315500Y-8047500D01*
X12315500Y-7956500D01*
X12316261Y-7952673D01*
X12318429Y-7949429D01*
X12321673Y-7947261D01*
X12325500Y-7946500D01*
X12464500Y-7946500D01*
X12468327Y-7947261D01*
G37*
G36*
X13681327Y-7963261D02*
G01*
X13684571Y-7965429D01*
X13686739Y-7968673D01*
X13687500Y-7972500D01*
X13687500Y-8047500D01*
X13686739Y-8051327D01*
X13684571Y-8054571D01*
X13681327Y-8056739D01*
X13677500Y-8057500D01*
X13602500Y-8057500D01*
X13598673Y-8056739D01*
X13595429Y-8054571D01*
X13593261Y-8051327D01*
X13592500Y-8047500D01*
X13592500Y-7972500D01*
X13593261Y-7968673D01*
X13595429Y-7965429D01*
X13598673Y-7963261D01*
X13602500Y-7962500D01*
X13677500Y-7962500D01*
X13681327Y-7963261D01*
G37*
G36*
X14739012Y-7883547D02*
G01*
X14743473Y-7886527D01*
X14746453Y-7890988D01*
X14747500Y-7896250D01*
X14747500Y-8016250D01*
X14746453Y-8021512D01*
X14743473Y-8025973D01*
X14739012Y-8028953D01*
X14733750Y-8030000D01*
X14706250Y-8030000D01*
X14700988Y-8028953D01*
X14696527Y-8025973D01*
X14693547Y-8021512D01*
X14692500Y-8016250D01*
X14692500Y-7896250D01*
X14693547Y-7890988D01*
X14696527Y-7886527D01*
X14700988Y-7883547D01*
X14706250Y-7882500D01*
X14733750Y-7882500D01*
X14739012Y-7883547D01*
G37*
G36*
X14819012Y-7883547D02*
G01*
X14823473Y-7886527D01*
X14826453Y-7890988D01*
X14827500Y-7896250D01*
X14827500Y-8016250D01*
X14826453Y-8021512D01*
X14823473Y-8025973D01*
X14819012Y-8028953D01*
X14813750Y-8030000D01*
X14786250Y-8030000D01*
X14780988Y-8028953D01*
X14776527Y-8025973D01*
X14773547Y-8021512D01*
X14772500Y-8016250D01*
X14772500Y-7896250D01*
X14773547Y-7890988D01*
X14776527Y-7886527D01*
X14780988Y-7883547D01*
X14786250Y-7882500D01*
X14813750Y-7882500D01*
X14819012Y-7883547D01*
G37*
G36*
X14899012Y-7883547D02*
G01*
X14903473Y-7886527D01*
X14906453Y-7890988D01*
X14907500Y-7896250D01*
X14907500Y-8016250D01*
X14906453Y-8021512D01*
X14903473Y-8025973D01*
X14899012Y-8028953D01*
X14893750Y-8030000D01*
X14866250Y-8030000D01*
X14860988Y-8028953D01*
X14856527Y-8025973D01*
X14853547Y-8021512D01*
X14852500Y-8016250D01*
X14852500Y-7896250D01*
X14853547Y-7890988D01*
X14856527Y-7886527D01*
X14860988Y-7883547D01*
X14866250Y-7882500D01*
X14893750Y-7882500D01*
X14899012Y-7883547D01*
G37*
G36*
X14979012Y-7883547D02*
G01*
X14983473Y-7886527D01*
X14986453Y-7890988D01*
X14987500Y-7896250D01*
X14987500Y-8016250D01*
X14986453Y-8021512D01*
X14983473Y-8025973D01*
X14979012Y-8028953D01*
X14973750Y-8030000D01*
X14946250Y-8030000D01*
X14940988Y-8028953D01*
X14936527Y-8025973D01*
X14933547Y-8021512D01*
X14932500Y-8016250D01*
X14932500Y-7896250D01*
X14933547Y-7890988D01*
X14936527Y-7886527D01*
X14940988Y-7883547D01*
X14946250Y-7882500D01*
X14973750Y-7882500D01*
X14979012Y-7883547D01*
G37*
G36*
X15059012Y-7883547D02*
G01*
X15063473Y-7886527D01*
X15066453Y-7890988D01*
X15067500Y-7896250D01*
X15067500Y-8016250D01*
X15066453Y-8021512D01*
X15063473Y-8025973D01*
X15059012Y-8028953D01*
X15053750Y-8030000D01*
X15026250Y-8030000D01*
X15020988Y-8028953D01*
X15016527Y-8025973D01*
X15013547Y-8021512D01*
X15012500Y-8016250D01*
X15012500Y-7896250D01*
X15013547Y-7890988D01*
X15016527Y-7886527D01*
X15020988Y-7883547D01*
X15026250Y-7882500D01*
X15053750Y-7882500D01*
X15059012Y-7883547D01*
G37*
G36*
X15139012Y-7883547D02*
G01*
X15143473Y-7886527D01*
X15146453Y-7890988D01*
X15147500Y-7896250D01*
X15147500Y-8016250D01*
X15146453Y-8021512D01*
X15143473Y-8025973D01*
X15139012Y-8028953D01*
X15133750Y-8030000D01*
X15106250Y-8030000D01*
X15100988Y-8028953D01*
X15096527Y-8025973D01*
X15093547Y-8021512D01*
X15092500Y-8016250D01*
X15092500Y-7896250D01*
X15093547Y-7890988D01*
X15096527Y-7886527D01*
X15100988Y-7883547D01*
X15106250Y-7882500D01*
X15133750Y-7882500D01*
X15139012Y-7883547D01*
G37*
G36*
X15219012Y-7883547D02*
G01*
X15223473Y-7886527D01*
X15226453Y-7890988D01*
X15227500Y-7896250D01*
X15227500Y-8016250D01*
X15226453Y-8021512D01*
X15223473Y-8025973D01*
X15219012Y-8028953D01*
X15213750Y-8030000D01*
X15186250Y-8030000D01*
X15180988Y-8028953D01*
X15176527Y-8025973D01*
X15173547Y-8021512D01*
X15172500Y-8016250D01*
X15172500Y-7896250D01*
X15173547Y-7890988D01*
X15176527Y-7886527D01*
X15180988Y-7883547D01*
X15186250Y-7882500D01*
X15213750Y-7882500D01*
X15219012Y-7883547D01*
G37*
G36*
X15299012Y-7883547D02*
G01*
X15303473Y-7886527D01*
X15306453Y-7890988D01*
X15307500Y-7896250D01*
X15307500Y-8016250D01*
X15306453Y-8021512D01*
X15303473Y-8025973D01*
X15299012Y-8028953D01*
X15293750Y-8030000D01*
X15266250Y-8030000D01*
X15260988Y-8028953D01*
X15256527Y-8025973D01*
X15253547Y-8021512D01*
X15252500Y-8016250D01*
X15252500Y-7896250D01*
X15253547Y-7890988D01*
X15256527Y-7886527D01*
X15260988Y-7883547D01*
X15266250Y-7882500D01*
X15293750Y-7882500D01*
X15299012Y-7883547D01*
G37*
G36*
X13806327Y-7678261D02*
G01*
X13809571Y-7680429D01*
X13811739Y-7683673D01*
X13812500Y-7687500D01*
X13812500Y-7902500D01*
X13811739Y-7906327D01*
X13809571Y-7909571D01*
X13806327Y-7911739D01*
X13802500Y-7912500D01*
X13477500Y-7912500D01*
X13473673Y-7911739D01*
X13470429Y-7909571D01*
X13468261Y-7906327D01*
X13467500Y-7902500D01*
X13467500Y-7687500D01*
X13468261Y-7683673D01*
X13470429Y-7680429D01*
X13473673Y-7678261D01*
X13477500Y-7677500D01*
X13802500Y-7677500D01*
X13806327Y-7678261D01*
G37*
G36*
X12468327Y-7783261D02*
G01*
X12471571Y-7785429D01*
X12473739Y-7788673D01*
X12474500Y-7792500D01*
X12474500Y-7883500D01*
X12473739Y-7887327D01*
X12471571Y-7890571D01*
X12468327Y-7892739D01*
X12464500Y-7893500D01*
X12325500Y-7893500D01*
X12321673Y-7892739D01*
X12318429Y-7890571D01*
X12316261Y-7887327D01*
X12315500Y-7883500D01*
X12315500Y-7792500D01*
X12316261Y-7788673D01*
X12318429Y-7785429D01*
X12321673Y-7783261D01*
X12325500Y-7782500D01*
X12464500Y-7782500D01*
X12468327Y-7783261D01*
G37*
G36*
X12648827Y-7728261D02*
G01*
X12652071Y-7730429D01*
X12654239Y-7733673D01*
X12655000Y-7737500D01*
X12655000Y-7882500D01*
X12654239Y-7886327D01*
X12652071Y-7889571D01*
X12648827Y-7891739D01*
X12645000Y-7892500D01*
X12545000Y-7892500D01*
X12541173Y-7891739D01*
X12537929Y-7889571D01*
X12535761Y-7886327D01*
X12535000Y-7882500D01*
X12535000Y-7737500D01*
X12535761Y-7733673D01*
X12537929Y-7730429D01*
X12541173Y-7728261D01*
X12545000Y-7727500D01*
X12645000Y-7727500D01*
X12648827Y-7728261D01*
G37*
G36*
X12838827Y-7728261D02*
G01*
X12842071Y-7730429D01*
X12844239Y-7733673D01*
X12845000Y-7737500D01*
X12845000Y-7882500D01*
X12844239Y-7886327D01*
X12842071Y-7889571D01*
X12838827Y-7891739D01*
X12835000Y-7892500D01*
X12735000Y-7892500D01*
X12731173Y-7891739D01*
X12727929Y-7889571D01*
X12725761Y-7886327D01*
X12725000Y-7882500D01*
X12725000Y-7737500D01*
X12725761Y-7733673D01*
X12727929Y-7730429D01*
X12731173Y-7728261D01*
X12735000Y-7727500D01*
X12835000Y-7727500D01*
X12838827Y-7728261D01*
G37*
G36*
X14649012Y-7793547D02*
G01*
X14653473Y-7796527D01*
X14656453Y-7800988D01*
X14657500Y-7806250D01*
X14657500Y-7833750D01*
X14656453Y-7839012D01*
X14653473Y-7843473D01*
X14649012Y-7846453D01*
X14643750Y-7847500D01*
X14523750Y-7847500D01*
X14518488Y-7846453D01*
X14514027Y-7843473D01*
X14511047Y-7839012D01*
X14510000Y-7833750D01*
X14510000Y-7806250D01*
X14511047Y-7800988D01*
X14514027Y-7796527D01*
X14518488Y-7793547D01*
X14523750Y-7792500D01*
X14643750Y-7792500D01*
X14649012Y-7793547D01*
G37*
G36*
X15481512Y-7793547D02*
G01*
X15485973Y-7796527D01*
X15488953Y-7800988D01*
X15490000Y-7806250D01*
X15490000Y-7833750D01*
X15488953Y-7839012D01*
X15485973Y-7843473D01*
X15481512Y-7846453D01*
X15476250Y-7847500D01*
X15356250Y-7847500D01*
X15350988Y-7846453D01*
X15346527Y-7843473D01*
X15343547Y-7839012D01*
X15342500Y-7833750D01*
X15342500Y-7806250D01*
X15343547Y-7800988D01*
X15346527Y-7796527D01*
X15350988Y-7793547D01*
X15356250Y-7792500D01*
X15476250Y-7792500D01*
X15481512Y-7793547D01*
G37*
G36*
X13131913Y-7665381D02*
G01*
X13133535Y-7666464D01*
X13134619Y-7668087D01*
X13135000Y-7670000D01*
X13135000Y-7840000D01*
X13134619Y-7841913D01*
X13133535Y-7843535D01*
X13131913Y-7844619D01*
X13130000Y-7845000D01*
X13020000Y-7845000D01*
X13018087Y-7844619D01*
X13016464Y-7843535D01*
X13015381Y-7841913D01*
X13015000Y-7840000D01*
X13015000Y-7670000D01*
X13015381Y-7668087D01*
X13016464Y-7666464D01*
X13018087Y-7665381D01*
X13020000Y-7665000D01*
X13130000Y-7665000D01*
X13131913Y-7665381D01*
G37*
G36*
X13001913Y-7797881D02*
G01*
X13003535Y-7798964D01*
X13004619Y-7800587D01*
X13005000Y-7802500D01*
X13005000Y-7837500D01*
X13004619Y-7839413D01*
X13003535Y-7841035D01*
X13001913Y-7842119D01*
X13000000Y-7842500D01*
X12940000Y-7842500D01*
X12938087Y-7842119D01*
X12936464Y-7841035D01*
X12935381Y-7839413D01*
X12935000Y-7837500D01*
X12935000Y-7802500D01*
X12935381Y-7800587D01*
X12936464Y-7798964D01*
X12938087Y-7797881D01*
X12940000Y-7797500D01*
X13000000Y-7797500D01*
X13001913Y-7797881D01*
G37*
G36*
X13211913Y-7797881D02*
G01*
X13213535Y-7798964D01*
X13214619Y-7800587D01*
X13215000Y-7802500D01*
X13215000Y-7837500D01*
X13214619Y-7839413D01*
X13213535Y-7841035D01*
X13211913Y-7842119D01*
X13210000Y-7842500D01*
X13150000Y-7842500D01*
X13148087Y-7842119D01*
X13146464Y-7841035D01*
X13145381Y-7839413D01*
X13145000Y-7837500D01*
X13145000Y-7802500D01*
X13145381Y-7800587D01*
X13146464Y-7798964D01*
X13148087Y-7797881D01*
X13150000Y-7797500D01*
X13210000Y-7797500D01*
X13211913Y-7797881D01*
G37*
G36*
X13001913Y-7732881D02*
G01*
X13003535Y-7733964D01*
X13004619Y-7735587D01*
X13005000Y-7737500D01*
X13005000Y-7772500D01*
X13004619Y-7774413D01*
X13003535Y-7776035D01*
X13001913Y-7777119D01*
X13000000Y-7777500D01*
X12940000Y-7777500D01*
X12938087Y-7777119D01*
X12936464Y-7776035D01*
X12935381Y-7774413D01*
X12935000Y-7772500D01*
X12935000Y-7737500D01*
X12935381Y-7735587D01*
X12936464Y-7733964D01*
X12938087Y-7732881D01*
X12940000Y-7732500D01*
X13000000Y-7732500D01*
X13001913Y-7732881D01*
G37*
G36*
X13211913Y-7732881D02*
G01*
X13213535Y-7733964D01*
X13214619Y-7735587D01*
X13215000Y-7737500D01*
X13215000Y-7772500D01*
X13214619Y-7774413D01*
X13213535Y-7776035D01*
X13211913Y-7777119D01*
X13210000Y-7777500D01*
X13150000Y-7777500D01*
X13148087Y-7777119D01*
X13146464Y-7776035D01*
X13145381Y-7774413D01*
X13145000Y-7772500D01*
X13145000Y-7737500D01*
X13145381Y-7735587D01*
X13146464Y-7733964D01*
X13148087Y-7732881D01*
X13150000Y-7732500D01*
X13210000Y-7732500D01*
X13211913Y-7732881D01*
G37*
G36*
X14649012Y-7713547D02*
G01*
X14653473Y-7716527D01*
X14656453Y-7720988D01*
X14657500Y-7726250D01*
X14657500Y-7753750D01*
X14656453Y-7759012D01*
X14653473Y-7763473D01*
X14649012Y-7766453D01*
X14643750Y-7767500D01*
X14523750Y-7767500D01*
X14518488Y-7766453D01*
X14514027Y-7763473D01*
X14511047Y-7759012D01*
X14510000Y-7753750D01*
X14510000Y-7726250D01*
X14511047Y-7720988D01*
X14514027Y-7716527D01*
X14518488Y-7713547D01*
X14523750Y-7712500D01*
X14643750Y-7712500D01*
X14649012Y-7713547D01*
G37*
G36*
X15481512Y-7713547D02*
G01*
X15485973Y-7716527D01*
X15488953Y-7720988D01*
X15490000Y-7726250D01*
X15490000Y-7753750D01*
X15488953Y-7759012D01*
X15485973Y-7763473D01*
X15481512Y-7766453D01*
X15476250Y-7767500D01*
X15356250Y-7767500D01*
X15350988Y-7766453D01*
X15346527Y-7763473D01*
X15343547Y-7759012D01*
X15342500Y-7753750D01*
X15342500Y-7726250D01*
X15343547Y-7720988D01*
X15346527Y-7716527D01*
X15350988Y-7713547D01*
X15356250Y-7712500D01*
X15476250Y-7712500D01*
X15481512Y-7713547D01*
G37*
G36*
X13001913Y-7667881D02*
G01*
X13003535Y-7668964D01*
X13004619Y-7670587D01*
X13005000Y-7672500D01*
X13005000Y-7707500D01*
X13004619Y-7709413D01*
X13003535Y-7711035D01*
X13001913Y-7712119D01*
X13000000Y-7712500D01*
X12940000Y-7712500D01*
X12938087Y-7712119D01*
X12936464Y-7711035D01*
X12935381Y-7709413D01*
X12935000Y-7707500D01*
X12935000Y-7672500D01*
X12935381Y-7670587D01*
X12936464Y-7668964D01*
X12938087Y-7667881D01*
X12940000Y-7667500D01*
X13000000Y-7667500D01*
X13001913Y-7667881D01*
G37*
G36*
X13211913Y-7667881D02*
G01*
X13213535Y-7668964D01*
X13214619Y-7670587D01*
X13215000Y-7672500D01*
X13215000Y-7707500D01*
X13214619Y-7709413D01*
X13213535Y-7711035D01*
X13211913Y-7712119D01*
X13210000Y-7712500D01*
X13150000Y-7712500D01*
X13148087Y-7712119D01*
X13146464Y-7711035D01*
X13145381Y-7709413D01*
X13145000Y-7707500D01*
X13145000Y-7672500D01*
X13145381Y-7670587D01*
X13146464Y-7668964D01*
X13148087Y-7667881D01*
X13150000Y-7667500D01*
X13210000Y-7667500D01*
X13211913Y-7667881D01*
G37*
G36*
X14649012Y-7633547D02*
G01*
X14653473Y-7636527D01*
X14656453Y-7640988D01*
X14657500Y-7646250D01*
X14657500Y-7673750D01*
X14656453Y-7679012D01*
X14653473Y-7683473D01*
X14649012Y-7686453D01*
X14643750Y-7687500D01*
X14523750Y-7687500D01*
X14518488Y-7686453D01*
X14514027Y-7683473D01*
X14511047Y-7679012D01*
X14510000Y-7673750D01*
X14510000Y-7646250D01*
X14511047Y-7640988D01*
X14514027Y-7636527D01*
X14518488Y-7633547D01*
X14523750Y-7632500D01*
X14643750Y-7632500D01*
X14649012Y-7633547D01*
G37*
G36*
X15481512Y-7633547D02*
G01*
X15485973Y-7636527D01*
X15488953Y-7640988D01*
X15490000Y-7646250D01*
X15490000Y-7673750D01*
X15488953Y-7679012D01*
X15485973Y-7683473D01*
X15481512Y-7686453D01*
X15476250Y-7687500D01*
X15356250Y-7687500D01*
X15350988Y-7686453D01*
X15346527Y-7683473D01*
X15343547Y-7679012D01*
X15342500Y-7673750D01*
X15342500Y-7646250D01*
X15343547Y-7640988D01*
X15346527Y-7636527D01*
X15350988Y-7633547D01*
X15356250Y-7632500D01*
X15476250Y-7632500D01*
X15481512Y-7633547D01*
G37*
G36*
X15669327Y-7548761D02*
G01*
X15672571Y-7550929D01*
X15674739Y-7554173D01*
X15675500Y-7558000D01*
X15675500Y-7652000D01*
X15674739Y-7655827D01*
X15672571Y-7659071D01*
X15669327Y-7661239D01*
X15665500Y-7662000D01*
X15582500Y-7662000D01*
X15578673Y-7661239D01*
X15575429Y-7659071D01*
X15573261Y-7655827D01*
X15572500Y-7652000D01*
X15572500Y-7558000D01*
X15573261Y-7554173D01*
X15575429Y-7550929D01*
X15578673Y-7548761D01*
X15582500Y-7548000D01*
X15665500Y-7548000D01*
X15669327Y-7548761D01*
G37*
G36*
X15801327Y-7548761D02*
G01*
X15804571Y-7550929D01*
X15806739Y-7554173D01*
X15807500Y-7558000D01*
X15807500Y-7652000D01*
X15806739Y-7655827D01*
X15804571Y-7659071D01*
X15801327Y-7661239D01*
X15797500Y-7662000D01*
X15714500Y-7662000D01*
X15710673Y-7661239D01*
X15707429Y-7659071D01*
X15705261Y-7655827D01*
X15704500Y-7652000D01*
X15704500Y-7558000D01*
X15705261Y-7554173D01*
X15707429Y-7550929D01*
X15710673Y-7548761D01*
X15714500Y-7548000D01*
X15797500Y-7548000D01*
X15801327Y-7548761D01*
G37*
G36*
X12538827Y-7458261D02*
G01*
X12542071Y-7460429D01*
X12544239Y-7463673D01*
X12545000Y-7467500D01*
X12545000Y-7612500D01*
X12544239Y-7616327D01*
X12542071Y-7619571D01*
X12538827Y-7621739D01*
X12535000Y-7622500D01*
X12435000Y-7622500D01*
X12431173Y-7621739D01*
X12427929Y-7619571D01*
X12425761Y-7616327D01*
X12425000Y-7612500D01*
X12425000Y-7467500D01*
X12425761Y-7463673D01*
X12427929Y-7460429D01*
X12431173Y-7458261D01*
X12435000Y-7457500D01*
X12535000Y-7457500D01*
X12538827Y-7458261D01*
G37*
G36*
X12728827Y-7458261D02*
G01*
X12732071Y-7460429D01*
X12734239Y-7463673D01*
X12735000Y-7467500D01*
X12735000Y-7612500D01*
X12734239Y-7616327D01*
X12732071Y-7619571D01*
X12728827Y-7621739D01*
X12725000Y-7622500D01*
X12625000Y-7622500D01*
X12621173Y-7621739D01*
X12617929Y-7619571D01*
X12615761Y-7616327D01*
X12615000Y-7612500D01*
X12615000Y-7467500D01*
X12615761Y-7463673D01*
X12617929Y-7460429D01*
X12621173Y-7458261D01*
X12625000Y-7457500D01*
X12725000Y-7457500D01*
X12728827Y-7458261D01*
G37*
G36*
X14649012Y-7553547D02*
G01*
X14653473Y-7556527D01*
X14656453Y-7560988D01*
X14657500Y-7566250D01*
X14657500Y-7593750D01*
X14656453Y-7599012D01*
X14653473Y-7603473D01*
X14649012Y-7606453D01*
X14643750Y-7607500D01*
X14523750Y-7607500D01*
X14518488Y-7606453D01*
X14514027Y-7603473D01*
X14511047Y-7599012D01*
X14510000Y-7593750D01*
X14510000Y-7566250D01*
X14511047Y-7560988D01*
X14514027Y-7556527D01*
X14518488Y-7553547D01*
X14523750Y-7552500D01*
X14643750Y-7552500D01*
X14649012Y-7553547D01*
G37*
G36*
X15481512Y-7553547D02*
G01*
X15485973Y-7556527D01*
X15488953Y-7560988D01*
X15490000Y-7566250D01*
X15490000Y-7593750D01*
X15488953Y-7599012D01*
X15485973Y-7603473D01*
X15481512Y-7606453D01*
X15476250Y-7607500D01*
X15356250Y-7607500D01*
X15350988Y-7606453D01*
X15346527Y-7603473D01*
X15343547Y-7599012D01*
X15342500Y-7593750D01*
X15342500Y-7566250D01*
X15343547Y-7560988D01*
X15346527Y-7556527D01*
X15350988Y-7553547D01*
X15356250Y-7552500D01*
X15476250Y-7552500D01*
X15481512Y-7553547D01*
G37*
G36*
X13806327Y-7368261D02*
G01*
X13809571Y-7370429D01*
X13811739Y-7373673D01*
X13812500Y-7377500D01*
X13812500Y-7592500D01*
X13811739Y-7596327D01*
X13809571Y-7599571D01*
X13806327Y-7601739D01*
X13802500Y-7602500D01*
X13477500Y-7602500D01*
X13473673Y-7601739D01*
X13470429Y-7599571D01*
X13468261Y-7596327D01*
X13467500Y-7592500D01*
X13467500Y-7377500D01*
X13468261Y-7373673D01*
X13470429Y-7370429D01*
X13473673Y-7368261D01*
X13477500Y-7367500D01*
X13802500Y-7367500D01*
X13806327Y-7368261D01*
G37*
G36*
X14329327Y-7478761D02*
G01*
X14332571Y-7480929D01*
X14334739Y-7484173D01*
X14335500Y-7488000D01*
X14335500Y-7582000D01*
X14334739Y-7585827D01*
X14332571Y-7589071D01*
X14329327Y-7591239D01*
X14325500Y-7592000D01*
X14242500Y-7592000D01*
X14238673Y-7591239D01*
X14235429Y-7589071D01*
X14233261Y-7585827D01*
X14232500Y-7582000D01*
X14232500Y-7488000D01*
X14233261Y-7484173D01*
X14235429Y-7480929D01*
X14238673Y-7478761D01*
X14242500Y-7478000D01*
X14325500Y-7478000D01*
X14329327Y-7478761D01*
G37*
G36*
X14461327Y-7478761D02*
G01*
X14464571Y-7480929D01*
X14466739Y-7484173D01*
X14467500Y-7488000D01*
X14467500Y-7582000D01*
X14466739Y-7585827D01*
X14464571Y-7589071D01*
X14461327Y-7591239D01*
X14457500Y-7592000D01*
X14374500Y-7592000D01*
X14370673Y-7591239D01*
X14367429Y-7589071D01*
X14365261Y-7585827D01*
X14364500Y-7582000D01*
X14364500Y-7488000D01*
X14365261Y-7484173D01*
X14367429Y-7480929D01*
X14370673Y-7478761D01*
X14374500Y-7478000D01*
X14457500Y-7478000D01*
X14461327Y-7478761D01*
G37*
G36*
X13128827Y-7389261D02*
G01*
X13132071Y-7391429D01*
X13134239Y-7394673D01*
X13135000Y-7398500D01*
X13135000Y-7541500D01*
X13134239Y-7545327D01*
X13132071Y-7548571D01*
X13128827Y-7550739D01*
X13125000Y-7551500D01*
X13031000Y-7551500D01*
X13027173Y-7550739D01*
X13023929Y-7548571D01*
X13021761Y-7545327D01*
X13021000Y-7541500D01*
X13021000Y-7398500D01*
X13021761Y-7394673D01*
X13023929Y-7391429D01*
X13027173Y-7389261D01*
X13031000Y-7388500D01*
X13125000Y-7388500D01*
X13128827Y-7389261D01*
G37*
G36*
X13292827Y-7389261D02*
G01*
X13296071Y-7391429D01*
X13298239Y-7394673D01*
X13299000Y-7398500D01*
X13299000Y-7541500D01*
X13298239Y-7545327D01*
X13296071Y-7548571D01*
X13292827Y-7550739D01*
X13289000Y-7551500D01*
X13195000Y-7551500D01*
X13191173Y-7550739D01*
X13187929Y-7548571D01*
X13185761Y-7545327D01*
X13185000Y-7541500D01*
X13185000Y-7398500D01*
X13185761Y-7394673D01*
X13187929Y-7391429D01*
X13191173Y-7389261D01*
X13195000Y-7388500D01*
X13289000Y-7388500D01*
X13292827Y-7389261D01*
G37*
G36*
X14649012Y-7473547D02*
G01*
X14653473Y-7476527D01*
X14656453Y-7480988D01*
X14657500Y-7486250D01*
X14657500Y-7513750D01*
X14656453Y-7519012D01*
X14653473Y-7523473D01*
X14649012Y-7526453D01*
X14643750Y-7527500D01*
X14523750Y-7527500D01*
X14518488Y-7526453D01*
X14514027Y-7523473D01*
X14511047Y-7519012D01*
X14510000Y-7513750D01*
X14510000Y-7486250D01*
X14511047Y-7480988D01*
X14514027Y-7476527D01*
X14518488Y-7473547D01*
X14523750Y-7472500D01*
X14643750Y-7472500D01*
X14649012Y-7473547D01*
G37*
G36*
X15481512Y-7473547D02*
G01*
X15485973Y-7476527D01*
X15488953Y-7480988D01*
X15490000Y-7486250D01*
X15490000Y-7513750D01*
X15488953Y-7519012D01*
X15485973Y-7523473D01*
X15481512Y-7526453D01*
X15476250Y-7527500D01*
X15356250Y-7527500D01*
X15350988Y-7526453D01*
X15346527Y-7523473D01*
X15343547Y-7519012D01*
X15342500Y-7513750D01*
X15342500Y-7486250D01*
X15343547Y-7480988D01*
X15346527Y-7476527D01*
X15350988Y-7473547D01*
X15356250Y-7472500D01*
X15476250Y-7472500D01*
X15481512Y-7473547D01*
G37*
G36*
X14649012Y-7393547D02*
G01*
X14653473Y-7396527D01*
X14656453Y-7400988D01*
X14657500Y-7406250D01*
X14657500Y-7433750D01*
X14656453Y-7439012D01*
X14653473Y-7443473D01*
X14649012Y-7446453D01*
X14643750Y-7447500D01*
X14523750Y-7447500D01*
X14518488Y-7446453D01*
X14514027Y-7443473D01*
X14511047Y-7439012D01*
X14510000Y-7433750D01*
X14510000Y-7406250D01*
X14511047Y-7400988D01*
X14514027Y-7396527D01*
X14518488Y-7393547D01*
X14523750Y-7392500D01*
X14643750Y-7392500D01*
X14649012Y-7393547D01*
G37*
G36*
X15481512Y-7393547D02*
G01*
X15485973Y-7396527D01*
X15488953Y-7400988D01*
X15490000Y-7406250D01*
X15490000Y-7433750D01*
X15488953Y-7439012D01*
X15485973Y-7443473D01*
X15481512Y-7446453D01*
X15476250Y-7447500D01*
X15356250Y-7447500D01*
X15350988Y-7446453D01*
X15346527Y-7443473D01*
X15343547Y-7439012D01*
X15342500Y-7433750D01*
X15342500Y-7406250D01*
X15343547Y-7400988D01*
X15346527Y-7396527D01*
X15350988Y-7393547D01*
X15356250Y-7392500D01*
X15476250Y-7392500D01*
X15481512Y-7393547D01*
G37*
G36*
X12786327Y-7285761D02*
G01*
X12789571Y-7287929D01*
X12791739Y-7291173D01*
X12792500Y-7295000D01*
X12792500Y-7395000D01*
X12791739Y-7398827D01*
X12789571Y-7402071D01*
X12786327Y-7404239D01*
X12782500Y-7405000D01*
X12637500Y-7405000D01*
X12633673Y-7404239D01*
X12630429Y-7402071D01*
X12628261Y-7398827D01*
X12627500Y-7395000D01*
X12627500Y-7295000D01*
X12628261Y-7291173D01*
X12630429Y-7287929D01*
X12633673Y-7285761D01*
X12637500Y-7285000D01*
X12782500Y-7285000D01*
X12786327Y-7285761D01*
G37*
G36*
X14329327Y-7258761D02*
G01*
X14332571Y-7260929D01*
X14334739Y-7264173D01*
X14335500Y-7268000D01*
X14335500Y-7362000D01*
X14334739Y-7365827D01*
X14332571Y-7369071D01*
X14329327Y-7371239D01*
X14325500Y-7372000D01*
X14242500Y-7372000D01*
X14238673Y-7371239D01*
X14235429Y-7369071D01*
X14233261Y-7365827D01*
X14232500Y-7362000D01*
X14232500Y-7268000D01*
X14233261Y-7264173D01*
X14235429Y-7260929D01*
X14238673Y-7258761D01*
X14242500Y-7258000D01*
X14325500Y-7258000D01*
X14329327Y-7258761D01*
G37*
G36*
X14461327Y-7258761D02*
G01*
X14464571Y-7260929D01*
X14466739Y-7264173D01*
X14467500Y-7268000D01*
X14467500Y-7362000D01*
X14466739Y-7365827D01*
X14464571Y-7369071D01*
X14461327Y-7371239D01*
X14457500Y-7372000D01*
X14374500Y-7372000D01*
X14370673Y-7371239D01*
X14367429Y-7369071D01*
X14365261Y-7365827D01*
X14364500Y-7362000D01*
X14364500Y-7268000D01*
X14365261Y-7264173D01*
X14367429Y-7260929D01*
X14370673Y-7258761D01*
X14374500Y-7258000D01*
X14457500Y-7258000D01*
X14461327Y-7258761D01*
G37*
G36*
X14649012Y-7313547D02*
G01*
X14653473Y-7316527D01*
X14656453Y-7320988D01*
X14657500Y-7326250D01*
X14657500Y-7353750D01*
X14656453Y-7359012D01*
X14653473Y-7363473D01*
X14649012Y-7366453D01*
X14643750Y-7367500D01*
X14523750Y-7367500D01*
X14518488Y-7366453D01*
X14514027Y-7363473D01*
X14511047Y-7359012D01*
X14510000Y-7353750D01*
X14510000Y-7326250D01*
X14511047Y-7320988D01*
X14514027Y-7316527D01*
X14518488Y-7313547D01*
X14523750Y-7312500D01*
X14643750Y-7312500D01*
X14649012Y-7313547D01*
G37*
G36*
X15481512Y-7313547D02*
G01*
X15485973Y-7316527D01*
X15488953Y-7320988D01*
X15490000Y-7326250D01*
X15490000Y-7353750D01*
X15488953Y-7359012D01*
X15485973Y-7363473D01*
X15481512Y-7366453D01*
X15476250Y-7367500D01*
X15356250Y-7367500D01*
X15350988Y-7366453D01*
X15346527Y-7363473D01*
X15343547Y-7359012D01*
X15342500Y-7353750D01*
X15342500Y-7326250D01*
X15343547Y-7320988D01*
X15346527Y-7316527D01*
X15350988Y-7313547D01*
X15356250Y-7312500D01*
X15476250Y-7312500D01*
X15481512Y-7313547D01*
G37*
G36*
X13128827Y-7199261D02*
G01*
X13132071Y-7201429D01*
X13134239Y-7204673D01*
X13135000Y-7208500D01*
X13135000Y-7351500D01*
X13134239Y-7355327D01*
X13132071Y-7358571D01*
X13128827Y-7360739D01*
X13125000Y-7361500D01*
X13031000Y-7361500D01*
X13027173Y-7360739D01*
X13023929Y-7358571D01*
X13021761Y-7355327D01*
X13021000Y-7351500D01*
X13021000Y-7208500D01*
X13021761Y-7204673D01*
X13023929Y-7201429D01*
X13027173Y-7199261D01*
X13031000Y-7198500D01*
X13125000Y-7198500D01*
X13128827Y-7199261D01*
G37*
G36*
X13292827Y-7199261D02*
G01*
X13296071Y-7201429D01*
X13298239Y-7204673D01*
X13299000Y-7208500D01*
X13299000Y-7351500D01*
X13298239Y-7355327D01*
X13296071Y-7358571D01*
X13292827Y-7360739D01*
X13289000Y-7361500D01*
X13195000Y-7361500D01*
X13191173Y-7360739D01*
X13187929Y-7358571D01*
X13185761Y-7355327D01*
X13185000Y-7351500D01*
X13185000Y-7208500D01*
X13185761Y-7204673D01*
X13187929Y-7201429D01*
X13191173Y-7199261D01*
X13195000Y-7198500D01*
X13289000Y-7198500D01*
X13292827Y-7199261D01*
G37*
G36*
X14649012Y-7233547D02*
G01*
X14653473Y-7236527D01*
X14656453Y-7240988D01*
X14657500Y-7246250D01*
X14657500Y-7273750D01*
X14656453Y-7279012D01*
X14653473Y-7283473D01*
X14649012Y-7286453D01*
X14643750Y-7287500D01*
X14523750Y-7287500D01*
X14518488Y-7286453D01*
X14514027Y-7283473D01*
X14511047Y-7279012D01*
X14510000Y-7273750D01*
X14510000Y-7246250D01*
X14511047Y-7240988D01*
X14514027Y-7236527D01*
X14518488Y-7233547D01*
X14523750Y-7232500D01*
X14643750Y-7232500D01*
X14649012Y-7233547D01*
G37*
G36*
X15481512Y-7233547D02*
G01*
X15485973Y-7236527D01*
X15488953Y-7240988D01*
X15490000Y-7246250D01*
X15490000Y-7273750D01*
X15488953Y-7279012D01*
X15485973Y-7283473D01*
X15481512Y-7286453D01*
X15476250Y-7287500D01*
X15356250Y-7287500D01*
X15350988Y-7286453D01*
X15346527Y-7283473D01*
X15343547Y-7279012D01*
X15342500Y-7273750D01*
X15342500Y-7246250D01*
X15343547Y-7240988D01*
X15346527Y-7236527D01*
X15350988Y-7233547D01*
X15356250Y-7232500D01*
X15476250Y-7232500D01*
X15481512Y-7233547D01*
G37*
G36*
X12786327Y-7095761D02*
G01*
X12789571Y-7097929D01*
X12791739Y-7101173D01*
X12792500Y-7105000D01*
X12792500Y-7205000D01*
X12791739Y-7208827D01*
X12789571Y-7212071D01*
X12786327Y-7214239D01*
X12782500Y-7215000D01*
X12637500Y-7215000D01*
X12633673Y-7214239D01*
X12630429Y-7212071D01*
X12628261Y-7208827D01*
X12627500Y-7205000D01*
X12627500Y-7105000D01*
X12628261Y-7101173D01*
X12630429Y-7097929D01*
X12633673Y-7095761D01*
X12637500Y-7095000D01*
X12782500Y-7095000D01*
X12786327Y-7095761D01*
G37*
G36*
X14739012Y-7051047D02*
G01*
X14743473Y-7054027D01*
X14746453Y-7058488D01*
X14747500Y-7063750D01*
X14747500Y-7183750D01*
X14746453Y-7189012D01*
X14743473Y-7193473D01*
X14739012Y-7196453D01*
X14733750Y-7197500D01*
X14706250Y-7197500D01*
X14700988Y-7196453D01*
X14696527Y-7193473D01*
X14693547Y-7189012D01*
X14692500Y-7183750D01*
X14692500Y-7063750D01*
X14693547Y-7058488D01*
X14696527Y-7054027D01*
X14700988Y-7051047D01*
X14706250Y-7050000D01*
X14733750Y-7050000D01*
X14739012Y-7051047D01*
G37*
G36*
X14819012Y-7051047D02*
G01*
X14823473Y-7054027D01*
X14826453Y-7058488D01*
X14827500Y-7063750D01*
X14827500Y-7183750D01*
X14826453Y-7189012D01*
X14823473Y-7193473D01*
X14819012Y-7196453D01*
X14813750Y-7197500D01*
X14786250Y-7197500D01*
X14780988Y-7196453D01*
X14776527Y-7193473D01*
X14773547Y-7189012D01*
X14772500Y-7183750D01*
X14772500Y-7063750D01*
X14773547Y-7058488D01*
X14776527Y-7054027D01*
X14780988Y-7051047D01*
X14786250Y-7050000D01*
X14813750Y-7050000D01*
X14819012Y-7051047D01*
G37*
G36*
X14899012Y-7051047D02*
G01*
X14903473Y-7054027D01*
X14906453Y-7058488D01*
X14907500Y-7063750D01*
X14907500Y-7183750D01*
X14906453Y-7189012D01*
X14903473Y-7193473D01*
X14899012Y-7196453D01*
X14893750Y-7197500D01*
X14866250Y-7197500D01*
X14860988Y-7196453D01*
X14856527Y-7193473D01*
X14853547Y-7189012D01*
X14852500Y-7183750D01*
X14852500Y-7063750D01*
X14853547Y-7058488D01*
X14856527Y-7054027D01*
X14860988Y-7051047D01*
X14866250Y-7050000D01*
X14893750Y-7050000D01*
X14899012Y-7051047D01*
G37*
G36*
X14979012Y-7051047D02*
G01*
X14983473Y-7054027D01*
X14986453Y-7058488D01*
X14987500Y-7063750D01*
X14987500Y-7183750D01*
X14986453Y-7189012D01*
X14983473Y-7193473D01*
X14979012Y-7196453D01*
X14973750Y-7197500D01*
X14946250Y-7197500D01*
X14940988Y-7196453D01*
X14936527Y-7193473D01*
X14933547Y-7189012D01*
X14932500Y-7183750D01*
X14932500Y-7063750D01*
X14933547Y-7058488D01*
X14936527Y-7054027D01*
X14940988Y-7051047D01*
X14946250Y-7050000D01*
X14973750Y-7050000D01*
X14979012Y-7051047D01*
G37*
G36*
X15059012Y-7051047D02*
G01*
X15063473Y-7054027D01*
X15066453Y-7058488D01*
X15067500Y-7063750D01*
X15067500Y-7183750D01*
X15066453Y-7189012D01*
X15063473Y-7193473D01*
X15059012Y-7196453D01*
X15053750Y-7197500D01*
X15026250Y-7197500D01*
X15020988Y-7196453D01*
X15016527Y-7193473D01*
X15013547Y-7189012D01*
X15012500Y-7183750D01*
X15012500Y-7063750D01*
X15013547Y-7058488D01*
X15016527Y-7054027D01*
X15020988Y-7051047D01*
X15026250Y-7050000D01*
X15053750Y-7050000D01*
X15059012Y-7051047D01*
G37*
G36*
X15139012Y-7051047D02*
G01*
X15143473Y-7054027D01*
X15146453Y-7058488D01*
X15147500Y-7063750D01*
X15147500Y-7183750D01*
X15146453Y-7189012D01*
X15143473Y-7193473D01*
X15139012Y-7196453D01*
X15133750Y-7197500D01*
X15106250Y-7197500D01*
X15100988Y-7196453D01*
X15096527Y-7193473D01*
X15093547Y-7189012D01*
X15092500Y-7183750D01*
X15092500Y-7063750D01*
X15093547Y-7058488D01*
X15096527Y-7054027D01*
X15100988Y-7051047D01*
X15106250Y-7050000D01*
X15133750Y-7050000D01*
X15139012Y-7051047D01*
G37*
G36*
X15219012Y-7051047D02*
G01*
X15223473Y-7054027D01*
X15226453Y-7058488D01*
X15227500Y-7063750D01*
X15227500Y-7183750D01*
X15226453Y-7189012D01*
X15223473Y-7193473D01*
X15219012Y-7196453D01*
X15213750Y-7197500D01*
X15186250Y-7197500D01*
X15180988Y-7196453D01*
X15176527Y-7193473D01*
X15173547Y-7189012D01*
X15172500Y-7183750D01*
X15172500Y-7063750D01*
X15173547Y-7058488D01*
X15176527Y-7054027D01*
X15180988Y-7051047D01*
X15186250Y-7050000D01*
X15213750Y-7050000D01*
X15219012Y-7051047D01*
G37*
G36*
X15299012Y-7051047D02*
G01*
X15303473Y-7054027D01*
X15306453Y-7058488D01*
X15307500Y-7063750D01*
X15307500Y-7183750D01*
X15306453Y-7189012D01*
X15303473Y-7193473D01*
X15299012Y-7196453D01*
X15293750Y-7197500D01*
X15266250Y-7197500D01*
X15260988Y-7196453D01*
X15256527Y-7193473D01*
X15253547Y-7189012D01*
X15252500Y-7183750D01*
X15252500Y-7063750D01*
X15253547Y-7058488D01*
X15256527Y-7054027D01*
X15260988Y-7051047D01*
X15266250Y-7050000D01*
X15293750Y-7050000D01*
X15299012Y-7051047D01*
G37*
G36*
X13128827Y-7009261D02*
G01*
X13132071Y-7011429D01*
X13134239Y-7014673D01*
X13135000Y-7018500D01*
X13135000Y-7161500D01*
X13134239Y-7165327D01*
X13132071Y-7168571D01*
X13128827Y-7170739D01*
X13125000Y-7171500D01*
X13031000Y-7171500D01*
X13027173Y-7170739D01*
X13023929Y-7168571D01*
X13021761Y-7165327D01*
X13021000Y-7161500D01*
X13021000Y-7018500D01*
X13021761Y-7014673D01*
X13023929Y-7011429D01*
X13027173Y-7009261D01*
X13031000Y-7008500D01*
X13125000Y-7008500D01*
X13128827Y-7009261D01*
G37*
G36*
X13292827Y-7009261D02*
G01*
X13296071Y-7011429D01*
X13298239Y-7014673D01*
X13299000Y-7018500D01*
X13299000Y-7161500D01*
X13298239Y-7165327D01*
X13296071Y-7168571D01*
X13292827Y-7170739D01*
X13289000Y-7171500D01*
X13195000Y-7171500D01*
X13191173Y-7170739D01*
X13187929Y-7168571D01*
X13185761Y-7165327D01*
X13185000Y-7161500D01*
X13185000Y-7018500D01*
X13185761Y-7014673D01*
X13187929Y-7011429D01*
X13191173Y-7009261D01*
X13195000Y-7008500D01*
X13289000Y-7008500D01*
X13292827Y-7009261D01*
G37*
M02*
