%TF.GenerationSoftware,KiCad,Pcbnew,9.0.6*%
%TF.CreationDate,2026-08-09T07:51:20+08:00*%
%TF.ProjectId,MQTT-Module-CurrentSensors,4d515454-2d4d-46f6-9475-6c652d437572,rev?*%
%TF.SameCoordinates,Original*%
%TF.FileFunction,Legend,Top*%
%TF.FilePolarity,Positive*%
%FSLAX45Y45*%
G04 Gerber Fmt 4.5, Leading zero omitted, Abs format (unit mm)*
G04 Created by KiCad (PCBNEW 9.0.6) date 2026-08-09 07:51:20*
%MOMM*%
%LPD*%
G01*
G04 APERTURE LIST*
%ADD10C,0.100000*%
%ADD11C,0.250000*%
%ADD12C,0.200000*%
%ADD13C,0.152400*%
%ADD14C,0.120000*%
%ADD15C,0.000000*%
G04 APERTURE END LIST*
D10*
X15360000Y-9460000D02*
X15430000Y-9390000D01*
X13010000Y-9460000D02*
X13080000Y-9390000D01*
X14240000Y-9450000D02*
X14310000Y-9380000D01*
D11*
X12555495Y-11788981D02*
X12543114Y-11782790D01*
X12543114Y-11782790D02*
X12524542Y-11782790D01*
X12524542Y-11782790D02*
X12505971Y-11788981D01*
X12505971Y-11788981D02*
X12493590Y-11801362D01*
X12493590Y-11801362D02*
X12487400Y-11813743D01*
X12487400Y-11813743D02*
X12481209Y-11838505D01*
X12481209Y-11838505D02*
X12481209Y-11857076D01*
X12481209Y-11857076D02*
X12487400Y-11881838D01*
X12487400Y-11881838D02*
X12493590Y-11894219D01*
X12493590Y-11894219D02*
X12505971Y-11906600D01*
X12505971Y-11906600D02*
X12524542Y-11912790D01*
X12524542Y-11912790D02*
X12536923Y-11912790D01*
X12536923Y-11912790D02*
X12555495Y-11906600D01*
X12555495Y-11906600D02*
X12561685Y-11900409D01*
X12561685Y-11900409D02*
X12561685Y-11857076D01*
X12561685Y-11857076D02*
X12536923Y-11857076D01*
X12617400Y-11912790D02*
X12617400Y-11782790D01*
X12617400Y-11782790D02*
X12691685Y-11912790D01*
X12691685Y-11912790D02*
X12691685Y-11782790D01*
X12753590Y-11912790D02*
X12753590Y-11782790D01*
X12753590Y-11782790D02*
X12784542Y-11782790D01*
X12784542Y-11782790D02*
X12803114Y-11788981D01*
X12803114Y-11788981D02*
X12815495Y-11801362D01*
X12815495Y-11801362D02*
X12821685Y-11813743D01*
X12821685Y-11813743D02*
X12827876Y-11838505D01*
X12827876Y-11838505D02*
X12827876Y-11857076D01*
X12827876Y-11857076D02*
X12821685Y-11881838D01*
X12821685Y-11881838D02*
X12815495Y-11894219D01*
X12815495Y-11894219D02*
X12803114Y-11906600D01*
X12803114Y-11906600D02*
X12784542Y-11912790D01*
X12784542Y-11912790D02*
X12753590Y-11912790D01*
X15041209Y-11906600D02*
X15059781Y-11912790D01*
X15059781Y-11912790D02*
X15090733Y-11912790D01*
X15090733Y-11912790D02*
X15103114Y-11906600D01*
X15103114Y-11906600D02*
X15109304Y-11900409D01*
X15109304Y-11900409D02*
X15115495Y-11888028D01*
X15115495Y-11888028D02*
X15115495Y-11875648D01*
X15115495Y-11875648D02*
X15109304Y-11863267D01*
X15109304Y-11863267D02*
X15103114Y-11857076D01*
X15103114Y-11857076D02*
X15090733Y-11850886D01*
X15090733Y-11850886D02*
X15065971Y-11844695D01*
X15065971Y-11844695D02*
X15053590Y-11838505D01*
X15053590Y-11838505D02*
X15047400Y-11832314D01*
X15047400Y-11832314D02*
X15041209Y-11819933D01*
X15041209Y-11819933D02*
X15041209Y-11807552D01*
X15041209Y-11807552D02*
X15047400Y-11795171D01*
X15047400Y-11795171D02*
X15053590Y-11788981D01*
X15053590Y-11788981D02*
X15065971Y-11782790D01*
X15065971Y-11782790D02*
X15096923Y-11782790D01*
X15096923Y-11782790D02*
X15115495Y-11788981D01*
X15158828Y-11782790D02*
X15239304Y-11782790D01*
X15239304Y-11782790D02*
X15195971Y-11832314D01*
X15195971Y-11832314D02*
X15214542Y-11832314D01*
X15214542Y-11832314D02*
X15226923Y-11838505D01*
X15226923Y-11838505D02*
X15233114Y-11844695D01*
X15233114Y-11844695D02*
X15239304Y-11857076D01*
X15239304Y-11857076D02*
X15239304Y-11888028D01*
X15239304Y-11888028D02*
X15233114Y-11900409D01*
X15233114Y-11900409D02*
X15226923Y-11906600D01*
X15226923Y-11906600D02*
X15214542Y-11912790D01*
X15214542Y-11912790D02*
X15177400Y-11912790D01*
X15177400Y-11912790D02*
X15165019Y-11906600D01*
X15165019Y-11906600D02*
X15158828Y-11900409D01*
X13408095Y-7145438D02*
X13403333Y-7150200D01*
X13403333Y-7150200D02*
X13389048Y-7154962D01*
X13389048Y-7154962D02*
X13379524Y-7154962D01*
X13379524Y-7154962D02*
X13365238Y-7150200D01*
X13365238Y-7150200D02*
X13355714Y-7140676D01*
X13355714Y-7140676D02*
X13350952Y-7131152D01*
X13350952Y-7131152D02*
X13346190Y-7112105D01*
X13346190Y-7112105D02*
X13346190Y-7097819D01*
X13346190Y-7097819D02*
X13350952Y-7078771D01*
X13350952Y-7078771D02*
X13355714Y-7069248D01*
X13355714Y-7069248D02*
X13365238Y-7059724D01*
X13365238Y-7059724D02*
X13379524Y-7054962D01*
X13379524Y-7054962D02*
X13389048Y-7054962D01*
X13389048Y-7054962D02*
X13403333Y-7059724D01*
X13403333Y-7059724D02*
X13408095Y-7064486D01*
X13441429Y-7054962D02*
X13503333Y-7054962D01*
X13503333Y-7054962D02*
X13470000Y-7093057D01*
X13470000Y-7093057D02*
X13484286Y-7093057D01*
X13484286Y-7093057D02*
X13493809Y-7097819D01*
X13493809Y-7097819D02*
X13498571Y-7102581D01*
X13498571Y-7102581D02*
X13503333Y-7112105D01*
X13503333Y-7112105D02*
X13503333Y-7135914D01*
X13503333Y-7135914D02*
X13498571Y-7145438D01*
X13498571Y-7145438D02*
X13493809Y-7150200D01*
X13493809Y-7150200D02*
X13484286Y-7154962D01*
X13484286Y-7154962D02*
X13455714Y-7154962D01*
X13455714Y-7154962D02*
X13446190Y-7150200D01*
X13446190Y-7150200D02*
X13441429Y-7145438D01*
X13565238Y-7054962D02*
X13574762Y-7054962D01*
X13574762Y-7054962D02*
X13584286Y-7059724D01*
X13584286Y-7059724D02*
X13589048Y-7064486D01*
X13589048Y-7064486D02*
X13593809Y-7074009D01*
X13593809Y-7074009D02*
X13598571Y-7093057D01*
X13598571Y-7093057D02*
X13598571Y-7116867D01*
X13598571Y-7116867D02*
X13593809Y-7135914D01*
X13593809Y-7135914D02*
X13589048Y-7145438D01*
X13589048Y-7145438D02*
X13584286Y-7150200D01*
X13584286Y-7150200D02*
X13574762Y-7154962D01*
X13574762Y-7154962D02*
X13565238Y-7154962D01*
X13565238Y-7154962D02*
X13555714Y-7150200D01*
X13555714Y-7150200D02*
X13550952Y-7145438D01*
X13550952Y-7145438D02*
X13546190Y-7135914D01*
X13546190Y-7135914D02*
X13541429Y-7116867D01*
X13541429Y-7116867D02*
X13541429Y-7093057D01*
X13541429Y-7093057D02*
X13546190Y-7074009D01*
X13546190Y-7074009D02*
X13550952Y-7064486D01*
X13550952Y-7064486D02*
X13555714Y-7059724D01*
X13555714Y-7059724D02*
X13565238Y-7054962D01*
X13636667Y-7064486D02*
X13641429Y-7059724D01*
X13641429Y-7059724D02*
X13650952Y-7054962D01*
X13650952Y-7054962D02*
X13674762Y-7054962D01*
X13674762Y-7054962D02*
X13684286Y-7059724D01*
X13684286Y-7059724D02*
X13689048Y-7064486D01*
X13689048Y-7064486D02*
X13693809Y-7074009D01*
X13693809Y-7074009D02*
X13693809Y-7083533D01*
X13693809Y-7083533D02*
X13689048Y-7097819D01*
X13689048Y-7097819D02*
X13631905Y-7154962D01*
X13631905Y-7154962D02*
X13693809Y-7154962D01*
X12444962Y-11209047D02*
X12344962Y-11209047D01*
X12344962Y-11209047D02*
X12344962Y-11185238D01*
X12344962Y-11185238D02*
X12349724Y-11170952D01*
X12349724Y-11170952D02*
X12359248Y-11161429D01*
X12359248Y-11161429D02*
X12368771Y-11156667D01*
X12368771Y-11156667D02*
X12387819Y-11151905D01*
X12387819Y-11151905D02*
X12402105Y-11151905D01*
X12402105Y-11151905D02*
X12421152Y-11156667D01*
X12421152Y-11156667D02*
X12430676Y-11161429D01*
X12430676Y-11161429D02*
X12440200Y-11170952D01*
X12440200Y-11170952D02*
X12444962Y-11185238D01*
X12444962Y-11185238D02*
X12444962Y-11209047D01*
X12378295Y-11066190D02*
X12444962Y-11066190D01*
X12340200Y-11090000D02*
X12411628Y-11113809D01*
X12411628Y-11113809D02*
X12411628Y-11051905D01*
X12344962Y-10994762D02*
X12344962Y-10985238D01*
X12344962Y-10985238D02*
X12349724Y-10975714D01*
X12349724Y-10975714D02*
X12354486Y-10970952D01*
X12354486Y-10970952D02*
X12364009Y-10966190D01*
X12364009Y-10966190D02*
X12383057Y-10961429D01*
X12383057Y-10961429D02*
X12406867Y-10961429D01*
X12406867Y-10961429D02*
X12425914Y-10966190D01*
X12425914Y-10966190D02*
X12435438Y-10970952D01*
X12435438Y-10970952D02*
X12440200Y-10975714D01*
X12440200Y-10975714D02*
X12444962Y-10985238D01*
X12444962Y-10985238D02*
X12444962Y-10994762D01*
X12444962Y-10994762D02*
X12440200Y-11004286D01*
X12440200Y-11004286D02*
X12435438Y-11009048D01*
X12435438Y-11009048D02*
X12425914Y-11013809D01*
X12425914Y-11013809D02*
X12406867Y-11018571D01*
X12406867Y-11018571D02*
X12383057Y-11018571D01*
X12383057Y-11018571D02*
X12364009Y-11013809D01*
X12364009Y-11013809D02*
X12354486Y-11009048D01*
X12354486Y-11009048D02*
X12349724Y-11004286D01*
X12349724Y-11004286D02*
X12344962Y-10994762D01*
X12444962Y-10866190D02*
X12444962Y-10923333D01*
X12444962Y-10894762D02*
X12344962Y-10894762D01*
X12344962Y-10894762D02*
X12359248Y-10904286D01*
X12359248Y-10904286D02*
X12368771Y-10913809D01*
X12368771Y-10913809D02*
X12373533Y-10923333D01*
X14634962Y-10211905D02*
X14587343Y-10245238D01*
X14634962Y-10269048D02*
X14534962Y-10269048D01*
X14534962Y-10269048D02*
X14534962Y-10230952D01*
X14534962Y-10230952D02*
X14539724Y-10221429D01*
X14539724Y-10221429D02*
X14544486Y-10216667D01*
X14544486Y-10216667D02*
X14554009Y-10211905D01*
X14554009Y-10211905D02*
X14568295Y-10211905D01*
X14568295Y-10211905D02*
X14577819Y-10216667D01*
X14577819Y-10216667D02*
X14582581Y-10221429D01*
X14582581Y-10221429D02*
X14587343Y-10230952D01*
X14587343Y-10230952D02*
X14587343Y-10269048D01*
X14534962Y-10121429D02*
X14534962Y-10169048D01*
X14534962Y-10169048D02*
X14582581Y-10173809D01*
X14582581Y-10173809D02*
X14577819Y-10169048D01*
X14577819Y-10169048D02*
X14573057Y-10159524D01*
X14573057Y-10159524D02*
X14573057Y-10135714D01*
X14573057Y-10135714D02*
X14577819Y-10126190D01*
X14577819Y-10126190D02*
X14582581Y-10121429D01*
X14582581Y-10121429D02*
X14592105Y-10116667D01*
X14592105Y-10116667D02*
X14615914Y-10116667D01*
X14615914Y-10116667D02*
X14625438Y-10121429D01*
X14625438Y-10121429D02*
X14630200Y-10126190D01*
X14630200Y-10126190D02*
X14634962Y-10135714D01*
X14634962Y-10135714D02*
X14634962Y-10159524D01*
X14634962Y-10159524D02*
X14630200Y-10169048D01*
X14630200Y-10169048D02*
X14625438Y-10173809D01*
X14534962Y-10054762D02*
X14534962Y-10045238D01*
X14534962Y-10045238D02*
X14539724Y-10035714D01*
X14539724Y-10035714D02*
X14544486Y-10030952D01*
X14544486Y-10030952D02*
X14554009Y-10026190D01*
X14554009Y-10026190D02*
X14573057Y-10021429D01*
X14573057Y-10021429D02*
X14596867Y-10021429D01*
X14596867Y-10021429D02*
X14615914Y-10026190D01*
X14615914Y-10026190D02*
X14625438Y-10030952D01*
X14625438Y-10030952D02*
X14630200Y-10035714D01*
X14630200Y-10035714D02*
X14634962Y-10045238D01*
X14634962Y-10045238D02*
X14634962Y-10054762D01*
X14634962Y-10054762D02*
X14630200Y-10064286D01*
X14630200Y-10064286D02*
X14625438Y-10069048D01*
X14625438Y-10069048D02*
X14615914Y-10073809D01*
X14615914Y-10073809D02*
X14596867Y-10078571D01*
X14596867Y-10078571D02*
X14573057Y-10078571D01*
X14573057Y-10078571D02*
X14554009Y-10073809D01*
X14554009Y-10073809D02*
X14544486Y-10069048D01*
X14544486Y-10069048D02*
X14539724Y-10064286D01*
X14539724Y-10064286D02*
X14534962Y-10054762D01*
X14577819Y-9964286D02*
X14573057Y-9973809D01*
X14573057Y-9973809D02*
X14568295Y-9978571D01*
X14568295Y-9978571D02*
X14558771Y-9983333D01*
X14558771Y-9983333D02*
X14554009Y-9983333D01*
X14554009Y-9983333D02*
X14544486Y-9978571D01*
X14544486Y-9978571D02*
X14539724Y-9973809D01*
X14539724Y-9973809D02*
X14534962Y-9964286D01*
X14534962Y-9964286D02*
X14534962Y-9945238D01*
X14534962Y-9945238D02*
X14539724Y-9935714D01*
X14539724Y-9935714D02*
X14544486Y-9930952D01*
X14544486Y-9930952D02*
X14554009Y-9926190D01*
X14554009Y-9926190D02*
X14558771Y-9926190D01*
X14558771Y-9926190D02*
X14568295Y-9930952D01*
X14568295Y-9930952D02*
X14573057Y-9935714D01*
X14573057Y-9935714D02*
X14577819Y-9945238D01*
X14577819Y-9945238D02*
X14577819Y-9964286D01*
X14577819Y-9964286D02*
X14582581Y-9973809D01*
X14582581Y-9973809D02*
X14587343Y-9978571D01*
X14587343Y-9978571D02*
X14596867Y-9983333D01*
X14596867Y-9983333D02*
X14615914Y-9983333D01*
X14615914Y-9983333D02*
X14625438Y-9978571D01*
X14625438Y-9978571D02*
X14630200Y-9973809D01*
X14630200Y-9973809D02*
X14634962Y-9964286D01*
X14634962Y-9964286D02*
X14634962Y-9945238D01*
X14634962Y-9945238D02*
X14630200Y-9935714D01*
X14630200Y-9935714D02*
X14625438Y-9930952D01*
X14625438Y-9930952D02*
X14615914Y-9926190D01*
X14615914Y-9926190D02*
X14596867Y-9926190D01*
X14596867Y-9926190D02*
X14587343Y-9930952D01*
X14587343Y-9930952D02*
X14582581Y-9935714D01*
X14582581Y-9935714D02*
X14577819Y-9945238D01*
X15011428Y-11262581D02*
X14978095Y-11262581D01*
X14978095Y-11314962D02*
X14978095Y-11214962D01*
X14978095Y-11214962D02*
X15025714Y-11214962D01*
X15111428Y-11214962D02*
X15063809Y-11214962D01*
X15063809Y-11214962D02*
X15059048Y-11262581D01*
X15059048Y-11262581D02*
X15063809Y-11257819D01*
X15063809Y-11257819D02*
X15073333Y-11253057D01*
X15073333Y-11253057D02*
X15097143Y-11253057D01*
X15097143Y-11253057D02*
X15106667Y-11257819D01*
X15106667Y-11257819D02*
X15111428Y-11262581D01*
X15111428Y-11262581D02*
X15116190Y-11272105D01*
X15116190Y-11272105D02*
X15116190Y-11295914D01*
X15116190Y-11295914D02*
X15111428Y-11305438D01*
X15111428Y-11305438D02*
X15106667Y-11310200D01*
X15106667Y-11310200D02*
X15097143Y-11314962D01*
X15097143Y-11314962D02*
X15073333Y-11314962D01*
X15073333Y-11314962D02*
X15063809Y-11310200D01*
X15063809Y-11310200D02*
X15059048Y-11305438D01*
X15178095Y-11214962D02*
X15187619Y-11214962D01*
X15187619Y-11214962D02*
X15197143Y-11219724D01*
X15197143Y-11219724D02*
X15201905Y-11224486D01*
X15201905Y-11224486D02*
X15206667Y-11234009D01*
X15206667Y-11234009D02*
X15211428Y-11253057D01*
X15211428Y-11253057D02*
X15211428Y-11276867D01*
X15211428Y-11276867D02*
X15206667Y-11295914D01*
X15206667Y-11295914D02*
X15201905Y-11305438D01*
X15201905Y-11305438D02*
X15197143Y-11310200D01*
X15197143Y-11310200D02*
X15187619Y-11314962D01*
X15187619Y-11314962D02*
X15178095Y-11314962D01*
X15178095Y-11314962D02*
X15168571Y-11310200D01*
X15168571Y-11310200D02*
X15163809Y-11305438D01*
X15163809Y-11305438D02*
X15159048Y-11295914D01*
X15159048Y-11295914D02*
X15154286Y-11276867D01*
X15154286Y-11276867D02*
X15154286Y-11253057D01*
X15154286Y-11253057D02*
X15159048Y-11234009D01*
X15159048Y-11234009D02*
X15163809Y-11224486D01*
X15163809Y-11224486D02*
X15168571Y-11219724D01*
X15168571Y-11219724D02*
X15178095Y-11214962D01*
X15301905Y-11214962D02*
X15254286Y-11214962D01*
X15254286Y-11214962D02*
X15249524Y-11262581D01*
X15249524Y-11262581D02*
X15254286Y-11257819D01*
X15254286Y-11257819D02*
X15263809Y-11253057D01*
X15263809Y-11253057D02*
X15287619Y-11253057D01*
X15287619Y-11253057D02*
X15297143Y-11257819D01*
X15297143Y-11257819D02*
X15301905Y-11262581D01*
X15301905Y-11262581D02*
X15306667Y-11272105D01*
X15306667Y-11272105D02*
X15306667Y-11295914D01*
X15306667Y-11295914D02*
X15301905Y-11305438D01*
X15301905Y-11305438D02*
X15297143Y-11310200D01*
X15297143Y-11310200D02*
X15287619Y-11314962D01*
X15287619Y-11314962D02*
X15263809Y-11314962D01*
X15263809Y-11314962D02*
X15254286Y-11310200D01*
X15254286Y-11310200D02*
X15249524Y-11305438D01*
X15458095Y-9875438D02*
X15453333Y-9880200D01*
X15453333Y-9880200D02*
X15439048Y-9884962D01*
X15439048Y-9884962D02*
X15429524Y-9884962D01*
X15429524Y-9884962D02*
X15415238Y-9880200D01*
X15415238Y-9880200D02*
X15405714Y-9870676D01*
X15405714Y-9870676D02*
X15400952Y-9861152D01*
X15400952Y-9861152D02*
X15396190Y-9842105D01*
X15396190Y-9842105D02*
X15396190Y-9827819D01*
X15396190Y-9827819D02*
X15400952Y-9808771D01*
X15400952Y-9808771D02*
X15405714Y-9799248D01*
X15405714Y-9799248D02*
X15415238Y-9789724D01*
X15415238Y-9789724D02*
X15429524Y-9784962D01*
X15429524Y-9784962D02*
X15439048Y-9784962D01*
X15439048Y-9784962D02*
X15453333Y-9789724D01*
X15453333Y-9789724D02*
X15458095Y-9794486D01*
X15548571Y-9784962D02*
X15500952Y-9784962D01*
X15500952Y-9784962D02*
X15496190Y-9832581D01*
X15496190Y-9832581D02*
X15500952Y-9827819D01*
X15500952Y-9827819D02*
X15510476Y-9823057D01*
X15510476Y-9823057D02*
X15534286Y-9823057D01*
X15534286Y-9823057D02*
X15543809Y-9827819D01*
X15543809Y-9827819D02*
X15548571Y-9832581D01*
X15548571Y-9832581D02*
X15553333Y-9842105D01*
X15553333Y-9842105D02*
X15553333Y-9865914D01*
X15553333Y-9865914D02*
X15548571Y-9875438D01*
X15548571Y-9875438D02*
X15543809Y-9880200D01*
X15543809Y-9880200D02*
X15534286Y-9884962D01*
X15534286Y-9884962D02*
X15510476Y-9884962D01*
X15510476Y-9884962D02*
X15500952Y-9880200D01*
X15500952Y-9880200D02*
X15496190Y-9875438D01*
X15615238Y-9784962D02*
X15624762Y-9784962D01*
X15624762Y-9784962D02*
X15634286Y-9789724D01*
X15634286Y-9789724D02*
X15639048Y-9794486D01*
X15639048Y-9794486D02*
X15643809Y-9804010D01*
X15643809Y-9804010D02*
X15648571Y-9823057D01*
X15648571Y-9823057D02*
X15648571Y-9846867D01*
X15648571Y-9846867D02*
X15643809Y-9865914D01*
X15643809Y-9865914D02*
X15639048Y-9875438D01*
X15639048Y-9875438D02*
X15634286Y-9880200D01*
X15634286Y-9880200D02*
X15624762Y-9884962D01*
X15624762Y-9884962D02*
X15615238Y-9884962D01*
X15615238Y-9884962D02*
X15605714Y-9880200D01*
X15605714Y-9880200D02*
X15600952Y-9875438D01*
X15600952Y-9875438D02*
X15596190Y-9865914D01*
X15596190Y-9865914D02*
X15591429Y-9846867D01*
X15591429Y-9846867D02*
X15591429Y-9823057D01*
X15591429Y-9823057D02*
X15596190Y-9804010D01*
X15596190Y-9804010D02*
X15600952Y-9794486D01*
X15600952Y-9794486D02*
X15605714Y-9789724D01*
X15605714Y-9789724D02*
X15615238Y-9784962D01*
X15739048Y-9784962D02*
X15691429Y-9784962D01*
X15691429Y-9784962D02*
X15686667Y-9832581D01*
X15686667Y-9832581D02*
X15691429Y-9827819D01*
X15691429Y-9827819D02*
X15700952Y-9823057D01*
X15700952Y-9823057D02*
X15724762Y-9823057D01*
X15724762Y-9823057D02*
X15734286Y-9827819D01*
X15734286Y-9827819D02*
X15739048Y-9832581D01*
X15739048Y-9832581D02*
X15743809Y-9842105D01*
X15743809Y-9842105D02*
X15743809Y-9865914D01*
X15743809Y-9865914D02*
X15739048Y-9875438D01*
X15739048Y-9875438D02*
X15734286Y-9880200D01*
X15734286Y-9880200D02*
X15724762Y-9884962D01*
X15724762Y-9884962D02*
X15700952Y-9884962D01*
X15700952Y-9884962D02*
X15691429Y-9880200D01*
X15691429Y-9880200D02*
X15686667Y-9875438D01*
X12953333Y-8004962D02*
X12953333Y-7904962D01*
X12953333Y-7904962D02*
X12991428Y-7904962D01*
X12991428Y-7904962D02*
X13000952Y-7909724D01*
X13000952Y-7909724D02*
X13005714Y-7914486D01*
X13005714Y-7914486D02*
X13010476Y-7924009D01*
X13010476Y-7924009D02*
X13010476Y-7938295D01*
X13010476Y-7938295D02*
X13005714Y-7947819D01*
X13005714Y-7947819D02*
X13000952Y-7952581D01*
X13000952Y-7952581D02*
X12991428Y-7957343D01*
X12991428Y-7957343D02*
X12953333Y-7957343D01*
X13048571Y-8000200D02*
X13062857Y-8004962D01*
X13062857Y-8004962D02*
X13086667Y-8004962D01*
X13086667Y-8004962D02*
X13096190Y-8000200D01*
X13096190Y-8000200D02*
X13100952Y-7995438D01*
X13100952Y-7995438D02*
X13105714Y-7985914D01*
X13105714Y-7985914D02*
X13105714Y-7976390D01*
X13105714Y-7976390D02*
X13100952Y-7966867D01*
X13100952Y-7966867D02*
X13096190Y-7962105D01*
X13096190Y-7962105D02*
X13086667Y-7957343D01*
X13086667Y-7957343D02*
X13067619Y-7952581D01*
X13067619Y-7952581D02*
X13058095Y-7947819D01*
X13058095Y-7947819D02*
X13053333Y-7943057D01*
X13053333Y-7943057D02*
X13048571Y-7933533D01*
X13048571Y-7933533D02*
X13048571Y-7924009D01*
X13048571Y-7924009D02*
X13053333Y-7914486D01*
X13053333Y-7914486D02*
X13058095Y-7909724D01*
X13058095Y-7909724D02*
X13067619Y-7904962D01*
X13067619Y-7904962D02*
X13091428Y-7904962D01*
X13091428Y-7904962D02*
X13105714Y-7909724D01*
X13139048Y-7904962D02*
X13200952Y-7904962D01*
X13200952Y-7904962D02*
X13167619Y-7943057D01*
X13167619Y-7943057D02*
X13181905Y-7943057D01*
X13181905Y-7943057D02*
X13191428Y-7947819D01*
X13191428Y-7947819D02*
X13196190Y-7952581D01*
X13196190Y-7952581D02*
X13200952Y-7962105D01*
X13200952Y-7962105D02*
X13200952Y-7985914D01*
X13200952Y-7985914D02*
X13196190Y-7995438D01*
X13196190Y-7995438D02*
X13191428Y-8000200D01*
X13191428Y-8000200D02*
X13181905Y-8004962D01*
X13181905Y-8004962D02*
X13153333Y-8004962D01*
X13153333Y-8004962D02*
X13143809Y-8000200D01*
X13143809Y-8000200D02*
X13139048Y-7995438D01*
X13262857Y-7904962D02*
X13272381Y-7904962D01*
X13272381Y-7904962D02*
X13281905Y-7909724D01*
X13281905Y-7909724D02*
X13286667Y-7914486D01*
X13286667Y-7914486D02*
X13291428Y-7924009D01*
X13291428Y-7924009D02*
X13296190Y-7943057D01*
X13296190Y-7943057D02*
X13296190Y-7966867D01*
X13296190Y-7966867D02*
X13291428Y-7985914D01*
X13291428Y-7985914D02*
X13286667Y-7995438D01*
X13286667Y-7995438D02*
X13281905Y-8000200D01*
X13281905Y-8000200D02*
X13272381Y-8004962D01*
X13272381Y-8004962D02*
X13262857Y-8004962D01*
X13262857Y-8004962D02*
X13253333Y-8000200D01*
X13253333Y-8000200D02*
X13248571Y-7995438D01*
X13248571Y-7995438D02*
X13243809Y-7985914D01*
X13243809Y-7985914D02*
X13239048Y-7966867D01*
X13239048Y-7966867D02*
X13239048Y-7943057D01*
X13239048Y-7943057D02*
X13243809Y-7924009D01*
X13243809Y-7924009D02*
X13248571Y-7914486D01*
X13248571Y-7914486D02*
X13253333Y-7909724D01*
X13253333Y-7909724D02*
X13262857Y-7904962D01*
X13391428Y-8004962D02*
X13334286Y-8004962D01*
X13362857Y-8004962D02*
X13362857Y-7904962D01*
X13362857Y-7904962D02*
X13353333Y-7919248D01*
X13353333Y-7919248D02*
X13343809Y-7928771D01*
X13343809Y-7928771D02*
X13334286Y-7933533D01*
X12718095Y-9174962D02*
X12684762Y-9127343D01*
X12660952Y-9174962D02*
X12660952Y-9074962D01*
X12660952Y-9074962D02*
X12699048Y-9074962D01*
X12699048Y-9074962D02*
X12708571Y-9079724D01*
X12708571Y-9079724D02*
X12713333Y-9084486D01*
X12713333Y-9084486D02*
X12718095Y-9094010D01*
X12718095Y-9094010D02*
X12718095Y-9108295D01*
X12718095Y-9108295D02*
X12713333Y-9117819D01*
X12713333Y-9117819D02*
X12708571Y-9122581D01*
X12708571Y-9122581D02*
X12699048Y-9127343D01*
X12699048Y-9127343D02*
X12660952Y-9127343D01*
X12808571Y-9074962D02*
X12760952Y-9074962D01*
X12760952Y-9074962D02*
X12756190Y-9122581D01*
X12756190Y-9122581D02*
X12760952Y-9117819D01*
X12760952Y-9117819D02*
X12770476Y-9113057D01*
X12770476Y-9113057D02*
X12794286Y-9113057D01*
X12794286Y-9113057D02*
X12803809Y-9117819D01*
X12803809Y-9117819D02*
X12808571Y-9122581D01*
X12808571Y-9122581D02*
X12813333Y-9132105D01*
X12813333Y-9132105D02*
X12813333Y-9155914D01*
X12813333Y-9155914D02*
X12808571Y-9165438D01*
X12808571Y-9165438D02*
X12803809Y-9170200D01*
X12803809Y-9170200D02*
X12794286Y-9174962D01*
X12794286Y-9174962D02*
X12770476Y-9174962D01*
X12770476Y-9174962D02*
X12760952Y-9170200D01*
X12760952Y-9170200D02*
X12756190Y-9165438D01*
X12875238Y-9074962D02*
X12884762Y-9074962D01*
X12884762Y-9074962D02*
X12894286Y-9079724D01*
X12894286Y-9079724D02*
X12899048Y-9084486D01*
X12899048Y-9084486D02*
X12903809Y-9094010D01*
X12903809Y-9094010D02*
X12908571Y-9113057D01*
X12908571Y-9113057D02*
X12908571Y-9136867D01*
X12908571Y-9136867D02*
X12903809Y-9155914D01*
X12903809Y-9155914D02*
X12899048Y-9165438D01*
X12899048Y-9165438D02*
X12894286Y-9170200D01*
X12894286Y-9170200D02*
X12884762Y-9174962D01*
X12884762Y-9174962D02*
X12875238Y-9174962D01*
X12875238Y-9174962D02*
X12865714Y-9170200D01*
X12865714Y-9170200D02*
X12860952Y-9165438D01*
X12860952Y-9165438D02*
X12856190Y-9155914D01*
X12856190Y-9155914D02*
X12851429Y-9136867D01*
X12851429Y-9136867D02*
X12851429Y-9113057D01*
X12851429Y-9113057D02*
X12856190Y-9094010D01*
X12856190Y-9094010D02*
X12860952Y-9084486D01*
X12860952Y-9084486D02*
X12865714Y-9079724D01*
X12865714Y-9079724D02*
X12875238Y-9074962D01*
X12999048Y-9074962D02*
X12951429Y-9074962D01*
X12951429Y-9074962D02*
X12946667Y-9122581D01*
X12946667Y-9122581D02*
X12951429Y-9117819D01*
X12951429Y-9117819D02*
X12960952Y-9113057D01*
X12960952Y-9113057D02*
X12984762Y-9113057D01*
X12984762Y-9113057D02*
X12994286Y-9117819D01*
X12994286Y-9117819D02*
X12999048Y-9122581D01*
X12999048Y-9122581D02*
X13003809Y-9132105D01*
X13003809Y-9132105D02*
X13003809Y-9155914D01*
X13003809Y-9155914D02*
X12999048Y-9165438D01*
X12999048Y-9165438D02*
X12994286Y-9170200D01*
X12994286Y-9170200D02*
X12984762Y-9174962D01*
X12984762Y-9174962D02*
X12960952Y-9174962D01*
X12960952Y-9174962D02*
X12951429Y-9170200D01*
X12951429Y-9170200D02*
X12946667Y-9165438D01*
X13048571Y-9254962D02*
X13048571Y-9335914D01*
X13048571Y-9335914D02*
X13053333Y-9345438D01*
X13053333Y-9345438D02*
X13058095Y-9350200D01*
X13058095Y-9350200D02*
X13067619Y-9354962D01*
X13067619Y-9354962D02*
X13086667Y-9354962D01*
X13086667Y-9354962D02*
X13096190Y-9350200D01*
X13096190Y-9350200D02*
X13100952Y-9345438D01*
X13100952Y-9345438D02*
X13105714Y-9335914D01*
X13105714Y-9335914D02*
X13105714Y-9254962D01*
X13200952Y-9254962D02*
X13153333Y-9254962D01*
X13153333Y-9254962D02*
X13148571Y-9302581D01*
X13148571Y-9302581D02*
X13153333Y-9297819D01*
X13153333Y-9297819D02*
X13162857Y-9293057D01*
X13162857Y-9293057D02*
X13186667Y-9293057D01*
X13186667Y-9293057D02*
X13196190Y-9297819D01*
X13196190Y-9297819D02*
X13200952Y-9302581D01*
X13200952Y-9302581D02*
X13205714Y-9312105D01*
X13205714Y-9312105D02*
X13205714Y-9335914D01*
X13205714Y-9335914D02*
X13200952Y-9345438D01*
X13200952Y-9345438D02*
X13196190Y-9350200D01*
X13196190Y-9350200D02*
X13186667Y-9354962D01*
X13186667Y-9354962D02*
X13162857Y-9354962D01*
X13162857Y-9354962D02*
X13153333Y-9350200D01*
X13153333Y-9350200D02*
X13148571Y-9345438D01*
X13267619Y-9254962D02*
X13277143Y-9254962D01*
X13277143Y-9254962D02*
X13286667Y-9259724D01*
X13286667Y-9259724D02*
X13291428Y-9264486D01*
X13291428Y-9264486D02*
X13296190Y-9274010D01*
X13296190Y-9274010D02*
X13300952Y-9293057D01*
X13300952Y-9293057D02*
X13300952Y-9316867D01*
X13300952Y-9316867D02*
X13296190Y-9335914D01*
X13296190Y-9335914D02*
X13291428Y-9345438D01*
X13291428Y-9345438D02*
X13286667Y-9350200D01*
X13286667Y-9350200D02*
X13277143Y-9354962D01*
X13277143Y-9354962D02*
X13267619Y-9354962D01*
X13267619Y-9354962D02*
X13258095Y-9350200D01*
X13258095Y-9350200D02*
X13253333Y-9345438D01*
X13253333Y-9345438D02*
X13248571Y-9335914D01*
X13248571Y-9335914D02*
X13243809Y-9316867D01*
X13243809Y-9316867D02*
X13243809Y-9293057D01*
X13243809Y-9293057D02*
X13248571Y-9274010D01*
X13248571Y-9274010D02*
X13253333Y-9264486D01*
X13253333Y-9264486D02*
X13258095Y-9259724D01*
X13258095Y-9259724D02*
X13267619Y-9254962D01*
X13396190Y-9354962D02*
X13339048Y-9354962D01*
X13367619Y-9354962D02*
X13367619Y-9254962D01*
X13367619Y-9254962D02*
X13358095Y-9269248D01*
X13358095Y-9269248D02*
X13348571Y-9278771D01*
X13348571Y-9278771D02*
X13339048Y-9283533D01*
X13704962Y-9431905D02*
X13657343Y-9465238D01*
X13704962Y-9489048D02*
X13604962Y-9489048D01*
X13604962Y-9489048D02*
X13604962Y-9450952D01*
X13604962Y-9450952D02*
X13609724Y-9441429D01*
X13609724Y-9441429D02*
X13614486Y-9436667D01*
X13614486Y-9436667D02*
X13624009Y-9431905D01*
X13624009Y-9431905D02*
X13638295Y-9431905D01*
X13638295Y-9431905D02*
X13647819Y-9436667D01*
X13647819Y-9436667D02*
X13652581Y-9441429D01*
X13652581Y-9441429D02*
X13657343Y-9450952D01*
X13657343Y-9450952D02*
X13657343Y-9489048D01*
X13604962Y-9341429D02*
X13604962Y-9389048D01*
X13604962Y-9389048D02*
X13652581Y-9393809D01*
X13652581Y-9393809D02*
X13647819Y-9389048D01*
X13647819Y-9389048D02*
X13643057Y-9379524D01*
X13643057Y-9379524D02*
X13643057Y-9355714D01*
X13643057Y-9355714D02*
X13647819Y-9346190D01*
X13647819Y-9346190D02*
X13652581Y-9341429D01*
X13652581Y-9341429D02*
X13662105Y-9336667D01*
X13662105Y-9336667D02*
X13685914Y-9336667D01*
X13685914Y-9336667D02*
X13695438Y-9341429D01*
X13695438Y-9341429D02*
X13700200Y-9346190D01*
X13700200Y-9346190D02*
X13704962Y-9355714D01*
X13704962Y-9355714D02*
X13704962Y-9379524D01*
X13704962Y-9379524D02*
X13700200Y-9389048D01*
X13700200Y-9389048D02*
X13695438Y-9393809D01*
X13604962Y-9274762D02*
X13604962Y-9265238D01*
X13604962Y-9265238D02*
X13609724Y-9255714D01*
X13609724Y-9255714D02*
X13614486Y-9250952D01*
X13614486Y-9250952D02*
X13624009Y-9246190D01*
X13624009Y-9246190D02*
X13643057Y-9241429D01*
X13643057Y-9241429D02*
X13666867Y-9241429D01*
X13666867Y-9241429D02*
X13685914Y-9246190D01*
X13685914Y-9246190D02*
X13695438Y-9250952D01*
X13695438Y-9250952D02*
X13700200Y-9255714D01*
X13700200Y-9255714D02*
X13704962Y-9265238D01*
X13704962Y-9265238D02*
X13704962Y-9274762D01*
X13704962Y-9274762D02*
X13700200Y-9284286D01*
X13700200Y-9284286D02*
X13695438Y-9289048D01*
X13695438Y-9289048D02*
X13685914Y-9293809D01*
X13685914Y-9293809D02*
X13666867Y-9298571D01*
X13666867Y-9298571D02*
X13643057Y-9298571D01*
X13643057Y-9298571D02*
X13624009Y-9293809D01*
X13624009Y-9293809D02*
X13614486Y-9289048D01*
X13614486Y-9289048D02*
X13609724Y-9284286D01*
X13609724Y-9284286D02*
X13604962Y-9274762D01*
X13704962Y-9193809D02*
X13704962Y-9174762D01*
X13704962Y-9174762D02*
X13700200Y-9165238D01*
X13700200Y-9165238D02*
X13695438Y-9160476D01*
X13695438Y-9160476D02*
X13681152Y-9150952D01*
X13681152Y-9150952D02*
X13662105Y-9146190D01*
X13662105Y-9146190D02*
X13624009Y-9146190D01*
X13624009Y-9146190D02*
X13614486Y-9150952D01*
X13614486Y-9150952D02*
X13609724Y-9155714D01*
X13609724Y-9155714D02*
X13604962Y-9165238D01*
X13604962Y-9165238D02*
X13604962Y-9184286D01*
X13604962Y-9184286D02*
X13609724Y-9193809D01*
X13609724Y-9193809D02*
X13614486Y-9198571D01*
X13614486Y-9198571D02*
X13624009Y-9203333D01*
X13624009Y-9203333D02*
X13647819Y-9203333D01*
X13647819Y-9203333D02*
X13657343Y-9198571D01*
X13657343Y-9198571D02*
X13662105Y-9193809D01*
X13662105Y-9193809D02*
X13666867Y-9184286D01*
X13666867Y-9184286D02*
X13666867Y-9165238D01*
X13666867Y-9165238D02*
X13662105Y-9155714D01*
X13662105Y-9155714D02*
X13657343Y-9150952D01*
X13657343Y-9150952D02*
X13647819Y-9146190D01*
X13841428Y-11262581D02*
X13808095Y-11262581D01*
X13808095Y-11314962D02*
X13808095Y-11214962D01*
X13808095Y-11214962D02*
X13855714Y-11214962D01*
X13941428Y-11214962D02*
X13893809Y-11214962D01*
X13893809Y-11214962D02*
X13889048Y-11262581D01*
X13889048Y-11262581D02*
X13893809Y-11257819D01*
X13893809Y-11257819D02*
X13903333Y-11253057D01*
X13903333Y-11253057D02*
X13927143Y-11253057D01*
X13927143Y-11253057D02*
X13936667Y-11257819D01*
X13936667Y-11257819D02*
X13941428Y-11262581D01*
X13941428Y-11262581D02*
X13946190Y-11272105D01*
X13946190Y-11272105D02*
X13946190Y-11295914D01*
X13946190Y-11295914D02*
X13941428Y-11305438D01*
X13941428Y-11305438D02*
X13936667Y-11310200D01*
X13936667Y-11310200D02*
X13927143Y-11314962D01*
X13927143Y-11314962D02*
X13903333Y-11314962D01*
X13903333Y-11314962D02*
X13893809Y-11310200D01*
X13893809Y-11310200D02*
X13889048Y-11305438D01*
X14008095Y-11214962D02*
X14017619Y-11214962D01*
X14017619Y-11214962D02*
X14027143Y-11219724D01*
X14027143Y-11219724D02*
X14031905Y-11224486D01*
X14031905Y-11224486D02*
X14036667Y-11234009D01*
X14036667Y-11234009D02*
X14041428Y-11253057D01*
X14041428Y-11253057D02*
X14041428Y-11276867D01*
X14041428Y-11276867D02*
X14036667Y-11295914D01*
X14036667Y-11295914D02*
X14031905Y-11305438D01*
X14031905Y-11305438D02*
X14027143Y-11310200D01*
X14027143Y-11310200D02*
X14017619Y-11314962D01*
X14017619Y-11314962D02*
X14008095Y-11314962D01*
X14008095Y-11314962D02*
X13998571Y-11310200D01*
X13998571Y-11310200D02*
X13993809Y-11305438D01*
X13993809Y-11305438D02*
X13989048Y-11295914D01*
X13989048Y-11295914D02*
X13984286Y-11276867D01*
X13984286Y-11276867D02*
X13984286Y-11253057D01*
X13984286Y-11253057D02*
X13989048Y-11234009D01*
X13989048Y-11234009D02*
X13993809Y-11224486D01*
X13993809Y-11224486D02*
X13998571Y-11219724D01*
X13998571Y-11219724D02*
X14008095Y-11214962D01*
X14074762Y-11214962D02*
X14136667Y-11214962D01*
X14136667Y-11214962D02*
X14103333Y-11253057D01*
X14103333Y-11253057D02*
X14117619Y-11253057D01*
X14117619Y-11253057D02*
X14127143Y-11257819D01*
X14127143Y-11257819D02*
X14131905Y-11262581D01*
X14131905Y-11262581D02*
X14136667Y-11272105D01*
X14136667Y-11272105D02*
X14136667Y-11295914D01*
X14136667Y-11295914D02*
X14131905Y-11305438D01*
X14131905Y-11305438D02*
X14127143Y-11310200D01*
X14127143Y-11310200D02*
X14117619Y-11314962D01*
X14117619Y-11314962D02*
X14089048Y-11314962D01*
X14089048Y-11314962D02*
X14079524Y-11310200D01*
X14079524Y-11310200D02*
X14074762Y-11305438D01*
X15277143Y-8704962D02*
X15277143Y-8604962D01*
X15381905Y-8695438D02*
X15377143Y-8700200D01*
X15377143Y-8700200D02*
X15362857Y-8704962D01*
X15362857Y-8704962D02*
X15353333Y-8704962D01*
X15353333Y-8704962D02*
X15339048Y-8700200D01*
X15339048Y-8700200D02*
X15329524Y-8690676D01*
X15329524Y-8690676D02*
X15324762Y-8681152D01*
X15324762Y-8681152D02*
X15320000Y-8662105D01*
X15320000Y-8662105D02*
X15320000Y-8647819D01*
X15320000Y-8647819D02*
X15324762Y-8628771D01*
X15324762Y-8628771D02*
X15329524Y-8619248D01*
X15329524Y-8619248D02*
X15339048Y-8609724D01*
X15339048Y-8609724D02*
X15353333Y-8604962D01*
X15353333Y-8604962D02*
X15362857Y-8604962D01*
X15362857Y-8604962D02*
X15377143Y-8609724D01*
X15377143Y-8609724D02*
X15381905Y-8614486D01*
X15467619Y-8638295D02*
X15467619Y-8704962D01*
X15443809Y-8600200D02*
X15420000Y-8671629D01*
X15420000Y-8671629D02*
X15481905Y-8671629D01*
X15539048Y-8604962D02*
X15548571Y-8604962D01*
X15548571Y-8604962D02*
X15558095Y-8609724D01*
X15558095Y-8609724D02*
X15562857Y-8614486D01*
X15562857Y-8614486D02*
X15567619Y-8624010D01*
X15567619Y-8624010D02*
X15572381Y-8643057D01*
X15572381Y-8643057D02*
X15572381Y-8666867D01*
X15572381Y-8666867D02*
X15567619Y-8685914D01*
X15567619Y-8685914D02*
X15562857Y-8695438D01*
X15562857Y-8695438D02*
X15558095Y-8700200D01*
X15558095Y-8700200D02*
X15548571Y-8704962D01*
X15548571Y-8704962D02*
X15539048Y-8704962D01*
X15539048Y-8704962D02*
X15529524Y-8700200D01*
X15529524Y-8700200D02*
X15524762Y-8695438D01*
X15524762Y-8695438D02*
X15520000Y-8685914D01*
X15520000Y-8685914D02*
X15515238Y-8666867D01*
X15515238Y-8666867D02*
X15515238Y-8643057D01*
X15515238Y-8643057D02*
X15520000Y-8624010D01*
X15520000Y-8624010D02*
X15524762Y-8614486D01*
X15524762Y-8614486D02*
X15529524Y-8609724D01*
X15529524Y-8609724D02*
X15539048Y-8604962D01*
X15667619Y-8704962D02*
X15610476Y-8704962D01*
X15639048Y-8704962D02*
X15639048Y-8604962D01*
X15639048Y-8604962D02*
X15629524Y-8619248D01*
X15629524Y-8619248D02*
X15620000Y-8628771D01*
X15620000Y-8628771D02*
X15610476Y-8633533D01*
X13434962Y-10211905D02*
X13387343Y-10245238D01*
X13434962Y-10269048D02*
X13334962Y-10269048D01*
X13334962Y-10269048D02*
X13334962Y-10230952D01*
X13334962Y-10230952D02*
X13339724Y-10221429D01*
X13339724Y-10221429D02*
X13344486Y-10216667D01*
X13344486Y-10216667D02*
X13354009Y-10211905D01*
X13354009Y-10211905D02*
X13368295Y-10211905D01*
X13368295Y-10211905D02*
X13377819Y-10216667D01*
X13377819Y-10216667D02*
X13382581Y-10221429D01*
X13382581Y-10221429D02*
X13387343Y-10230952D01*
X13387343Y-10230952D02*
X13387343Y-10269048D01*
X13334962Y-10121429D02*
X13334962Y-10169048D01*
X13334962Y-10169048D02*
X13382581Y-10173809D01*
X13382581Y-10173809D02*
X13377819Y-10169048D01*
X13377819Y-10169048D02*
X13373057Y-10159524D01*
X13373057Y-10159524D02*
X13373057Y-10135714D01*
X13373057Y-10135714D02*
X13377819Y-10126190D01*
X13377819Y-10126190D02*
X13382581Y-10121429D01*
X13382581Y-10121429D02*
X13392105Y-10116667D01*
X13392105Y-10116667D02*
X13415914Y-10116667D01*
X13415914Y-10116667D02*
X13425438Y-10121429D01*
X13425438Y-10121429D02*
X13430200Y-10126190D01*
X13430200Y-10126190D02*
X13434962Y-10135714D01*
X13434962Y-10135714D02*
X13434962Y-10159524D01*
X13434962Y-10159524D02*
X13430200Y-10169048D01*
X13430200Y-10169048D02*
X13425438Y-10173809D01*
X13334962Y-10054762D02*
X13334962Y-10045238D01*
X13334962Y-10045238D02*
X13339724Y-10035714D01*
X13339724Y-10035714D02*
X13344486Y-10030952D01*
X13344486Y-10030952D02*
X13354009Y-10026190D01*
X13354009Y-10026190D02*
X13373057Y-10021429D01*
X13373057Y-10021429D02*
X13396867Y-10021429D01*
X13396867Y-10021429D02*
X13415914Y-10026190D01*
X13415914Y-10026190D02*
X13425438Y-10030952D01*
X13425438Y-10030952D02*
X13430200Y-10035714D01*
X13430200Y-10035714D02*
X13434962Y-10045238D01*
X13434962Y-10045238D02*
X13434962Y-10054762D01*
X13434962Y-10054762D02*
X13430200Y-10064286D01*
X13430200Y-10064286D02*
X13425438Y-10069048D01*
X13425438Y-10069048D02*
X13415914Y-10073809D01*
X13415914Y-10073809D02*
X13396867Y-10078571D01*
X13396867Y-10078571D02*
X13373057Y-10078571D01*
X13373057Y-10078571D02*
X13354009Y-10073809D01*
X13354009Y-10073809D02*
X13344486Y-10069048D01*
X13344486Y-10069048D02*
X13339724Y-10064286D01*
X13339724Y-10064286D02*
X13334962Y-10054762D01*
X13344486Y-9983333D02*
X13339724Y-9978571D01*
X13339724Y-9978571D02*
X13334962Y-9969048D01*
X13334962Y-9969048D02*
X13334962Y-9945238D01*
X13334962Y-9945238D02*
X13339724Y-9935714D01*
X13339724Y-9935714D02*
X13344486Y-9930952D01*
X13344486Y-9930952D02*
X13354009Y-9926190D01*
X13354009Y-9926190D02*
X13363533Y-9926190D01*
X13363533Y-9926190D02*
X13377819Y-9930952D01*
X13377819Y-9930952D02*
X13434962Y-9988095D01*
X13434962Y-9988095D02*
X13434962Y-9926190D01*
X15608095Y-8214962D02*
X15574762Y-8167343D01*
X15550952Y-8214962D02*
X15550952Y-8114962D01*
X15550952Y-8114962D02*
X15589048Y-8114962D01*
X15589048Y-8114962D02*
X15598571Y-8119724D01*
X15598571Y-8119724D02*
X15603333Y-8124486D01*
X15603333Y-8124486D02*
X15608095Y-8134009D01*
X15608095Y-8134009D02*
X15608095Y-8148295D01*
X15608095Y-8148295D02*
X15603333Y-8157819D01*
X15603333Y-8157819D02*
X15598571Y-8162581D01*
X15598571Y-8162581D02*
X15589048Y-8167343D01*
X15589048Y-8167343D02*
X15550952Y-8167343D01*
X15646190Y-8124486D02*
X15650952Y-8119724D01*
X15650952Y-8119724D02*
X15660476Y-8114962D01*
X15660476Y-8114962D02*
X15684286Y-8114962D01*
X15684286Y-8114962D02*
X15693809Y-8119724D01*
X15693809Y-8119724D02*
X15698571Y-8124486D01*
X15698571Y-8124486D02*
X15703333Y-8134009D01*
X15703333Y-8134009D02*
X15703333Y-8143533D01*
X15703333Y-8143533D02*
X15698571Y-8157819D01*
X15698571Y-8157819D02*
X15641429Y-8214962D01*
X15641429Y-8214962D02*
X15703333Y-8214962D01*
X15765238Y-8114962D02*
X15774762Y-8114962D01*
X15774762Y-8114962D02*
X15784286Y-8119724D01*
X15784286Y-8119724D02*
X15789048Y-8124486D01*
X15789048Y-8124486D02*
X15793809Y-8134009D01*
X15793809Y-8134009D02*
X15798571Y-8153057D01*
X15798571Y-8153057D02*
X15798571Y-8176867D01*
X15798571Y-8176867D02*
X15793809Y-8195914D01*
X15793809Y-8195914D02*
X15789048Y-8205438D01*
X15789048Y-8205438D02*
X15784286Y-8210200D01*
X15784286Y-8210200D02*
X15774762Y-8214962D01*
X15774762Y-8214962D02*
X15765238Y-8214962D01*
X15765238Y-8214962D02*
X15755714Y-8210200D01*
X15755714Y-8210200D02*
X15750952Y-8205438D01*
X15750952Y-8205438D02*
X15746190Y-8195914D01*
X15746190Y-8195914D02*
X15741429Y-8176867D01*
X15741429Y-8176867D02*
X15741429Y-8153057D01*
X15741429Y-8153057D02*
X15746190Y-8134009D01*
X15746190Y-8134009D02*
X15750952Y-8124486D01*
X15750952Y-8124486D02*
X15755714Y-8119724D01*
X15755714Y-8119724D02*
X15765238Y-8114962D01*
X15893809Y-8214962D02*
X15836667Y-8214962D01*
X15865238Y-8214962D02*
X15865238Y-8114962D01*
X15865238Y-8114962D02*
X15855714Y-8129248D01*
X15855714Y-8129248D02*
X15846190Y-8138771D01*
X15846190Y-8138771D02*
X15836667Y-8143533D01*
X14288095Y-9865438D02*
X14283333Y-9870200D01*
X14283333Y-9870200D02*
X14269048Y-9874962D01*
X14269048Y-9874962D02*
X14259524Y-9874962D01*
X14259524Y-9874962D02*
X14245238Y-9870200D01*
X14245238Y-9870200D02*
X14235714Y-9860676D01*
X14235714Y-9860676D02*
X14230952Y-9851152D01*
X14230952Y-9851152D02*
X14226190Y-9832105D01*
X14226190Y-9832105D02*
X14226190Y-9817819D01*
X14226190Y-9817819D02*
X14230952Y-9798771D01*
X14230952Y-9798771D02*
X14235714Y-9789248D01*
X14235714Y-9789248D02*
X14245238Y-9779724D01*
X14245238Y-9779724D02*
X14259524Y-9774962D01*
X14259524Y-9774962D02*
X14269048Y-9774962D01*
X14269048Y-9774962D02*
X14283333Y-9779724D01*
X14283333Y-9779724D02*
X14288095Y-9784486D01*
X14378571Y-9774962D02*
X14330952Y-9774962D01*
X14330952Y-9774962D02*
X14326190Y-9822581D01*
X14326190Y-9822581D02*
X14330952Y-9817819D01*
X14330952Y-9817819D02*
X14340476Y-9813057D01*
X14340476Y-9813057D02*
X14364286Y-9813057D01*
X14364286Y-9813057D02*
X14373809Y-9817819D01*
X14373809Y-9817819D02*
X14378571Y-9822581D01*
X14378571Y-9822581D02*
X14383333Y-9832105D01*
X14383333Y-9832105D02*
X14383333Y-9855914D01*
X14383333Y-9855914D02*
X14378571Y-9865438D01*
X14378571Y-9865438D02*
X14373809Y-9870200D01*
X14373809Y-9870200D02*
X14364286Y-9874962D01*
X14364286Y-9874962D02*
X14340476Y-9874962D01*
X14340476Y-9874962D02*
X14330952Y-9870200D01*
X14330952Y-9870200D02*
X14326190Y-9865438D01*
X14445238Y-9774962D02*
X14454762Y-9774962D01*
X14454762Y-9774962D02*
X14464286Y-9779724D01*
X14464286Y-9779724D02*
X14469048Y-9784486D01*
X14469048Y-9784486D02*
X14473809Y-9794010D01*
X14473809Y-9794010D02*
X14478571Y-9813057D01*
X14478571Y-9813057D02*
X14478571Y-9836867D01*
X14478571Y-9836867D02*
X14473809Y-9855914D01*
X14473809Y-9855914D02*
X14469048Y-9865438D01*
X14469048Y-9865438D02*
X14464286Y-9870200D01*
X14464286Y-9870200D02*
X14454762Y-9874962D01*
X14454762Y-9874962D02*
X14445238Y-9874962D01*
X14445238Y-9874962D02*
X14435714Y-9870200D01*
X14435714Y-9870200D02*
X14430952Y-9865438D01*
X14430952Y-9865438D02*
X14426190Y-9855914D01*
X14426190Y-9855914D02*
X14421429Y-9836867D01*
X14421429Y-9836867D02*
X14421429Y-9813057D01*
X14421429Y-9813057D02*
X14426190Y-9794010D01*
X14426190Y-9794010D02*
X14430952Y-9784486D01*
X14430952Y-9784486D02*
X14435714Y-9779724D01*
X14435714Y-9779724D02*
X14445238Y-9774962D01*
X14511905Y-9774962D02*
X14573809Y-9774962D01*
X14573809Y-9774962D02*
X14540476Y-9813057D01*
X14540476Y-9813057D02*
X14554762Y-9813057D01*
X14554762Y-9813057D02*
X14564286Y-9817819D01*
X14564286Y-9817819D02*
X14569048Y-9822581D01*
X14569048Y-9822581D02*
X14573809Y-9832105D01*
X14573809Y-9832105D02*
X14573809Y-9855914D01*
X14573809Y-9855914D02*
X14569048Y-9865438D01*
X14569048Y-9865438D02*
X14564286Y-9870200D01*
X14564286Y-9870200D02*
X14554762Y-9874962D01*
X14554762Y-9874962D02*
X14526190Y-9874962D01*
X14526190Y-9874962D02*
X14516667Y-9870200D01*
X14516667Y-9870200D02*
X14511905Y-9865438D01*
X14294962Y-11069048D02*
X14194962Y-11069048D01*
X14194962Y-11069048D02*
X14194962Y-11045238D01*
X14194962Y-11045238D02*
X14199724Y-11030952D01*
X14199724Y-11030952D02*
X14209248Y-11021429D01*
X14209248Y-11021429D02*
X14218771Y-11016667D01*
X14218771Y-11016667D02*
X14237819Y-11011905D01*
X14237819Y-11011905D02*
X14252105Y-11011905D01*
X14252105Y-11011905D02*
X14271152Y-11016667D01*
X14271152Y-11016667D02*
X14280676Y-11021429D01*
X14280676Y-11021429D02*
X14290200Y-11030952D01*
X14290200Y-11030952D02*
X14294962Y-11045238D01*
X14294962Y-11045238D02*
X14294962Y-11069048D01*
X14228295Y-10926190D02*
X14294962Y-10926190D01*
X14190200Y-10950000D02*
X14261628Y-10973809D01*
X14261628Y-10973809D02*
X14261628Y-10911905D01*
X14194962Y-10854762D02*
X14194962Y-10845238D01*
X14194962Y-10845238D02*
X14199724Y-10835714D01*
X14199724Y-10835714D02*
X14204486Y-10830952D01*
X14204486Y-10830952D02*
X14214009Y-10826190D01*
X14214009Y-10826190D02*
X14233057Y-10821429D01*
X14233057Y-10821429D02*
X14256867Y-10821429D01*
X14256867Y-10821429D02*
X14275914Y-10826190D01*
X14275914Y-10826190D02*
X14285438Y-10830952D01*
X14285438Y-10830952D02*
X14290200Y-10835714D01*
X14290200Y-10835714D02*
X14294962Y-10845238D01*
X14294962Y-10845238D02*
X14294962Y-10854762D01*
X14294962Y-10854762D02*
X14290200Y-10864286D01*
X14290200Y-10864286D02*
X14285438Y-10869048D01*
X14285438Y-10869048D02*
X14275914Y-10873809D01*
X14275914Y-10873809D02*
X14256867Y-10878571D01*
X14256867Y-10878571D02*
X14233057Y-10878571D01*
X14233057Y-10878571D02*
X14214009Y-10873809D01*
X14214009Y-10873809D02*
X14204486Y-10869048D01*
X14204486Y-10869048D02*
X14199724Y-10864286D01*
X14199724Y-10864286D02*
X14194962Y-10854762D01*
X14194962Y-10730952D02*
X14194962Y-10778571D01*
X14194962Y-10778571D02*
X14242581Y-10783333D01*
X14242581Y-10783333D02*
X14237819Y-10778571D01*
X14237819Y-10778571D02*
X14233057Y-10769048D01*
X14233057Y-10769048D02*
X14233057Y-10745238D01*
X14233057Y-10745238D02*
X14237819Y-10735714D01*
X14237819Y-10735714D02*
X14242581Y-10730952D01*
X14242581Y-10730952D02*
X14252105Y-10726190D01*
X14252105Y-10726190D02*
X14275914Y-10726190D01*
X14275914Y-10726190D02*
X14285438Y-10730952D01*
X14285438Y-10730952D02*
X14290200Y-10735714D01*
X14290200Y-10735714D02*
X14294962Y-10745238D01*
X14294962Y-10745238D02*
X14294962Y-10769048D01*
X14294962Y-10769048D02*
X14290200Y-10778571D01*
X14290200Y-10778571D02*
X14285438Y-10783333D01*
X14884962Y-11209047D02*
X14784962Y-11209047D01*
X14784962Y-11209047D02*
X14784962Y-11185238D01*
X14784962Y-11185238D02*
X14789724Y-11170952D01*
X14789724Y-11170952D02*
X14799248Y-11161429D01*
X14799248Y-11161429D02*
X14808771Y-11156667D01*
X14808771Y-11156667D02*
X14827819Y-11151905D01*
X14827819Y-11151905D02*
X14842105Y-11151905D01*
X14842105Y-11151905D02*
X14861152Y-11156667D01*
X14861152Y-11156667D02*
X14870676Y-11161429D01*
X14870676Y-11161429D02*
X14880200Y-11170952D01*
X14880200Y-11170952D02*
X14884962Y-11185238D01*
X14884962Y-11185238D02*
X14884962Y-11209047D01*
X14818295Y-11066190D02*
X14884962Y-11066190D01*
X14780200Y-11090000D02*
X14851628Y-11113809D01*
X14851628Y-11113809D02*
X14851628Y-11051905D01*
X14784962Y-10994762D02*
X14784962Y-10985238D01*
X14784962Y-10985238D02*
X14789724Y-10975714D01*
X14789724Y-10975714D02*
X14794486Y-10970952D01*
X14794486Y-10970952D02*
X14804009Y-10966190D01*
X14804009Y-10966190D02*
X14823057Y-10961429D01*
X14823057Y-10961429D02*
X14846867Y-10961429D01*
X14846867Y-10961429D02*
X14865914Y-10966190D01*
X14865914Y-10966190D02*
X14875438Y-10970952D01*
X14875438Y-10970952D02*
X14880200Y-10975714D01*
X14880200Y-10975714D02*
X14884962Y-10985238D01*
X14884962Y-10985238D02*
X14884962Y-10994762D01*
X14884962Y-10994762D02*
X14880200Y-11004286D01*
X14880200Y-11004286D02*
X14875438Y-11009048D01*
X14875438Y-11009048D02*
X14865914Y-11013809D01*
X14865914Y-11013809D02*
X14846867Y-11018571D01*
X14846867Y-11018571D02*
X14823057Y-11018571D01*
X14823057Y-11018571D02*
X14804009Y-11013809D01*
X14804009Y-11013809D02*
X14794486Y-11009048D01*
X14794486Y-11009048D02*
X14789724Y-11004286D01*
X14789724Y-11004286D02*
X14784962Y-10994762D01*
X14784962Y-10928095D02*
X14784962Y-10861429D01*
X14784962Y-10861429D02*
X14884962Y-10904286D01*
X12611428Y-11262581D02*
X12578095Y-11262581D01*
X12578095Y-11314962D02*
X12578095Y-11214962D01*
X12578095Y-11214962D02*
X12625714Y-11214962D01*
X12711428Y-11214962D02*
X12663809Y-11214962D01*
X12663809Y-11214962D02*
X12659048Y-11262581D01*
X12659048Y-11262581D02*
X12663809Y-11257819D01*
X12663809Y-11257819D02*
X12673333Y-11253057D01*
X12673333Y-11253057D02*
X12697143Y-11253057D01*
X12697143Y-11253057D02*
X12706667Y-11257819D01*
X12706667Y-11257819D02*
X12711428Y-11262581D01*
X12711428Y-11262581D02*
X12716190Y-11272105D01*
X12716190Y-11272105D02*
X12716190Y-11295914D01*
X12716190Y-11295914D02*
X12711428Y-11305438D01*
X12711428Y-11305438D02*
X12706667Y-11310200D01*
X12706667Y-11310200D02*
X12697143Y-11314962D01*
X12697143Y-11314962D02*
X12673333Y-11314962D01*
X12673333Y-11314962D02*
X12663809Y-11310200D01*
X12663809Y-11310200D02*
X12659048Y-11305438D01*
X12778095Y-11214962D02*
X12787619Y-11214962D01*
X12787619Y-11214962D02*
X12797143Y-11219724D01*
X12797143Y-11219724D02*
X12801905Y-11224486D01*
X12801905Y-11224486D02*
X12806667Y-11234009D01*
X12806667Y-11234009D02*
X12811428Y-11253057D01*
X12811428Y-11253057D02*
X12811428Y-11276867D01*
X12811428Y-11276867D02*
X12806667Y-11295914D01*
X12806667Y-11295914D02*
X12801905Y-11305438D01*
X12801905Y-11305438D02*
X12797143Y-11310200D01*
X12797143Y-11310200D02*
X12787619Y-11314962D01*
X12787619Y-11314962D02*
X12778095Y-11314962D01*
X12778095Y-11314962D02*
X12768571Y-11310200D01*
X12768571Y-11310200D02*
X12763809Y-11305438D01*
X12763809Y-11305438D02*
X12759048Y-11295914D01*
X12759048Y-11295914D02*
X12754286Y-11276867D01*
X12754286Y-11276867D02*
X12754286Y-11253057D01*
X12754286Y-11253057D02*
X12759048Y-11234009D01*
X12759048Y-11234009D02*
X12763809Y-11224486D01*
X12763809Y-11224486D02*
X12768571Y-11219724D01*
X12768571Y-11219724D02*
X12778095Y-11214962D01*
X12849524Y-11224486D02*
X12854286Y-11219724D01*
X12854286Y-11219724D02*
X12863809Y-11214962D01*
X12863809Y-11214962D02*
X12887619Y-11214962D01*
X12887619Y-11214962D02*
X12897143Y-11219724D01*
X12897143Y-11219724D02*
X12901905Y-11224486D01*
X12901905Y-11224486D02*
X12906667Y-11234009D01*
X12906667Y-11234009D02*
X12906667Y-11243533D01*
X12906667Y-11243533D02*
X12901905Y-11257819D01*
X12901905Y-11257819D02*
X12844762Y-11314962D01*
X12844762Y-11314962D02*
X12906667Y-11314962D01*
X15384821Y-7054962D02*
X15384821Y-7135914D01*
X15384821Y-7135914D02*
X15389583Y-7145438D01*
X15389583Y-7145438D02*
X15394345Y-7150200D01*
X15394345Y-7150200D02*
X15403869Y-7154962D01*
X15403869Y-7154962D02*
X15422917Y-7154962D01*
X15422917Y-7154962D02*
X15432440Y-7150200D01*
X15432440Y-7150200D02*
X15437202Y-7145438D01*
X15437202Y-7145438D02*
X15441964Y-7135914D01*
X15441964Y-7135914D02*
X15441964Y-7054962D01*
X15484821Y-7064486D02*
X15489583Y-7059724D01*
X15489583Y-7059724D02*
X15499107Y-7054962D01*
X15499107Y-7054962D02*
X15522917Y-7054962D01*
X15522917Y-7054962D02*
X15532440Y-7059724D01*
X15532440Y-7059724D02*
X15537202Y-7064486D01*
X15537202Y-7064486D02*
X15541964Y-7074009D01*
X15541964Y-7074009D02*
X15541964Y-7083533D01*
X15541964Y-7083533D02*
X15537202Y-7097819D01*
X15537202Y-7097819D02*
X15480059Y-7154962D01*
X15480059Y-7154962D02*
X15541964Y-7154962D01*
X15603869Y-7054962D02*
X15613393Y-7054962D01*
X15613393Y-7054962D02*
X15622917Y-7059724D01*
X15622917Y-7059724D02*
X15627678Y-7064486D01*
X15627678Y-7064486D02*
X15632440Y-7074009D01*
X15632440Y-7074009D02*
X15637202Y-7093057D01*
X15637202Y-7093057D02*
X15637202Y-7116867D01*
X15637202Y-7116867D02*
X15632440Y-7135914D01*
X15632440Y-7135914D02*
X15627678Y-7145438D01*
X15627678Y-7145438D02*
X15622917Y-7150200D01*
X15622917Y-7150200D02*
X15613393Y-7154962D01*
X15613393Y-7154962D02*
X15603869Y-7154962D01*
X15603869Y-7154962D02*
X15594345Y-7150200D01*
X15594345Y-7150200D02*
X15589583Y-7145438D01*
X15589583Y-7145438D02*
X15584821Y-7135914D01*
X15584821Y-7135914D02*
X15580059Y-7116867D01*
X15580059Y-7116867D02*
X15580059Y-7093057D01*
X15580059Y-7093057D02*
X15584821Y-7074009D01*
X15584821Y-7074009D02*
X15589583Y-7064486D01*
X15589583Y-7064486D02*
X15594345Y-7059724D01*
X15594345Y-7059724D02*
X15603869Y-7054962D01*
X15675298Y-7064486D02*
X15680059Y-7059724D01*
X15680059Y-7059724D02*
X15689583Y-7054962D01*
X15689583Y-7054962D02*
X15713393Y-7054962D01*
X15713393Y-7054962D02*
X15722917Y-7059724D01*
X15722917Y-7059724D02*
X15727678Y-7064486D01*
X15727678Y-7064486D02*
X15732440Y-7074009D01*
X15732440Y-7074009D02*
X15732440Y-7083533D01*
X15732440Y-7083533D02*
X15727678Y-7097819D01*
X15727678Y-7097819D02*
X15670536Y-7154962D01*
X15670536Y-7154962D02*
X15732440Y-7154962D01*
X14188095Y-7225438D02*
X14183333Y-7230200D01*
X14183333Y-7230200D02*
X14169048Y-7234962D01*
X14169048Y-7234962D02*
X14159524Y-7234962D01*
X14159524Y-7234962D02*
X14145238Y-7230200D01*
X14145238Y-7230200D02*
X14135714Y-7220676D01*
X14135714Y-7220676D02*
X14130952Y-7211152D01*
X14130952Y-7211152D02*
X14126190Y-7192105D01*
X14126190Y-7192105D02*
X14126190Y-7177819D01*
X14126190Y-7177819D02*
X14130952Y-7158771D01*
X14130952Y-7158771D02*
X14135714Y-7149248D01*
X14135714Y-7149248D02*
X14145238Y-7139724D01*
X14145238Y-7139724D02*
X14159524Y-7134962D01*
X14159524Y-7134962D02*
X14169048Y-7134962D01*
X14169048Y-7134962D02*
X14183333Y-7139724D01*
X14183333Y-7139724D02*
X14188095Y-7144486D01*
X14226190Y-7144486D02*
X14230952Y-7139724D01*
X14230952Y-7139724D02*
X14240476Y-7134962D01*
X14240476Y-7134962D02*
X14264286Y-7134962D01*
X14264286Y-7134962D02*
X14273809Y-7139724D01*
X14273809Y-7139724D02*
X14278571Y-7144486D01*
X14278571Y-7144486D02*
X14283333Y-7154009D01*
X14283333Y-7154009D02*
X14283333Y-7163533D01*
X14283333Y-7163533D02*
X14278571Y-7177819D01*
X14278571Y-7177819D02*
X14221429Y-7234962D01*
X14221429Y-7234962D02*
X14283333Y-7234962D01*
X14345238Y-7134962D02*
X14354762Y-7134962D01*
X14354762Y-7134962D02*
X14364286Y-7139724D01*
X14364286Y-7139724D02*
X14369048Y-7144486D01*
X14369048Y-7144486D02*
X14373809Y-7154009D01*
X14373809Y-7154009D02*
X14378571Y-7173057D01*
X14378571Y-7173057D02*
X14378571Y-7196867D01*
X14378571Y-7196867D02*
X14373809Y-7215914D01*
X14373809Y-7215914D02*
X14369048Y-7225438D01*
X14369048Y-7225438D02*
X14364286Y-7230200D01*
X14364286Y-7230200D02*
X14354762Y-7234962D01*
X14354762Y-7234962D02*
X14345238Y-7234962D01*
X14345238Y-7234962D02*
X14335714Y-7230200D01*
X14335714Y-7230200D02*
X14330952Y-7225438D01*
X14330952Y-7225438D02*
X14326190Y-7215914D01*
X14326190Y-7215914D02*
X14321429Y-7196867D01*
X14321429Y-7196867D02*
X14321429Y-7173057D01*
X14321429Y-7173057D02*
X14326190Y-7154009D01*
X14326190Y-7154009D02*
X14330952Y-7144486D01*
X14330952Y-7144486D02*
X14335714Y-7139724D01*
X14335714Y-7139724D02*
X14345238Y-7134962D01*
X14473809Y-7234962D02*
X14416667Y-7234962D01*
X14445238Y-7234962D02*
X14445238Y-7134962D01*
X14445238Y-7134962D02*
X14435714Y-7149248D01*
X14435714Y-7149248D02*
X14426190Y-7158771D01*
X14426190Y-7158771D02*
X14416667Y-7163533D01*
X15824962Y-10211905D02*
X15777343Y-10245238D01*
X15824962Y-10269048D02*
X15724962Y-10269048D01*
X15724962Y-10269048D02*
X15724962Y-10230952D01*
X15724962Y-10230952D02*
X15729724Y-10221429D01*
X15729724Y-10221429D02*
X15734486Y-10216667D01*
X15734486Y-10216667D02*
X15744009Y-10211905D01*
X15744009Y-10211905D02*
X15758295Y-10211905D01*
X15758295Y-10211905D02*
X15767819Y-10216667D01*
X15767819Y-10216667D02*
X15772581Y-10221429D01*
X15772581Y-10221429D02*
X15777343Y-10230952D01*
X15777343Y-10230952D02*
X15777343Y-10269048D01*
X15724962Y-10121429D02*
X15724962Y-10169048D01*
X15724962Y-10169048D02*
X15772581Y-10173809D01*
X15772581Y-10173809D02*
X15767819Y-10169048D01*
X15767819Y-10169048D02*
X15763057Y-10159524D01*
X15763057Y-10159524D02*
X15763057Y-10135714D01*
X15763057Y-10135714D02*
X15767819Y-10126190D01*
X15767819Y-10126190D02*
X15772581Y-10121429D01*
X15772581Y-10121429D02*
X15782105Y-10116667D01*
X15782105Y-10116667D02*
X15805914Y-10116667D01*
X15805914Y-10116667D02*
X15815438Y-10121429D01*
X15815438Y-10121429D02*
X15820200Y-10126190D01*
X15820200Y-10126190D02*
X15824962Y-10135714D01*
X15824962Y-10135714D02*
X15824962Y-10159524D01*
X15824962Y-10159524D02*
X15820200Y-10169048D01*
X15820200Y-10169048D02*
X15815438Y-10173809D01*
X15824962Y-10021429D02*
X15824962Y-10078571D01*
X15824962Y-10050000D02*
X15724962Y-10050000D01*
X15724962Y-10050000D02*
X15739248Y-10059524D01*
X15739248Y-10059524D02*
X15748771Y-10069048D01*
X15748771Y-10069048D02*
X15753533Y-10078571D01*
X15724962Y-9988095D02*
X15724962Y-9926190D01*
X15724962Y-9926190D02*
X15763057Y-9959524D01*
X15763057Y-9959524D02*
X15763057Y-9945238D01*
X15763057Y-9945238D02*
X15767819Y-9935714D01*
X15767819Y-9935714D02*
X15772581Y-9930952D01*
X15772581Y-9930952D02*
X15782105Y-9926190D01*
X15782105Y-9926190D02*
X15805914Y-9926190D01*
X15805914Y-9926190D02*
X15815438Y-9930952D01*
X15815438Y-9930952D02*
X15820200Y-9935714D01*
X15820200Y-9935714D02*
X15824962Y-9945238D01*
X15824962Y-9945238D02*
X15824962Y-9973809D01*
X15824962Y-9973809D02*
X15820200Y-9983333D01*
X15820200Y-9983333D02*
X15815438Y-9988095D01*
X12588095Y-8044962D02*
X12554762Y-7997343D01*
X12530952Y-8044962D02*
X12530952Y-7944962D01*
X12530952Y-7944962D02*
X12569048Y-7944962D01*
X12569048Y-7944962D02*
X12578571Y-7949724D01*
X12578571Y-7949724D02*
X12583333Y-7954486D01*
X12583333Y-7954486D02*
X12588095Y-7964009D01*
X12588095Y-7964009D02*
X12588095Y-7978295D01*
X12588095Y-7978295D02*
X12583333Y-7987819D01*
X12583333Y-7987819D02*
X12578571Y-7992581D01*
X12578571Y-7992581D02*
X12569048Y-7997343D01*
X12569048Y-7997343D02*
X12530952Y-7997343D01*
X12621429Y-7944962D02*
X12683333Y-7944962D01*
X12683333Y-7944962D02*
X12650000Y-7983057D01*
X12650000Y-7983057D02*
X12664286Y-7983057D01*
X12664286Y-7983057D02*
X12673809Y-7987819D01*
X12673809Y-7987819D02*
X12678571Y-7992581D01*
X12678571Y-7992581D02*
X12683333Y-8002105D01*
X12683333Y-8002105D02*
X12683333Y-8025914D01*
X12683333Y-8025914D02*
X12678571Y-8035438D01*
X12678571Y-8035438D02*
X12673809Y-8040200D01*
X12673809Y-8040200D02*
X12664286Y-8044962D01*
X12664286Y-8044962D02*
X12635714Y-8044962D01*
X12635714Y-8044962D02*
X12626190Y-8040200D01*
X12626190Y-8040200D02*
X12621429Y-8035438D01*
X12745238Y-7944962D02*
X12754762Y-7944962D01*
X12754762Y-7944962D02*
X12764286Y-7949724D01*
X12764286Y-7949724D02*
X12769048Y-7954486D01*
X12769048Y-7954486D02*
X12773809Y-7964009D01*
X12773809Y-7964009D02*
X12778571Y-7983057D01*
X12778571Y-7983057D02*
X12778571Y-8006867D01*
X12778571Y-8006867D02*
X12773809Y-8025914D01*
X12773809Y-8025914D02*
X12769048Y-8035438D01*
X12769048Y-8035438D02*
X12764286Y-8040200D01*
X12764286Y-8040200D02*
X12754762Y-8044962D01*
X12754762Y-8044962D02*
X12745238Y-8044962D01*
X12745238Y-8044962D02*
X12735714Y-8040200D01*
X12735714Y-8040200D02*
X12730952Y-8035438D01*
X12730952Y-8035438D02*
X12726190Y-8025914D01*
X12726190Y-8025914D02*
X12721429Y-8006867D01*
X12721429Y-8006867D02*
X12721429Y-7983057D01*
X12721429Y-7983057D02*
X12726190Y-7964009D01*
X12726190Y-7964009D02*
X12730952Y-7954486D01*
X12730952Y-7954486D02*
X12735714Y-7949724D01*
X12735714Y-7949724D02*
X12745238Y-7944962D01*
X12873809Y-8044962D02*
X12816667Y-8044962D01*
X12845238Y-8044962D02*
X12845238Y-7944962D01*
X12845238Y-7944962D02*
X12835714Y-7959248D01*
X12835714Y-7959248D02*
X12826190Y-7968771D01*
X12826190Y-7968771D02*
X12816667Y-7973533D01*
X14934962Y-8461905D02*
X14887343Y-8495238D01*
X14934962Y-8519048D02*
X14834962Y-8519048D01*
X14834962Y-8519048D02*
X14834962Y-8480952D01*
X14834962Y-8480952D02*
X14839724Y-8471429D01*
X14839724Y-8471429D02*
X14844486Y-8466667D01*
X14844486Y-8466667D02*
X14854009Y-8461905D01*
X14854009Y-8461905D02*
X14868295Y-8461905D01*
X14868295Y-8461905D02*
X14877819Y-8466667D01*
X14877819Y-8466667D02*
X14882581Y-8471429D01*
X14882581Y-8471429D02*
X14887343Y-8480952D01*
X14887343Y-8480952D02*
X14887343Y-8519048D01*
X14868295Y-8376190D02*
X14934962Y-8376190D01*
X14830200Y-8400000D02*
X14901628Y-8423809D01*
X14901628Y-8423809D02*
X14901628Y-8361905D01*
X14834962Y-8304762D02*
X14834962Y-8295238D01*
X14834962Y-8295238D02*
X14839724Y-8285714D01*
X14839724Y-8285714D02*
X14844486Y-8280952D01*
X14844486Y-8280952D02*
X14854009Y-8276190D01*
X14854009Y-8276190D02*
X14873057Y-8271428D01*
X14873057Y-8271428D02*
X14896867Y-8271428D01*
X14896867Y-8271428D02*
X14915914Y-8276190D01*
X14915914Y-8276190D02*
X14925438Y-8280952D01*
X14925438Y-8280952D02*
X14930200Y-8285714D01*
X14930200Y-8285714D02*
X14934962Y-8295238D01*
X14934962Y-8295238D02*
X14934962Y-8304762D01*
X14934962Y-8304762D02*
X14930200Y-8314286D01*
X14930200Y-8314286D02*
X14925438Y-8319047D01*
X14925438Y-8319047D02*
X14915914Y-8323809D01*
X14915914Y-8323809D02*
X14896867Y-8328571D01*
X14896867Y-8328571D02*
X14873057Y-8328571D01*
X14873057Y-8328571D02*
X14854009Y-8323809D01*
X14854009Y-8323809D02*
X14844486Y-8319047D01*
X14844486Y-8319047D02*
X14839724Y-8314286D01*
X14839724Y-8314286D02*
X14834962Y-8304762D01*
X14934962Y-8176190D02*
X14934962Y-8233333D01*
X14934962Y-8204762D02*
X14834962Y-8204762D01*
X14834962Y-8204762D02*
X14849248Y-8214286D01*
X14849248Y-8214286D02*
X14858771Y-8223809D01*
X14858771Y-8223809D02*
X14863533Y-8233333D01*
X13385438Y-9681905D02*
X13390200Y-9686667D01*
X13390200Y-9686667D02*
X13394962Y-9700952D01*
X13394962Y-9700952D02*
X13394962Y-9710476D01*
X13394962Y-9710476D02*
X13390200Y-9724762D01*
X13390200Y-9724762D02*
X13380676Y-9734286D01*
X13380676Y-9734286D02*
X13371152Y-9739048D01*
X13371152Y-9739048D02*
X13352105Y-9743809D01*
X13352105Y-9743809D02*
X13337819Y-9743809D01*
X13337819Y-9743809D02*
X13318771Y-9739048D01*
X13318771Y-9739048D02*
X13309248Y-9734286D01*
X13309248Y-9734286D02*
X13299724Y-9724762D01*
X13299724Y-9724762D02*
X13294962Y-9710476D01*
X13294962Y-9710476D02*
X13294962Y-9700952D01*
X13294962Y-9700952D02*
X13299724Y-9686667D01*
X13299724Y-9686667D02*
X13304486Y-9681905D01*
X13294962Y-9591429D02*
X13294962Y-9639048D01*
X13294962Y-9639048D02*
X13342581Y-9643809D01*
X13342581Y-9643809D02*
X13337819Y-9639048D01*
X13337819Y-9639048D02*
X13333057Y-9629524D01*
X13333057Y-9629524D02*
X13333057Y-9605714D01*
X13333057Y-9605714D02*
X13337819Y-9596190D01*
X13337819Y-9596190D02*
X13342581Y-9591429D01*
X13342581Y-9591429D02*
X13352105Y-9586667D01*
X13352105Y-9586667D02*
X13375914Y-9586667D01*
X13375914Y-9586667D02*
X13385438Y-9591429D01*
X13385438Y-9591429D02*
X13390200Y-9596190D01*
X13390200Y-9596190D02*
X13394962Y-9605714D01*
X13394962Y-9605714D02*
X13394962Y-9629524D01*
X13394962Y-9629524D02*
X13390200Y-9639048D01*
X13390200Y-9639048D02*
X13385438Y-9643809D01*
X13294962Y-9524762D02*
X13294962Y-9515238D01*
X13294962Y-9515238D02*
X13299724Y-9505714D01*
X13299724Y-9505714D02*
X13304486Y-9500952D01*
X13304486Y-9500952D02*
X13314009Y-9496190D01*
X13314009Y-9496190D02*
X13333057Y-9491429D01*
X13333057Y-9491429D02*
X13356867Y-9491429D01*
X13356867Y-9491429D02*
X13375914Y-9496190D01*
X13375914Y-9496190D02*
X13385438Y-9500952D01*
X13385438Y-9500952D02*
X13390200Y-9505714D01*
X13390200Y-9505714D02*
X13394962Y-9515238D01*
X13394962Y-9515238D02*
X13394962Y-9524762D01*
X13394962Y-9524762D02*
X13390200Y-9534286D01*
X13390200Y-9534286D02*
X13385438Y-9539048D01*
X13385438Y-9539048D02*
X13375914Y-9543809D01*
X13375914Y-9543809D02*
X13356867Y-9548571D01*
X13356867Y-9548571D02*
X13333057Y-9548571D01*
X13333057Y-9548571D02*
X13314009Y-9543809D01*
X13314009Y-9543809D02*
X13304486Y-9539048D01*
X13304486Y-9539048D02*
X13299724Y-9534286D01*
X13299724Y-9534286D02*
X13294962Y-9524762D01*
X13304486Y-9453333D02*
X13299724Y-9448571D01*
X13299724Y-9448571D02*
X13294962Y-9439048D01*
X13294962Y-9439048D02*
X13294962Y-9415238D01*
X13294962Y-9415238D02*
X13299724Y-9405714D01*
X13299724Y-9405714D02*
X13304486Y-9400952D01*
X13304486Y-9400952D02*
X13314009Y-9396190D01*
X13314009Y-9396190D02*
X13323533Y-9396190D01*
X13323533Y-9396190D02*
X13337819Y-9400952D01*
X13337819Y-9400952D02*
X13394962Y-9458095D01*
X13394962Y-9458095D02*
X13394962Y-9396190D01*
X14874962Y-9431905D02*
X14827343Y-9465238D01*
X14874962Y-9489048D02*
X14774962Y-9489048D01*
X14774962Y-9489048D02*
X14774962Y-9450952D01*
X14774962Y-9450952D02*
X14779724Y-9441429D01*
X14779724Y-9441429D02*
X14784486Y-9436667D01*
X14784486Y-9436667D02*
X14794009Y-9431905D01*
X14794009Y-9431905D02*
X14808295Y-9431905D01*
X14808295Y-9431905D02*
X14817819Y-9436667D01*
X14817819Y-9436667D02*
X14822581Y-9441429D01*
X14822581Y-9441429D02*
X14827343Y-9450952D01*
X14827343Y-9450952D02*
X14827343Y-9489048D01*
X14774962Y-9341429D02*
X14774962Y-9389048D01*
X14774962Y-9389048D02*
X14822581Y-9393809D01*
X14822581Y-9393809D02*
X14817819Y-9389048D01*
X14817819Y-9389048D02*
X14813057Y-9379524D01*
X14813057Y-9379524D02*
X14813057Y-9355714D01*
X14813057Y-9355714D02*
X14817819Y-9346190D01*
X14817819Y-9346190D02*
X14822581Y-9341429D01*
X14822581Y-9341429D02*
X14832105Y-9336667D01*
X14832105Y-9336667D02*
X14855914Y-9336667D01*
X14855914Y-9336667D02*
X14865438Y-9341429D01*
X14865438Y-9341429D02*
X14870200Y-9346190D01*
X14870200Y-9346190D02*
X14874962Y-9355714D01*
X14874962Y-9355714D02*
X14874962Y-9379524D01*
X14874962Y-9379524D02*
X14870200Y-9389048D01*
X14870200Y-9389048D02*
X14865438Y-9393809D01*
X14874962Y-9241429D02*
X14874962Y-9298571D01*
X14874962Y-9270000D02*
X14774962Y-9270000D01*
X14774962Y-9270000D02*
X14789248Y-9279524D01*
X14789248Y-9279524D02*
X14798771Y-9289048D01*
X14798771Y-9289048D02*
X14803533Y-9298571D01*
X14808295Y-9155714D02*
X14874962Y-9155714D01*
X14770200Y-9179524D02*
X14841628Y-9203333D01*
X14841628Y-9203333D02*
X14841628Y-9141429D01*
X12098095Y-7594962D02*
X12064762Y-7547343D01*
X12040952Y-7594962D02*
X12040952Y-7494962D01*
X12040952Y-7494962D02*
X12079048Y-7494962D01*
X12079048Y-7494962D02*
X12088571Y-7499724D01*
X12088571Y-7499724D02*
X12093333Y-7504486D01*
X12093333Y-7504486D02*
X12098095Y-7514009D01*
X12098095Y-7514009D02*
X12098095Y-7528295D01*
X12098095Y-7528295D02*
X12093333Y-7537819D01*
X12093333Y-7537819D02*
X12088571Y-7542581D01*
X12088571Y-7542581D02*
X12079048Y-7547343D01*
X12079048Y-7547343D02*
X12040952Y-7547343D01*
X12131429Y-7494962D02*
X12193333Y-7494962D01*
X12193333Y-7494962D02*
X12160000Y-7533057D01*
X12160000Y-7533057D02*
X12174286Y-7533057D01*
X12174286Y-7533057D02*
X12183809Y-7537819D01*
X12183809Y-7537819D02*
X12188571Y-7542581D01*
X12188571Y-7542581D02*
X12193333Y-7552105D01*
X12193333Y-7552105D02*
X12193333Y-7575914D01*
X12193333Y-7575914D02*
X12188571Y-7585438D01*
X12188571Y-7585438D02*
X12183809Y-7590200D01*
X12183809Y-7590200D02*
X12174286Y-7594962D01*
X12174286Y-7594962D02*
X12145714Y-7594962D01*
X12145714Y-7594962D02*
X12136190Y-7590200D01*
X12136190Y-7590200D02*
X12131429Y-7585438D01*
X12255238Y-7494962D02*
X12264762Y-7494962D01*
X12264762Y-7494962D02*
X12274286Y-7499724D01*
X12274286Y-7499724D02*
X12279048Y-7504486D01*
X12279048Y-7504486D02*
X12283809Y-7514009D01*
X12283809Y-7514009D02*
X12288571Y-7533057D01*
X12288571Y-7533057D02*
X12288571Y-7556867D01*
X12288571Y-7556867D02*
X12283809Y-7575914D01*
X12283809Y-7575914D02*
X12279048Y-7585438D01*
X12279048Y-7585438D02*
X12274286Y-7590200D01*
X12274286Y-7590200D02*
X12264762Y-7594962D01*
X12264762Y-7594962D02*
X12255238Y-7594962D01*
X12255238Y-7594962D02*
X12245714Y-7590200D01*
X12245714Y-7590200D02*
X12240952Y-7585438D01*
X12240952Y-7585438D02*
X12236190Y-7575914D01*
X12236190Y-7575914D02*
X12231429Y-7556867D01*
X12231429Y-7556867D02*
X12231429Y-7533057D01*
X12231429Y-7533057D02*
X12236190Y-7514009D01*
X12236190Y-7514009D02*
X12240952Y-7504486D01*
X12240952Y-7504486D02*
X12245714Y-7499724D01*
X12245714Y-7499724D02*
X12255238Y-7494962D01*
X12321905Y-7494962D02*
X12383809Y-7494962D01*
X12383809Y-7494962D02*
X12350476Y-7533057D01*
X12350476Y-7533057D02*
X12364762Y-7533057D01*
X12364762Y-7533057D02*
X12374286Y-7537819D01*
X12374286Y-7537819D02*
X12379048Y-7542581D01*
X12379048Y-7542581D02*
X12383809Y-7552105D01*
X12383809Y-7552105D02*
X12383809Y-7575914D01*
X12383809Y-7575914D02*
X12379048Y-7585438D01*
X12379048Y-7585438D02*
X12374286Y-7590200D01*
X12374286Y-7590200D02*
X12364762Y-7594962D01*
X12364762Y-7594962D02*
X12336190Y-7594962D01*
X12336190Y-7594962D02*
X12326667Y-7590200D01*
X12326667Y-7590200D02*
X12321905Y-7585438D01*
X15428095Y-8524962D02*
X15394762Y-8477343D01*
X15370952Y-8524962D02*
X15370952Y-8424962D01*
X15370952Y-8424962D02*
X15409048Y-8424962D01*
X15409048Y-8424962D02*
X15418571Y-8429724D01*
X15418571Y-8429724D02*
X15423333Y-8434486D01*
X15423333Y-8434486D02*
X15428095Y-8444010D01*
X15428095Y-8444010D02*
X15428095Y-8458295D01*
X15428095Y-8458295D02*
X15423333Y-8467819D01*
X15423333Y-8467819D02*
X15418571Y-8472581D01*
X15418571Y-8472581D02*
X15409048Y-8477343D01*
X15409048Y-8477343D02*
X15370952Y-8477343D01*
X15513809Y-8458295D02*
X15513809Y-8524962D01*
X15490000Y-8420200D02*
X15466190Y-8491629D01*
X15466190Y-8491629D02*
X15528095Y-8491629D01*
X15618571Y-8524962D02*
X15561429Y-8524962D01*
X15590000Y-8524962D02*
X15590000Y-8424962D01*
X15590000Y-8424962D02*
X15580476Y-8439248D01*
X15580476Y-8439248D02*
X15570952Y-8448771D01*
X15570952Y-8448771D02*
X15561429Y-8453533D01*
X15651905Y-8424962D02*
X15718571Y-8424962D01*
X15718571Y-8424962D02*
X15675714Y-8524962D01*
X13994962Y-7741905D02*
X13994962Y-7789524D01*
X13994962Y-7789524D02*
X13894962Y-7789524D01*
X13894962Y-7718095D02*
X13894962Y-7656190D01*
X13894962Y-7656190D02*
X13933057Y-7689524D01*
X13933057Y-7689524D02*
X13933057Y-7675238D01*
X13933057Y-7675238D02*
X13937819Y-7665714D01*
X13937819Y-7665714D02*
X13942581Y-7660952D01*
X13942581Y-7660952D02*
X13952105Y-7656190D01*
X13952105Y-7656190D02*
X13975914Y-7656190D01*
X13975914Y-7656190D02*
X13985438Y-7660952D01*
X13985438Y-7660952D02*
X13990200Y-7665714D01*
X13990200Y-7665714D02*
X13994962Y-7675238D01*
X13994962Y-7675238D02*
X13994962Y-7703809D01*
X13994962Y-7703809D02*
X13990200Y-7713333D01*
X13990200Y-7713333D02*
X13985438Y-7718095D01*
X13894962Y-7594286D02*
X13894962Y-7584762D01*
X13894962Y-7584762D02*
X13899724Y-7575238D01*
X13899724Y-7575238D02*
X13904486Y-7570476D01*
X13904486Y-7570476D02*
X13914009Y-7565714D01*
X13914009Y-7565714D02*
X13933057Y-7560952D01*
X13933057Y-7560952D02*
X13956867Y-7560952D01*
X13956867Y-7560952D02*
X13975914Y-7565714D01*
X13975914Y-7565714D02*
X13985438Y-7570476D01*
X13985438Y-7570476D02*
X13990200Y-7575238D01*
X13990200Y-7575238D02*
X13994962Y-7584762D01*
X13994962Y-7584762D02*
X13994962Y-7594286D01*
X13994962Y-7594286D02*
X13990200Y-7603809D01*
X13990200Y-7603809D02*
X13985438Y-7608571D01*
X13985438Y-7608571D02*
X13975914Y-7613333D01*
X13975914Y-7613333D02*
X13956867Y-7618095D01*
X13956867Y-7618095D02*
X13933057Y-7618095D01*
X13933057Y-7618095D02*
X13914009Y-7613333D01*
X13914009Y-7613333D02*
X13904486Y-7608571D01*
X13904486Y-7608571D02*
X13899724Y-7603809D01*
X13899724Y-7603809D02*
X13894962Y-7594286D01*
X13994962Y-7465714D02*
X13994962Y-7522857D01*
X13994962Y-7494286D02*
X13894962Y-7494286D01*
X13894962Y-7494286D02*
X13909248Y-7503809D01*
X13909248Y-7503809D02*
X13918771Y-7513333D01*
X13918771Y-7513333D02*
X13923533Y-7522857D01*
X13584962Y-10211905D02*
X13537343Y-10245238D01*
X13584962Y-10269048D02*
X13484962Y-10269048D01*
X13484962Y-10269048D02*
X13484962Y-10230952D01*
X13484962Y-10230952D02*
X13489724Y-10221429D01*
X13489724Y-10221429D02*
X13494486Y-10216667D01*
X13494486Y-10216667D02*
X13504009Y-10211905D01*
X13504009Y-10211905D02*
X13518295Y-10211905D01*
X13518295Y-10211905D02*
X13527819Y-10216667D01*
X13527819Y-10216667D02*
X13532581Y-10221429D01*
X13532581Y-10221429D02*
X13537343Y-10230952D01*
X13537343Y-10230952D02*
X13537343Y-10269048D01*
X13484962Y-10121429D02*
X13484962Y-10169048D01*
X13484962Y-10169048D02*
X13532581Y-10173809D01*
X13532581Y-10173809D02*
X13527819Y-10169048D01*
X13527819Y-10169048D02*
X13523057Y-10159524D01*
X13523057Y-10159524D02*
X13523057Y-10135714D01*
X13523057Y-10135714D02*
X13527819Y-10126190D01*
X13527819Y-10126190D02*
X13532581Y-10121429D01*
X13532581Y-10121429D02*
X13542105Y-10116667D01*
X13542105Y-10116667D02*
X13565914Y-10116667D01*
X13565914Y-10116667D02*
X13575438Y-10121429D01*
X13575438Y-10121429D02*
X13580200Y-10126190D01*
X13580200Y-10126190D02*
X13584962Y-10135714D01*
X13584962Y-10135714D02*
X13584962Y-10159524D01*
X13584962Y-10159524D02*
X13580200Y-10169048D01*
X13580200Y-10169048D02*
X13575438Y-10173809D01*
X13484962Y-10054762D02*
X13484962Y-10045238D01*
X13484962Y-10045238D02*
X13489724Y-10035714D01*
X13489724Y-10035714D02*
X13494486Y-10030952D01*
X13494486Y-10030952D02*
X13504009Y-10026190D01*
X13504009Y-10026190D02*
X13523057Y-10021429D01*
X13523057Y-10021429D02*
X13546867Y-10021429D01*
X13546867Y-10021429D02*
X13565914Y-10026190D01*
X13565914Y-10026190D02*
X13575438Y-10030952D01*
X13575438Y-10030952D02*
X13580200Y-10035714D01*
X13580200Y-10035714D02*
X13584962Y-10045238D01*
X13584962Y-10045238D02*
X13584962Y-10054762D01*
X13584962Y-10054762D02*
X13580200Y-10064286D01*
X13580200Y-10064286D02*
X13575438Y-10069048D01*
X13575438Y-10069048D02*
X13565914Y-10073809D01*
X13565914Y-10073809D02*
X13546867Y-10078571D01*
X13546867Y-10078571D02*
X13523057Y-10078571D01*
X13523057Y-10078571D02*
X13504009Y-10073809D01*
X13504009Y-10073809D02*
X13494486Y-10069048D01*
X13494486Y-10069048D02*
X13489724Y-10064286D01*
X13489724Y-10064286D02*
X13484962Y-10054762D01*
X13484962Y-9988095D02*
X13484962Y-9921429D01*
X13484962Y-9921429D02*
X13584962Y-9964286D01*
X12738095Y-10434962D02*
X12704762Y-10387343D01*
X12680952Y-10434962D02*
X12680952Y-10334962D01*
X12680952Y-10334962D02*
X12719048Y-10334962D01*
X12719048Y-10334962D02*
X12728571Y-10339724D01*
X12728571Y-10339724D02*
X12733333Y-10344486D01*
X12733333Y-10344486D02*
X12738095Y-10354010D01*
X12738095Y-10354010D02*
X12738095Y-10368295D01*
X12738095Y-10368295D02*
X12733333Y-10377819D01*
X12733333Y-10377819D02*
X12728571Y-10382581D01*
X12728571Y-10382581D02*
X12719048Y-10387343D01*
X12719048Y-10387343D02*
X12680952Y-10387343D01*
X12828571Y-10334962D02*
X12780952Y-10334962D01*
X12780952Y-10334962D02*
X12776190Y-10382581D01*
X12776190Y-10382581D02*
X12780952Y-10377819D01*
X12780952Y-10377819D02*
X12790476Y-10373057D01*
X12790476Y-10373057D02*
X12814286Y-10373057D01*
X12814286Y-10373057D02*
X12823809Y-10377819D01*
X12823809Y-10377819D02*
X12828571Y-10382581D01*
X12828571Y-10382581D02*
X12833333Y-10392105D01*
X12833333Y-10392105D02*
X12833333Y-10415914D01*
X12833333Y-10415914D02*
X12828571Y-10425438D01*
X12828571Y-10425438D02*
X12823809Y-10430200D01*
X12823809Y-10430200D02*
X12814286Y-10434962D01*
X12814286Y-10434962D02*
X12790476Y-10434962D01*
X12790476Y-10434962D02*
X12780952Y-10430200D01*
X12780952Y-10430200D02*
X12776190Y-10425438D01*
X12895238Y-10334962D02*
X12904762Y-10334962D01*
X12904762Y-10334962D02*
X12914286Y-10339724D01*
X12914286Y-10339724D02*
X12919048Y-10344486D01*
X12919048Y-10344486D02*
X12923809Y-10354010D01*
X12923809Y-10354010D02*
X12928571Y-10373057D01*
X12928571Y-10373057D02*
X12928571Y-10396867D01*
X12928571Y-10396867D02*
X12923809Y-10415914D01*
X12923809Y-10415914D02*
X12919048Y-10425438D01*
X12919048Y-10425438D02*
X12914286Y-10430200D01*
X12914286Y-10430200D02*
X12904762Y-10434962D01*
X12904762Y-10434962D02*
X12895238Y-10434962D01*
X12895238Y-10434962D02*
X12885714Y-10430200D01*
X12885714Y-10430200D02*
X12880952Y-10425438D01*
X12880952Y-10425438D02*
X12876190Y-10415914D01*
X12876190Y-10415914D02*
X12871429Y-10396867D01*
X12871429Y-10396867D02*
X12871429Y-10373057D01*
X12871429Y-10373057D02*
X12876190Y-10354010D01*
X12876190Y-10354010D02*
X12880952Y-10344486D01*
X12880952Y-10344486D02*
X12885714Y-10339724D01*
X12885714Y-10339724D02*
X12895238Y-10334962D01*
X13023809Y-10434962D02*
X12966667Y-10434962D01*
X12995238Y-10434962D02*
X12995238Y-10334962D01*
X12995238Y-10334962D02*
X12985714Y-10349248D01*
X12985714Y-10349248D02*
X12976190Y-10358771D01*
X12976190Y-10358771D02*
X12966667Y-10363533D01*
X14764962Y-10211905D02*
X14717343Y-10245238D01*
X14764962Y-10269048D02*
X14664962Y-10269048D01*
X14664962Y-10269048D02*
X14664962Y-10230952D01*
X14664962Y-10230952D02*
X14669724Y-10221429D01*
X14669724Y-10221429D02*
X14674486Y-10216667D01*
X14674486Y-10216667D02*
X14684009Y-10211905D01*
X14684009Y-10211905D02*
X14698295Y-10211905D01*
X14698295Y-10211905D02*
X14707819Y-10216667D01*
X14707819Y-10216667D02*
X14712581Y-10221429D01*
X14712581Y-10221429D02*
X14717343Y-10230952D01*
X14717343Y-10230952D02*
X14717343Y-10269048D01*
X14664962Y-10121429D02*
X14664962Y-10169048D01*
X14664962Y-10169048D02*
X14712581Y-10173809D01*
X14712581Y-10173809D02*
X14707819Y-10169048D01*
X14707819Y-10169048D02*
X14703057Y-10159524D01*
X14703057Y-10159524D02*
X14703057Y-10135714D01*
X14703057Y-10135714D02*
X14707819Y-10126190D01*
X14707819Y-10126190D02*
X14712581Y-10121429D01*
X14712581Y-10121429D02*
X14722105Y-10116667D01*
X14722105Y-10116667D02*
X14745914Y-10116667D01*
X14745914Y-10116667D02*
X14755438Y-10121429D01*
X14755438Y-10121429D02*
X14760200Y-10126190D01*
X14760200Y-10126190D02*
X14764962Y-10135714D01*
X14764962Y-10135714D02*
X14764962Y-10159524D01*
X14764962Y-10159524D02*
X14760200Y-10169048D01*
X14760200Y-10169048D02*
X14755438Y-10173809D01*
X14764962Y-10021429D02*
X14764962Y-10078571D01*
X14764962Y-10050000D02*
X14664962Y-10050000D01*
X14664962Y-10050000D02*
X14679248Y-10059524D01*
X14679248Y-10059524D02*
X14688771Y-10069048D01*
X14688771Y-10069048D02*
X14693533Y-10078571D01*
X14674486Y-9983333D02*
X14669724Y-9978571D01*
X14669724Y-9978571D02*
X14664962Y-9969048D01*
X14664962Y-9969048D02*
X14664962Y-9945238D01*
X14664962Y-9945238D02*
X14669724Y-9935714D01*
X14669724Y-9935714D02*
X14674486Y-9930952D01*
X14674486Y-9930952D02*
X14684009Y-9926190D01*
X14684009Y-9926190D02*
X14693533Y-9926190D01*
X14693533Y-9926190D02*
X14707819Y-9930952D01*
X14707819Y-9930952D02*
X14764962Y-9988095D01*
X14764962Y-9988095D02*
X14764962Y-9926190D01*
X15668095Y-7785438D02*
X15663333Y-7790200D01*
X15663333Y-7790200D02*
X15649048Y-7794962D01*
X15649048Y-7794962D02*
X15639524Y-7794962D01*
X15639524Y-7794962D02*
X15625238Y-7790200D01*
X15625238Y-7790200D02*
X15615714Y-7780676D01*
X15615714Y-7780676D02*
X15610952Y-7771152D01*
X15610952Y-7771152D02*
X15606190Y-7752105D01*
X15606190Y-7752105D02*
X15606190Y-7737819D01*
X15606190Y-7737819D02*
X15610952Y-7718771D01*
X15610952Y-7718771D02*
X15615714Y-7709248D01*
X15615714Y-7709248D02*
X15625238Y-7699724D01*
X15625238Y-7699724D02*
X15639524Y-7694962D01*
X15639524Y-7694962D02*
X15649048Y-7694962D01*
X15649048Y-7694962D02*
X15663333Y-7699724D01*
X15663333Y-7699724D02*
X15668095Y-7704486D01*
X15706190Y-7704486D02*
X15710952Y-7699724D01*
X15710952Y-7699724D02*
X15720476Y-7694962D01*
X15720476Y-7694962D02*
X15744286Y-7694962D01*
X15744286Y-7694962D02*
X15753809Y-7699724D01*
X15753809Y-7699724D02*
X15758571Y-7704486D01*
X15758571Y-7704486D02*
X15763333Y-7714009D01*
X15763333Y-7714009D02*
X15763333Y-7723533D01*
X15763333Y-7723533D02*
X15758571Y-7737819D01*
X15758571Y-7737819D02*
X15701429Y-7794962D01*
X15701429Y-7794962D02*
X15763333Y-7794962D01*
X15825238Y-7694962D02*
X15834762Y-7694962D01*
X15834762Y-7694962D02*
X15844286Y-7699724D01*
X15844286Y-7699724D02*
X15849048Y-7704486D01*
X15849048Y-7704486D02*
X15853809Y-7714009D01*
X15853809Y-7714009D02*
X15858571Y-7733057D01*
X15858571Y-7733057D02*
X15858571Y-7756867D01*
X15858571Y-7756867D02*
X15853809Y-7775914D01*
X15853809Y-7775914D02*
X15849048Y-7785438D01*
X15849048Y-7785438D02*
X15844286Y-7790200D01*
X15844286Y-7790200D02*
X15834762Y-7794962D01*
X15834762Y-7794962D02*
X15825238Y-7794962D01*
X15825238Y-7794962D02*
X15815714Y-7790200D01*
X15815714Y-7790200D02*
X15810952Y-7785438D01*
X15810952Y-7785438D02*
X15806190Y-7775914D01*
X15806190Y-7775914D02*
X15801429Y-7756867D01*
X15801429Y-7756867D02*
X15801429Y-7733057D01*
X15801429Y-7733057D02*
X15806190Y-7714009D01*
X15806190Y-7714009D02*
X15810952Y-7704486D01*
X15810952Y-7704486D02*
X15815714Y-7699724D01*
X15815714Y-7699724D02*
X15825238Y-7694962D01*
X15891905Y-7694962D02*
X15953809Y-7694962D01*
X15953809Y-7694962D02*
X15920476Y-7733057D01*
X15920476Y-7733057D02*
X15934762Y-7733057D01*
X15934762Y-7733057D02*
X15944286Y-7737819D01*
X15944286Y-7737819D02*
X15949048Y-7742581D01*
X15949048Y-7742581D02*
X15953809Y-7752105D01*
X15953809Y-7752105D02*
X15953809Y-7775914D01*
X15953809Y-7775914D02*
X15949048Y-7785438D01*
X15949048Y-7785438D02*
X15944286Y-7790200D01*
X15944286Y-7790200D02*
X15934762Y-7794962D01*
X15934762Y-7794962D02*
X15906190Y-7794962D01*
X15906190Y-7794962D02*
X15896667Y-7790200D01*
X15896667Y-7790200D02*
X15891905Y-7785438D01*
X13684962Y-11209047D02*
X13584962Y-11209047D01*
X13584962Y-11209047D02*
X13584962Y-11185238D01*
X13584962Y-11185238D02*
X13589724Y-11170952D01*
X13589724Y-11170952D02*
X13599248Y-11161429D01*
X13599248Y-11161429D02*
X13608771Y-11156667D01*
X13608771Y-11156667D02*
X13627819Y-11151905D01*
X13627819Y-11151905D02*
X13642105Y-11151905D01*
X13642105Y-11151905D02*
X13661152Y-11156667D01*
X13661152Y-11156667D02*
X13670676Y-11161429D01*
X13670676Y-11161429D02*
X13680200Y-11170952D01*
X13680200Y-11170952D02*
X13684962Y-11185238D01*
X13684962Y-11185238D02*
X13684962Y-11209047D01*
X13618295Y-11066190D02*
X13684962Y-11066190D01*
X13580200Y-11090000D02*
X13651628Y-11113809D01*
X13651628Y-11113809D02*
X13651628Y-11051905D01*
X13584962Y-10994762D02*
X13584962Y-10985238D01*
X13584962Y-10985238D02*
X13589724Y-10975714D01*
X13589724Y-10975714D02*
X13594486Y-10970952D01*
X13594486Y-10970952D02*
X13604009Y-10966190D01*
X13604009Y-10966190D02*
X13623057Y-10961429D01*
X13623057Y-10961429D02*
X13646867Y-10961429D01*
X13646867Y-10961429D02*
X13665914Y-10966190D01*
X13665914Y-10966190D02*
X13675438Y-10970952D01*
X13675438Y-10970952D02*
X13680200Y-10975714D01*
X13680200Y-10975714D02*
X13684962Y-10985238D01*
X13684962Y-10985238D02*
X13684962Y-10994762D01*
X13684962Y-10994762D02*
X13680200Y-11004286D01*
X13680200Y-11004286D02*
X13675438Y-11009048D01*
X13675438Y-11009048D02*
X13665914Y-11013809D01*
X13665914Y-11013809D02*
X13646867Y-11018571D01*
X13646867Y-11018571D02*
X13623057Y-11018571D01*
X13623057Y-11018571D02*
X13604009Y-11013809D01*
X13604009Y-11013809D02*
X13594486Y-11009048D01*
X13594486Y-11009048D02*
X13589724Y-11004286D01*
X13589724Y-11004286D02*
X13584962Y-10994762D01*
X13618295Y-10875714D02*
X13684962Y-10875714D01*
X13580200Y-10899524D02*
X13651628Y-10923333D01*
X13651628Y-10923333D02*
X13651628Y-10861429D01*
X14278571Y-9234962D02*
X14278571Y-9315914D01*
X14278571Y-9315914D02*
X14283333Y-9325438D01*
X14283333Y-9325438D02*
X14288095Y-9330200D01*
X14288095Y-9330200D02*
X14297619Y-9334962D01*
X14297619Y-9334962D02*
X14316667Y-9334962D01*
X14316667Y-9334962D02*
X14326190Y-9330200D01*
X14326190Y-9330200D02*
X14330952Y-9325438D01*
X14330952Y-9325438D02*
X14335714Y-9315914D01*
X14335714Y-9315914D02*
X14335714Y-9234962D01*
X14430952Y-9234962D02*
X14383333Y-9234962D01*
X14383333Y-9234962D02*
X14378571Y-9282581D01*
X14378571Y-9282581D02*
X14383333Y-9277819D01*
X14383333Y-9277819D02*
X14392857Y-9273057D01*
X14392857Y-9273057D02*
X14416667Y-9273057D01*
X14416667Y-9273057D02*
X14426190Y-9277819D01*
X14426190Y-9277819D02*
X14430952Y-9282581D01*
X14430952Y-9282581D02*
X14435714Y-9292105D01*
X14435714Y-9292105D02*
X14435714Y-9315914D01*
X14435714Y-9315914D02*
X14430952Y-9325438D01*
X14430952Y-9325438D02*
X14426190Y-9330200D01*
X14426190Y-9330200D02*
X14416667Y-9334962D01*
X14416667Y-9334962D02*
X14392857Y-9334962D01*
X14392857Y-9334962D02*
X14383333Y-9330200D01*
X14383333Y-9330200D02*
X14378571Y-9325438D01*
X14497619Y-9234962D02*
X14507143Y-9234962D01*
X14507143Y-9234962D02*
X14516667Y-9239724D01*
X14516667Y-9239724D02*
X14521428Y-9244486D01*
X14521428Y-9244486D02*
X14526190Y-9254010D01*
X14526190Y-9254010D02*
X14530952Y-9273057D01*
X14530952Y-9273057D02*
X14530952Y-9296867D01*
X14530952Y-9296867D02*
X14526190Y-9315914D01*
X14526190Y-9315914D02*
X14521428Y-9325438D01*
X14521428Y-9325438D02*
X14516667Y-9330200D01*
X14516667Y-9330200D02*
X14507143Y-9334962D01*
X14507143Y-9334962D02*
X14497619Y-9334962D01*
X14497619Y-9334962D02*
X14488095Y-9330200D01*
X14488095Y-9330200D02*
X14483333Y-9325438D01*
X14483333Y-9325438D02*
X14478571Y-9315914D01*
X14478571Y-9315914D02*
X14473809Y-9296867D01*
X14473809Y-9296867D02*
X14473809Y-9273057D01*
X14473809Y-9273057D02*
X14478571Y-9254010D01*
X14478571Y-9254010D02*
X14483333Y-9244486D01*
X14483333Y-9244486D02*
X14488095Y-9239724D01*
X14488095Y-9239724D02*
X14497619Y-9234962D01*
X14569048Y-9244486D02*
X14573809Y-9239724D01*
X14573809Y-9239724D02*
X14583333Y-9234962D01*
X14583333Y-9234962D02*
X14607143Y-9234962D01*
X14607143Y-9234962D02*
X14616667Y-9239724D01*
X14616667Y-9239724D02*
X14621428Y-9244486D01*
X14621428Y-9244486D02*
X14626190Y-9254010D01*
X14626190Y-9254010D02*
X14626190Y-9263533D01*
X14626190Y-9263533D02*
X14621428Y-9277819D01*
X14621428Y-9277819D02*
X14564286Y-9334962D01*
X14564286Y-9334962D02*
X14626190Y-9334962D01*
X13958095Y-10434962D02*
X13924762Y-10387343D01*
X13900952Y-10434962D02*
X13900952Y-10334962D01*
X13900952Y-10334962D02*
X13939048Y-10334962D01*
X13939048Y-10334962D02*
X13948571Y-10339724D01*
X13948571Y-10339724D02*
X13953333Y-10344486D01*
X13953333Y-10344486D02*
X13958095Y-10354010D01*
X13958095Y-10354010D02*
X13958095Y-10368295D01*
X13958095Y-10368295D02*
X13953333Y-10377819D01*
X13953333Y-10377819D02*
X13948571Y-10382581D01*
X13948571Y-10382581D02*
X13939048Y-10387343D01*
X13939048Y-10387343D02*
X13900952Y-10387343D01*
X14048571Y-10334962D02*
X14000952Y-10334962D01*
X14000952Y-10334962D02*
X13996190Y-10382581D01*
X13996190Y-10382581D02*
X14000952Y-10377819D01*
X14000952Y-10377819D02*
X14010476Y-10373057D01*
X14010476Y-10373057D02*
X14034286Y-10373057D01*
X14034286Y-10373057D02*
X14043809Y-10377819D01*
X14043809Y-10377819D02*
X14048571Y-10382581D01*
X14048571Y-10382581D02*
X14053333Y-10392105D01*
X14053333Y-10392105D02*
X14053333Y-10415914D01*
X14053333Y-10415914D02*
X14048571Y-10425438D01*
X14048571Y-10425438D02*
X14043809Y-10430200D01*
X14043809Y-10430200D02*
X14034286Y-10434962D01*
X14034286Y-10434962D02*
X14010476Y-10434962D01*
X14010476Y-10434962D02*
X14000952Y-10430200D01*
X14000952Y-10430200D02*
X13996190Y-10425438D01*
X14115238Y-10334962D02*
X14124762Y-10334962D01*
X14124762Y-10334962D02*
X14134286Y-10339724D01*
X14134286Y-10339724D02*
X14139048Y-10344486D01*
X14139048Y-10344486D02*
X14143809Y-10354010D01*
X14143809Y-10354010D02*
X14148571Y-10373057D01*
X14148571Y-10373057D02*
X14148571Y-10396867D01*
X14148571Y-10396867D02*
X14143809Y-10415914D01*
X14143809Y-10415914D02*
X14139048Y-10425438D01*
X14139048Y-10425438D02*
X14134286Y-10430200D01*
X14134286Y-10430200D02*
X14124762Y-10434962D01*
X14124762Y-10434962D02*
X14115238Y-10434962D01*
X14115238Y-10434962D02*
X14105714Y-10430200D01*
X14105714Y-10430200D02*
X14100952Y-10425438D01*
X14100952Y-10425438D02*
X14096190Y-10415914D01*
X14096190Y-10415914D02*
X14091429Y-10396867D01*
X14091429Y-10396867D02*
X14091429Y-10373057D01*
X14091429Y-10373057D02*
X14096190Y-10354010D01*
X14096190Y-10354010D02*
X14100952Y-10344486D01*
X14100952Y-10344486D02*
X14105714Y-10339724D01*
X14105714Y-10339724D02*
X14115238Y-10334962D01*
X14234286Y-10334962D02*
X14215238Y-10334962D01*
X14215238Y-10334962D02*
X14205714Y-10339724D01*
X14205714Y-10339724D02*
X14200952Y-10344486D01*
X14200952Y-10344486D02*
X14191429Y-10358771D01*
X14191429Y-10358771D02*
X14186667Y-10377819D01*
X14186667Y-10377819D02*
X14186667Y-10415914D01*
X14186667Y-10415914D02*
X14191429Y-10425438D01*
X14191429Y-10425438D02*
X14196190Y-10430200D01*
X14196190Y-10430200D02*
X14205714Y-10434962D01*
X14205714Y-10434962D02*
X14224762Y-10434962D01*
X14224762Y-10434962D02*
X14234286Y-10430200D01*
X14234286Y-10430200D02*
X14239048Y-10425438D01*
X14239048Y-10425438D02*
X14243809Y-10415914D01*
X14243809Y-10415914D02*
X14243809Y-10392105D01*
X14243809Y-10392105D02*
X14239048Y-10382581D01*
X14239048Y-10382581D02*
X14234286Y-10377819D01*
X14234286Y-10377819D02*
X14224762Y-10373057D01*
X14224762Y-10373057D02*
X14205714Y-10373057D01*
X14205714Y-10373057D02*
X14196190Y-10377819D01*
X14196190Y-10377819D02*
X14191429Y-10382581D01*
X14191429Y-10382581D02*
X14186667Y-10392105D01*
X15674962Y-11209047D02*
X15574962Y-11209047D01*
X15574962Y-11209047D02*
X15574962Y-11185238D01*
X15574962Y-11185238D02*
X15579724Y-11170952D01*
X15579724Y-11170952D02*
X15589248Y-11161429D01*
X15589248Y-11161429D02*
X15598771Y-11156667D01*
X15598771Y-11156667D02*
X15617819Y-11151905D01*
X15617819Y-11151905D02*
X15632105Y-11151905D01*
X15632105Y-11151905D02*
X15651152Y-11156667D01*
X15651152Y-11156667D02*
X15660676Y-11161429D01*
X15660676Y-11161429D02*
X15670200Y-11170952D01*
X15670200Y-11170952D02*
X15674962Y-11185238D01*
X15674962Y-11185238D02*
X15674962Y-11209047D01*
X15608295Y-11066190D02*
X15674962Y-11066190D01*
X15570200Y-11090000D02*
X15641628Y-11113809D01*
X15641628Y-11113809D02*
X15641628Y-11051905D01*
X15574962Y-10994762D02*
X15574962Y-10985238D01*
X15574962Y-10985238D02*
X15579724Y-10975714D01*
X15579724Y-10975714D02*
X15584486Y-10970952D01*
X15584486Y-10970952D02*
X15594009Y-10966190D01*
X15594009Y-10966190D02*
X15613057Y-10961429D01*
X15613057Y-10961429D02*
X15636867Y-10961429D01*
X15636867Y-10961429D02*
X15655914Y-10966190D01*
X15655914Y-10966190D02*
X15665438Y-10970952D01*
X15665438Y-10970952D02*
X15670200Y-10975714D01*
X15670200Y-10975714D02*
X15674962Y-10985238D01*
X15674962Y-10985238D02*
X15674962Y-10994762D01*
X15674962Y-10994762D02*
X15670200Y-11004286D01*
X15670200Y-11004286D02*
X15665438Y-11009048D01*
X15665438Y-11009048D02*
X15655914Y-11013809D01*
X15655914Y-11013809D02*
X15636867Y-11018571D01*
X15636867Y-11018571D02*
X15613057Y-11018571D01*
X15613057Y-11018571D02*
X15594009Y-11013809D01*
X15594009Y-11013809D02*
X15584486Y-11009048D01*
X15584486Y-11009048D02*
X15579724Y-11004286D01*
X15579724Y-11004286D02*
X15574962Y-10994762D01*
X15674962Y-10913809D02*
X15674962Y-10894762D01*
X15674962Y-10894762D02*
X15670200Y-10885238D01*
X15670200Y-10885238D02*
X15665438Y-10880476D01*
X15665438Y-10880476D02*
X15651152Y-10870952D01*
X15651152Y-10870952D02*
X15632105Y-10866190D01*
X15632105Y-10866190D02*
X15594009Y-10866190D01*
X15594009Y-10866190D02*
X15584486Y-10870952D01*
X15584486Y-10870952D02*
X15579724Y-10875714D01*
X15579724Y-10875714D02*
X15574962Y-10885238D01*
X15574962Y-10885238D02*
X15574962Y-10904286D01*
X15574962Y-10904286D02*
X15579724Y-10913809D01*
X15579724Y-10913809D02*
X15584486Y-10918571D01*
X15584486Y-10918571D02*
X15594009Y-10923333D01*
X15594009Y-10923333D02*
X15617819Y-10923333D01*
X15617819Y-10923333D02*
X15627343Y-10918571D01*
X15627343Y-10918571D02*
X15632105Y-10913809D01*
X15632105Y-10913809D02*
X15636867Y-10904286D01*
X15636867Y-10904286D02*
X15636867Y-10885238D01*
X15636867Y-10885238D02*
X15632105Y-10875714D01*
X15632105Y-10875714D02*
X15627343Y-10870952D01*
X15627343Y-10870952D02*
X15617819Y-10866190D01*
X15268095Y-8365438D02*
X15263333Y-8370200D01*
X15263333Y-8370200D02*
X15249048Y-8374962D01*
X15249048Y-8374962D02*
X15239524Y-8374962D01*
X15239524Y-8374962D02*
X15225238Y-8370200D01*
X15225238Y-8370200D02*
X15215714Y-8360676D01*
X15215714Y-8360676D02*
X15210952Y-8351152D01*
X15210952Y-8351152D02*
X15206190Y-8332105D01*
X15206190Y-8332105D02*
X15206190Y-8317819D01*
X15206190Y-8317819D02*
X15210952Y-8298771D01*
X15210952Y-8298771D02*
X15215714Y-8289248D01*
X15215714Y-8289248D02*
X15225238Y-8279724D01*
X15225238Y-8279724D02*
X15239524Y-8274962D01*
X15239524Y-8274962D02*
X15249048Y-8274962D01*
X15249048Y-8274962D02*
X15263333Y-8279724D01*
X15263333Y-8279724D02*
X15268095Y-8284486D01*
X15306190Y-8284486D02*
X15310952Y-8279724D01*
X15310952Y-8279724D02*
X15320476Y-8274962D01*
X15320476Y-8274962D02*
X15344286Y-8274962D01*
X15344286Y-8274962D02*
X15353809Y-8279724D01*
X15353809Y-8279724D02*
X15358571Y-8284486D01*
X15358571Y-8284486D02*
X15363333Y-8294009D01*
X15363333Y-8294009D02*
X15363333Y-8303533D01*
X15363333Y-8303533D02*
X15358571Y-8317819D01*
X15358571Y-8317819D02*
X15301429Y-8374962D01*
X15301429Y-8374962D02*
X15363333Y-8374962D01*
X15425238Y-8274962D02*
X15434762Y-8274962D01*
X15434762Y-8274962D02*
X15444286Y-8279724D01*
X15444286Y-8279724D02*
X15449048Y-8284486D01*
X15449048Y-8284486D02*
X15453809Y-8294009D01*
X15453809Y-8294009D02*
X15458571Y-8313057D01*
X15458571Y-8313057D02*
X15458571Y-8336867D01*
X15458571Y-8336867D02*
X15453809Y-8355914D01*
X15453809Y-8355914D02*
X15449048Y-8365438D01*
X15449048Y-8365438D02*
X15444286Y-8370200D01*
X15444286Y-8370200D02*
X15434762Y-8374962D01*
X15434762Y-8374962D02*
X15425238Y-8374962D01*
X15425238Y-8374962D02*
X15415714Y-8370200D01*
X15415714Y-8370200D02*
X15410952Y-8365438D01*
X15410952Y-8365438D02*
X15406190Y-8355914D01*
X15406190Y-8355914D02*
X15401429Y-8336867D01*
X15401429Y-8336867D02*
X15401429Y-8313057D01*
X15401429Y-8313057D02*
X15406190Y-8294009D01*
X15406190Y-8294009D02*
X15410952Y-8284486D01*
X15410952Y-8284486D02*
X15415714Y-8279724D01*
X15415714Y-8279724D02*
X15425238Y-8274962D01*
X15496667Y-8284486D02*
X15501429Y-8279724D01*
X15501429Y-8279724D02*
X15510952Y-8274962D01*
X15510952Y-8274962D02*
X15534762Y-8274962D01*
X15534762Y-8274962D02*
X15544286Y-8279724D01*
X15544286Y-8279724D02*
X15549048Y-8284486D01*
X15549048Y-8284486D02*
X15553809Y-8294009D01*
X15553809Y-8294009D02*
X15553809Y-8303533D01*
X15553809Y-8303533D02*
X15549048Y-8317819D01*
X15549048Y-8317819D02*
X15491905Y-8374962D01*
X15491905Y-8374962D02*
X15553809Y-8374962D01*
X12585538Y-12212462D02*
X12585538Y-12283890D01*
X12585538Y-12283890D02*
X12580777Y-12298176D01*
X12580777Y-12298176D02*
X12571253Y-12307700D01*
X12571253Y-12307700D02*
X12556967Y-12312462D01*
X12556967Y-12312462D02*
X12547443Y-12312462D01*
X12623634Y-12212462D02*
X12685538Y-12212462D01*
X12685538Y-12212462D02*
X12652205Y-12250557D01*
X12652205Y-12250557D02*
X12666491Y-12250557D01*
X12666491Y-12250557D02*
X12676015Y-12255319D01*
X12676015Y-12255319D02*
X12680777Y-12260081D01*
X12680777Y-12260081D02*
X12685538Y-12269605D01*
X12685538Y-12269605D02*
X12685538Y-12293414D01*
X12685538Y-12293414D02*
X12680777Y-12302938D01*
X12680777Y-12302938D02*
X12676015Y-12307700D01*
X12676015Y-12307700D02*
X12666491Y-12312462D01*
X12666491Y-12312462D02*
X12637919Y-12312462D01*
X12637919Y-12312462D02*
X12628396Y-12307700D01*
X12628396Y-12307700D02*
X12623634Y-12302938D01*
X12747443Y-12212462D02*
X12756967Y-12212462D01*
X12756967Y-12212462D02*
X12766491Y-12217224D01*
X12766491Y-12217224D02*
X12771253Y-12221986D01*
X12771253Y-12221986D02*
X12776015Y-12231509D01*
X12776015Y-12231509D02*
X12780777Y-12250557D01*
X12780777Y-12250557D02*
X12780777Y-12274367D01*
X12780777Y-12274367D02*
X12776015Y-12293414D01*
X12776015Y-12293414D02*
X12771253Y-12302938D01*
X12771253Y-12302938D02*
X12766491Y-12307700D01*
X12766491Y-12307700D02*
X12756967Y-12312462D01*
X12756967Y-12312462D02*
X12747443Y-12312462D01*
X12747443Y-12312462D02*
X12737919Y-12307700D01*
X12737919Y-12307700D02*
X12733158Y-12302938D01*
X12733158Y-12302938D02*
X12728396Y-12293414D01*
X12728396Y-12293414D02*
X12723634Y-12274367D01*
X12723634Y-12274367D02*
X12723634Y-12250557D01*
X12723634Y-12250557D02*
X12728396Y-12231509D01*
X12728396Y-12231509D02*
X12733158Y-12221986D01*
X12733158Y-12221986D02*
X12737919Y-12217224D01*
X12737919Y-12217224D02*
X12747443Y-12212462D01*
X12866491Y-12245795D02*
X12866491Y-12312462D01*
X12842681Y-12207700D02*
X12818872Y-12279128D01*
X12818872Y-12279128D02*
X12880777Y-12279128D01*
X15735438Y-9681905D02*
X15740200Y-9686667D01*
X15740200Y-9686667D02*
X15744962Y-9700952D01*
X15744962Y-9700952D02*
X15744962Y-9710476D01*
X15744962Y-9710476D02*
X15740200Y-9724762D01*
X15740200Y-9724762D02*
X15730676Y-9734286D01*
X15730676Y-9734286D02*
X15721152Y-9739048D01*
X15721152Y-9739048D02*
X15702105Y-9743809D01*
X15702105Y-9743809D02*
X15687819Y-9743809D01*
X15687819Y-9743809D02*
X15668771Y-9739048D01*
X15668771Y-9739048D02*
X15659248Y-9734286D01*
X15659248Y-9734286D02*
X15649724Y-9724762D01*
X15649724Y-9724762D02*
X15644962Y-9710476D01*
X15644962Y-9710476D02*
X15644962Y-9700952D01*
X15644962Y-9700952D02*
X15649724Y-9686667D01*
X15649724Y-9686667D02*
X15654486Y-9681905D01*
X15644962Y-9591429D02*
X15644962Y-9639048D01*
X15644962Y-9639048D02*
X15692581Y-9643809D01*
X15692581Y-9643809D02*
X15687819Y-9639048D01*
X15687819Y-9639048D02*
X15683057Y-9629524D01*
X15683057Y-9629524D02*
X15683057Y-9605714D01*
X15683057Y-9605714D02*
X15687819Y-9596190D01*
X15687819Y-9596190D02*
X15692581Y-9591429D01*
X15692581Y-9591429D02*
X15702105Y-9586667D01*
X15702105Y-9586667D02*
X15725914Y-9586667D01*
X15725914Y-9586667D02*
X15735438Y-9591429D01*
X15735438Y-9591429D02*
X15740200Y-9596190D01*
X15740200Y-9596190D02*
X15744962Y-9605714D01*
X15744962Y-9605714D02*
X15744962Y-9629524D01*
X15744962Y-9629524D02*
X15740200Y-9639048D01*
X15740200Y-9639048D02*
X15735438Y-9643809D01*
X15644962Y-9524762D02*
X15644962Y-9515238D01*
X15644962Y-9515238D02*
X15649724Y-9505714D01*
X15649724Y-9505714D02*
X15654486Y-9500952D01*
X15654486Y-9500952D02*
X15664009Y-9496190D01*
X15664009Y-9496190D02*
X15683057Y-9491429D01*
X15683057Y-9491429D02*
X15706867Y-9491429D01*
X15706867Y-9491429D02*
X15725914Y-9496190D01*
X15725914Y-9496190D02*
X15735438Y-9500952D01*
X15735438Y-9500952D02*
X15740200Y-9505714D01*
X15740200Y-9505714D02*
X15744962Y-9515238D01*
X15744962Y-9515238D02*
X15744962Y-9524762D01*
X15744962Y-9524762D02*
X15740200Y-9534286D01*
X15740200Y-9534286D02*
X15735438Y-9539048D01*
X15735438Y-9539048D02*
X15725914Y-9543809D01*
X15725914Y-9543809D02*
X15706867Y-9548571D01*
X15706867Y-9548571D02*
X15683057Y-9548571D01*
X15683057Y-9548571D02*
X15664009Y-9543809D01*
X15664009Y-9543809D02*
X15654486Y-9539048D01*
X15654486Y-9539048D02*
X15649724Y-9534286D01*
X15649724Y-9534286D02*
X15644962Y-9524762D01*
X15644962Y-9405714D02*
X15644962Y-9424762D01*
X15644962Y-9424762D02*
X15649724Y-9434286D01*
X15649724Y-9434286D02*
X15654486Y-9439048D01*
X15654486Y-9439048D02*
X15668771Y-9448571D01*
X15668771Y-9448571D02*
X15687819Y-9453333D01*
X15687819Y-9453333D02*
X15725914Y-9453333D01*
X15725914Y-9453333D02*
X15735438Y-9448571D01*
X15735438Y-9448571D02*
X15740200Y-9443809D01*
X15740200Y-9443809D02*
X15744962Y-9434286D01*
X15744962Y-9434286D02*
X15744962Y-9415238D01*
X15744962Y-9415238D02*
X15740200Y-9405714D01*
X15740200Y-9405714D02*
X15735438Y-9400952D01*
X15735438Y-9400952D02*
X15725914Y-9396190D01*
X15725914Y-9396190D02*
X15702105Y-9396190D01*
X15702105Y-9396190D02*
X15692581Y-9400952D01*
X15692581Y-9400952D02*
X15687819Y-9405714D01*
X15687819Y-9405714D02*
X15683057Y-9415238D01*
X15683057Y-9415238D02*
X15683057Y-9434286D01*
X15683057Y-9434286D02*
X15687819Y-9443809D01*
X15687819Y-9443809D02*
X15692581Y-9448571D01*
X15692581Y-9448571D02*
X15702105Y-9453333D01*
X12504962Y-9431905D02*
X12457343Y-9465238D01*
X12504962Y-9489048D02*
X12404962Y-9489048D01*
X12404962Y-9489048D02*
X12404962Y-9450952D01*
X12404962Y-9450952D02*
X12409724Y-9441429D01*
X12409724Y-9441429D02*
X12414486Y-9436667D01*
X12414486Y-9436667D02*
X12424009Y-9431905D01*
X12424009Y-9431905D02*
X12438295Y-9431905D01*
X12438295Y-9431905D02*
X12447819Y-9436667D01*
X12447819Y-9436667D02*
X12452581Y-9441429D01*
X12452581Y-9441429D02*
X12457343Y-9450952D01*
X12457343Y-9450952D02*
X12457343Y-9489048D01*
X12404962Y-9341429D02*
X12404962Y-9389048D01*
X12404962Y-9389048D02*
X12452581Y-9393809D01*
X12452581Y-9393809D02*
X12447819Y-9389048D01*
X12447819Y-9389048D02*
X12443057Y-9379524D01*
X12443057Y-9379524D02*
X12443057Y-9355714D01*
X12443057Y-9355714D02*
X12447819Y-9346190D01*
X12447819Y-9346190D02*
X12452581Y-9341429D01*
X12452581Y-9341429D02*
X12462105Y-9336667D01*
X12462105Y-9336667D02*
X12485914Y-9336667D01*
X12485914Y-9336667D02*
X12495438Y-9341429D01*
X12495438Y-9341429D02*
X12500200Y-9346190D01*
X12500200Y-9346190D02*
X12504962Y-9355714D01*
X12504962Y-9355714D02*
X12504962Y-9379524D01*
X12504962Y-9379524D02*
X12500200Y-9389048D01*
X12500200Y-9389048D02*
X12495438Y-9393809D01*
X12404962Y-9274762D02*
X12404962Y-9265238D01*
X12404962Y-9265238D02*
X12409724Y-9255714D01*
X12409724Y-9255714D02*
X12414486Y-9250952D01*
X12414486Y-9250952D02*
X12424009Y-9246190D01*
X12424009Y-9246190D02*
X12443057Y-9241429D01*
X12443057Y-9241429D02*
X12466867Y-9241429D01*
X12466867Y-9241429D02*
X12485914Y-9246190D01*
X12485914Y-9246190D02*
X12495438Y-9250952D01*
X12495438Y-9250952D02*
X12500200Y-9255714D01*
X12500200Y-9255714D02*
X12504962Y-9265238D01*
X12504962Y-9265238D02*
X12504962Y-9274762D01*
X12504962Y-9274762D02*
X12500200Y-9284286D01*
X12500200Y-9284286D02*
X12495438Y-9289048D01*
X12495438Y-9289048D02*
X12485914Y-9293809D01*
X12485914Y-9293809D02*
X12466867Y-9298571D01*
X12466867Y-9298571D02*
X12443057Y-9298571D01*
X12443057Y-9298571D02*
X12424009Y-9293809D01*
X12424009Y-9293809D02*
X12414486Y-9289048D01*
X12414486Y-9289048D02*
X12409724Y-9284286D01*
X12409724Y-9284286D02*
X12404962Y-9274762D01*
X12438295Y-9155714D02*
X12504962Y-9155714D01*
X12400200Y-9179524D02*
X12471628Y-9203333D01*
X12471628Y-9203333D02*
X12471628Y-9141429D01*
X12738095Y-8245438D02*
X12733333Y-8250200D01*
X12733333Y-8250200D02*
X12719048Y-8254962D01*
X12719048Y-8254962D02*
X12709524Y-8254962D01*
X12709524Y-8254962D02*
X12695238Y-8250200D01*
X12695238Y-8250200D02*
X12685714Y-8240676D01*
X12685714Y-8240676D02*
X12680952Y-8231152D01*
X12680952Y-8231152D02*
X12676190Y-8212105D01*
X12676190Y-8212105D02*
X12676190Y-8197819D01*
X12676190Y-8197819D02*
X12680952Y-8178771D01*
X12680952Y-8178771D02*
X12685714Y-8169248D01*
X12685714Y-8169248D02*
X12695238Y-8159724D01*
X12695238Y-8159724D02*
X12709524Y-8154962D01*
X12709524Y-8154962D02*
X12719048Y-8154962D01*
X12719048Y-8154962D02*
X12733333Y-8159724D01*
X12733333Y-8159724D02*
X12738095Y-8164486D01*
X12771429Y-8154962D02*
X12833333Y-8154962D01*
X12833333Y-8154962D02*
X12800000Y-8193057D01*
X12800000Y-8193057D02*
X12814286Y-8193057D01*
X12814286Y-8193057D02*
X12823809Y-8197819D01*
X12823809Y-8197819D02*
X12828571Y-8202581D01*
X12828571Y-8202581D02*
X12833333Y-8212105D01*
X12833333Y-8212105D02*
X12833333Y-8235914D01*
X12833333Y-8235914D02*
X12828571Y-8245438D01*
X12828571Y-8245438D02*
X12823809Y-8250200D01*
X12823809Y-8250200D02*
X12814286Y-8254962D01*
X12814286Y-8254962D02*
X12785714Y-8254962D01*
X12785714Y-8254962D02*
X12776190Y-8250200D01*
X12776190Y-8250200D02*
X12771429Y-8245438D01*
X12895238Y-8154962D02*
X12904762Y-8154962D01*
X12904762Y-8154962D02*
X12914286Y-8159724D01*
X12914286Y-8159724D02*
X12919048Y-8164486D01*
X12919048Y-8164486D02*
X12923809Y-8174009D01*
X12923809Y-8174009D02*
X12928571Y-8193057D01*
X12928571Y-8193057D02*
X12928571Y-8216867D01*
X12928571Y-8216867D02*
X12923809Y-8235914D01*
X12923809Y-8235914D02*
X12919048Y-8245438D01*
X12919048Y-8245438D02*
X12914286Y-8250200D01*
X12914286Y-8250200D02*
X12904762Y-8254962D01*
X12904762Y-8254962D02*
X12895238Y-8254962D01*
X12895238Y-8254962D02*
X12885714Y-8250200D01*
X12885714Y-8250200D02*
X12880952Y-8245438D01*
X12880952Y-8245438D02*
X12876190Y-8235914D01*
X12876190Y-8235914D02*
X12871429Y-8216867D01*
X12871429Y-8216867D02*
X12871429Y-8193057D01*
X12871429Y-8193057D02*
X12876190Y-8174009D01*
X12876190Y-8174009D02*
X12880952Y-8164486D01*
X12880952Y-8164486D02*
X12885714Y-8159724D01*
X12885714Y-8159724D02*
X12895238Y-8154962D01*
X12961905Y-8154962D02*
X13028571Y-8154962D01*
X13028571Y-8154962D02*
X12985714Y-8254962D01*
X12975438Y-7481905D02*
X12980200Y-7486667D01*
X12980200Y-7486667D02*
X12984962Y-7500952D01*
X12984962Y-7500952D02*
X12984962Y-7510476D01*
X12984962Y-7510476D02*
X12980200Y-7524762D01*
X12980200Y-7524762D02*
X12970676Y-7534286D01*
X12970676Y-7534286D02*
X12961152Y-7539047D01*
X12961152Y-7539047D02*
X12942105Y-7543809D01*
X12942105Y-7543809D02*
X12927819Y-7543809D01*
X12927819Y-7543809D02*
X12908771Y-7539047D01*
X12908771Y-7539047D02*
X12899248Y-7534286D01*
X12899248Y-7534286D02*
X12889724Y-7524762D01*
X12889724Y-7524762D02*
X12884962Y-7510476D01*
X12884962Y-7510476D02*
X12884962Y-7500952D01*
X12884962Y-7500952D02*
X12889724Y-7486667D01*
X12889724Y-7486667D02*
X12894486Y-7481905D01*
X12884962Y-7448571D02*
X12884962Y-7386667D01*
X12884962Y-7386667D02*
X12923057Y-7420000D01*
X12923057Y-7420000D02*
X12923057Y-7405714D01*
X12923057Y-7405714D02*
X12927819Y-7396190D01*
X12927819Y-7396190D02*
X12932581Y-7391428D01*
X12932581Y-7391428D02*
X12942105Y-7386667D01*
X12942105Y-7386667D02*
X12965914Y-7386667D01*
X12965914Y-7386667D02*
X12975438Y-7391428D01*
X12975438Y-7391428D02*
X12980200Y-7396190D01*
X12980200Y-7396190D02*
X12984962Y-7405714D01*
X12984962Y-7405714D02*
X12984962Y-7434286D01*
X12984962Y-7434286D02*
X12980200Y-7443809D01*
X12980200Y-7443809D02*
X12975438Y-7448571D01*
X12884962Y-7324762D02*
X12884962Y-7315238D01*
X12884962Y-7315238D02*
X12889724Y-7305714D01*
X12889724Y-7305714D02*
X12894486Y-7300952D01*
X12894486Y-7300952D02*
X12904009Y-7296190D01*
X12904009Y-7296190D02*
X12923057Y-7291428D01*
X12923057Y-7291428D02*
X12946867Y-7291428D01*
X12946867Y-7291428D02*
X12965914Y-7296190D01*
X12965914Y-7296190D02*
X12975438Y-7300952D01*
X12975438Y-7300952D02*
X12980200Y-7305714D01*
X12980200Y-7305714D02*
X12984962Y-7315238D01*
X12984962Y-7315238D02*
X12984962Y-7324762D01*
X12984962Y-7324762D02*
X12980200Y-7334286D01*
X12980200Y-7334286D02*
X12975438Y-7339047D01*
X12975438Y-7339047D02*
X12965914Y-7343809D01*
X12965914Y-7343809D02*
X12946867Y-7348571D01*
X12946867Y-7348571D02*
X12923057Y-7348571D01*
X12923057Y-7348571D02*
X12904009Y-7343809D01*
X12904009Y-7343809D02*
X12894486Y-7339047D01*
X12894486Y-7339047D02*
X12889724Y-7334286D01*
X12889724Y-7334286D02*
X12884962Y-7324762D01*
X12918295Y-7205714D02*
X12984962Y-7205714D01*
X12880200Y-7229524D02*
X12951628Y-7253333D01*
X12951628Y-7253333D02*
X12951628Y-7191428D01*
X14178095Y-7715438D02*
X14173333Y-7720200D01*
X14173333Y-7720200D02*
X14159048Y-7724962D01*
X14159048Y-7724962D02*
X14149524Y-7724962D01*
X14149524Y-7724962D02*
X14135238Y-7720200D01*
X14135238Y-7720200D02*
X14125714Y-7710676D01*
X14125714Y-7710676D02*
X14120952Y-7701152D01*
X14120952Y-7701152D02*
X14116190Y-7682105D01*
X14116190Y-7682105D02*
X14116190Y-7667819D01*
X14116190Y-7667819D02*
X14120952Y-7648771D01*
X14120952Y-7648771D02*
X14125714Y-7639248D01*
X14125714Y-7639248D02*
X14135238Y-7629724D01*
X14135238Y-7629724D02*
X14149524Y-7624962D01*
X14149524Y-7624962D02*
X14159048Y-7624962D01*
X14159048Y-7624962D02*
X14173333Y-7629724D01*
X14173333Y-7629724D02*
X14178095Y-7634486D01*
X14216190Y-7634486D02*
X14220952Y-7629724D01*
X14220952Y-7629724D02*
X14230476Y-7624962D01*
X14230476Y-7624962D02*
X14254286Y-7624962D01*
X14254286Y-7624962D02*
X14263809Y-7629724D01*
X14263809Y-7629724D02*
X14268571Y-7634486D01*
X14268571Y-7634486D02*
X14273333Y-7644009D01*
X14273333Y-7644009D02*
X14273333Y-7653533D01*
X14273333Y-7653533D02*
X14268571Y-7667819D01*
X14268571Y-7667819D02*
X14211429Y-7724962D01*
X14211429Y-7724962D02*
X14273333Y-7724962D01*
X14335238Y-7624962D02*
X14344762Y-7624962D01*
X14344762Y-7624962D02*
X14354286Y-7629724D01*
X14354286Y-7629724D02*
X14359048Y-7634486D01*
X14359048Y-7634486D02*
X14363809Y-7644009D01*
X14363809Y-7644009D02*
X14368571Y-7663057D01*
X14368571Y-7663057D02*
X14368571Y-7686867D01*
X14368571Y-7686867D02*
X14363809Y-7705914D01*
X14363809Y-7705914D02*
X14359048Y-7715438D01*
X14359048Y-7715438D02*
X14354286Y-7720200D01*
X14354286Y-7720200D02*
X14344762Y-7724962D01*
X14344762Y-7724962D02*
X14335238Y-7724962D01*
X14335238Y-7724962D02*
X14325714Y-7720200D01*
X14325714Y-7720200D02*
X14320952Y-7715438D01*
X14320952Y-7715438D02*
X14316190Y-7705914D01*
X14316190Y-7705914D02*
X14311429Y-7686867D01*
X14311429Y-7686867D02*
X14311429Y-7663057D01*
X14311429Y-7663057D02*
X14316190Y-7644009D01*
X14316190Y-7644009D02*
X14320952Y-7634486D01*
X14320952Y-7634486D02*
X14325714Y-7629724D01*
X14325714Y-7629724D02*
X14335238Y-7624962D01*
X14454286Y-7658295D02*
X14454286Y-7724962D01*
X14430476Y-7620200D02*
X14406667Y-7691628D01*
X14406667Y-7691628D02*
X14468571Y-7691628D01*
X15434962Y-11059048D02*
X15334962Y-11059048D01*
X15334962Y-11059048D02*
X15334962Y-11035238D01*
X15334962Y-11035238D02*
X15339724Y-11020952D01*
X15339724Y-11020952D02*
X15349248Y-11011429D01*
X15349248Y-11011429D02*
X15358771Y-11006667D01*
X15358771Y-11006667D02*
X15377819Y-11001905D01*
X15377819Y-11001905D02*
X15392105Y-11001905D01*
X15392105Y-11001905D02*
X15411152Y-11006667D01*
X15411152Y-11006667D02*
X15420676Y-11011429D01*
X15420676Y-11011429D02*
X15430200Y-11020952D01*
X15430200Y-11020952D02*
X15434962Y-11035238D01*
X15434962Y-11035238D02*
X15434962Y-11059048D01*
X15368295Y-10916190D02*
X15434962Y-10916190D01*
X15330200Y-10940000D02*
X15401628Y-10963809D01*
X15401628Y-10963809D02*
X15401628Y-10901905D01*
X15334962Y-10844762D02*
X15334962Y-10835238D01*
X15334962Y-10835238D02*
X15339724Y-10825714D01*
X15339724Y-10825714D02*
X15344486Y-10820952D01*
X15344486Y-10820952D02*
X15354009Y-10816190D01*
X15354009Y-10816190D02*
X15373057Y-10811429D01*
X15373057Y-10811429D02*
X15396867Y-10811429D01*
X15396867Y-10811429D02*
X15415914Y-10816190D01*
X15415914Y-10816190D02*
X15425438Y-10820952D01*
X15425438Y-10820952D02*
X15430200Y-10825714D01*
X15430200Y-10825714D02*
X15434962Y-10835238D01*
X15434962Y-10835238D02*
X15434962Y-10844762D01*
X15434962Y-10844762D02*
X15430200Y-10854286D01*
X15430200Y-10854286D02*
X15425438Y-10859048D01*
X15425438Y-10859048D02*
X15415914Y-10863809D01*
X15415914Y-10863809D02*
X15396867Y-10868571D01*
X15396867Y-10868571D02*
X15373057Y-10868571D01*
X15373057Y-10868571D02*
X15354009Y-10863809D01*
X15354009Y-10863809D02*
X15344486Y-10859048D01*
X15344486Y-10859048D02*
X15339724Y-10854286D01*
X15339724Y-10854286D02*
X15334962Y-10844762D01*
X15377819Y-10754286D02*
X15373057Y-10763809D01*
X15373057Y-10763809D02*
X15368295Y-10768571D01*
X15368295Y-10768571D02*
X15358771Y-10773333D01*
X15358771Y-10773333D02*
X15354009Y-10773333D01*
X15354009Y-10773333D02*
X15344486Y-10768571D01*
X15344486Y-10768571D02*
X15339724Y-10763809D01*
X15339724Y-10763809D02*
X15334962Y-10754286D01*
X15334962Y-10754286D02*
X15334962Y-10735238D01*
X15334962Y-10735238D02*
X15339724Y-10725714D01*
X15339724Y-10725714D02*
X15344486Y-10720952D01*
X15344486Y-10720952D02*
X15354009Y-10716190D01*
X15354009Y-10716190D02*
X15358771Y-10716190D01*
X15358771Y-10716190D02*
X15368295Y-10720952D01*
X15368295Y-10720952D02*
X15373057Y-10725714D01*
X15373057Y-10725714D02*
X15377819Y-10735238D01*
X15377819Y-10735238D02*
X15377819Y-10754286D01*
X15377819Y-10754286D02*
X15382581Y-10763809D01*
X15382581Y-10763809D02*
X15387343Y-10768571D01*
X15387343Y-10768571D02*
X15396867Y-10773333D01*
X15396867Y-10773333D02*
X15415914Y-10773333D01*
X15415914Y-10773333D02*
X15425438Y-10768571D01*
X15425438Y-10768571D02*
X15430200Y-10763809D01*
X15430200Y-10763809D02*
X15434962Y-10754286D01*
X15434962Y-10754286D02*
X15434962Y-10735238D01*
X15434962Y-10735238D02*
X15430200Y-10725714D01*
X15430200Y-10725714D02*
X15425438Y-10720952D01*
X15425438Y-10720952D02*
X15415914Y-10716190D01*
X15415914Y-10716190D02*
X15396867Y-10716190D01*
X15396867Y-10716190D02*
X15387343Y-10720952D01*
X15387343Y-10720952D02*
X15382581Y-10725714D01*
X15382581Y-10725714D02*
X15377819Y-10735238D01*
X13294962Y-11209047D02*
X13194962Y-11209047D01*
X13194962Y-11209047D02*
X13194962Y-11185238D01*
X13194962Y-11185238D02*
X13199724Y-11170952D01*
X13199724Y-11170952D02*
X13209248Y-11161429D01*
X13209248Y-11161429D02*
X13218771Y-11156667D01*
X13218771Y-11156667D02*
X13237819Y-11151905D01*
X13237819Y-11151905D02*
X13252105Y-11151905D01*
X13252105Y-11151905D02*
X13271152Y-11156667D01*
X13271152Y-11156667D02*
X13280676Y-11161429D01*
X13280676Y-11161429D02*
X13290200Y-11170952D01*
X13290200Y-11170952D02*
X13294962Y-11185238D01*
X13294962Y-11185238D02*
X13294962Y-11209047D01*
X13228295Y-11066190D02*
X13294962Y-11066190D01*
X13190200Y-11090000D02*
X13261628Y-11113809D01*
X13261628Y-11113809D02*
X13261628Y-11051905D01*
X13194962Y-10994762D02*
X13194962Y-10985238D01*
X13194962Y-10985238D02*
X13199724Y-10975714D01*
X13199724Y-10975714D02*
X13204486Y-10970952D01*
X13204486Y-10970952D02*
X13214009Y-10966190D01*
X13214009Y-10966190D02*
X13233057Y-10961429D01*
X13233057Y-10961429D02*
X13256867Y-10961429D01*
X13256867Y-10961429D02*
X13275914Y-10966190D01*
X13275914Y-10966190D02*
X13285438Y-10970952D01*
X13285438Y-10970952D02*
X13290200Y-10975714D01*
X13290200Y-10975714D02*
X13294962Y-10985238D01*
X13294962Y-10985238D02*
X13294962Y-10994762D01*
X13294962Y-10994762D02*
X13290200Y-11004286D01*
X13290200Y-11004286D02*
X13285438Y-11009048D01*
X13285438Y-11009048D02*
X13275914Y-11013809D01*
X13275914Y-11013809D02*
X13256867Y-11018571D01*
X13256867Y-11018571D02*
X13233057Y-11018571D01*
X13233057Y-11018571D02*
X13214009Y-11013809D01*
X13214009Y-11013809D02*
X13204486Y-11009048D01*
X13204486Y-11009048D02*
X13199724Y-11004286D01*
X13199724Y-11004286D02*
X13194962Y-10994762D01*
X13194962Y-10928095D02*
X13194962Y-10866190D01*
X13194962Y-10866190D02*
X13233057Y-10899524D01*
X13233057Y-10899524D02*
X13233057Y-10885238D01*
X13233057Y-10885238D02*
X13237819Y-10875714D01*
X13237819Y-10875714D02*
X13242581Y-10870952D01*
X13242581Y-10870952D02*
X13252105Y-10866190D01*
X13252105Y-10866190D02*
X13275914Y-10866190D01*
X13275914Y-10866190D02*
X13285438Y-10870952D01*
X13285438Y-10870952D02*
X13290200Y-10875714D01*
X13290200Y-10875714D02*
X13294962Y-10885238D01*
X13294962Y-10885238D02*
X13294962Y-10913809D01*
X13294962Y-10913809D02*
X13290200Y-10923333D01*
X13290200Y-10923333D02*
X13285438Y-10928095D01*
X15338095Y-8995438D02*
X15333333Y-9000200D01*
X15333333Y-9000200D02*
X15319048Y-9004962D01*
X15319048Y-9004962D02*
X15309524Y-9004962D01*
X15309524Y-9004962D02*
X15295238Y-9000200D01*
X15295238Y-9000200D02*
X15285714Y-8990676D01*
X15285714Y-8990676D02*
X15280952Y-8981152D01*
X15280952Y-8981152D02*
X15276190Y-8962105D01*
X15276190Y-8962105D02*
X15276190Y-8947819D01*
X15276190Y-8947819D02*
X15280952Y-8928771D01*
X15280952Y-8928771D02*
X15285714Y-8919248D01*
X15285714Y-8919248D02*
X15295238Y-8909724D01*
X15295238Y-8909724D02*
X15309524Y-8904962D01*
X15309524Y-8904962D02*
X15319048Y-8904962D01*
X15319048Y-8904962D02*
X15333333Y-8909724D01*
X15333333Y-8909724D02*
X15338095Y-8914486D01*
X15423809Y-8938295D02*
X15423809Y-9004962D01*
X15400000Y-8900200D02*
X15376190Y-8971629D01*
X15376190Y-8971629D02*
X15438095Y-8971629D01*
X15495238Y-8904962D02*
X15504762Y-8904962D01*
X15504762Y-8904962D02*
X15514286Y-8909724D01*
X15514286Y-8909724D02*
X15519048Y-8914486D01*
X15519048Y-8914486D02*
X15523809Y-8924010D01*
X15523809Y-8924010D02*
X15528571Y-8943057D01*
X15528571Y-8943057D02*
X15528571Y-8966867D01*
X15528571Y-8966867D02*
X15523809Y-8985914D01*
X15523809Y-8985914D02*
X15519048Y-8995438D01*
X15519048Y-8995438D02*
X15514286Y-9000200D01*
X15514286Y-9000200D02*
X15504762Y-9004962D01*
X15504762Y-9004962D02*
X15495238Y-9004962D01*
X15495238Y-9004962D02*
X15485714Y-9000200D01*
X15485714Y-9000200D02*
X15480952Y-8995438D01*
X15480952Y-8995438D02*
X15476190Y-8985914D01*
X15476190Y-8985914D02*
X15471429Y-8966867D01*
X15471429Y-8966867D02*
X15471429Y-8943057D01*
X15471429Y-8943057D02*
X15476190Y-8924010D01*
X15476190Y-8924010D02*
X15480952Y-8914486D01*
X15480952Y-8914486D02*
X15485714Y-8909724D01*
X15485714Y-8909724D02*
X15495238Y-8904962D01*
X15561905Y-8904962D02*
X15628571Y-8904962D01*
X15628571Y-8904962D02*
X15585714Y-9004962D01*
X12574962Y-7341905D02*
X12527343Y-7375238D01*
X12574962Y-7399047D02*
X12474962Y-7399047D01*
X12474962Y-7399047D02*
X12474962Y-7360952D01*
X12474962Y-7360952D02*
X12479724Y-7351428D01*
X12479724Y-7351428D02*
X12484486Y-7346667D01*
X12484486Y-7346667D02*
X12494009Y-7341905D01*
X12494009Y-7341905D02*
X12508295Y-7341905D01*
X12508295Y-7341905D02*
X12517819Y-7346667D01*
X12517819Y-7346667D02*
X12522581Y-7351428D01*
X12522581Y-7351428D02*
X12527343Y-7360952D01*
X12527343Y-7360952D02*
X12527343Y-7399047D01*
X12474962Y-7308571D02*
X12474962Y-7246667D01*
X12474962Y-7246667D02*
X12513057Y-7280000D01*
X12513057Y-7280000D02*
X12513057Y-7265714D01*
X12513057Y-7265714D02*
X12517819Y-7256190D01*
X12517819Y-7256190D02*
X12522581Y-7251428D01*
X12522581Y-7251428D02*
X12532105Y-7246667D01*
X12532105Y-7246667D02*
X12555914Y-7246667D01*
X12555914Y-7246667D02*
X12565438Y-7251428D01*
X12565438Y-7251428D02*
X12570200Y-7256190D01*
X12570200Y-7256190D02*
X12574962Y-7265714D01*
X12574962Y-7265714D02*
X12574962Y-7294286D01*
X12574962Y-7294286D02*
X12570200Y-7303809D01*
X12570200Y-7303809D02*
X12565438Y-7308571D01*
X12474962Y-7184762D02*
X12474962Y-7175238D01*
X12474962Y-7175238D02*
X12479724Y-7165714D01*
X12479724Y-7165714D02*
X12484486Y-7160952D01*
X12484486Y-7160952D02*
X12494009Y-7156190D01*
X12494009Y-7156190D02*
X12513057Y-7151428D01*
X12513057Y-7151428D02*
X12536867Y-7151428D01*
X12536867Y-7151428D02*
X12555914Y-7156190D01*
X12555914Y-7156190D02*
X12565438Y-7160952D01*
X12565438Y-7160952D02*
X12570200Y-7165714D01*
X12570200Y-7165714D02*
X12574962Y-7175238D01*
X12574962Y-7175238D02*
X12574962Y-7184762D01*
X12574962Y-7184762D02*
X12570200Y-7194286D01*
X12570200Y-7194286D02*
X12565438Y-7199047D01*
X12565438Y-7199047D02*
X12555914Y-7203809D01*
X12555914Y-7203809D02*
X12536867Y-7208571D01*
X12536867Y-7208571D02*
X12513057Y-7208571D01*
X12513057Y-7208571D02*
X12494009Y-7203809D01*
X12494009Y-7203809D02*
X12484486Y-7199047D01*
X12484486Y-7199047D02*
X12479724Y-7194286D01*
X12479724Y-7194286D02*
X12474962Y-7184762D01*
X12508295Y-7065714D02*
X12574962Y-7065714D01*
X12470200Y-7089524D02*
X12541628Y-7113333D01*
X12541628Y-7113333D02*
X12541628Y-7051428D01*
X11988095Y-7965438D02*
X11983333Y-7970200D01*
X11983333Y-7970200D02*
X11969048Y-7974962D01*
X11969048Y-7974962D02*
X11959524Y-7974962D01*
X11959524Y-7974962D02*
X11945238Y-7970200D01*
X11945238Y-7970200D02*
X11935714Y-7960676D01*
X11935714Y-7960676D02*
X11930952Y-7951152D01*
X11930952Y-7951152D02*
X11926190Y-7932105D01*
X11926190Y-7932105D02*
X11926190Y-7917819D01*
X11926190Y-7917819D02*
X11930952Y-7898771D01*
X11930952Y-7898771D02*
X11935714Y-7889248D01*
X11935714Y-7889248D02*
X11945238Y-7879724D01*
X11945238Y-7879724D02*
X11959524Y-7874962D01*
X11959524Y-7874962D02*
X11969048Y-7874962D01*
X11969048Y-7874962D02*
X11983333Y-7879724D01*
X11983333Y-7879724D02*
X11988095Y-7884486D01*
X12021429Y-7874962D02*
X12083333Y-7874962D01*
X12083333Y-7874962D02*
X12050000Y-7913057D01*
X12050000Y-7913057D02*
X12064286Y-7913057D01*
X12064286Y-7913057D02*
X12073809Y-7917819D01*
X12073809Y-7917819D02*
X12078571Y-7922581D01*
X12078571Y-7922581D02*
X12083333Y-7932105D01*
X12083333Y-7932105D02*
X12083333Y-7955914D01*
X12083333Y-7955914D02*
X12078571Y-7965438D01*
X12078571Y-7965438D02*
X12073809Y-7970200D01*
X12073809Y-7970200D02*
X12064286Y-7974962D01*
X12064286Y-7974962D02*
X12035714Y-7974962D01*
X12035714Y-7974962D02*
X12026190Y-7970200D01*
X12026190Y-7970200D02*
X12021429Y-7965438D01*
X12145238Y-7874962D02*
X12154762Y-7874962D01*
X12154762Y-7874962D02*
X12164286Y-7879724D01*
X12164286Y-7879724D02*
X12169048Y-7884486D01*
X12169048Y-7884486D02*
X12173809Y-7894009D01*
X12173809Y-7894009D02*
X12178571Y-7913057D01*
X12178571Y-7913057D02*
X12178571Y-7936867D01*
X12178571Y-7936867D02*
X12173809Y-7955914D01*
X12173809Y-7955914D02*
X12169048Y-7965438D01*
X12169048Y-7965438D02*
X12164286Y-7970200D01*
X12164286Y-7970200D02*
X12154762Y-7974962D01*
X12154762Y-7974962D02*
X12145238Y-7974962D01*
X12145238Y-7974962D02*
X12135714Y-7970200D01*
X12135714Y-7970200D02*
X12130952Y-7965438D01*
X12130952Y-7965438D02*
X12126190Y-7955914D01*
X12126190Y-7955914D02*
X12121429Y-7936867D01*
X12121429Y-7936867D02*
X12121429Y-7913057D01*
X12121429Y-7913057D02*
X12126190Y-7894009D01*
X12126190Y-7894009D02*
X12130952Y-7884486D01*
X12130952Y-7884486D02*
X12135714Y-7879724D01*
X12135714Y-7879724D02*
X12145238Y-7874962D01*
X12235714Y-7917819D02*
X12226190Y-7913057D01*
X12226190Y-7913057D02*
X12221429Y-7908295D01*
X12221429Y-7908295D02*
X12216667Y-7898771D01*
X12216667Y-7898771D02*
X12216667Y-7894009D01*
X12216667Y-7894009D02*
X12221429Y-7884486D01*
X12221429Y-7884486D02*
X12226190Y-7879724D01*
X12226190Y-7879724D02*
X12235714Y-7874962D01*
X12235714Y-7874962D02*
X12254762Y-7874962D01*
X12254762Y-7874962D02*
X12264286Y-7879724D01*
X12264286Y-7879724D02*
X12269048Y-7884486D01*
X12269048Y-7884486D02*
X12273809Y-7894009D01*
X12273809Y-7894009D02*
X12273809Y-7898771D01*
X12273809Y-7898771D02*
X12269048Y-7908295D01*
X12269048Y-7908295D02*
X12264286Y-7913057D01*
X12264286Y-7913057D02*
X12254762Y-7917819D01*
X12254762Y-7917819D02*
X12235714Y-7917819D01*
X12235714Y-7917819D02*
X12226190Y-7922581D01*
X12226190Y-7922581D02*
X12221429Y-7927343D01*
X12221429Y-7927343D02*
X12216667Y-7936867D01*
X12216667Y-7936867D02*
X12216667Y-7955914D01*
X12216667Y-7955914D02*
X12221429Y-7965438D01*
X12221429Y-7965438D02*
X12226190Y-7970200D01*
X12226190Y-7970200D02*
X12235714Y-7974962D01*
X12235714Y-7974962D02*
X12254762Y-7974962D01*
X12254762Y-7974962D02*
X12264286Y-7970200D01*
X12264286Y-7970200D02*
X12269048Y-7965438D01*
X12269048Y-7965438D02*
X12273809Y-7955914D01*
X12273809Y-7955914D02*
X12273809Y-7936867D01*
X12273809Y-7936867D02*
X12269048Y-7927343D01*
X12269048Y-7927343D02*
X12264286Y-7922581D01*
X12264286Y-7922581D02*
X12254762Y-7917819D01*
X15118095Y-10434962D02*
X15084762Y-10387343D01*
X15060952Y-10434962D02*
X15060952Y-10334962D01*
X15060952Y-10334962D02*
X15099048Y-10334962D01*
X15099048Y-10334962D02*
X15108571Y-10339724D01*
X15108571Y-10339724D02*
X15113333Y-10344486D01*
X15113333Y-10344486D02*
X15118095Y-10354010D01*
X15118095Y-10354010D02*
X15118095Y-10368295D01*
X15118095Y-10368295D02*
X15113333Y-10377819D01*
X15113333Y-10377819D02*
X15108571Y-10382581D01*
X15108571Y-10382581D02*
X15099048Y-10387343D01*
X15099048Y-10387343D02*
X15060952Y-10387343D01*
X15208571Y-10334962D02*
X15160952Y-10334962D01*
X15160952Y-10334962D02*
X15156190Y-10382581D01*
X15156190Y-10382581D02*
X15160952Y-10377819D01*
X15160952Y-10377819D02*
X15170476Y-10373057D01*
X15170476Y-10373057D02*
X15194286Y-10373057D01*
X15194286Y-10373057D02*
X15203809Y-10377819D01*
X15203809Y-10377819D02*
X15208571Y-10382581D01*
X15208571Y-10382581D02*
X15213333Y-10392105D01*
X15213333Y-10392105D02*
X15213333Y-10415914D01*
X15213333Y-10415914D02*
X15208571Y-10425438D01*
X15208571Y-10425438D02*
X15203809Y-10430200D01*
X15203809Y-10430200D02*
X15194286Y-10434962D01*
X15194286Y-10434962D02*
X15170476Y-10434962D01*
X15170476Y-10434962D02*
X15160952Y-10430200D01*
X15160952Y-10430200D02*
X15156190Y-10425438D01*
X15308571Y-10434962D02*
X15251429Y-10434962D01*
X15280000Y-10434962D02*
X15280000Y-10334962D01*
X15280000Y-10334962D02*
X15270476Y-10349248D01*
X15270476Y-10349248D02*
X15260952Y-10358771D01*
X15260952Y-10358771D02*
X15251429Y-10363533D01*
X15403809Y-10434962D02*
X15346667Y-10434962D01*
X15375238Y-10434962D02*
X15375238Y-10334962D01*
X15375238Y-10334962D02*
X15365714Y-10349248D01*
X15365714Y-10349248D02*
X15356190Y-10358771D01*
X15356190Y-10358771D02*
X15346667Y-10363533D01*
X14018095Y-9174962D02*
X13984762Y-9127343D01*
X13960952Y-9174962D02*
X13960952Y-9074962D01*
X13960952Y-9074962D02*
X13999048Y-9074962D01*
X13999048Y-9074962D02*
X14008571Y-9079724D01*
X14008571Y-9079724D02*
X14013333Y-9084486D01*
X14013333Y-9084486D02*
X14018095Y-9094010D01*
X14018095Y-9094010D02*
X14018095Y-9108295D01*
X14018095Y-9108295D02*
X14013333Y-9117819D01*
X14013333Y-9117819D02*
X14008571Y-9122581D01*
X14008571Y-9122581D02*
X13999048Y-9127343D01*
X13999048Y-9127343D02*
X13960952Y-9127343D01*
X14108571Y-9074962D02*
X14060952Y-9074962D01*
X14060952Y-9074962D02*
X14056190Y-9122581D01*
X14056190Y-9122581D02*
X14060952Y-9117819D01*
X14060952Y-9117819D02*
X14070476Y-9113057D01*
X14070476Y-9113057D02*
X14094286Y-9113057D01*
X14094286Y-9113057D02*
X14103809Y-9117819D01*
X14103809Y-9117819D02*
X14108571Y-9122581D01*
X14108571Y-9122581D02*
X14113333Y-9132105D01*
X14113333Y-9132105D02*
X14113333Y-9155914D01*
X14113333Y-9155914D02*
X14108571Y-9165438D01*
X14108571Y-9165438D02*
X14103809Y-9170200D01*
X14103809Y-9170200D02*
X14094286Y-9174962D01*
X14094286Y-9174962D02*
X14070476Y-9174962D01*
X14070476Y-9174962D02*
X14060952Y-9170200D01*
X14060952Y-9170200D02*
X14056190Y-9165438D01*
X14208571Y-9174962D02*
X14151429Y-9174962D01*
X14180000Y-9174962D02*
X14180000Y-9074962D01*
X14180000Y-9074962D02*
X14170476Y-9089248D01*
X14170476Y-9089248D02*
X14160952Y-9098771D01*
X14160952Y-9098771D02*
X14151429Y-9103533D01*
X14270476Y-9074962D02*
X14280000Y-9074962D01*
X14280000Y-9074962D02*
X14289524Y-9079724D01*
X14289524Y-9079724D02*
X14294286Y-9084486D01*
X14294286Y-9084486D02*
X14299048Y-9094010D01*
X14299048Y-9094010D02*
X14303809Y-9113057D01*
X14303809Y-9113057D02*
X14303809Y-9136867D01*
X14303809Y-9136867D02*
X14299048Y-9155914D01*
X14299048Y-9155914D02*
X14294286Y-9165438D01*
X14294286Y-9165438D02*
X14289524Y-9170200D01*
X14289524Y-9170200D02*
X14280000Y-9174962D01*
X14280000Y-9174962D02*
X14270476Y-9174962D01*
X14270476Y-9174962D02*
X14260952Y-9170200D01*
X14260952Y-9170200D02*
X14256190Y-9165438D01*
X14256190Y-9165438D02*
X14251429Y-9155914D01*
X14251429Y-9155914D02*
X14246667Y-9136867D01*
X14246667Y-9136867D02*
X14246667Y-9113057D01*
X14246667Y-9113057D02*
X14251429Y-9094010D01*
X14251429Y-9094010D02*
X14256190Y-9084486D01*
X14256190Y-9084486D02*
X14260952Y-9079724D01*
X14260952Y-9079724D02*
X14270476Y-9074962D01*
X14091428Y-7804962D02*
X14091428Y-7876390D01*
X14091428Y-7876390D02*
X14086667Y-7890676D01*
X14086667Y-7890676D02*
X14077143Y-7900200D01*
X14077143Y-7900200D02*
X14062857Y-7904962D01*
X14062857Y-7904962D02*
X14053333Y-7904962D01*
X14129524Y-7804962D02*
X14191428Y-7804962D01*
X14191428Y-7804962D02*
X14158095Y-7843057D01*
X14158095Y-7843057D02*
X14172381Y-7843057D01*
X14172381Y-7843057D02*
X14181905Y-7847819D01*
X14181905Y-7847819D02*
X14186667Y-7852581D01*
X14186667Y-7852581D02*
X14191428Y-7862105D01*
X14191428Y-7862105D02*
X14191428Y-7885914D01*
X14191428Y-7885914D02*
X14186667Y-7895438D01*
X14186667Y-7895438D02*
X14181905Y-7900200D01*
X14181905Y-7900200D02*
X14172381Y-7904962D01*
X14172381Y-7904962D02*
X14143809Y-7904962D01*
X14143809Y-7904962D02*
X14134286Y-7900200D01*
X14134286Y-7900200D02*
X14129524Y-7895438D01*
X14253333Y-7804962D02*
X14262857Y-7804962D01*
X14262857Y-7804962D02*
X14272381Y-7809724D01*
X14272381Y-7809724D02*
X14277143Y-7814486D01*
X14277143Y-7814486D02*
X14281905Y-7824009D01*
X14281905Y-7824009D02*
X14286667Y-7843057D01*
X14286667Y-7843057D02*
X14286667Y-7866867D01*
X14286667Y-7866867D02*
X14281905Y-7885914D01*
X14281905Y-7885914D02*
X14277143Y-7895438D01*
X14277143Y-7895438D02*
X14272381Y-7900200D01*
X14272381Y-7900200D02*
X14262857Y-7904962D01*
X14262857Y-7904962D02*
X14253333Y-7904962D01*
X14253333Y-7904962D02*
X14243809Y-7900200D01*
X14243809Y-7900200D02*
X14239048Y-7895438D01*
X14239048Y-7895438D02*
X14234286Y-7885914D01*
X14234286Y-7885914D02*
X14229524Y-7866867D01*
X14229524Y-7866867D02*
X14229524Y-7843057D01*
X14229524Y-7843057D02*
X14234286Y-7824009D01*
X14234286Y-7824009D02*
X14239048Y-7814486D01*
X14239048Y-7814486D02*
X14243809Y-7809724D01*
X14243809Y-7809724D02*
X14253333Y-7804962D01*
X14320000Y-7804962D02*
X14381905Y-7804962D01*
X14381905Y-7804962D02*
X14348571Y-7843057D01*
X14348571Y-7843057D02*
X14362857Y-7843057D01*
X14362857Y-7843057D02*
X14372381Y-7847819D01*
X14372381Y-7847819D02*
X14377143Y-7852581D01*
X14377143Y-7852581D02*
X14381905Y-7862105D01*
X14381905Y-7862105D02*
X14381905Y-7885914D01*
X14381905Y-7885914D02*
X14377143Y-7895438D01*
X14377143Y-7895438D02*
X14372381Y-7900200D01*
X14372381Y-7900200D02*
X14362857Y-7904962D01*
X14362857Y-7904962D02*
X14334286Y-7904962D01*
X14334286Y-7904962D02*
X14324762Y-7900200D01*
X14324762Y-7900200D02*
X14320000Y-7895438D01*
X13948571Y-8894962D02*
X14005714Y-8894962D01*
X13977143Y-8994962D02*
X13977143Y-8894962D01*
X14039048Y-8994962D02*
X14039048Y-8894962D01*
X14039048Y-8894962D02*
X14077143Y-8894962D01*
X14077143Y-8894962D02*
X14086667Y-8899724D01*
X14086667Y-8899724D02*
X14091428Y-8904486D01*
X14091428Y-8904486D02*
X14096190Y-8914010D01*
X14096190Y-8914010D02*
X14096190Y-8928295D01*
X14096190Y-8928295D02*
X14091428Y-8937819D01*
X14091428Y-8937819D02*
X14086667Y-8942581D01*
X14086667Y-8942581D02*
X14077143Y-8947343D01*
X14077143Y-8947343D02*
X14039048Y-8947343D01*
X14181905Y-8894962D02*
X14162857Y-8894962D01*
X14162857Y-8894962D02*
X14153333Y-8899724D01*
X14153333Y-8899724D02*
X14148571Y-8904486D01*
X14148571Y-8904486D02*
X14139048Y-8918771D01*
X14139048Y-8918771D02*
X14134286Y-8937819D01*
X14134286Y-8937819D02*
X14134286Y-8975914D01*
X14134286Y-8975914D02*
X14139048Y-8985438D01*
X14139048Y-8985438D02*
X14143809Y-8990200D01*
X14143809Y-8990200D02*
X14153333Y-8994962D01*
X14153333Y-8994962D02*
X14172381Y-8994962D01*
X14172381Y-8994962D02*
X14181905Y-8990200D01*
X14181905Y-8990200D02*
X14186667Y-8985438D01*
X14186667Y-8985438D02*
X14191428Y-8975914D01*
X14191428Y-8975914D02*
X14191428Y-8952105D01*
X14191428Y-8952105D02*
X14186667Y-8942581D01*
X14186667Y-8942581D02*
X14181905Y-8937819D01*
X14181905Y-8937819D02*
X14172381Y-8933057D01*
X14172381Y-8933057D02*
X14153333Y-8933057D01*
X14153333Y-8933057D02*
X14143809Y-8937819D01*
X14143809Y-8937819D02*
X14139048Y-8942581D01*
X14139048Y-8942581D02*
X14134286Y-8952105D01*
X14253333Y-8894962D02*
X14262857Y-8894962D01*
X14262857Y-8894962D02*
X14272381Y-8899724D01*
X14272381Y-8899724D02*
X14277143Y-8904486D01*
X14277143Y-8904486D02*
X14281905Y-8914010D01*
X14281905Y-8914010D02*
X14286667Y-8933057D01*
X14286667Y-8933057D02*
X14286667Y-8956867D01*
X14286667Y-8956867D02*
X14281905Y-8975914D01*
X14281905Y-8975914D02*
X14277143Y-8985438D01*
X14277143Y-8985438D02*
X14272381Y-8990200D01*
X14272381Y-8990200D02*
X14262857Y-8994962D01*
X14262857Y-8994962D02*
X14253333Y-8994962D01*
X14253333Y-8994962D02*
X14243809Y-8990200D01*
X14243809Y-8990200D02*
X14239048Y-8985438D01*
X14239048Y-8985438D02*
X14234286Y-8975914D01*
X14234286Y-8975914D02*
X14229524Y-8956867D01*
X14229524Y-8956867D02*
X14229524Y-8933057D01*
X14229524Y-8933057D02*
X14234286Y-8914010D01*
X14234286Y-8914010D02*
X14239048Y-8904486D01*
X14239048Y-8904486D02*
X14243809Y-8899724D01*
X14243809Y-8899724D02*
X14253333Y-8894962D01*
X14381905Y-8994962D02*
X14324762Y-8994962D01*
X14353333Y-8994962D02*
X14353333Y-8894962D01*
X14353333Y-8894962D02*
X14343809Y-8909248D01*
X14343809Y-8909248D02*
X14334286Y-8918771D01*
X14334286Y-8918771D02*
X14324762Y-8923533D01*
X13874962Y-8309047D02*
X13774962Y-8309047D01*
X13774962Y-8309047D02*
X13774962Y-8285238D01*
X13774962Y-8285238D02*
X13779724Y-8270952D01*
X13779724Y-8270952D02*
X13789248Y-8261428D01*
X13789248Y-8261428D02*
X13798771Y-8256667D01*
X13798771Y-8256667D02*
X13817819Y-8251905D01*
X13817819Y-8251905D02*
X13832105Y-8251905D01*
X13832105Y-8251905D02*
X13851152Y-8256667D01*
X13851152Y-8256667D02*
X13860676Y-8261428D01*
X13860676Y-8261428D02*
X13870200Y-8270952D01*
X13870200Y-8270952D02*
X13874962Y-8285238D01*
X13874962Y-8285238D02*
X13874962Y-8309047D01*
X13774962Y-8218571D02*
X13774962Y-8156667D01*
X13774962Y-8156667D02*
X13813057Y-8190000D01*
X13813057Y-8190000D02*
X13813057Y-8175714D01*
X13813057Y-8175714D02*
X13817819Y-8166190D01*
X13817819Y-8166190D02*
X13822581Y-8161428D01*
X13822581Y-8161428D02*
X13832105Y-8156667D01*
X13832105Y-8156667D02*
X13855914Y-8156667D01*
X13855914Y-8156667D02*
X13865438Y-8161428D01*
X13865438Y-8161428D02*
X13870200Y-8166190D01*
X13870200Y-8166190D02*
X13874962Y-8175714D01*
X13874962Y-8175714D02*
X13874962Y-8204286D01*
X13874962Y-8204286D02*
X13870200Y-8213809D01*
X13870200Y-8213809D02*
X13865438Y-8218571D01*
X13774962Y-8094762D02*
X13774962Y-8085238D01*
X13774962Y-8085238D02*
X13779724Y-8075714D01*
X13779724Y-8075714D02*
X13784486Y-8070952D01*
X13784486Y-8070952D02*
X13794009Y-8066190D01*
X13794009Y-8066190D02*
X13813057Y-8061428D01*
X13813057Y-8061428D02*
X13836867Y-8061428D01*
X13836867Y-8061428D02*
X13855914Y-8066190D01*
X13855914Y-8066190D02*
X13865438Y-8070952D01*
X13865438Y-8070952D02*
X13870200Y-8075714D01*
X13870200Y-8075714D02*
X13874962Y-8085238D01*
X13874962Y-8085238D02*
X13874962Y-8094762D01*
X13874962Y-8094762D02*
X13870200Y-8104286D01*
X13870200Y-8104286D02*
X13865438Y-8109047D01*
X13865438Y-8109047D02*
X13855914Y-8113809D01*
X13855914Y-8113809D02*
X13836867Y-8118571D01*
X13836867Y-8118571D02*
X13813057Y-8118571D01*
X13813057Y-8118571D02*
X13794009Y-8113809D01*
X13794009Y-8113809D02*
X13784486Y-8109047D01*
X13784486Y-8109047D02*
X13779724Y-8104286D01*
X13779724Y-8104286D02*
X13774962Y-8094762D01*
X13874962Y-7966190D02*
X13874962Y-8023333D01*
X13874962Y-7994762D02*
X13774962Y-7994762D01*
X13774962Y-7994762D02*
X13789248Y-8004286D01*
X13789248Y-8004286D02*
X13798771Y-8013809D01*
X13798771Y-8013809D02*
X13803533Y-8023333D01*
X13064962Y-11059048D02*
X12964962Y-11059048D01*
X12964962Y-11059048D02*
X12964962Y-11035238D01*
X12964962Y-11035238D02*
X12969724Y-11020952D01*
X12969724Y-11020952D02*
X12979248Y-11011429D01*
X12979248Y-11011429D02*
X12988771Y-11006667D01*
X12988771Y-11006667D02*
X13007819Y-11001905D01*
X13007819Y-11001905D02*
X13022105Y-11001905D01*
X13022105Y-11001905D02*
X13041152Y-11006667D01*
X13041152Y-11006667D02*
X13050676Y-11011429D01*
X13050676Y-11011429D02*
X13060200Y-11020952D01*
X13060200Y-11020952D02*
X13064962Y-11035238D01*
X13064962Y-11035238D02*
X13064962Y-11059048D01*
X12998295Y-10916190D02*
X13064962Y-10916190D01*
X12960200Y-10940000D02*
X13031628Y-10963809D01*
X13031628Y-10963809D02*
X13031628Y-10901905D01*
X12964962Y-10844762D02*
X12964962Y-10835238D01*
X12964962Y-10835238D02*
X12969724Y-10825714D01*
X12969724Y-10825714D02*
X12974486Y-10820952D01*
X12974486Y-10820952D02*
X12984009Y-10816190D01*
X12984009Y-10816190D02*
X13003057Y-10811429D01*
X13003057Y-10811429D02*
X13026867Y-10811429D01*
X13026867Y-10811429D02*
X13045914Y-10816190D01*
X13045914Y-10816190D02*
X13055438Y-10820952D01*
X13055438Y-10820952D02*
X13060200Y-10825714D01*
X13060200Y-10825714D02*
X13064962Y-10835238D01*
X13064962Y-10835238D02*
X13064962Y-10844762D01*
X13064962Y-10844762D02*
X13060200Y-10854286D01*
X13060200Y-10854286D02*
X13055438Y-10859048D01*
X13055438Y-10859048D02*
X13045914Y-10863809D01*
X13045914Y-10863809D02*
X13026867Y-10868571D01*
X13026867Y-10868571D02*
X13003057Y-10868571D01*
X13003057Y-10868571D02*
X12984009Y-10863809D01*
X12984009Y-10863809D02*
X12974486Y-10859048D01*
X12974486Y-10859048D02*
X12969724Y-10854286D01*
X12969724Y-10854286D02*
X12964962Y-10844762D01*
X12974486Y-10773333D02*
X12969724Y-10768571D01*
X12969724Y-10768571D02*
X12964962Y-10759048D01*
X12964962Y-10759048D02*
X12964962Y-10735238D01*
X12964962Y-10735238D02*
X12969724Y-10725714D01*
X12969724Y-10725714D02*
X12974486Y-10720952D01*
X12974486Y-10720952D02*
X12984009Y-10716190D01*
X12984009Y-10716190D02*
X12993533Y-10716190D01*
X12993533Y-10716190D02*
X13007819Y-10720952D01*
X13007819Y-10720952D02*
X13064962Y-10778095D01*
X13064962Y-10778095D02*
X13064962Y-10716190D01*
X12618095Y-8695438D02*
X12613333Y-8700200D01*
X12613333Y-8700200D02*
X12599048Y-8704962D01*
X12599048Y-8704962D02*
X12589524Y-8704962D01*
X12589524Y-8704962D02*
X12575238Y-8700200D01*
X12575238Y-8700200D02*
X12565714Y-8690676D01*
X12565714Y-8690676D02*
X12560952Y-8681152D01*
X12560952Y-8681152D02*
X12556190Y-8662105D01*
X12556190Y-8662105D02*
X12556190Y-8647819D01*
X12556190Y-8647819D02*
X12560952Y-8628771D01*
X12560952Y-8628771D02*
X12565714Y-8619248D01*
X12565714Y-8619248D02*
X12575238Y-8609724D01*
X12575238Y-8609724D02*
X12589524Y-8604962D01*
X12589524Y-8604962D02*
X12599048Y-8604962D01*
X12599048Y-8604962D02*
X12613333Y-8609724D01*
X12613333Y-8609724D02*
X12618095Y-8614486D01*
X12651429Y-8604962D02*
X12713333Y-8604962D01*
X12713333Y-8604962D02*
X12680000Y-8643057D01*
X12680000Y-8643057D02*
X12694286Y-8643057D01*
X12694286Y-8643057D02*
X12703809Y-8647819D01*
X12703809Y-8647819D02*
X12708571Y-8652581D01*
X12708571Y-8652581D02*
X12713333Y-8662105D01*
X12713333Y-8662105D02*
X12713333Y-8685914D01*
X12713333Y-8685914D02*
X12708571Y-8695438D01*
X12708571Y-8695438D02*
X12703809Y-8700200D01*
X12703809Y-8700200D02*
X12694286Y-8704962D01*
X12694286Y-8704962D02*
X12665714Y-8704962D01*
X12665714Y-8704962D02*
X12656190Y-8700200D01*
X12656190Y-8700200D02*
X12651429Y-8695438D01*
X12775238Y-8604962D02*
X12784762Y-8604962D01*
X12784762Y-8604962D02*
X12794286Y-8609724D01*
X12794286Y-8609724D02*
X12799048Y-8614486D01*
X12799048Y-8614486D02*
X12803809Y-8624010D01*
X12803809Y-8624010D02*
X12808571Y-8643057D01*
X12808571Y-8643057D02*
X12808571Y-8666867D01*
X12808571Y-8666867D02*
X12803809Y-8685914D01*
X12803809Y-8685914D02*
X12799048Y-8695438D01*
X12799048Y-8695438D02*
X12794286Y-8700200D01*
X12794286Y-8700200D02*
X12784762Y-8704962D01*
X12784762Y-8704962D02*
X12775238Y-8704962D01*
X12775238Y-8704962D02*
X12765714Y-8700200D01*
X12765714Y-8700200D02*
X12760952Y-8695438D01*
X12760952Y-8695438D02*
X12756190Y-8685914D01*
X12756190Y-8685914D02*
X12751429Y-8666867D01*
X12751429Y-8666867D02*
X12751429Y-8643057D01*
X12751429Y-8643057D02*
X12756190Y-8624010D01*
X12756190Y-8624010D02*
X12760952Y-8614486D01*
X12760952Y-8614486D02*
X12765714Y-8609724D01*
X12765714Y-8609724D02*
X12775238Y-8604962D01*
X12856190Y-8704962D02*
X12875238Y-8704962D01*
X12875238Y-8704962D02*
X12884762Y-8700200D01*
X12884762Y-8700200D02*
X12889524Y-8695438D01*
X12889524Y-8695438D02*
X12899048Y-8681152D01*
X12899048Y-8681152D02*
X12903809Y-8662105D01*
X12903809Y-8662105D02*
X12903809Y-8624010D01*
X12903809Y-8624010D02*
X12899048Y-8614486D01*
X12899048Y-8614486D02*
X12894286Y-8609724D01*
X12894286Y-8609724D02*
X12884762Y-8604962D01*
X12884762Y-8604962D02*
X12865714Y-8604962D01*
X12865714Y-8604962D02*
X12856190Y-8609724D01*
X12856190Y-8609724D02*
X12851429Y-8614486D01*
X12851429Y-8614486D02*
X12846667Y-8624010D01*
X12846667Y-8624010D02*
X12846667Y-8647819D01*
X12846667Y-8647819D02*
X12851429Y-8657343D01*
X12851429Y-8657343D02*
X12856190Y-8662105D01*
X12856190Y-8662105D02*
X12865714Y-8666867D01*
X12865714Y-8666867D02*
X12884762Y-8666867D01*
X12884762Y-8666867D02*
X12894286Y-8662105D01*
X12894286Y-8662105D02*
X12899048Y-8657343D01*
X12899048Y-8657343D02*
X12903809Y-8647819D01*
X15068095Y-9174962D02*
X15034762Y-9127343D01*
X15010952Y-9174962D02*
X15010952Y-9074962D01*
X15010952Y-9074962D02*
X15049048Y-9074962D01*
X15049048Y-9074962D02*
X15058571Y-9079724D01*
X15058571Y-9079724D02*
X15063333Y-9084486D01*
X15063333Y-9084486D02*
X15068095Y-9094010D01*
X15068095Y-9094010D02*
X15068095Y-9108295D01*
X15068095Y-9108295D02*
X15063333Y-9117819D01*
X15063333Y-9117819D02*
X15058571Y-9122581D01*
X15058571Y-9122581D02*
X15049048Y-9127343D01*
X15049048Y-9127343D02*
X15010952Y-9127343D01*
X15158571Y-9074962D02*
X15110952Y-9074962D01*
X15110952Y-9074962D02*
X15106190Y-9122581D01*
X15106190Y-9122581D02*
X15110952Y-9117819D01*
X15110952Y-9117819D02*
X15120476Y-9113057D01*
X15120476Y-9113057D02*
X15144286Y-9113057D01*
X15144286Y-9113057D02*
X15153809Y-9117819D01*
X15153809Y-9117819D02*
X15158571Y-9122581D01*
X15158571Y-9122581D02*
X15163333Y-9132105D01*
X15163333Y-9132105D02*
X15163333Y-9155914D01*
X15163333Y-9155914D02*
X15158571Y-9165438D01*
X15158571Y-9165438D02*
X15153809Y-9170200D01*
X15153809Y-9170200D02*
X15144286Y-9174962D01*
X15144286Y-9174962D02*
X15120476Y-9174962D01*
X15120476Y-9174962D02*
X15110952Y-9170200D01*
X15110952Y-9170200D02*
X15106190Y-9165438D01*
X15258571Y-9174962D02*
X15201429Y-9174962D01*
X15230000Y-9174962D02*
X15230000Y-9074962D01*
X15230000Y-9074962D02*
X15220476Y-9089248D01*
X15220476Y-9089248D02*
X15210952Y-9098771D01*
X15210952Y-9098771D02*
X15201429Y-9103533D01*
X15349048Y-9074962D02*
X15301429Y-9074962D01*
X15301429Y-9074962D02*
X15296667Y-9122581D01*
X15296667Y-9122581D02*
X15301429Y-9117819D01*
X15301429Y-9117819D02*
X15310952Y-9113057D01*
X15310952Y-9113057D02*
X15334762Y-9113057D01*
X15334762Y-9113057D02*
X15344286Y-9117819D01*
X15344286Y-9117819D02*
X15349048Y-9122581D01*
X15349048Y-9122581D02*
X15353809Y-9132105D01*
X15353809Y-9132105D02*
X15353809Y-9155914D01*
X15353809Y-9155914D02*
X15349048Y-9165438D01*
X15349048Y-9165438D02*
X15344286Y-9170200D01*
X15344286Y-9170200D02*
X15334762Y-9174962D01*
X15334762Y-9174962D02*
X15310952Y-9174962D01*
X15310952Y-9174962D02*
X15301429Y-9170200D01*
X15301429Y-9170200D02*
X15296667Y-9165438D01*
X12354962Y-10141905D02*
X12307343Y-10175238D01*
X12354962Y-10199048D02*
X12254962Y-10199048D01*
X12254962Y-10199048D02*
X12254962Y-10160952D01*
X12254962Y-10160952D02*
X12259724Y-10151429D01*
X12259724Y-10151429D02*
X12264486Y-10146667D01*
X12264486Y-10146667D02*
X12274009Y-10141905D01*
X12274009Y-10141905D02*
X12288295Y-10141905D01*
X12288295Y-10141905D02*
X12297819Y-10146667D01*
X12297819Y-10146667D02*
X12302581Y-10151429D01*
X12302581Y-10151429D02*
X12307343Y-10160952D01*
X12307343Y-10160952D02*
X12307343Y-10199048D01*
X12254962Y-10051429D02*
X12254962Y-10099048D01*
X12254962Y-10099048D02*
X12302581Y-10103809D01*
X12302581Y-10103809D02*
X12297819Y-10099048D01*
X12297819Y-10099048D02*
X12293057Y-10089524D01*
X12293057Y-10089524D02*
X12293057Y-10065714D01*
X12293057Y-10065714D02*
X12297819Y-10056190D01*
X12297819Y-10056190D02*
X12302581Y-10051429D01*
X12302581Y-10051429D02*
X12312105Y-10046667D01*
X12312105Y-10046667D02*
X12335914Y-10046667D01*
X12335914Y-10046667D02*
X12345438Y-10051429D01*
X12345438Y-10051429D02*
X12350200Y-10056190D01*
X12350200Y-10056190D02*
X12354962Y-10065714D01*
X12354962Y-10065714D02*
X12354962Y-10089524D01*
X12354962Y-10089524D02*
X12350200Y-10099048D01*
X12350200Y-10099048D02*
X12345438Y-10103809D01*
X12254962Y-9984762D02*
X12254962Y-9975238D01*
X12254962Y-9975238D02*
X12259724Y-9965714D01*
X12259724Y-9965714D02*
X12264486Y-9960952D01*
X12264486Y-9960952D02*
X12274009Y-9956190D01*
X12274009Y-9956190D02*
X12293057Y-9951429D01*
X12293057Y-9951429D02*
X12316867Y-9951429D01*
X12316867Y-9951429D02*
X12335914Y-9956190D01*
X12335914Y-9956190D02*
X12345438Y-9960952D01*
X12345438Y-9960952D02*
X12350200Y-9965714D01*
X12350200Y-9965714D02*
X12354962Y-9975238D01*
X12354962Y-9975238D02*
X12354962Y-9984762D01*
X12354962Y-9984762D02*
X12350200Y-9994286D01*
X12350200Y-9994286D02*
X12345438Y-9999048D01*
X12345438Y-9999048D02*
X12335914Y-10003809D01*
X12335914Y-10003809D02*
X12316867Y-10008571D01*
X12316867Y-10008571D02*
X12293057Y-10008571D01*
X12293057Y-10008571D02*
X12274009Y-10003809D01*
X12274009Y-10003809D02*
X12264486Y-9999048D01*
X12264486Y-9999048D02*
X12259724Y-9994286D01*
X12259724Y-9994286D02*
X12254962Y-9984762D01*
X12254962Y-9918095D02*
X12254962Y-9856190D01*
X12254962Y-9856190D02*
X12293057Y-9889524D01*
X12293057Y-9889524D02*
X12293057Y-9875238D01*
X12293057Y-9875238D02*
X12297819Y-9865714D01*
X12297819Y-9865714D02*
X12302581Y-9860952D01*
X12302581Y-9860952D02*
X12312105Y-9856190D01*
X12312105Y-9856190D02*
X12335914Y-9856190D01*
X12335914Y-9856190D02*
X12345438Y-9860952D01*
X12345438Y-9860952D02*
X12350200Y-9865714D01*
X12350200Y-9865714D02*
X12354962Y-9875238D01*
X12354962Y-9875238D02*
X12354962Y-9903809D01*
X12354962Y-9903809D02*
X12350200Y-9913333D01*
X12350200Y-9913333D02*
X12345438Y-9918095D01*
X13408095Y-7315438D02*
X13403333Y-7320200D01*
X13403333Y-7320200D02*
X13389048Y-7324962D01*
X13389048Y-7324962D02*
X13379524Y-7324962D01*
X13379524Y-7324962D02*
X13365238Y-7320200D01*
X13365238Y-7320200D02*
X13355714Y-7310676D01*
X13355714Y-7310676D02*
X13350952Y-7301152D01*
X13350952Y-7301152D02*
X13346190Y-7282105D01*
X13346190Y-7282105D02*
X13346190Y-7267819D01*
X13346190Y-7267819D02*
X13350952Y-7248771D01*
X13350952Y-7248771D02*
X13355714Y-7239248D01*
X13355714Y-7239248D02*
X13365238Y-7229724D01*
X13365238Y-7229724D02*
X13379524Y-7224962D01*
X13379524Y-7224962D02*
X13389048Y-7224962D01*
X13389048Y-7224962D02*
X13403333Y-7229724D01*
X13403333Y-7229724D02*
X13408095Y-7234486D01*
X13441429Y-7224962D02*
X13503333Y-7224962D01*
X13503333Y-7224962D02*
X13470000Y-7263057D01*
X13470000Y-7263057D02*
X13484286Y-7263057D01*
X13484286Y-7263057D02*
X13493809Y-7267819D01*
X13493809Y-7267819D02*
X13498571Y-7272581D01*
X13498571Y-7272581D02*
X13503333Y-7282105D01*
X13503333Y-7282105D02*
X13503333Y-7305914D01*
X13503333Y-7305914D02*
X13498571Y-7315438D01*
X13498571Y-7315438D02*
X13493809Y-7320200D01*
X13493809Y-7320200D02*
X13484286Y-7324962D01*
X13484286Y-7324962D02*
X13455714Y-7324962D01*
X13455714Y-7324962D02*
X13446190Y-7320200D01*
X13446190Y-7320200D02*
X13441429Y-7315438D01*
X13565238Y-7224962D02*
X13574762Y-7224962D01*
X13574762Y-7224962D02*
X13584286Y-7229724D01*
X13584286Y-7229724D02*
X13589048Y-7234486D01*
X13589048Y-7234486D02*
X13593809Y-7244009D01*
X13593809Y-7244009D02*
X13598571Y-7263057D01*
X13598571Y-7263057D02*
X13598571Y-7286867D01*
X13598571Y-7286867D02*
X13593809Y-7305914D01*
X13593809Y-7305914D02*
X13589048Y-7315438D01*
X13589048Y-7315438D02*
X13584286Y-7320200D01*
X13584286Y-7320200D02*
X13574762Y-7324962D01*
X13574762Y-7324962D02*
X13565238Y-7324962D01*
X13565238Y-7324962D02*
X13555714Y-7320200D01*
X13555714Y-7320200D02*
X13550952Y-7315438D01*
X13550952Y-7315438D02*
X13546190Y-7305914D01*
X13546190Y-7305914D02*
X13541429Y-7286867D01*
X13541429Y-7286867D02*
X13541429Y-7263057D01*
X13541429Y-7263057D02*
X13546190Y-7244009D01*
X13546190Y-7244009D02*
X13550952Y-7234486D01*
X13550952Y-7234486D02*
X13555714Y-7229724D01*
X13555714Y-7229724D02*
X13565238Y-7224962D01*
X13631905Y-7224962D02*
X13693809Y-7224962D01*
X13693809Y-7224962D02*
X13660476Y-7263057D01*
X13660476Y-7263057D02*
X13674762Y-7263057D01*
X13674762Y-7263057D02*
X13684286Y-7267819D01*
X13684286Y-7267819D02*
X13689048Y-7272581D01*
X13689048Y-7272581D02*
X13693809Y-7282105D01*
X13693809Y-7282105D02*
X13693809Y-7305914D01*
X13693809Y-7305914D02*
X13689048Y-7315438D01*
X13689048Y-7315438D02*
X13684286Y-7320200D01*
X13684286Y-7320200D02*
X13674762Y-7324962D01*
X13674762Y-7324962D02*
X13646190Y-7324962D01*
X13646190Y-7324962D02*
X13636667Y-7320200D01*
X13636667Y-7320200D02*
X13631905Y-7315438D01*
X13118095Y-9865438D02*
X13113333Y-9870200D01*
X13113333Y-9870200D02*
X13099048Y-9874962D01*
X13099048Y-9874962D02*
X13089524Y-9874962D01*
X13089524Y-9874962D02*
X13075238Y-9870200D01*
X13075238Y-9870200D02*
X13065714Y-9860676D01*
X13065714Y-9860676D02*
X13060952Y-9851152D01*
X13060952Y-9851152D02*
X13056190Y-9832105D01*
X13056190Y-9832105D02*
X13056190Y-9817819D01*
X13056190Y-9817819D02*
X13060952Y-9798771D01*
X13060952Y-9798771D02*
X13065714Y-9789248D01*
X13065714Y-9789248D02*
X13075238Y-9779724D01*
X13075238Y-9779724D02*
X13089524Y-9774962D01*
X13089524Y-9774962D02*
X13099048Y-9774962D01*
X13099048Y-9774962D02*
X13113333Y-9779724D01*
X13113333Y-9779724D02*
X13118095Y-9784486D01*
X13208571Y-9774962D02*
X13160952Y-9774962D01*
X13160952Y-9774962D02*
X13156190Y-9822581D01*
X13156190Y-9822581D02*
X13160952Y-9817819D01*
X13160952Y-9817819D02*
X13170476Y-9813057D01*
X13170476Y-9813057D02*
X13194286Y-9813057D01*
X13194286Y-9813057D02*
X13203809Y-9817819D01*
X13203809Y-9817819D02*
X13208571Y-9822581D01*
X13208571Y-9822581D02*
X13213333Y-9832105D01*
X13213333Y-9832105D02*
X13213333Y-9855914D01*
X13213333Y-9855914D02*
X13208571Y-9865438D01*
X13208571Y-9865438D02*
X13203809Y-9870200D01*
X13203809Y-9870200D02*
X13194286Y-9874962D01*
X13194286Y-9874962D02*
X13170476Y-9874962D01*
X13170476Y-9874962D02*
X13160952Y-9870200D01*
X13160952Y-9870200D02*
X13156190Y-9865438D01*
X13275238Y-9774962D02*
X13284762Y-9774962D01*
X13284762Y-9774962D02*
X13294286Y-9779724D01*
X13294286Y-9779724D02*
X13299048Y-9784486D01*
X13299048Y-9784486D02*
X13303809Y-9794010D01*
X13303809Y-9794010D02*
X13308571Y-9813057D01*
X13308571Y-9813057D02*
X13308571Y-9836867D01*
X13308571Y-9836867D02*
X13303809Y-9855914D01*
X13303809Y-9855914D02*
X13299048Y-9865438D01*
X13299048Y-9865438D02*
X13294286Y-9870200D01*
X13294286Y-9870200D02*
X13284762Y-9874962D01*
X13284762Y-9874962D02*
X13275238Y-9874962D01*
X13275238Y-9874962D02*
X13265714Y-9870200D01*
X13265714Y-9870200D02*
X13260952Y-9865438D01*
X13260952Y-9865438D02*
X13256190Y-9855914D01*
X13256190Y-9855914D02*
X13251429Y-9836867D01*
X13251429Y-9836867D02*
X13251429Y-9813057D01*
X13251429Y-9813057D02*
X13256190Y-9794010D01*
X13256190Y-9794010D02*
X13260952Y-9784486D01*
X13260952Y-9784486D02*
X13265714Y-9779724D01*
X13265714Y-9779724D02*
X13275238Y-9774962D01*
X13403809Y-9874962D02*
X13346667Y-9874962D01*
X13375238Y-9874962D02*
X13375238Y-9774962D01*
X13375238Y-9774962D02*
X13365714Y-9789248D01*
X13365714Y-9789248D02*
X13356190Y-9798771D01*
X13356190Y-9798771D02*
X13346667Y-9803533D01*
X14575438Y-9661905D02*
X14580200Y-9666667D01*
X14580200Y-9666667D02*
X14584962Y-9680952D01*
X14584962Y-9680952D02*
X14584962Y-9690476D01*
X14584962Y-9690476D02*
X14580200Y-9704762D01*
X14580200Y-9704762D02*
X14570676Y-9714286D01*
X14570676Y-9714286D02*
X14561152Y-9719048D01*
X14561152Y-9719048D02*
X14542105Y-9723809D01*
X14542105Y-9723809D02*
X14527819Y-9723809D01*
X14527819Y-9723809D02*
X14508771Y-9719048D01*
X14508771Y-9719048D02*
X14499248Y-9714286D01*
X14499248Y-9714286D02*
X14489724Y-9704762D01*
X14489724Y-9704762D02*
X14484962Y-9690476D01*
X14484962Y-9690476D02*
X14484962Y-9680952D01*
X14484962Y-9680952D02*
X14489724Y-9666667D01*
X14489724Y-9666667D02*
X14494486Y-9661905D01*
X14484962Y-9571429D02*
X14484962Y-9619048D01*
X14484962Y-9619048D02*
X14532581Y-9623809D01*
X14532581Y-9623809D02*
X14527819Y-9619048D01*
X14527819Y-9619048D02*
X14523057Y-9609524D01*
X14523057Y-9609524D02*
X14523057Y-9585714D01*
X14523057Y-9585714D02*
X14527819Y-9576190D01*
X14527819Y-9576190D02*
X14532581Y-9571429D01*
X14532581Y-9571429D02*
X14542105Y-9566667D01*
X14542105Y-9566667D02*
X14565914Y-9566667D01*
X14565914Y-9566667D02*
X14575438Y-9571429D01*
X14575438Y-9571429D02*
X14580200Y-9576190D01*
X14580200Y-9576190D02*
X14584962Y-9585714D01*
X14584962Y-9585714D02*
X14584962Y-9609524D01*
X14584962Y-9609524D02*
X14580200Y-9619048D01*
X14580200Y-9619048D02*
X14575438Y-9623809D01*
X14484962Y-9504762D02*
X14484962Y-9495238D01*
X14484962Y-9495238D02*
X14489724Y-9485714D01*
X14489724Y-9485714D02*
X14494486Y-9480952D01*
X14494486Y-9480952D02*
X14504009Y-9476190D01*
X14504009Y-9476190D02*
X14523057Y-9471429D01*
X14523057Y-9471429D02*
X14546867Y-9471429D01*
X14546867Y-9471429D02*
X14565914Y-9476190D01*
X14565914Y-9476190D02*
X14575438Y-9480952D01*
X14575438Y-9480952D02*
X14580200Y-9485714D01*
X14580200Y-9485714D02*
X14584962Y-9495238D01*
X14584962Y-9495238D02*
X14584962Y-9504762D01*
X14584962Y-9504762D02*
X14580200Y-9514286D01*
X14580200Y-9514286D02*
X14575438Y-9519048D01*
X14575438Y-9519048D02*
X14565914Y-9523809D01*
X14565914Y-9523809D02*
X14546867Y-9528571D01*
X14546867Y-9528571D02*
X14523057Y-9528571D01*
X14523057Y-9528571D02*
X14504009Y-9523809D01*
X14504009Y-9523809D02*
X14494486Y-9519048D01*
X14494486Y-9519048D02*
X14489724Y-9514286D01*
X14489724Y-9514286D02*
X14484962Y-9504762D01*
X14518295Y-9385714D02*
X14584962Y-9385714D01*
X14480200Y-9409524D02*
X14551628Y-9433333D01*
X14551628Y-9433333D02*
X14551628Y-9371429D01*
X14494962Y-11209047D02*
X14394962Y-11209047D01*
X14394962Y-11209047D02*
X14394962Y-11185238D01*
X14394962Y-11185238D02*
X14399724Y-11170952D01*
X14399724Y-11170952D02*
X14409248Y-11161429D01*
X14409248Y-11161429D02*
X14418771Y-11156667D01*
X14418771Y-11156667D02*
X14437819Y-11151905D01*
X14437819Y-11151905D02*
X14452105Y-11151905D01*
X14452105Y-11151905D02*
X14471152Y-11156667D01*
X14471152Y-11156667D02*
X14480676Y-11161429D01*
X14480676Y-11161429D02*
X14490200Y-11170952D01*
X14490200Y-11170952D02*
X14494962Y-11185238D01*
X14494962Y-11185238D02*
X14494962Y-11209047D01*
X14428295Y-11066190D02*
X14494962Y-11066190D01*
X14390200Y-11090000D02*
X14461628Y-11113809D01*
X14461628Y-11113809D02*
X14461628Y-11051905D01*
X14394962Y-10994762D02*
X14394962Y-10985238D01*
X14394962Y-10985238D02*
X14399724Y-10975714D01*
X14399724Y-10975714D02*
X14404486Y-10970952D01*
X14404486Y-10970952D02*
X14414009Y-10966190D01*
X14414009Y-10966190D02*
X14433057Y-10961429D01*
X14433057Y-10961429D02*
X14456867Y-10961429D01*
X14456867Y-10961429D02*
X14475914Y-10966190D01*
X14475914Y-10966190D02*
X14485438Y-10970952D01*
X14485438Y-10970952D02*
X14490200Y-10975714D01*
X14490200Y-10975714D02*
X14494962Y-10985238D01*
X14494962Y-10985238D02*
X14494962Y-10994762D01*
X14494962Y-10994762D02*
X14490200Y-11004286D01*
X14490200Y-11004286D02*
X14485438Y-11009048D01*
X14485438Y-11009048D02*
X14475914Y-11013809D01*
X14475914Y-11013809D02*
X14456867Y-11018571D01*
X14456867Y-11018571D02*
X14433057Y-11018571D01*
X14433057Y-11018571D02*
X14414009Y-11013809D01*
X14414009Y-11013809D02*
X14404486Y-11009048D01*
X14404486Y-11009048D02*
X14399724Y-11004286D01*
X14399724Y-11004286D02*
X14394962Y-10994762D01*
X14394962Y-10875714D02*
X14394962Y-10894762D01*
X14394962Y-10894762D02*
X14399724Y-10904286D01*
X14399724Y-10904286D02*
X14404486Y-10909048D01*
X14404486Y-10909048D02*
X14418771Y-10918571D01*
X14418771Y-10918571D02*
X14437819Y-10923333D01*
X14437819Y-10923333D02*
X14475914Y-10923333D01*
X14475914Y-10923333D02*
X14485438Y-10918571D01*
X14485438Y-10918571D02*
X14490200Y-10913809D01*
X14490200Y-10913809D02*
X14494962Y-10904286D01*
X14494962Y-10904286D02*
X14494962Y-10885238D01*
X14494962Y-10885238D02*
X14490200Y-10875714D01*
X14490200Y-10875714D02*
X14485438Y-10870952D01*
X14485438Y-10870952D02*
X14475914Y-10866190D01*
X14475914Y-10866190D02*
X14452105Y-10866190D01*
X14452105Y-10866190D02*
X14442581Y-10870952D01*
X14442581Y-10870952D02*
X14437819Y-10875714D01*
X14437819Y-10875714D02*
X14433057Y-10885238D01*
X14433057Y-10885238D02*
X14433057Y-10904286D01*
X14433057Y-10904286D02*
X14437819Y-10913809D01*
X14437819Y-10913809D02*
X14442581Y-10918571D01*
X14442581Y-10918571D02*
X14452105Y-10923333D01*
X15398571Y-9254962D02*
X15398571Y-9335914D01*
X15398571Y-9335914D02*
X15403333Y-9345438D01*
X15403333Y-9345438D02*
X15408095Y-9350200D01*
X15408095Y-9350200D02*
X15417619Y-9354962D01*
X15417619Y-9354962D02*
X15436667Y-9354962D01*
X15436667Y-9354962D02*
X15446190Y-9350200D01*
X15446190Y-9350200D02*
X15450952Y-9345438D01*
X15450952Y-9345438D02*
X15455714Y-9335914D01*
X15455714Y-9335914D02*
X15455714Y-9254962D01*
X15550952Y-9254962D02*
X15503333Y-9254962D01*
X15503333Y-9254962D02*
X15498571Y-9302581D01*
X15498571Y-9302581D02*
X15503333Y-9297819D01*
X15503333Y-9297819D02*
X15512857Y-9293057D01*
X15512857Y-9293057D02*
X15536667Y-9293057D01*
X15536667Y-9293057D02*
X15546190Y-9297819D01*
X15546190Y-9297819D02*
X15550952Y-9302581D01*
X15550952Y-9302581D02*
X15555714Y-9312105D01*
X15555714Y-9312105D02*
X15555714Y-9335914D01*
X15555714Y-9335914D02*
X15550952Y-9345438D01*
X15550952Y-9345438D02*
X15546190Y-9350200D01*
X15546190Y-9350200D02*
X15536667Y-9354962D01*
X15536667Y-9354962D02*
X15512857Y-9354962D01*
X15512857Y-9354962D02*
X15503333Y-9350200D01*
X15503333Y-9350200D02*
X15498571Y-9345438D01*
X15617619Y-9254962D02*
X15627143Y-9254962D01*
X15627143Y-9254962D02*
X15636667Y-9259724D01*
X15636667Y-9259724D02*
X15641428Y-9264486D01*
X15641428Y-9264486D02*
X15646190Y-9274010D01*
X15646190Y-9274010D02*
X15650952Y-9293057D01*
X15650952Y-9293057D02*
X15650952Y-9316867D01*
X15650952Y-9316867D02*
X15646190Y-9335914D01*
X15646190Y-9335914D02*
X15641428Y-9345438D01*
X15641428Y-9345438D02*
X15636667Y-9350200D01*
X15636667Y-9350200D02*
X15627143Y-9354962D01*
X15627143Y-9354962D02*
X15617619Y-9354962D01*
X15617619Y-9354962D02*
X15608095Y-9350200D01*
X15608095Y-9350200D02*
X15603333Y-9345438D01*
X15603333Y-9345438D02*
X15598571Y-9335914D01*
X15598571Y-9335914D02*
X15593809Y-9316867D01*
X15593809Y-9316867D02*
X15593809Y-9293057D01*
X15593809Y-9293057D02*
X15598571Y-9274010D01*
X15598571Y-9274010D02*
X15603333Y-9264486D01*
X15603333Y-9264486D02*
X15608095Y-9259724D01*
X15608095Y-9259724D02*
X15617619Y-9254962D01*
X15684286Y-9254962D02*
X15746190Y-9254962D01*
X15746190Y-9254962D02*
X15712857Y-9293057D01*
X15712857Y-9293057D02*
X15727143Y-9293057D01*
X15727143Y-9293057D02*
X15736667Y-9297819D01*
X15736667Y-9297819D02*
X15741428Y-9302581D01*
X15741428Y-9302581D02*
X15746190Y-9312105D01*
X15746190Y-9312105D02*
X15746190Y-9335914D01*
X15746190Y-9335914D02*
X15741428Y-9345438D01*
X15741428Y-9345438D02*
X15736667Y-9350200D01*
X15736667Y-9350200D02*
X15727143Y-9354962D01*
X15727143Y-9354962D02*
X15698571Y-9354962D01*
X15698571Y-9354962D02*
X15689048Y-9350200D01*
X15689048Y-9350200D02*
X15684286Y-9345438D01*
D12*
%TO.C,C302*%
X13160000Y-7037500D02*
X13160000Y-7142500D01*
%TO.C,D401*%
X12305000Y-10485000D02*
X12305000Y-10755000D01*
X12495000Y-10409000D02*
X12495000Y-10755000D01*
D10*
X12424597Y-10339298D02*
X12400000Y-10370000D01*
X12374597Y-10339298D01*
X12424597Y-10339298D01*
G36*
X12424597Y-10339298D02*
G01*
X12400000Y-10370000D01*
X12374597Y-10339298D01*
X12424597Y-10339298D01*
G37*
D12*
%TO.C,R508*%
X14386200Y-10070000D02*
X14493800Y-10070000D01*
%TO.C,F505*%
X15011200Y-10980000D02*
X15248800Y-10980000D01*
%TO.C,C505*%
X15227320Y-10002500D02*
X15227320Y-9897500D01*
D10*
%TO.C,PS301*%
X12975000Y-7655000D02*
X13175000Y-7655000D01*
X13175000Y-7855000D02*
X12975000Y-7855000D01*
X12925488Y-7691408D02*
X12894786Y-7716811D01*
X12894786Y-7666811D01*
X12925488Y-7691408D01*
G36*
X12925488Y-7691408D02*
G01*
X12894786Y-7716811D01*
X12894786Y-7666811D01*
X12925488Y-7691408D01*
G37*
D12*
%TO.C,R505*%
X12830000Y-9256200D02*
X12830000Y-9363800D01*
D13*
%TO.C,U501*%
X12775320Y-9793830D02*
X12955320Y-9793830D01*
X12955320Y-9466170D02*
X12775320Y-9466170D01*
X12964380Y-9666326D02*
X12964380Y-9593674D01*
D10*
X12715858Y-9490477D02*
X12690454Y-9459775D01*
X12740454Y-9459775D01*
X12715858Y-9490477D01*
G36*
X12715858Y-9490477D02*
G01*
X12690454Y-9459775D01*
X12740454Y-9459775D01*
X12715858Y-9490477D01*
G37*
D12*
%TO.C,R509*%
X13606200Y-9672500D02*
X13713800Y-9672500D01*
%TO.C,F503*%
X13851200Y-10980000D02*
X14088800Y-10980000D01*
%TO.C,IC401*%
X14815000Y-8660000D02*
X15045000Y-8660000D01*
X14815000Y-8960000D02*
X14815000Y-8660000D01*
X15045000Y-8660000D02*
X15045000Y-8960000D01*
X15045000Y-8960000D02*
X14815000Y-8960000D01*
D10*
X14620000Y-8710000D02*
X14589298Y-8735403D01*
X14589298Y-8685403D01*
X14620000Y-8710000D01*
G36*
X14620000Y-8710000D02*
G01*
X14589298Y-8735403D01*
X14589298Y-8685403D01*
X14620000Y-8710000D01*
G37*
D12*
%TO.C,R502*%
X13176200Y-10070000D02*
X13283800Y-10070000D01*
%TO.C,R201*%
X15340000Y-8114950D02*
X15340000Y-8222550D01*
%TO.C,C503*%
X14063210Y-10002500D02*
X14063210Y-9897500D01*
%TO.C,D405*%
X13855250Y-10465000D02*
X14201250Y-10465000D01*
X13931250Y-10655000D02*
X14201250Y-10655000D01*
D10*
X13816250Y-10560000D02*
X13785548Y-10585403D01*
X13785548Y-10535403D01*
X13816250Y-10560000D01*
G36*
X13816250Y-10560000D02*
G01*
X13785548Y-10585403D01*
X13785548Y-10535403D01*
X13816250Y-10560000D01*
G37*
D12*
%TO.C,D407*%
X14725000Y-10485000D02*
X14725000Y-10755000D01*
X14915000Y-10409000D02*
X14915000Y-10755000D01*
D10*
X14844597Y-10339298D02*
X14820000Y-10370000D01*
X14794597Y-10339298D01*
X14844597Y-10339298D01*
G36*
X14844597Y-10339298D02*
G01*
X14820000Y-10370000D01*
X14794597Y-10339298D01*
X14844597Y-10339298D01*
G37*
D12*
%TO.C,F502*%
X12621200Y-10983500D02*
X12858800Y-10983500D01*
D14*
%TO.C,U202*%
X14639000Y-7179000D02*
X14666500Y-7179000D01*
X14639000Y-7206500D02*
X14639000Y-7179000D01*
X14639000Y-7901000D02*
X14639000Y-7873500D01*
X14666500Y-7901000D02*
X14639000Y-7901000D01*
X15333500Y-7179000D02*
X15361000Y-7179000D01*
X15361000Y-7179000D02*
X15361000Y-7206500D01*
X15361000Y-7873500D02*
X15361000Y-7901000D01*
X15361000Y-7901000D02*
X15333500Y-7901000D01*
X15459000Y-7921000D02*
X15391000Y-7921000D01*
X15425000Y-7874000D01*
X15459000Y-7921000D01*
G36*
X15459000Y-7921000D02*
G01*
X15391000Y-7921000D01*
X15425000Y-7874000D01*
X15459000Y-7921000D01*
G37*
D12*
%TO.C,R513*%
X15546200Y-10070000D02*
X15653800Y-10070000D01*
%TO.C,R301*%
X12690000Y-7756200D02*
X12690000Y-7863800D01*
%TO.C,R401*%
X14656200Y-8365000D02*
X14763800Y-8365000D01*
%TO.C,R514*%
X14776200Y-9672500D02*
X14883800Y-9672500D01*
%TO.C,R303*%
X12580000Y-7593800D02*
X12580000Y-7486200D01*
%TO.C,R417*%
X15170000Y-8426200D02*
X15170000Y-8533800D01*
%TO.C,L301*%
X13440000Y-7440000D02*
X13440000Y-7840000D01*
X13840000Y-7840000D02*
X13840000Y-7440000D01*
%TO.C,R507*%
X13636200Y-10070000D02*
X13743800Y-10070000D01*
D13*
%TO.C,R501*%
X12788900Y-10306360D02*
X12905740Y-10306360D01*
X12905740Y-10133640D02*
X12788900Y-10133640D01*
D12*
%TO.C,R512*%
X14806200Y-10070000D02*
X14913800Y-10070000D01*
%TO.C,D404*%
X13535000Y-10485000D02*
X13535000Y-10755000D01*
X13725000Y-10409000D02*
X13725000Y-10755000D01*
D10*
X13654597Y-10339298D02*
X13630000Y-10370000D01*
X13604597Y-10339298D01*
X13654597Y-10339298D01*
G36*
X13654597Y-10339298D02*
G01*
X13630000Y-10370000D01*
X13604597Y-10339298D01*
X13654597Y-10339298D01*
G37*
D13*
%TO.C,U502*%
X13967320Y-9793830D02*
X14147320Y-9793830D01*
X14147320Y-9466170D02*
X13967320Y-9466170D01*
X14156380Y-9666326D02*
X14156380Y-9593674D01*
D10*
X13907858Y-9490477D02*
X13882454Y-9459775D01*
X13932454Y-9459775D01*
X13907858Y-9490477D01*
G36*
X13907858Y-9490477D02*
G01*
X13882454Y-9459775D01*
X13932454Y-9459775D01*
X13907858Y-9490477D01*
G37*
D15*
%TO.C,G\u002A\u002A\u002A*%
G36*
X15504820Y-11844030D02*
G01*
X15507949Y-11846386D01*
X15509553Y-11848145D01*
X15510653Y-11849995D01*
X15511388Y-11852506D01*
X15511898Y-11856243D01*
X15512319Y-11861775D01*
X15512524Y-11865111D01*
X15514976Y-11888011D01*
X15519545Y-11909391D01*
X15526272Y-11929346D01*
X15535199Y-11947971D01*
X15546369Y-11965359D01*
X15559823Y-11981606D01*
X15568301Y-11990174D01*
X15584929Y-12004263D01*
X15602694Y-12015997D01*
X15621511Y-12025341D01*
X15641292Y-12032261D01*
X15661951Y-12036722D01*
X15683401Y-12038689D01*
X15689343Y-12038788D01*
X15709840Y-12037725D01*
X15729317Y-12034432D01*
X15748092Y-12028813D01*
X15766483Y-12020774D01*
X15784808Y-12010217D01*
X15785266Y-12009921D01*
X15801025Y-11998303D01*
X15815455Y-11984829D01*
X15828391Y-11969791D01*
X15839666Y-11953481D01*
X15849114Y-11936189D01*
X15856571Y-11918208D01*
X15861869Y-11899828D01*
X15864843Y-11881341D01*
X15865453Y-11869083D01*
X15865920Y-11859562D01*
X15867320Y-11852354D01*
X15869754Y-11847276D01*
X15873321Y-11844150D01*
X15878120Y-11842795D01*
X15880050Y-11842706D01*
X15884325Y-11843251D01*
X15887803Y-11845288D01*
X15889365Y-11846736D01*
X15893395Y-11850767D01*
X15892643Y-11869403D01*
X15890452Y-11892327D01*
X15885833Y-11914447D01*
X15878901Y-11935628D01*
X15869769Y-11955735D01*
X15858552Y-11974635D01*
X15845362Y-11992193D01*
X15830315Y-12008274D01*
X15813523Y-12022743D01*
X15795101Y-12035466D01*
X15775162Y-12046310D01*
X15753822Y-12055138D01*
X15731192Y-12061816D01*
X15729420Y-12062233D01*
X15722232Y-12063495D01*
X15713155Y-12064491D01*
X15702868Y-12065201D01*
X15692049Y-12065607D01*
X15681377Y-12065688D01*
X15671531Y-12065426D01*
X15663189Y-12064801D01*
X15659120Y-12064232D01*
X15636041Y-12058997D01*
X15614558Y-12051745D01*
X15594464Y-12042372D01*
X15575551Y-12030772D01*
X15557614Y-12016840D01*
X15547702Y-12007773D01*
X15532256Y-11991118D01*
X15518849Y-11973072D01*
X15507575Y-11953853D01*
X15498529Y-11933681D01*
X15491808Y-11912773D01*
X15487505Y-11891348D01*
X15485717Y-11869624D01*
X15485670Y-11865469D01*
X15485693Y-11858967D01*
X15485837Y-11854529D01*
X15486219Y-11851590D01*
X15486951Y-11849587D01*
X15488149Y-11847955D01*
X15489511Y-11846546D01*
X15494321Y-11843363D01*
X15499631Y-11842522D01*
X15504820Y-11844030D01*
G37*
G36*
X15433922Y-11843343D02*
G01*
X15438125Y-11845828D01*
X15440744Y-11849378D01*
X15442043Y-11854508D01*
X15442308Y-11859752D01*
X15443609Y-11884447D01*
X15447438Y-11908924D01*
X15453698Y-11932942D01*
X15462287Y-11956260D01*
X15473108Y-11978640D01*
X15486062Y-11999841D01*
X15501049Y-12019623D01*
X15514369Y-12034199D01*
X15533569Y-12051744D01*
X15554036Y-12066989D01*
X15575792Y-12079949D01*
X15598860Y-12090633D01*
X15623261Y-12099056D01*
X15641771Y-12103748D01*
X15651421Y-12105417D01*
X15662892Y-12106713D01*
X15675423Y-12107604D01*
X15688247Y-12108061D01*
X15700600Y-12108052D01*
X15711719Y-12107547D01*
X15718760Y-12106829D01*
X15743547Y-12102190D01*
X15767597Y-12095173D01*
X15790612Y-12085878D01*
X15810233Y-12075628D01*
X15831951Y-12061471D01*
X15851880Y-12045484D01*
X15869928Y-12027799D01*
X15886001Y-12008544D01*
X15900007Y-11987850D01*
X15911852Y-11965846D01*
X15921443Y-11942663D01*
X15928687Y-11918431D01*
X15931259Y-11906693D01*
X15932285Y-11900430D01*
X15933339Y-11892334D01*
X15934344Y-11883197D01*
X15935223Y-11873810D01*
X15935900Y-11864967D01*
X15936296Y-11857460D01*
X15936367Y-11854102D01*
X15937565Y-11850019D01*
X15940220Y-11846546D01*
X15945070Y-11843331D01*
X15950402Y-11842522D01*
X15955639Y-11844120D01*
X15958818Y-11846546D01*
X15960544Y-11848384D01*
X15961655Y-11850150D01*
X15962286Y-11852454D01*
X15962572Y-11855909D01*
X15962647Y-11861126D01*
X15962648Y-11863957D01*
X15961355Y-11888779D01*
X15957586Y-11913721D01*
X15951452Y-11938424D01*
X15943062Y-11962533D01*
X15932525Y-11985690D01*
X15919952Y-12007538D01*
X15917400Y-12011425D01*
X15901485Y-12032854D01*
X15883642Y-12052620D01*
X15864056Y-12070603D01*
X15842911Y-12086680D01*
X15820392Y-12100730D01*
X15796684Y-12112630D01*
X15771970Y-12122259D01*
X15746437Y-12129495D01*
X15734947Y-12131896D01*
X15727053Y-12133052D01*
X15717278Y-12133994D01*
X15706309Y-12134701D01*
X15694834Y-12135150D01*
X15683539Y-12135319D01*
X15673112Y-12135185D01*
X15664240Y-12134725D01*
X15660434Y-12134345D01*
X15633360Y-12129709D01*
X15607278Y-12122652D01*
X15582272Y-12113221D01*
X15558428Y-12101460D01*
X15535828Y-12087417D01*
X15514559Y-12071136D01*
X15494704Y-12052664D01*
X15480051Y-12036523D01*
X15469578Y-12023545D01*
X15460698Y-12011214D01*
X15452850Y-11998674D01*
X15445471Y-11985068D01*
X15442956Y-11980021D01*
X15432426Y-11955683D01*
X15424504Y-11931073D01*
X15419177Y-11906143D01*
X15416436Y-11880849D01*
X15416027Y-11866391D01*
X15416061Y-11859691D01*
X15416225Y-11855059D01*
X15416613Y-11851934D01*
X15417320Y-11849757D01*
X15418439Y-11847966D01*
X15419297Y-11846904D01*
X15423793Y-11843294D01*
X15428983Y-11842203D01*
X15433922Y-11843343D01*
G37*
G36*
X15694789Y-11454936D02*
G01*
X15695999Y-11455804D01*
X15697340Y-11457643D01*
X15699621Y-11461451D01*
X15702627Y-11466840D01*
X15706140Y-11473419D01*
X15709947Y-11480800D01*
X15710951Y-11482788D01*
X15717372Y-11495293D01*
X15723777Y-11507165D01*
X15730384Y-11518749D01*
X15737411Y-11530392D01*
X15745078Y-11542440D01*
X15753602Y-11555240D01*
X15763203Y-11569139D01*
X15774100Y-11584482D01*
X15782566Y-11596199D01*
X15787495Y-11603093D01*
X15791926Y-11609500D01*
X15795607Y-11615038D01*
X15798283Y-11619323D01*
X15799701Y-11621970D01*
X15799823Y-11622306D01*
X15800066Y-11626849D01*
X15798703Y-11631517D01*
X15796135Y-11635220D01*
X15794662Y-11636299D01*
X15790364Y-11637543D01*
X15785509Y-11637469D01*
X15781344Y-11636153D01*
X15780286Y-11635419D01*
X15778763Y-11633700D01*
X15775986Y-11630182D01*
X15772215Y-11625212D01*
X15767714Y-11619136D01*
X15762743Y-11612302D01*
X15760706Y-11609467D01*
X15749319Y-11593478D01*
X15739361Y-11579295D01*
X15730656Y-11566645D01*
X15723025Y-11555255D01*
X15716290Y-11544851D01*
X15710274Y-11535160D01*
X15704799Y-11525910D01*
X15699687Y-11516827D01*
X15696225Y-11510413D01*
X15688381Y-11495645D01*
X15679029Y-11512616D01*
X15672291Y-11524444D01*
X15664739Y-11536912D01*
X15656199Y-11550290D01*
X15646493Y-11564845D01*
X15635446Y-11580849D01*
X15622883Y-11598568D01*
X15622068Y-11599703D01*
X15611022Y-11615204D01*
X15601462Y-11628878D01*
X15593244Y-11640961D01*
X15586227Y-11651688D01*
X15580267Y-11661294D01*
X15575222Y-11670016D01*
X15570949Y-11678090D01*
X15567305Y-11685750D01*
X15564148Y-11693233D01*
X15562015Y-11698868D01*
X15557416Y-11714191D01*
X15554883Y-11729395D01*
X15554279Y-11745391D01*
X15554434Y-11750067D01*
X15556433Y-11768900D01*
X15560613Y-11786297D01*
X15567008Y-11802337D01*
X15575651Y-11817097D01*
X15586576Y-11830656D01*
X15590628Y-11834821D01*
X15600737Y-11843874D01*
X15611286Y-11851393D01*
X15623117Y-11857938D01*
X15631137Y-11861609D01*
X15637118Y-11864273D01*
X15641152Y-11866368D01*
X15643755Y-11868239D01*
X15645444Y-11870229D01*
X15646275Y-11871708D01*
X15647755Y-11877081D01*
X15646850Y-11881976D01*
X15643660Y-11885920D01*
X15643281Y-11886199D01*
X15639641Y-11888345D01*
X15636137Y-11889154D01*
X15631951Y-11888661D01*
X15626270Y-11886902D01*
X15613747Y-11881598D01*
X15600905Y-11874618D01*
X15588443Y-11866430D01*
X15577058Y-11857499D01*
X15567450Y-11848292D01*
X15565825Y-11846484D01*
X15553626Y-11830571D01*
X15543701Y-11813458D01*
X15536111Y-11795356D01*
X15530916Y-11776478D01*
X15528177Y-11757034D01*
X15527954Y-11737236D01*
X15529748Y-11720538D01*
X15531838Y-11709939D01*
X15534730Y-11699298D01*
X15538535Y-11688402D01*
X15543364Y-11677039D01*
X15549328Y-11664996D01*
X15556538Y-11652061D01*
X15565106Y-11638020D01*
X15575143Y-11622663D01*
X15586760Y-11605775D01*
X15598177Y-11589757D01*
X15610075Y-11573130D01*
X15620514Y-11558182D01*
X15629711Y-11544570D01*
X15637883Y-11531947D01*
X15645247Y-11519969D01*
X15652019Y-11508291D01*
X15658418Y-11496568D01*
X15664660Y-11484457D01*
X15665474Y-11482829D01*
X15670130Y-11473699D01*
X15674184Y-11466156D01*
X15677515Y-11460415D01*
X15679998Y-11456690D01*
X15681290Y-11455307D01*
X15685586Y-11453690D01*
X15690482Y-11453580D01*
X15694789Y-11454936D01*
G37*
G36*
X15827918Y-11636596D02*
G01*
X15830667Y-11637370D01*
X15832970Y-11639020D01*
X15835005Y-11641843D01*
X15836948Y-11646135D01*
X15838976Y-11652191D01*
X15841267Y-11660307D01*
X15843157Y-11667510D01*
X15848383Y-11690401D01*
X15851797Y-11711622D01*
X15853429Y-11731376D01*
X15853589Y-11739386D01*
X15852525Y-11761215D01*
X15849347Y-11781725D01*
X15844100Y-11800837D01*
X15836827Y-11818470D01*
X15827574Y-11834541D01*
X15816385Y-11848972D01*
X15803305Y-11861679D01*
X15788377Y-11872584D01*
X15776725Y-11879165D01*
X15764222Y-11884638D01*
X15749911Y-11889479D01*
X15734579Y-11893465D01*
X15719013Y-11896374D01*
X15712687Y-11897211D01*
X15708465Y-11897894D01*
X15705391Y-11898756D01*
X15704341Y-11899391D01*
X15703742Y-11901600D01*
X15703168Y-11905943D01*
X15702644Y-11911925D01*
X15702192Y-11919053D01*
X15701836Y-11926830D01*
X15701600Y-11934764D01*
X15701508Y-11942360D01*
X15701582Y-11949123D01*
X15701766Y-11953412D01*
X15702213Y-11960343D01*
X15702766Y-11964998D01*
X15703790Y-11967715D01*
X15705652Y-11968834D01*
X15708718Y-11968691D01*
X15713356Y-11967627D01*
X15716333Y-11966867D01*
X15726389Y-11963482D01*
X15737015Y-11958451D01*
X15747501Y-11952218D01*
X15757136Y-11945226D01*
X15765210Y-11937918D01*
X15768270Y-11934492D01*
X15771539Y-11930291D01*
X15775333Y-11925116D01*
X15778315Y-11920837D01*
X15782068Y-11915515D01*
X15785026Y-11912079D01*
X15787700Y-11910133D01*
X15790601Y-11909281D01*
X15793451Y-11909123D01*
X15798685Y-11910323D01*
X15802906Y-11913557D01*
X15805594Y-11918280D01*
X15806291Y-11922614D01*
X15805272Y-11927411D01*
X15802407Y-11933395D01*
X15797985Y-11940217D01*
X15792293Y-11947529D01*
X15785620Y-11954983D01*
X15778253Y-11962232D01*
X15770482Y-11968927D01*
X15763837Y-11973878D01*
X15748217Y-11983198D01*
X15731865Y-11990092D01*
X15714467Y-11994677D01*
X15703140Y-11996397D01*
X15696525Y-11997098D01*
X15691376Y-11997457D01*
X15686718Y-11997471D01*
X15681578Y-11997137D01*
X15674983Y-11996451D01*
X15673575Y-11996291D01*
X15655974Y-11992977D01*
X15638985Y-11987218D01*
X15622862Y-11979175D01*
X15607860Y-11969005D01*
X15594233Y-11956869D01*
X15582236Y-11942926D01*
X15577475Y-11936161D01*
X15573649Y-11929793D01*
X15571602Y-11924719D01*
X15571237Y-11920388D01*
X15572461Y-11916251D01*
X15573651Y-11914062D01*
X15576914Y-11910493D01*
X15580895Y-11908984D01*
X15585819Y-11908730D01*
X15590138Y-11910156D01*
X15594275Y-11913524D01*
X15598655Y-11919095D01*
X15599614Y-11920522D01*
X15609539Y-11933737D01*
X15620546Y-11944740D01*
X15632990Y-11953844D01*
X15644783Y-11960239D01*
X15650998Y-11962915D01*
X15657433Y-11965250D01*
X15663498Y-11967073D01*
X15668599Y-11968214D01*
X15672146Y-11968506D01*
X15673019Y-11968337D01*
X15673745Y-11967585D01*
X15674265Y-11965739D01*
X15674607Y-11962450D01*
X15674803Y-11957368D01*
X15674883Y-11950145D01*
X15674889Y-11946694D01*
X15675375Y-11925910D01*
X15676897Y-11907102D01*
X15679553Y-11889792D01*
X15683438Y-11873502D01*
X15688649Y-11857753D01*
X15695284Y-11842068D01*
X15696585Y-11839321D01*
X15705702Y-11822525D01*
X15716832Y-11805604D01*
X15729515Y-11789115D01*
X15743294Y-11773615D01*
X15757711Y-11759661D01*
X15771199Y-11748626D01*
X15776401Y-11745217D01*
X15780052Y-11743870D01*
X15782127Y-11744587D01*
X15782638Y-11746639D01*
X15781905Y-11748288D01*
X15779846Y-11751750D01*
X15776669Y-11756702D01*
X15772584Y-11762824D01*
X15767801Y-11769795D01*
X15764099Y-11775078D01*
X15758240Y-11783480D01*
X15752287Y-11792214D01*
X15746613Y-11800718D01*
X15741591Y-11808430D01*
X15737596Y-11814788D01*
X15736428Y-11816726D01*
X15731757Y-11824896D01*
X15727237Y-11833333D01*
X15723019Y-11841695D01*
X15719257Y-11849641D01*
X15716104Y-11856831D01*
X15713711Y-11862924D01*
X15712233Y-11867579D01*
X15711821Y-11870455D01*
X15712056Y-11871113D01*
X15713898Y-11871436D01*
X15717729Y-11871139D01*
X15723012Y-11870321D01*
X15729209Y-11869085D01*
X15735783Y-11867533D01*
X15742197Y-11865765D01*
X15745004Y-11864888D01*
X15761956Y-11858146D01*
X15776976Y-11849624D01*
X15790064Y-11839320D01*
X15801224Y-11827233D01*
X15810456Y-11813360D01*
X15817763Y-11797698D01*
X15823147Y-11780246D01*
X15825281Y-11769928D01*
X15826787Y-11757299D01*
X15827305Y-11742940D01*
X15826870Y-11727541D01*
X15825517Y-11711791D01*
X15823280Y-11696383D01*
X15821016Y-11685347D01*
X15818774Y-11675815D01*
X15809259Y-11683599D01*
X15804465Y-11687336D01*
X15799190Y-11691050D01*
X15793119Y-11694925D01*
X15785938Y-11699146D01*
X15777331Y-11703896D01*
X15766985Y-11709362D01*
X15754584Y-11715727D01*
X15753730Y-11716160D01*
X15739422Y-11723665D01*
X15727335Y-11730596D01*
X15717190Y-11737197D01*
X15708709Y-11743708D01*
X15701615Y-11750371D01*
X15695630Y-11757430D01*
X15690475Y-11765125D01*
X15685873Y-11773698D01*
X15684636Y-11776309D01*
X15679956Y-11789367D01*
X15677245Y-11803867D01*
X15676561Y-11819443D01*
X15676772Y-11824447D01*
X15677094Y-11832199D01*
X15676860Y-11837824D01*
X15675929Y-11841791D01*
X15674161Y-11844567D01*
X15671418Y-11846622D01*
X15669939Y-11847383D01*
X15664417Y-11848759D01*
X15659322Y-11847644D01*
X15655073Y-11844135D01*
X15654833Y-11843822D01*
X15652965Y-11839741D01*
X15651661Y-11833581D01*
X15650926Y-11825829D01*
X15650762Y-11816973D01*
X15651172Y-11807501D01*
X15652161Y-11797902D01*
X15653730Y-11788663D01*
X15654432Y-11785546D01*
X15659593Y-11769731D01*
X15667193Y-11754686D01*
X15677096Y-11740646D01*
X15685469Y-11731399D01*
X15690113Y-11726934D01*
X15694815Y-11722848D01*
X15699898Y-11718934D01*
X15705688Y-11714984D01*
X15712508Y-11710789D01*
X15720684Y-11706142D01*
X15730540Y-11700835D01*
X15742402Y-11694659D01*
X15744530Y-11693565D01*
X15756962Y-11687116D01*
X15767367Y-11681524D01*
X15776093Y-11676536D01*
X15783495Y-11671894D01*
X15789922Y-11667344D01*
X15795726Y-11662629D01*
X15801259Y-11657493D01*
X15806872Y-11651682D01*
X15812916Y-11644939D01*
X15815591Y-11641857D01*
X15818931Y-11638434D01*
X15821780Y-11636786D01*
X15824547Y-11636404D01*
X15827918Y-11636596D01*
G37*
D13*
%TO.C,R506*%
X14011580Y-10306360D02*
X14128420Y-10306360D01*
X14128420Y-10133640D02*
X14011580Y-10133640D01*
D12*
%TO.C,D409*%
X15525000Y-10485000D02*
X15525000Y-10755000D01*
X15715000Y-10409000D02*
X15715000Y-10755000D01*
D10*
X15644597Y-10339298D02*
X15620000Y-10370000D01*
X15594597Y-10339298D01*
X15644597Y-10339298D01*
G36*
X15644597Y-10339298D02*
G01*
X15620000Y-10370000D01*
X15594597Y-10339298D01*
X15644597Y-10339298D01*
G37*
%TO.C,J304*%
X12953860Y-11337500D02*
X14985860Y-11337500D01*
X12953860Y-12317500D02*
X12953860Y-11337500D01*
X14985860Y-11337500D02*
X14985860Y-12317500D01*
X14985860Y-12317500D02*
X12953860Y-12317500D01*
X12906383Y-11858037D02*
X12875680Y-11883440D01*
X12875680Y-11833440D01*
X12906383Y-11858037D01*
G36*
X12906383Y-11858037D02*
G01*
X12875680Y-11883440D01*
X12875680Y-11833440D01*
X12906383Y-11858037D01*
G37*
D12*
%TO.C,R504*%
X12396200Y-9672500D02*
X12503800Y-9672500D01*
%TO.C,C307*%
X13260000Y-8130000D02*
X13260000Y-8270000D01*
%TO.C,C304*%
X13160000Y-7417500D02*
X13160000Y-7522500D01*
%TO.C,D408*%
X15015250Y-10465000D02*
X15361250Y-10465000D01*
X15091250Y-10655000D02*
X15361250Y-10655000D01*
D10*
X14976250Y-10560000D02*
X14945548Y-10585403D01*
X14945548Y-10535403D01*
X14976250Y-10560000D01*
G36*
X14976250Y-10560000D02*
G01*
X14945548Y-10585403D01*
X14945548Y-10535403D01*
X14976250Y-10560000D01*
G37*
D12*
%TO.C,D403*%
X13156658Y-10483497D02*
X13156658Y-10753497D01*
X13346658Y-10407497D02*
X13346658Y-10753497D01*
D10*
X13276255Y-10337795D02*
X13251658Y-10368497D01*
X13226255Y-10337795D01*
X13276255Y-10337795D01*
G36*
X13276255Y-10337795D02*
G01*
X13251658Y-10368497D01*
X13226255Y-10337795D01*
X13276255Y-10337795D01*
G37*
D12*
%TO.C,R304*%
X12763800Y-7250000D02*
X12656200Y-7250000D01*
%TO.C,C308*%
X12342500Y-7920000D02*
X12447500Y-7920000D01*
D13*
%TO.C,R511*%
X15171580Y-10306360D02*
X15288420Y-10306360D01*
X15288420Y-10133640D02*
X15171580Y-10133640D01*
D12*
%TO.C,R510*%
X14070000Y-9256200D02*
X14070000Y-9363800D01*
D14*
%TO.C,J303*%
X13944500Y-7957000D02*
X14082500Y-7957000D01*
X13944500Y-8095000D02*
X13944500Y-7957000D01*
X13944500Y-8222000D02*
X13944500Y-8741000D01*
X13944500Y-8222000D02*
X14209500Y-8222000D01*
X13944500Y-8741000D02*
X14474500Y-8741000D01*
X14209500Y-7957000D02*
X14474500Y-7957000D01*
X14209500Y-8222000D02*
X14209500Y-7957000D01*
X14474500Y-7957000D02*
X14474500Y-8741000D01*
%TO.C,TP601*%
X13650000Y-8820000D02*
X13890000Y-8820000D01*
X13650000Y-9060000D02*
X13650000Y-8820000D01*
X13890000Y-8820000D02*
X13890000Y-9060000D01*
X13890000Y-9060000D02*
X13650000Y-9060000D01*
%TO.C,D301*%
X13555000Y-8281000D02*
X13555000Y-8015000D01*
X13555000Y-8281000D02*
X13725000Y-8281000D01*
X13725000Y-8281000D02*
X13725000Y-8015000D01*
D10*
X13665774Y-8342779D02*
X13615774Y-8342779D01*
X13640371Y-8312077D01*
X13665774Y-8342779D01*
G36*
X13665774Y-8342779D02*
G01*
X13615774Y-8342779D01*
X13640371Y-8312077D01*
X13665774Y-8342779D01*
G37*
D12*
%TO.C,D402*%
X12639000Y-10465000D02*
X12985000Y-10465000D01*
X12715000Y-10655000D02*
X12985000Y-10655000D01*
D10*
X12600000Y-10560000D02*
X12569298Y-10585403D01*
X12569298Y-10535403D01*
X12600000Y-10560000D01*
G36*
X12600000Y-10560000D02*
G01*
X12569298Y-10585403D01*
X12569298Y-10535403D01*
X12600000Y-10560000D01*
G37*
D12*
%TO.C,C309*%
X13035000Y-8395000D02*
X13035000Y-8510000D01*
X13035000Y-8925000D02*
X13035000Y-8810000D01*
X13450000Y-8395000D02*
X13035000Y-8395000D01*
X13450000Y-8925000D02*
X13035000Y-8925000D01*
X13565000Y-8510000D02*
X13450000Y-8395000D01*
X13565000Y-8810000D02*
X13450000Y-8925000D01*
D10*
X13720702Y-8684597D02*
X13690000Y-8660000D01*
X13720702Y-8634597D01*
X13720702Y-8684597D01*
G36*
X13720702Y-8684597D02*
G01*
X13690000Y-8660000D01*
X13720702Y-8634597D01*
X13720702Y-8684597D01*
G37*
D12*
%TO.C,R515*%
X15180000Y-9256200D02*
X15180000Y-9363800D01*
%TO.C,R503*%
X12426200Y-10070000D02*
X12533800Y-10070000D01*
%TO.C,C303*%
X13160000Y-7227500D02*
X13160000Y-7332500D01*
%TO.C,C501*%
X12855320Y-10000000D02*
X12855320Y-9895000D01*
%TO.C,D406*%
X14355000Y-10485000D02*
X14355000Y-10755000D01*
X14545000Y-10409000D02*
X14545000Y-10755000D01*
D10*
X14474597Y-10339298D02*
X14450000Y-10370000D01*
X14424597Y-10339298D01*
X14474597Y-10339298D01*
G36*
X14474597Y-10339298D02*
G01*
X14450000Y-10370000D01*
X14424597Y-10339298D01*
X14474597Y-10339298D01*
G37*
D13*
%TO.C,U503*%
X15127320Y-9793830D02*
X15307320Y-9793830D01*
X15307320Y-9466170D02*
X15127320Y-9466170D01*
X15316380Y-9666326D02*
X15316380Y-9593674D01*
D10*
X15067858Y-9490477D02*
X15042454Y-9459775D01*
X15092454Y-9459775D01*
X15067858Y-9490477D01*
G36*
X15067858Y-9490477D02*
G01*
X15042454Y-9459775D01*
X15092454Y-9459775D01*
X15067858Y-9490477D01*
G37*
%TD*%
M02*
