M48
; DRILL file {KiCad 9.0.6} date 2026-08-09T07:51:20+0800
; FORMAT={-:-/ absolute / metric / decimal}
; #@! TF.CreationDate,2026-08-09T07:51:20+08:00
; #@! TF.GenerationSoftware,Kicad,Pcbnew,9.0.6
; #@! TF.FileFunction,Plated,1,4,PTH
FMAT,2
METRIC
; #@! TA.AperFunction,Plated,PTH,ViaDrill
T1C0.300
; #@! TA.AperFunction,Plated,PTH,ComponentDrill
T2C1.000
; #@! TA.AperFunction,Plated,PTH,ComponentDrill
T3C1.300
%
G90
G05
T1
X124.0Y-81.1
X124.4Y-71.5
X124.559Y-94.725
X125.0Y-70.6
X125.0Y-76.5
X125.059Y-108.725
X125.3Y-83.6
X125.6Y-71.5
X126.3Y-96.475
X126.4Y-81.1
X126.4Y-86.6
X127.4Y-91.8
X127.4Y-112.366
X127.7Y-83.6
X128.7Y-81.1
X128.7Y-86.6
X128.8Y-70.9
X129.3Y-71.8
X129.8Y-70.9
X130.0Y-83.6
X130.3Y-79.3
X131.8Y-94.51
X131.8Y-97.71
X132.557Y-108.9
X133.5Y-69.2
X133.6Y-71.5
X134.2Y-70.3
X134.4Y-88.1
X134.4Y-111.7
X134.8Y-69.2
X134.9Y-71.5
X135.4Y-70.3
X136.0Y-69.2
X136.1Y-71.5
X136.3Y-108.9
X136.6Y-94.725
X136.7Y-70.3
X137.3Y-69.2
X137.4Y-71.5
X138.2Y-96.335
X139.7Y-112.325
X139.75Y-91.95
X141.1Y-70.65
X141.4Y-71.65
X142.8Y-74.25
X142.8Y-76.45
X143.8Y-94.6
X143.8Y-97.8
X144.0Y-74.25
X144.5Y-68.95
X144.5Y-108.925
X145.1Y-69.75
X145.8Y-87.802
X145.8Y-88.9
X147.1Y-75.787
X147.1Y-86.5
X147.1Y-89.7
X147.5Y-74.25
X147.5Y-81.7
X148.259Y-108.925
X148.3Y-94.725
X149.1Y-72.95
X149.835Y-96.3
X150.1Y-72.95
X150.1Y-73.85
X150.4Y-77.95
X151.1Y-74.05
X151.3Y-112.3
X151.9Y-83.05
X152.5Y-77.85
X152.6Y-73.85
X152.6Y-74.85
X153.4Y-87.1
X153.7Y-84.8
X154.8Y-87.1
X155.4Y-81.7
X155.4Y-94.6
X155.4Y-97.8
X155.5Y-74.95
X155.6Y-77.388
X155.6Y-78.188
X156.2Y-108.9
X156.5Y-75.1
X157.6Y-75.1
T2
X120.0Y-87.2
X120.0Y-89.74
X120.0Y-92.28
X120.0Y-94.82
X120.0Y-97.36
X120.0Y-99.9
X120.0Y-102.44
X120.0Y-104.98
X120.0Y-107.52
X120.0Y-110.06
X140.825Y-80.95
X140.825Y-83.49
X140.825Y-86.03
X143.365Y-80.95
X143.365Y-83.49
X143.365Y-86.03
X160.0Y-87.2
X160.0Y-89.74
X160.0Y-92.28
X160.0Y-94.82
X160.0Y-97.36
X160.0Y-99.9
X160.0Y-102.44
X160.0Y-104.98
X160.0Y-107.52
X160.0Y-110.06
T3
X132.079Y-118.575
X137.159Y-118.575
X142.239Y-118.575
X147.319Y-118.575
M30
